<?xml version="1.0" encoding="UTF-8" standalone="no"?>
<!DOCTYPE svg PUBLIC "-//W3C//DTD SVG 1.1//EN" "http://www.w3.org/Graphics/SVG/1.1/DTD/svg11.dtd">
<svg width="100%" height="100%" viewBox="0 0 504 792" version="1.1" xmlns="http://www.w3.org/2000/svg" xmlns:xlink="http://www.w3.org/1999/xlink" xml:space="preserve" xmlns:serif="http://www.serif.com/" style="fill-rule:evenodd;clip-rule:evenodd;stroke-linecap:round;stroke-linejoin:round;stroke-miterlimit:1.5;">
    <g transform="matrix(0.32,0,0,0.32,0,0)">
        <rect id="Border" x="0" y="0" width="1575" height="2475" style="fill:none;stroke:rgb(0,0,255);stroke-width:8.33px;"/>
        <g transform="matrix(1,0,0,1,484.742,252.916)">
            <g id="BottomRightCorner">
                <g id="KinzieWinsteadTNR">
                    <path d="M280.785,2067.01L304.076,2096.16C307.364,2100.26 310.196,2103.04 312.572,2104.51C314.298,2105.55 316.121,2106.07 318.041,2106.07L318.041,2107.88L283.568,2107.88L283.568,2106.07C285.749,2105.87 287.157,2105.53 287.792,2105.04C288.427,2104.55 288.744,2103.95 288.744,2103.24C288.744,2101.87 287.247,2099.3 284.252,2095.52L269.066,2076.43L266.625,2078.48L266.625,2096.55C266.625,2100 266.82,2102.15 267.211,2102.99C267.602,2103.84 268.35,2104.56 269.457,2105.16C270.564,2105.77 272.338,2106.07 274.779,2106.07L274.779,2107.88L241.381,2107.88L241.381,2106.07L243.578,2106.07C245.499,2106.07 247.045,2105.73 248.217,2105.04C249.063,2104.59 249.714,2103.81 250.17,2102.7C250.528,2101.92 250.707,2099.87 250.707,2096.55L250.707,2052.99C250.707,2049.61 250.528,2047.49 250.17,2046.64C249.812,2045.8 249.088,2045.06 247.997,2044.42C246.907,2043.79 245.434,2043.47 243.578,2043.47L241.381,2043.47L241.381,2041.66L274.34,2041.66L274.34,2043.47C272.094,2043.47 270.385,2043.8 269.213,2044.45C268.367,2044.9 267.699,2045.67 267.211,2046.74C266.82,2047.56 266.625,2049.64 266.625,2052.99L266.625,2073.6L291.186,2053.72C294.604,2050.96 296.313,2048.74 296.313,2047.08C296.313,2045.85 295.613,2044.87 294.213,2044.15C293.497,2043.8 291.723,2043.57 288.891,2043.47L288.891,2041.66L314.721,2041.66L314.721,2043.47C312.41,2043.63 310.595,2044.05 309.276,2044.72C307.958,2045.38 304.923,2047.64 300.17,2051.48L280.785,2067.01Z" style="fill-rule:nonzero;"/>
                    <path d="M331.274,2040.1C333.389,2040.1 335.18,2040.84 336.645,2042.32C338.109,2043.8 338.842,2045.59 338.842,2047.67C338.842,2049.75 338.101,2051.53 336.62,2052.99C335.139,2054.46 333.357,2055.19 331.274,2055.19C329.19,2055.19 327.416,2054.46 325.951,2052.99C324.486,2051.53 323.754,2049.75 323.754,2047.67C323.754,2045.59 324.486,2043.8 325.951,2042.32C327.416,2040.84 329.19,2040.1 331.274,2040.1ZM338.109,2062.22L338.109,2098.4C338.109,2101.62 338.484,2103.68 339.232,2104.58C339.981,2105.47 341.446,2105.99 343.627,2106.12L343.627,2107.88L318.969,2107.88L318.969,2106.12C320.987,2106.05 322.484,2105.47 323.461,2104.36C324.112,2103.61 324.438,2101.62 324.438,2098.4L324.438,2071.74C324.438,2068.52 324.063,2066.46 323.315,2065.57C322.566,2064.67 321.117,2064.16 318.969,2064.03L318.969,2062.22L338.109,2062.22Z" style="fill-rule:nonzero;"/>
                    <path d="M366.723,2062.22L366.723,2068.13C369.066,2065.59 371.313,2063.74 373.461,2062.59C375.609,2061.43 377.921,2060.85 380.395,2060.85C383.357,2060.85 385.815,2061.68 387.768,2063.32C389.721,2064.96 391.023,2067.01 391.674,2069.45C392.195,2071.3 392.455,2074.87 392.455,2080.14L392.455,2097.91C392.455,2101.43 392.773,2103.62 393.407,2104.48C394.042,2105.34 395.369,2105.89 397.387,2106.12L397.387,2107.88L374.291,2107.88L374.291,2106.12C376.016,2105.89 377.253,2105.17 378.002,2103.97C378.523,2103.16 378.783,2101.14 378.783,2097.91L378.783,2077.6C378.783,2073.86 378.637,2071.5 378.344,2070.52C378.051,2069.55 377.554,2068.79 376.855,2068.25C376.155,2067.71 375.382,2067.45 374.535,2067.45C371.736,2067.45 369.132,2069.45 366.723,2073.45L366.723,2097.91C366.723,2101.33 367.04,2103.5 367.675,2104.41C368.31,2105.32 369.49,2105.89 371.215,2106.12L371.215,2107.88L348.119,2107.88L348.119,2106.12C350.04,2105.92 351.407,2105.3 352.221,2104.26C352.774,2103.55 353.051,2101.43 353.051,2097.91L353.051,2072.13C353.051,2068.68 352.733,2066.53 352.099,2065.69C351.464,2064.84 350.137,2064.29 348.119,2064.03L348.119,2062.22L366.723,2062.22Z" style="fill-rule:nonzero;"/>
                    <path d="M441.088,2107.88L401.342,2107.88L401.342,2106.8L426.44,2065.2L419.115,2065.2C415.958,2065.2 413.695,2065.48 412.328,2066.05C410.961,2066.62 409.854,2067.53 409.008,2068.79C408.162,2070.04 407.283,2072.28 406.371,2075.5L404.662,2075.5L404.662,2062.22L443.09,2062.22L443.09,2063.54L418.188,2104.75L421.313,2104.75C427.563,2104.75 432.071,2103.86 434.838,2102.06C437.605,2100.27 439.688,2097 441.088,2092.25L442.455,2092.25L441.088,2107.88Z" style="fill-rule:nonzero;"/>
                    <path d="M459.057,2040.1C461.173,2040.1 462.963,2040.84 464.428,2042.32C465.893,2043.8 466.625,2045.59 466.625,2047.67C466.625,2049.75 465.885,2051.53 464.403,2052.99C462.922,2054.46 461.14,2055.19 459.057,2055.19C456.973,2055.19 455.199,2054.46 453.734,2052.99C452.27,2051.53 451.537,2049.75 451.537,2047.67C451.537,2045.59 452.27,2043.8 453.734,2042.32C455.199,2040.84 456.973,2040.1 459.057,2040.1ZM465.893,2062.22L465.893,2098.4C465.893,2101.62 466.267,2103.68 467.016,2104.58C467.764,2105.47 469.229,2105.99 471.41,2106.12L471.41,2107.88L446.752,2107.88L446.752,2106.12C448.77,2106.05 450.268,2105.47 451.244,2104.36C451.895,2103.61 452.221,2101.62 452.221,2098.4L452.221,2071.74C452.221,2068.52 451.846,2066.46 451.098,2065.57C450.349,2064.67 448.9,2064.16 446.752,2064.03L446.752,2062.22L465.893,2062.22Z" style="fill-rule:nonzero;"/>
                    <path d="M514.525,2083.41L489.477,2083.41C489.77,2089.47 491.381,2094.25 494.311,2097.77C496.557,2100.47 499.259,2101.82 502.416,2101.82C504.369,2101.82 506.143,2101.28 507.738,2100.18C509.333,2099.09 511.042,2097.13 512.865,2094.3L514.525,2095.38C512.051,2100.42 509.317,2103.99 506.322,2106.09C503.328,2108.19 499.861,2109.24 495.922,2109.24C489.151,2109.24 484.024,2106.64 480.541,2101.43C477.742,2097.23 476.342,2092.02 476.342,2085.8C476.342,2078.19 478.401,2072.12 482.519,2067.62C486.636,2063.11 491.462,2060.85 496.996,2060.85C501.619,2060.85 505.631,2062.75 509.032,2066.54C512.434,2070.33 514.265,2075.96 514.525,2083.41ZM502.514,2080.14C502.514,2074.9 502.229,2071.3 501.659,2069.35C501.09,2067.4 500.203,2065.91 498.998,2064.91C498.315,2064.32 497.403,2064.03 496.264,2064.03C494.571,2064.03 493.188,2064.86 492.113,2066.52C490.193,2069.41 489.232,2073.39 489.232,2078.43L489.232,2080.14L502.514,2080.14Z" style="fill-rule:nonzero;"/>
                    <path d="M639.184,2041.66L639.184,2043.47C637.947,2043.57 636.905,2043.91 636.059,2044.5C635.212,2045.08 634.464,2045.98 633.813,2047.18C633.617,2047.57 632.592,2050.1 630.736,2054.75L609.984,2109.39L608.08,2109.39L591.674,2066.71L573.607,2109.39L571.801,2109.39L550.024,2055.34C547.81,2049.9 546.264,2046.61 545.385,2045.47C544.506,2044.33 543.025,2043.67 540.941,2043.47L540.941,2041.66L569.652,2041.66L569.652,2043.47C567.341,2043.54 565.803,2043.89 565.038,2044.52C564.273,2045.15 563.891,2045.94 563.891,2046.89C563.891,2048.13 564.688,2050.75 566.283,2054.75L579.272,2086.88L589.672,2061.78L586.938,2054.75C585.44,2050.91 584.285,2048.35 583.471,2047.06C582.657,2045.77 581.721,2044.85 580.663,2044.3C579.605,2043.75 578.051,2043.47 576,2043.47L576,2041.66L608.08,2041.66L608.08,2043.47C605.834,2043.5 604.223,2043.68 603.246,2044.01C602.563,2044.24 602.025,2044.62 601.635,2045.15C601.244,2045.69 601.049,2046.3 601.049,2046.99C601.049,2047.74 601.781,2050.03 603.246,2053.87L615.307,2085.22L626.098,2056.85C627.237,2053.92 627.937,2051.92 628.197,2050.84C628.458,2049.77 628.588,2048.78 628.588,2047.87C628.588,2046.53 628.132,2045.48 627.221,2044.72C626.309,2043.95 624.568,2043.54 621.996,2043.47L621.996,2041.66L639.184,2041.66Z" style="fill-rule:nonzero;"/>
                    <path d="M652.611,2040.1C654.727,2040.1 656.518,2040.84 657.982,2042.32C659.447,2043.8 660.18,2045.59 660.18,2047.67C660.18,2049.75 659.439,2051.53 657.958,2052.99C656.477,2054.46 654.695,2055.19 652.611,2055.19C650.528,2055.19 648.754,2054.46 647.289,2052.99C645.824,2051.53 645.092,2049.75 645.092,2047.67C645.092,2045.59 645.824,2043.8 647.289,2042.32C648.754,2040.84 650.528,2040.1 652.611,2040.1ZM659.447,2062.22L659.447,2098.4C659.447,2101.62 659.822,2103.68 660.57,2104.58C661.319,2105.47 662.784,2105.99 664.965,2106.12L664.965,2107.88L640.307,2107.88L640.307,2106.12C642.325,2106.05 643.822,2105.47 644.799,2104.36C645.45,2103.61 645.775,2101.62 645.775,2098.4L645.775,2071.74C645.775,2068.52 645.401,2066.46 644.652,2065.57C643.904,2064.67 642.455,2064.16 640.307,2064.03L640.307,2062.22L659.447,2062.22Z" style="fill-rule:nonzero;"/>
                    <path d="M688.061,2062.22L688.061,2068.13C690.404,2065.59 692.65,2063.74 694.799,2062.59C696.947,2061.43 699.259,2060.85 701.732,2060.85C704.695,2060.85 707.152,2061.68 709.106,2063.32C711.059,2064.96 712.361,2067.01 713.012,2069.45C713.533,2071.3 713.793,2074.87 713.793,2080.14L713.793,2097.91C713.793,2101.43 714.11,2103.62 714.745,2104.48C715.38,2105.34 716.706,2105.89 718.725,2106.12L718.725,2107.88L695.629,2107.88L695.629,2106.12C697.354,2105.89 698.591,2105.17 699.34,2103.97C699.861,2103.16 700.121,2101.14 700.121,2097.91L700.121,2077.6C700.121,2073.86 699.975,2071.5 699.682,2070.52C699.389,2069.55 698.892,2068.79 698.192,2068.25C697.493,2067.71 696.719,2067.45 695.873,2067.45C693.074,2067.45 690.469,2069.45 688.061,2073.45L688.061,2097.91C688.061,2101.33 688.378,2103.5 689.013,2104.41C689.648,2105.32 690.828,2105.89 692.553,2106.12L692.553,2107.88L669.457,2107.88L669.457,2106.12C671.378,2105.92 672.745,2105.3 673.559,2104.26C674.112,2103.55 674.389,2101.43 674.389,2097.91L674.389,2072.13C674.389,2068.68 674.071,2066.53 673.437,2065.69C672.802,2064.84 671.475,2064.29 669.457,2064.03L669.457,2062.22L688.061,2062.22Z" style="fill-rule:nonzero;"/>
                    <path d="M753.881,2060.95L754.613,2076.53L752.953,2076.53C750.968,2071.91 748.909,2068.75 746.776,2067.05C744.644,2065.36 742.52,2064.52 740.404,2064.52C739.07,2064.52 737.93,2064.96 736.986,2065.86C736.042,2066.75 735.57,2067.79 735.57,2068.96C735.57,2069.84 735.896,2070.68 736.547,2071.5C737.589,2072.83 740.502,2075.12 745.287,2078.36C750.072,2081.6 753.222,2084.35 754.735,2086.61C756.249,2088.87 757.006,2091.4 757.006,2094.2C757.006,2096.74 756.371,2099.23 755.102,2101.67C753.832,2104.12 752.042,2105.99 749.731,2107.29C747.419,2108.59 744.864,2109.24 742.065,2109.24C739.884,2109.24 736.97,2108.56 733.324,2107.19C732.348,2106.83 731.68,2106.65 731.322,2106.65C730.248,2106.65 729.353,2107.47 728.637,2109.1L727.025,2109.1L726.244,2092.69L727.904,2092.69C729.369,2096.99 731.379,2100.21 733.935,2102.36C736.49,2104.51 738.907,2105.58 741.186,2105.58C742.748,2105.58 744.026,2105.1 745.019,2104.14C746.011,2103.18 746.508,2102.02 746.508,2100.65C746.508,2099.09 746.02,2097.74 745.043,2096.6C744.066,2095.46 741.885,2093.73 738.5,2091.42C733.52,2087.97 730.297,2085.33 728.832,2083.51C726.684,2080.84 725.609,2077.89 725.609,2074.67C725.609,2071.16 726.822,2067.97 729.247,2065.13C731.672,2062.28 735.18,2060.85 739.77,2060.85C742.244,2060.85 744.636,2061.46 746.947,2062.66C747.826,2063.15 748.542,2063.39 749.096,2063.39C749.682,2063.39 750.154,2063.27 750.512,2063.03C750.87,2062.78 751.44,2062.09 752.221,2060.95L753.881,2060.95Z" style="fill-rule:nonzero;"/>
                    <path d="M782.055,2045.52L782.055,2062.22L792.895,2062.22L792.895,2067.05L782.055,2067.05L782.055,2095.23C782.055,2097.87 782.177,2099.57 782.421,2100.33C782.665,2101.1 783.096,2101.71 783.715,2102.19C784.333,2102.66 784.903,2102.89 785.424,2102.89C787.54,2102.89 789.542,2101.28 791.43,2098.06L792.895,2099.14C790.258,2105.39 785.977,2108.51 780.053,2108.51C777.156,2108.51 774.706,2107.7 772.704,2106.09C770.702,2104.48 769.425,2102.68 768.871,2100.7C768.546,2099.59 768.383,2096.6 768.383,2091.71L768.383,2067.05L762.426,2067.05L762.426,2065.35C766.527,2062.45 770.019,2059.41 772.899,2056.22C775.78,2053.03 778.295,2049.46 780.443,2045.52L782.055,2045.52Z" style="fill-rule:nonzero;"/>
                    <path d="M835.912,2083.41L810.863,2083.41C811.156,2089.47 812.768,2094.25 815.697,2097.77C817.943,2100.47 820.645,2101.82 823.803,2101.82C825.756,2101.82 827.53,2101.28 829.125,2100.18C830.72,2099.09 832.429,2097.13 834.252,2094.3L835.912,2095.38C833.438,2100.42 830.704,2103.99 827.709,2106.09C824.714,2108.19 821.247,2109.24 817.309,2109.24C810.538,2109.24 805.411,2106.64 801.928,2101.43C799.128,2097.23 797.729,2092.02 797.729,2085.8C797.729,2078.19 799.787,2072.12 803.905,2067.62C808.023,2063.11 812.849,2060.85 818.383,2060.85C823.005,2060.85 827.017,2062.75 830.419,2066.54C833.821,2070.33 835.652,2075.96 835.912,2083.41ZM823.9,2080.14C823.9,2074.9 823.616,2071.3 823.046,2069.35C822.476,2067.4 821.589,2065.91 820.385,2064.91C819.701,2064.32 818.79,2064.03 817.65,2064.03C815.958,2064.03 814.574,2064.86 813.5,2066.52C811.579,2069.41 810.619,2073.39 810.619,2078.43L810.619,2080.14L823.9,2080.14Z" style="fill-rule:nonzero;"/>
                    <path d="M866.82,2101.14C861.254,2106.05 856.257,2108.51 851.83,2108.51C849.226,2108.51 847.061,2107.66 845.336,2105.95C843.611,2104.24 842.748,2102.1 842.748,2099.53C842.748,2096.04 844.246,2092.91 847.24,2090.13C850.235,2087.34 856.762,2083.64 866.82,2079.02L866.82,2074.43C866.82,2070.98 866.633,2068.8 866.259,2067.91C865.885,2067.01 865.176,2066.23 864.135,2065.57C863.093,2064.9 861.921,2064.56 860.619,2064.56C858.503,2064.56 856.762,2065.04 855.395,2065.98C854.548,2066.57 854.125,2067.25 854.125,2068.03C854.125,2068.72 854.581,2069.56 855.492,2070.57C856.729,2071.97 857.348,2073.32 857.348,2074.62C857.348,2076.22 856.754,2077.58 855.565,2078.7C854.377,2079.82 852.823,2080.39 850.902,2080.39C848.852,2080.39 847.135,2079.77 845.751,2078.53C844.368,2077.29 843.676,2075.84 843.676,2074.18C843.676,2071.84 844.604,2069.6 846.459,2067.47C848.315,2065.34 850.902,2063.7 854.223,2062.56C857.543,2061.42 860.994,2060.85 864.574,2060.85C868.904,2060.85 872.33,2061.77 874.853,2063.61C877.375,2065.45 879.011,2067.45 879.76,2069.59C880.216,2070.96 880.443,2074.1 880.443,2079.02L880.443,2096.74C880.443,2098.82 880.525,2100.14 880.688,2100.67C880.85,2101.21 881.094,2101.61 881.42,2101.87C881.746,2102.13 882.12,2102.26 882.543,2102.26C883.389,2102.26 884.252,2101.66 885.131,2100.45L886.596,2101.62C884.968,2104.03 883.284,2105.78 881.542,2106.87C879.801,2107.96 877.823,2108.51 875.609,2108.51C873.005,2108.51 870.971,2107.9 869.506,2106.68C868.041,2105.46 867.146,2103.61 866.82,2101.14ZM866.82,2097.57L866.82,2082.29C862.882,2084.6 859.952,2087.07 858.031,2089.71C856.762,2091.47 856.127,2093.24 856.127,2095.03C856.127,2096.53 856.664,2097.85 857.738,2098.99C858.552,2099.87 859.691,2100.31 861.156,2100.31C862.784,2100.31 864.672,2099.39 866.82,2097.57Z" style="fill-rule:nonzero;"/>
                    <path d="M936.01,2041.66L936.01,2094.2C936.01,2097.75 936.107,2099.85 936.303,2100.5C936.563,2101.58 937.06,2102.37 937.792,2102.89C938.524,2103.41 939.802,2103.74 941.625,2103.87L941.625,2105.48L922.338,2109.24L922.338,2102.02C920.027,2104.82 917.968,2106.72 916.161,2107.73C914.355,2108.74 912.312,2109.24 910.033,2109.24C904.206,2109.24 899.6,2106.64 896.215,2101.43C893.481,2097.2 892.113,2092.01 892.113,2085.85C892.113,2080.94 892.96,2076.53 894.652,2072.64C896.345,2068.76 898.664,2065.82 901.61,2063.83C904.556,2061.85 907.722,2060.85 911.107,2060.85C913.288,2060.85 915.225,2061.28 916.918,2062.12C918.611,2062.97 920.417,2064.45 922.338,2066.57L922.338,2052.8C922.338,2049.31 922.191,2047.21 921.899,2046.5C921.508,2045.55 920.922,2044.85 920.141,2044.4C919.359,2043.94 917.895,2043.72 915.746,2043.72L915.746,2041.66L936.01,2041.66ZM922.338,2072.62C919.929,2068 916.983,2065.69 913.5,2065.69C912.296,2065.69 911.303,2066.01 910.522,2066.66C909.317,2067.67 908.332,2069.45 907.567,2071.99C906.802,2074.53 906.42,2078.41 906.42,2083.66C906.42,2089.42 906.843,2093.68 907.69,2096.45C908.536,2099.22 909.691,2101.22 911.156,2102.45C911.905,2103.07 912.93,2103.38 914.232,2103.38C917.097,2103.38 919.799,2101.14 922.338,2096.64L922.338,2072.62Z" style="fill-rule:nonzero;"/>
                </g>
            </g>
        </g>
    </g>
</svg>
