999
dxfrw 0.6.3
  0
SECTION
  2
HEADER
  9
$ACADVER
  1
AC1021
  9
$DWGCODEPAGE
  3
ANSI_1252
  9
$INSBASE
 10
0
 20
0
 30
0
  9
$EXTMIN
 10
1836.200735429766
 20
1057.39721559954
 30
0
  9
$EXTMAX
 10
7198.387264427985
 20
2623.500727854315
 30
0
  9
$LIMMIN
 10
0
 20
0
  9
$LIMMAX
 10
420
 20
297
  9
$ORTHOMODE
 70
    1
  9
$REGENMODE
 70
    1
  9
$FILLMODE
 70
    1
  9
$QTEXTMODE
 70
    0
  9
$MIRRTEXT
 70
    0
  9
$LTSCALE
 40
1
  9
$ATTMODE
 70
    1
  9
$TEXTSIZE
 40
2.5
  9
$TRACEWID
 40
1
  9
$TEXTSTYLE
  7
Standard
  9
$CLAYER
  8
0
  9
$CELTYPE
  6
ByLayer
  9
$CECOLOR
 62
  256
  9
$CELTSCALE
 40
1
  9
$DISPSILH
 70
    0
  9
$DIMSCALE
 40
1
  9
$DIMASZ
 40
2.5
  9
$DIMEXO
 40
0.625
  9
$DIMDLI
 40
3.75
  9
$DIMRND
 40
0
  9
$DIMDLE
 40
0
  9
$DIMEXE
 40
1.25
  9
$DIMTP
 40
0
  9
$DIMTM
 40
0
  9
$DIMTXT
 40
2.5
  9
$DIMCEN
 40
2.5
  9
$DIMTSZ
 40
0
  9
$DIMTOL
 70
    0
  9
$DIMLIM
 70
    0
  9
$DIMTIH
 70
    0
  9
$DIMTOH
 70
    0
  9
$DIMSE1
 70
    0
  9
$DIMSE2
 70
    0
  9
$DIMTAD
 70
    1
  9
$DIMZIN
 70
    8
  9
$DIMBLK
  1

  9
$DIMASO
 70
    1
  9
$DIMSHO
 70
    1
  9
$DIMPOST
  1

  9
$DIMAPOST
  1

  9
$DIMALT
 70
    0
  9
$DIMALTD
 70
    3
  9
$DIMALTF
 40
0.03937007874016
  9
$DIMLFAC
 40
1
  9
$DIMTOFL
 70
    1
  9
$DIMTVP
 40
0
  9
$DIMTIX
 70
    0
  9
$DIMSOXD
 70
    0
  9
$DIMSAH
 70
    0
  9
$DIMBLK1
  1

  9
$DIMBLK2
  1

  9
$DIMSTYLE
  2
ISO-25
  9
$DIMCLRD
 70
    0
  9
$DIMCLRE
 70
    0
  9
$DIMCLRT
 70
    0
  9
$DIMTFAC
 40
1
  9
$DIMGAP
 40
0.625
  9
$DIMJUST
 70
    0
  9
$DIMSD1
 70
    0
  9
$DIMSD2
 70
    0
  9
$DIMTOLJ
 70
    0
  9
$DIMTZIN
 70
    8
  9
$DIMALTZ
 70
    0
  9
$DIMALTTZ
 70
    0
  9
$DIMUPT
 70
    0
  9
$DIMDEC
 70
    2
  9
$DIMTDEC
 70
    2
  9
$DIMALTU
 70
    2
  9
$DIMALTTD
 70
    3
  9
$DIMTXSTY
  7
Standard
  9
$DIMAUNIT
 70
    0
  9
$DIMADEC
 70
    0
  9
$DIMALTRND
 40
0
  9
$DIMAZIN
 70
    0
  9
$DIMDSEP
 70
   44
  9
$DIMATFIT
 70
    3
  9
$DIMFRAC
 70
    0
  9
$DIMLDRBLK
  1

  9
$DIMLUNIT
 70
    2
  9
$DIMLWD
 70
   -2
  9
$DIMLWE
 70
   -2
  9
$DIMTMOVE
 70
    0
  9
$DIMFXL
 40
1
  9
$DIMFXLON
 70
    0
  9
$DIMJOGANG
 40
0.7854
  9
$DIMTFILL
 70
    0
  9
$DIMTFILLCLR
 70
    0
  9
$DIMARCSYM
 70
    0
  9
$DIMLTYPE
  6

  9
$DIMLTEX1
  6

  9
$DIMLTEX2
  6

  9
$LUNITS
 70
    2
  9
$LUPREC
 70
    4
  9
$SKETCHINC
 40
1
  9
$FILLETRAD
 40
20
  9
$AUNITS
 70
    0
  9
$AUPREC
 70
    0
  9
$MENU
  1
.
  9
$ELEVATION
 40
0
  9
$PELEVATION
 40
0
  9
$THICKNESS
 40
0
  9
$LIMCHECK
 70
    0
  9
$CHAMFERA
 40
0
  9
$CHAMFERB
 40
0
  9
$CHAMFERC
 40
0
  9
$CHAMFERD
 40
0
  9
$SKPOLY
 70
    0
  9
$USRTIMER
 70
    1
  9
$ANGBASE
 50
0
  9
$ANGDIR
 70
    0
  9
$PDMODE
 70
    0
  9
$PDSIZE
 40
0
  9
$PLINEWID
 40
0
  9
$SPLFRAME
 70
    0
  9
$SPLINETYPE
 70
    6
  9
$SPLINESEGS
 70
    8
  9
$HANDSEED
  5
20000
  9
$SURFTAB1
 70
    6
  9
$SURFTAB2
 70
    6
  9
$SURFTYPE
 70
    6
  9
$SURFU
 70
    6
  9
$SURFV
 70
    6
  9
$UCSBASE
  2

  9
$UCSNAME
  2

  9
$UCSORG
 10
0
 20
0
 30
0
  9
$UCSXDIR
 10
1
 20
0
 30
0
  9
$UCSYDIR
 10
0
 20
1
 30
0
  9
$UCSORTHOREF
  2

  9
$UCSORTHOVIEW
 70
    0
  9
$UCSORGTOP
 10
0
 20
0
 30
0
  9
$UCSORGBOTTOM
 10
0
 20
0
 30
0
  9
$UCSORGLEFT
 10
0
 20
0
 30
0
  9
$UCSORGRIGHT
 10
0
 20
0
 30
0
  9
$UCSORGFRONT
 10
0
 20
0
 30
0
  9
$UCSORGBACK
 10
0
 20
0
 30
0
  9
$PUCSBASE
  2

  9
$PUCSNAME
  2

  9
$PUCSORG
 10
0
 20
0
 30
0
  9
$PUCSXDIR
 10
1
 20
0
 30
0
  9
$PUCSYDIR
 10
0
 20
1
 30
0
  9
$PUCSORTHOREF
  2

  9
$PUCSORTHOVIEW
 70
    0
  9
$PUCSORGTOP
 10
0
 20
0
 30
0
  9
$PUCSORGBOTTOM
 10
0
 20
0
 30
0
  9
$PUCSORGLEFT
 10
0
 20
0
 30
0
  9
$PUCSORGRIGHT
 10
0
 20
0
 30
0
  9
$PUCSORGFRONT
 10
0
 20
0
 30
0
  9
$PUCSORGBACK
 10
0
 20
0
 30
0
  9
$USERI1
 70
    0
  9
$USERI2
 70
    0
  9
$USERI3
 70
    0
  9
$USERI4
 70
    0
  9
$USERI5
 70
    0
  9
$USERR1
 40
0
  9
$USERR2
 40
0
  9
$USERR3
 40
0
  9
$USERR4
 40
0
  9
$USERR5
 40
0
  9
$WORLDVIEW
 70
    1
  9
$SHADEDGE
 70
    3
  9
$SHADEDIF
 70
   70
  9
$TILEMODE
 70
    1
  9
$MAXACTVP
 70
   64
  9
$PINSBASE
 10
0
 20
0
 30
0
  9
$PLIMCHECK
 70
    0
  9
$PEXTMIN
 10
25.69999999999999
 20
19.5
 30
0
  9
$PEXTMAX
 10
231.3
 20
175.5
 30
0
  9
$GRIDMODE
 70
    1
  9
$SNAPSTYLE
 70
    0
  9
$PLIMMIN
 10
-20
 20
-7.5
  9
$PLIMMAX
 10
277
 20
202.5
  9
$UNITMODE
 70
    0
  9
$VISRETAIN
 70
    1
  9
$PLINEGEN
 70
    0
  9
$PSLTSCALE
 70
    1
  9
$TREEDEPTH
 70
 3020
  9
$CMLSTYLE
  2
Standard
  9
$CMLJUST
 70
    0
  9
$CMLSCALE
 40
20
  9
$PROXYGRAPHICS
 70
    1
  9
$MEASUREMENT
 70
    1
  9
$CELWEIGHT
370
   -1
  9
$ENDCAPS
280
    0
  9
$JOINSTYLE
280
    0
  9
$LWDISPLAY
290
    0
  9
$INSUNITS
 70
    4
  9
$HYPERLINKBASE
  1

  9
$STYLESHEET
  1

  9
$XEDIT
290
    1
  9
$CEPSNTYPE
380
    0
  9
$PSTYLEMODE
290
    1
  9
$EXTNAMES
290
    1
  9
$PSVPSCALE
 40
0
  9
$OLESTARTUP
290
    0
  9
$SORTENTS
280
  127
  9
$INDEXCTL
280
    0
  9
$HIDETEXT
280
    1
  9
$XCLIPFRAME
290
    0
  9
$HALOGAP
280
    0
  9
$OBSCOLOR
 70
  257
  9
$OBSLTYPE
280
    0
  9
$INTERSECTIONDISPLAY
280
    0
  9
$INTERSECTIONCOLOR
 70
  257
  9
$DIMASSOC
280
    2
  9
$PROJECTNAME
  1

  9
$CAMERADISPLAY
290
    0
  9
$LENSLENGTH
 40
50
  9
$CAMERAHEIGHT
 40
0
  9
$STEPSPERSEC
 40
2
  9
$STEPSIZE
 40
50
  9
$3DDWFPREC
 40
2
  9
$PSOLWIDTH
 40
5
  9
$PSOLHEIGHT
 40
80
  9
$LOFTANG1
 40
1.570796326794897
  9
$LOFTANG2
 40
1.570796326794897
  9
$LOFTMAG1
 40
0
  9
$LOFTMAG2
 40
0
  9
$LOFTPARAM
 70
    7
  9
$LOFTNORMALS
280
    1
  9
$LATITUDE
 40
1
  9
$LONGITUDE
 40
1
  9
$NORTHDIRECTION
 40
0
  9
$TIMEZONE
 70
-8000
  9
$LIGHTGLYPHDISPLAY
280
    1
  9
$TILEMODELIGHTSYNCH
280
    1
  9
$SOLIDHIST
280
    1
  9
$SHOWHIST
280
    1
  9
$DWFFRAME
280
    2
  9
$DGNFRAME
280
    0
  9
$REALWORLDSCALE
290
    1
  9
$INTERFERECOLOR
 62
    1
  9
$CSHADOW
280
    0
  9
$SHADOWPLANELOCATION
 40
0
  0
ENDSEC
  0
SECTION
  2
CLASSES
  0
ENDSEC
  0
SECTION
  2
TABLES
  0
TABLE
  2
VPORT
  5
8
330
0
100
AcDbSymbolTable
 70
    1
  0
VPORT
  5
31
330
2
100
AcDbSymbolTableRecord
100
AcDbViewportTableRecord
  2
*ACTIVE
 70
    0
 10
0
 20
0
 11
1
 21
1
 12
4409.728973343905
 22
2854.607161488325
 13
0
 23
0
 14
10
 24
10
 15
10
 25
10
 16
0
 26
0
 36
1
 17
0
 27
0
 37
0
 40
7174.863373054238
 41
1.741092636579572
 42
50
 43
0
 44
0
 50
0
 51
0
 71
    0
 72
  100
 73
    1
 74
    3
 75
    0
 76
    1
 77
    0
 78
    0
281
    0
 65
    1
110
0
120
0
130
0
111
1
121
0
131
0
112
0
122
1
132
0
 79
    0
146
0
348
10020
 60
    7
 61
    5
292
1
282
    1
141
0
142
0
 63
  250
421
3358443
  0
ENDTAB
  0
TABLE
  2
LTYPE
  5
5
330
0
100
AcDbSymbolTable
 70
    4
  0
LTYPE
  5
14
330
5
100
AcDbSymbolTableRecord
100
AcDbLinetypeTableRecord
  2
ByBlock
 70
    0
  3

 72
   65
 73
    0
 40
0
  0
LTYPE
  5
15
330
5
100
AcDbSymbolTableRecord
100
AcDbLinetypeTableRecord
  2
ByLayer
 70
    0
  3

 72
   65
 73
    0
 40
0
  0
LTYPE
  5
16
330
5
100
AcDbSymbolTableRecord
100
AcDbLinetypeTableRecord
  2
Continuous
 70
    0
  3
Solid line
 72
   65
 73
    0
 40
0
  0
LTYPE
  5
32
330
5
100
AcDbSymbolTableRecord
100
AcDbLinetypeTableRecord
  2
DOT
 70
    0
  3
Dot . . . . . . . . . . . . . . . . . . . . . .
 72
   65
 73
    2
 40
6.35
 49
0
 74
    0
 49
-6.35
 74
    0
  0
LTYPE
  5
33
330
5
100
AcDbSymbolTableRecord
100
AcDbLinetypeTableRecord
  2
DOTTINY
 70
    0
  3
Dot (.15x) .....................................
 72
   65
 73
    2
 40
0.9525
 49
0
 74
    0
 49
-0.9525
 74
    0
  0
LTYPE
  5
34
330
5
100
AcDbSymbolTableRecord
100
AcDbLinetypeTableRecord
  2
DOT2
 70
    0
  3
Dot (.5x) .....................................
 72
   65
 73
    2
 40
3.175
 49
0
 74
    0
 49
-3.175
 74
    0
  0
LTYPE
  5
35
330
5
100
AcDbSymbolTableRecord
100
AcDbLinetypeTableRecord
  2
DOTX2
 70
    0
  3
Dot (2x) .  .  .  .  .  .  .  .  .  .  .  .  .
 72
   65
 73
    2
 40
12.7
 49
0
 74
    0
 49
-12.7
 74
    0
  0
LTYPE
  5
36
330
5
100
AcDbSymbolTableRecord
100
AcDbLinetypeTableRecord
  2
DASHED
 70
    0
  3
Dashed _ _ _ _ _ _ _ _ _ _ _ _ _ _ _ _ _
 72
   65
 73
    2
 40
19.05
 49
12.7
 74
    0
 49
-6.35
 74
    0
  0
LTYPE
  5
37
330
5
100
AcDbSymbolTableRecord
100
AcDbLinetypeTableRecord
  2
DASHEDTINY
 70
    0
  3
Dashed (.15x) _ _ _ _ _ _ _ _ _ _ _ _ _ _ _ _ _
 72
   65
 73
    2
 40
2.8575
 49
1.905
 74
    0
 49
-0.9525
 74
    0
  0
LTYPE
  5
38
330
5
100
AcDbSymbolTableRecord
100
AcDbLinetypeTableRecord
  2
DASHED2
 70
    0
  3
Dashed (.5x) _ _ _ _ _ _ _ _ _ _ _ _ _ _ _ _ _
 72
   65
 73
    2
 40
9.524999999999999
 49
6.35
 74
    0
 49
-3.175
 74
    0
  0
LTYPE
  5
39
330
5
100
AcDbSymbolTableRecord
100
AcDbLinetypeTableRecord
  2
DASHEDX2
 70
    0
  3
Dashed (2x) ____  ____  ____  ____  ____  ___
 72
   65
 73
    2
 40
38.09999999999999
 49
25.4
 74
    0
 49
-12.7
 74
    0
  0
LTYPE
  5
3A
330
5
100
AcDbSymbolTableRecord
100
AcDbLinetypeTableRecord
  2
DASHDOT
 70
    0
  3
Dash dot __ . __ . __ . __ . __ . __ . __ . __
 72
   65
 73
    4
 40
25.4
 49
12.7
 74
    0
 49
-6.35
 74
    0
 49
0
 74
    0
 49
-6.35
 74
    0
  0
LTYPE
  5
3B
330
5
100
AcDbSymbolTableRecord
100
AcDbLinetypeTableRecord
  2
DASHDOTTINY
 70
    0
  3
Dash dot (.15x) _._._._._._._._._._._._._._._.
 72
   65
 73
    4
 40
3.81
 49
1.905
 74
    0
 49
-0.9525
 74
    0
 49
0
 74
    0
 49
-0.9525
 74
    0
  0
LTYPE
  5
3C
330
5
100
AcDbSymbolTableRecord
100
AcDbLinetypeTableRecord
  2
DASHDOT2
 70
    0
  3
Dash dot (.5x) _._._._._._._._._._._._._._._.
 72
   65
 73
    4
 40
12.7
 49
6.35
 74
    0
 49
-3.175
 74
    0
 49
0
 74
    0
 49
-3.175
 74
    0
  0
LTYPE
  5
3D
330
5
100
AcDbSymbolTableRecord
100
AcDbLinetypeTableRecord
  2
DASHDOTX2
 70
    0
  3
Dash dot (2x) ____  .  ____  .  ____  .  ___
 72
   65
 73
    4
 40
50.8
 49
25.4
 74
    0
 49
-12.7
 74
    0
 49
0
 74
    0
 49
-12.7
 74
    0
  0
LTYPE
  5
3E
330
5
100
AcDbSymbolTableRecord
100
AcDbLinetypeTableRecord
  2
DIVIDE
 70
    0
  3
Divide ____ . . ____ . . ____ . . ____ . . ____
 72
   65
 73
    6
 40
31.75
 49
12.7
 74
    0
 49
-6.35
 74
    0
 49
0
 74
    0
 49
-6.35
 74
    0
 49
0
 74
    0
 49
-6.35
 74
    0
  0
LTYPE
  5
3F
330
5
100
AcDbSymbolTableRecord
100
AcDbLinetypeTableRecord
  2
DIVIDETINY
 70
    0
  3
Divide (.15x) __..__..__..__..__..__..__..__.._
 72
   65
 73
    6
 40
4.7625
 49
1.905
 74
    0
 49
-0.9525
 74
    0
 49
0
 74
    0
 49
-0.9525
 74
    0
 49
0
 74
    0
 49
-0.9525
 74
    0
  0
LTYPE
  5
40
330
5
100
AcDbSymbolTableRecord
100
AcDbLinetypeTableRecord
  2
DIVIDE2
 70
    0
  3
Divide (.5x) __..__..__..__..__..__..__..__.._
 72
   65
 73
    6
 40
15.875
 49
6.35
 74
    0
 49
-3.175
 74
    0
 49
0
 74
    0
 49
-3.175
 74
    0
 49
0
 74
    0
 49
-3.175
 74
    0
  0
LTYPE
  5
41
330
5
100
AcDbSymbolTableRecord
100
AcDbLinetypeTableRecord
  2
DIVIDEX2
 70
    0
  3
Divide (2x) ________  .  .  ________  .  .  _
 72
   65
 73
    6
 40
63.5
 49
25.4
 74
    0
 49
-12.7
 74
    0
 49
0
 74
    0
 49
-12.7
 74
    0
 49
0
 74
    0
 49
-12.7
 74
    0
  0
LTYPE
  5
42
330
5
100
AcDbSymbolTableRecord
100
AcDbLinetypeTableRecord
  2
BORDER
 70
    0
  3
Border __ __ . __ __ . __ __ . __ __ . __ __ .
 72
   65
 73
    6
 40
44.45
 49
12.7
 74
    0
 49
-6.35
 74
    0
 49
12.7
 74
    0
 49
-6.35
 74
    0
 49
0
 74
    0
 49
-6.35
 74
    0
  0
LTYPE
  5
43
330
5
100
AcDbSymbolTableRecord
100
AcDbLinetypeTableRecord
  2
BORDERTINY
 70
    0
  3
Border (.15x) __.__.__.__.__.__.__.__.__.__.__.
 72
   65
 73
    6
 40
6.6675
 49
1.905
 74
    0
 49
-0.9525
 74
    0
 49
1.905
 74
    0
 49
-0.9525
 74
    0
 49
0
 74
    0
 49
-0.9525
 74
    0
  0
LTYPE
  5
44
330
5
100
AcDbSymbolTableRecord
100
AcDbLinetypeTableRecord
  2
BORDER2
 70
    0
  3
Border (.5x) __.__.__.__.__.__.__.__.__.__.__.
 72
   65
 73
    6
 40
22.225
 49
6.35
 74
    0
 49
-3.175
 74
    0
 49
6.35
 74
    0
 49
-3.175
 74
    0
 49
0
 74
    0
 49
-3.175
 74
    0
  0
LTYPE
  5
45
330
5
100
AcDbSymbolTableRecord
100
AcDbLinetypeTableRecord
  2
BORDERX2
 70
    0
  3
Border (2x) ____  ____  .  ____  ____  .  ___
 72
   65
 73
    6
 40
88.89999999999999
 49
25.4
 74
    0
 49
-12.7
 74
    0
 49
25.4
 74
    0
 49
-12.7
 74
    0
 49
0
 74
    0
 49
-12.7
 74
    0
  0
LTYPE
  5
46
330
5
100
AcDbSymbolTableRecord
100
AcDbLinetypeTableRecord
  2
CENTER
 70
    0
  3
Center ____ _ ____ _ ____ _ ____ _ ____ _ ____
 72
   65
 73
    4
 40
50.8
 49
31.75
 74
    0
 49
-6.35
 74
    0
 49
6.35
 74
    0
 49
-6.35
 74
    0
  0
LTYPE
  5
47
330
5
100
AcDbSymbolTableRecord
100
AcDbLinetypeTableRecord
  2
CENTERTINY
 70
    0
  3
Center (.15x) ___ _ ___ _ ___ _ ___ _ ___ _ ___
 72
   65
 73
    4
 40
7.619999999999999
 49
4.7625
 74
    0
 49
-0.9525
 74
    0
 49
0.9525
 74
    0
 49
-0.9525
 74
    0
  0
LTYPE
  5
48
330
5
100
AcDbSymbolTableRecord
100
AcDbLinetypeTableRecord
  2
CENTER2
 70
    0
  3
Center (.5x) ___ _ ___ _ ___ _ ___ _ ___ _ ___
 72
   65
 73
    4
 40
28.575
 49
19.05
 74
    0
 49
-3.175
 74
    0
 49
3.175
 74
    0
 49
-3.175
 74
    0
  0
LTYPE
  5
49
330
5
100
AcDbSymbolTableRecord
100
AcDbLinetypeTableRecord
  2
CENTERX2
 70
    0
  3
Center (2x) ________  __  ________  __  _____
 72
   65
 73
    4
 40
101.6
 49
63.5
 74
    0
 49
-12.7
 74
    0
 49
12.7
 74
    0
 49
-12.7
 74
    0
  0
ENDTAB
  0
TABLE
  2
LAYER
  5
2
330
0
100
AcDbSymbolTable
 70
    1
  0
LAYER
  5
10
330
2
100
AcDbSymbolTableRecord
100
AcDbLayerTableRecord
  2
0
 70
    0
 62
    7
  6
CONTINUOUS
370
   -3
390
F
  0
LAYER
  5
4A
330
2
100
AcDbSymbolTableRecord
100
AcDbLayerTableRecord
  2
Defpoints
 70
    0
 62
    7
  6
CONTINUOUS
290
0
370
   -3
390
F
  0
ENDTAB
  0
TABLE
  2
STYLE
  5
3
330
0
100
AcDbSymbolTable
 70
    3
  0
STYLE
  5
4B
330
2
100
AcDbSymbolTableRecord
100
AcDbTextStyleTableRecord
  2
Standard
 70
    0
 40
0
 41
1
 50
0
 71
    0
 42
1
  3
txt
  4

  0
ENDTAB
  0
TABLE
  2
VIEW
  5
6
330
0
100
AcDbSymbolTable
 70
    0
  0
ENDTAB
  0
TABLE
  2
UCS
  5
7
330
0
100
AcDbSymbolTable
 70
    0
  0
ENDTAB
  0
TABLE
  2
APPID
  5
9
330
0
100
AcDbSymbolTable
 70
    1
  0
APPID
  5
12
330
9
100
AcDbSymbolTableRecord
100
AcDbRegAppTableRecord
  2
ACAD
 70
    0
  0
APPID
  5
4C
330
9
100
AcDbSymbolTableRecord
100
AcDbRegAppTableRecord
  2
LibreCad
 70
    0
  0
ENDTAB
  0
TABLE
  2
DIMSTYLE
  5
A
330
0
100
AcDbSymbolTable
 70
    1
100
AcDbDimStyleTable
 71
    1
  0
DIMSTYLE
105
4D
330
A
100
AcDbSymbolTableRecord
100
AcDbDimStyleTableRecord
  2
Standard
 70
    0
 40
1
 41
2.5
 42
0.625
 43
0.38
 44
1.25
 45
0
 46
0
 47
0
 48
0
 49
1
140
2.5
141
0.09
142
0
143
25.4
144
1
145
0
146
1
147
0.625
148
0
 71
    0
 72
    0
 73
    0
 74
    1
 75
    0
 76
    0
 77
    0
 78
    8
 79
    0
170
    0
171
    2
172
    0
173
    0
174
    0
175
    0
176
    0
177
    0
178
    0
179
    0
271
    2
272
    4
273
    2
274
    2
275
    0
276
    0
277
    2
278
   44
279
    0
280
    0
281
    0
282
    0
283
    1
284
    0
285
    0
286
    0
288
    0
289
    3
340
Standard
341

371
   -2
372
   -2
  0
ENDTAB
  0
TABLE
  2
BLOCK_RECORD
  5
1
330
0
100
AcDbSymbolTable
 70
    2
  0
BLOCK_RECORD
  5
1F
330
1
100
AcDbSymbolTableRecord
100
AcDbBlockTableRecord
  2
*Model_Space
 70
    0
280
    1
281
    0
  0
BLOCK_RECORD
  5
1E
330
1
100
AcDbSymbolTableRecord
100
AcDbBlockTableRecord
  2
*Paper_Space
 70
    0
280
    1
281
    0
  0
BLOCK_RECORD
  5
4E
330
1
100
AcDbSymbolTableRecord
100
AcDbBlockTableRecord
  2
*D1
 70
    0
280
    1
281
    0
  0
BLOCK_RECORD
  5
51
330
1
100
AcDbSymbolTableRecord
100
AcDbBlockTableRecord
  2
*D11
 70
    0
280
    1
281
    0
  0
BLOCK_RECORD
  5
54
330
1
100
AcDbSymbolTableRecord
100
AcDbBlockTableRecord
  2
*D5
 70
    0
280
    1
281
    0
  0
BLOCK_RECORD
  5
57
330
1
100
AcDbSymbolTableRecord
100
AcDbBlockTableRecord
  2
*D19
 70
    0
280
    1
281
    0
  0
BLOCK_RECORD
  5
5A
330
1
100
AcDbSymbolTableRecord
100
AcDbBlockTableRecord
  2
*D13
 70
    0
280
    1
281
    0
  0
BLOCK_RECORD
  5
5D
330
1
100
AcDbSymbolTableRecord
100
AcDbBlockTableRecord
  2
*D6
 70
    0
280
    1
281
    0
  0
BLOCK_RECORD
  5
60
330
1
100
AcDbSymbolTableRecord
100
AcDbBlockTableRecord
  2
*D2
 70
    0
280
    1
281
    0
  0
BLOCK_RECORD
  5
63
330
1
100
AcDbSymbolTableRecord
100
AcDbBlockTableRecord
  2
*D9
 70
    0
280
    1
281
    0
  0
BLOCK_RECORD
  5
66
330
1
100
AcDbSymbolTableRecord
100
AcDbBlockTableRecord
  2
*D10
 70
    0
280
    1
281
    0
  0
BLOCK_RECORD
  5
69
330
1
100
AcDbSymbolTableRecord
100
AcDbBlockTableRecord
  2
*D14
 70
    0
280
    1
281
    0
  0
BLOCK_RECORD
  5
6C
330
1
100
AcDbSymbolTableRecord
100
AcDbBlockTableRecord
  2
*D4
 70
    0
280
    1
281
    0
  0
BLOCK_RECORD
  5
6F
330
1
100
AcDbSymbolTableRecord
100
AcDbBlockTableRecord
  2
*D8
 70
    0
280
    1
281
    0
  0
BLOCK_RECORD
  5
72
330
1
100
AcDbSymbolTableRecord
100
AcDbBlockTableRecord
  2
*D16
 70
    0
280
    1
281
    0
  0
BLOCK_RECORD
  5
75
330
1
100
AcDbSymbolTableRecord
100
AcDbBlockTableRecord
  2
*D15
 70
    0
280
    1
281
    0
  0
BLOCK_RECORD
  5
78
330
1
100
AcDbSymbolTableRecord
100
AcDbBlockTableRecord
  2
*D20
 70
    0
280
    1
281
    0
  0
BLOCK_RECORD
  5
7B
330
1
100
AcDbSymbolTableRecord
100
AcDbBlockTableRecord
  2
*D7
 70
    0
280
    1
281
    0
  0
BLOCK_RECORD
  5
7E
330
1
100
AcDbSymbolTableRecord
100
AcDbBlockTableRecord
  2
*D18
 70
    0
280
    1
281
    0
  0
BLOCK_RECORD
  5
81
330
1
100
AcDbSymbolTableRecord
100
AcDbBlockTableRecord
  2
*D17
 70
    0
280
    1
281
    0
  0
BLOCK_RECORD
  5
84
330
1
100
AcDbSymbolTableRecord
100
AcDbBlockTableRecord
  2
*D3
 70
    0
280
    1
281
    0
  0
BLOCK_RECORD
  5
87
330
1
100
AcDbSymbolTableRecord
100
AcDbBlockTableRecord
  2
*D12
 70
    0
280
    1
281
    0
  0
ENDTAB
  0
ENDSEC
  0
SECTION
  2
BLOCKS
  0
BLOCK
  5
20
330
1F
100
AcDbEntity
  8
0
100
AcDbBlockBegin
  2
*Model_Space
 70
    0
 10
0
 20
0
 30
0
  3
*Model_Space
  1

  0
ENDBLK
  5
21
330
1F
100
AcDbEntity
  8
0
100
AcDbBlockEnd
  0
BLOCK
  5
1C
330
1B
100
AcDbEntity
  8
0
100
AcDbBlockBegin
  2
*Paper_Space
 70
    0
 10
0
 20
0
 30
0
  3
*Paper_Space
  1

  0
ENDBLK
  5
1D
330
1F
100
AcDbEntity
  8
0
100
AcDbBlockEnd
  0
BLOCK
  5
4F
330
4E
100
AcDbEntity
  8
0
100
AcDbBlockBegin
  2
*D1
 70
    1
 10
0
 20
0
  3
*D1
  1

  0
LINE
  5
8A
100
AcDbEntity
  8
0
  6
ByBlock
 62
    0
370
   -2
100
AcDbLine
 10
5245.970441069669
 20
1058.64721559954
 11
5840.970441069669
 21
1058.64721559954
  0
SOLID
  5
8B
100
AcDbEntity
  8
0
  6
ByBlock
 62
    0
370
   -2
100
AcDbTrace
 10
5245.970441069669
 20
1058.64721559954
 30
0
 11
5248.470441069669
 21
1059.063500257313
 31
0
 12
5248.470441069669
 22
1058.230930941767
 32
0
 13
5248.470441069669
 23
1058.230930941767
 33
0
  0
SOLID
  5
8C
100
AcDbEntity
  8
0
  6
ByBlock
 62
    0
370
   -2
100
AcDbTrace
 10
5840.970441069669
 20
1058.64721559954
 30
0
 11
5838.470441069669
 21
1058.230930941767
 31
0
 12
5838.470441069669
 22
1059.063500257313
 32
0
 13
5838.470441069669
 23
1059.063500257313
 33
0
  0
MTEXT
  5
8D
100
AcDbEntity
  8
0
  6
CONTINUOUS
 62
    0
370
   -2
100
AcDbMText
 10
5543.470441069669
 20
1077.661540292582
 30
0
 40
2.5
 41
5.000000000000311
 71
    5
 72
    1
  1
595
  7
Standard
210
0
220
0
230
1
 50
0
 73
    2
 44
1
  0
LINE
  5
8E
100
AcDbEntity
  8
0
  6
ByBlock
 62
    0
370
   -2
100
AcDbLine
 10
5245.970441069669
 20
1147.773738147876
 11
5245.970441069669
 21
1057.39721559954
  0
LINE
  5
8F
100
AcDbEntity
  8
0
  6
ByBlock
 62
    0
370
   -2
100
AcDbLine
 10
5840.970441069669
 20
1147.773738147876
 11
5840.970441069669
 21
1057.39721559954
  0
ENDBLK
  5
50
330
4E
100
AcDbEntity
  8
0
100
AcDbBlockEnd
  0
BLOCK
  5
52
330
51
100
AcDbEntity
  8
0
100
AcDbBlockBegin
  2
*D11
 70
    1
 10
0
 20
0
  3
*D11
  1

  0
LINE
  5
90
100
AcDbEntity
  8
0
  6
ByBlock
 62
    0
370
   -2
100
AcDbLine
 10
6135.092917220832
 20
2603.236403161273
 11
6611.092917220832
 21
2603.236403161273
  0
SOLID
  5
91
100
AcDbEntity
  8
0
  6
ByBlock
 62
    0
370
   -2
100
AcDbTrace
 10
6135.092917220832
 20
2603.236403161273
 30
0
 11
6137.592917220832
 21
2603.652687819046
 31
0
 12
6137.592917220832
 22
2602.8201185035
 32
0
 13
6137.592917220832
 23
2602.8201185035
 33
0
  0
SOLID
  5
92
100
AcDbEntity
  8
0
  6
ByBlock
 62
    0
370
   -2
100
AcDbTrace
 10
6611.092917220832
 20
2603.236403161273
 30
0
 11
6608.592917220832
 21
2602.8201185035
 31
0
 12
6608.592917220832
 22
2603.652687819046
 32
0
 13
6608.592917220832
 23
2603.652687819046
 33
0
  0
MTEXT
  5
93
100
AcDbEntity
  8
0
  6
CONTINUOUS
 62
    0
370
   -2
100
AcDbMText
 10
6373.092917220832
 20
2622.250727854315
 30
0
 40
2.5
 41
5.277777777777933
 71
    5
 72
    1
  1
476
  7
Standard
210
0
220
0
230
1
 50
0
 73
    2
 44
1
  0
LINE
  5
94
100
AcDbEntity
  8
0
  6
ByBlock
 62
    0
370
   -2
100
AcDbLine
 10
6135.092917220832
 20
2500.023738147876
 11
6135.092917220832
 21
2604.486403161273
  0
LINE
  5
95
100
AcDbEntity
  8
0
  6
ByBlock
 62
    0
370
   -2
100
AcDbLine
 10
6611.092917220832
 20
2500.023738147876
 11
6611.092917220832
 21
2604.486403161273
  0
ENDBLK
  5
53
330
51
100
AcDbEntity
  8
0
100
AcDbBlockEnd
  0
BLOCK
  5
55
330
54
100
AcDbEntity
  8
0
100
AcDbBlockBegin
  2
*D5
 70
    1
 10
0
 20
0
  3
*D5
  1

  0
LINE
  5
96
100
AcDbEntity
  8
0
  6
ByBlock
 62
    0
370
   -2
100
AcDbLine
 10
5215.970441069669
 20
2024.513729825841
 11
5840.970441069669
 21
2024.513729825841
  0
SOLID
  5
97
100
AcDbEntity
  8
0
  6
ByBlock
 62
    0
370
   -2
100
AcDbTrace
 10
5215.970441069669
 20
2024.513729825841
 30
0
 11
5218.470441069669
 21
2024.930014483614
 31
0
 12
5218.470441069669
 22
2024.097445168068
 32
0
 13
5218.470441069669
 23
2024.097445168068
 33
0
  0
SOLID
  5
98
100
AcDbEntity
  8
0
  6
ByBlock
 62
    0
370
   -2
100
AcDbTrace
 10
5840.970441069669
 20
2024.513729825841
 30
0
 11
5838.470441069669
 21
2024.097445168068
 31
0
 12
5838.470441069669
 22
2024.930014483614
 32
0
 13
5838.470441069669
 23
2024.930014483614
 33
0
  0
MTEXT
  5
99
100
AcDbEntity
  8
0
  6
CONTINUOUS
 62
    0
370
   -2
100
AcDbMText
 10
5528.470441069669
 20
2043.528054518883
 30
0
 40
2.5
 41
5.000000000000311
 71
    5
 72
    1
  1
625
  7
Standard
210
0
220
0
230
1
 50
0
 73
    2
 44
1
  0
LINE
  5
9A
100
AcDbEntity
  8
0
  6
ByBlock
 62
    0
370
   -2
100
AcDbLine
 10
5215.970441069669
 20
2067.662861651097
 11
5215.970441069669
 21
2023.263729825841
  0
LINE
  5
9B
100
AcDbEntity
  8
0
  6
ByBlock
 62
    0
370
   -2
100
AcDbLine
 10
5840.970441069669
 20
2067.872861651097
 11
5840.970441069669
 21
2023.263729825841
  0
ENDBLK
  5
56
330
54
100
AcDbEntity
  8
0
100
AcDbBlockEnd
  0
BLOCK
  5
58
330
57
100
AcDbEntity
  8
0
100
AcDbBlockBegin
  2
*D19
 70
    1
 10
0
 20
0
  3
*D19
  1

  0
LINE
  5
9C
100
AcDbEntity
  8
0
  6
ByBlock
 62
    0
370
   -2
100
AcDbLine
 10
6276.092917220832
 20
1944.029850238274
 11
6476.092917220832
 21
1944.029850238274
  0
SOLID
  5
9D
100
AcDbEntity
  8
0
  6
ByBlock
 62
    0
370
   -2
100
AcDbTrace
 10
6276.092917220832
 20
1944.029850238274
 30
0
 11
6278.592917220832
 21
1944.446134896047
 31
0
 12
6278.592917220832
 22
1943.613565580501
 32
0
 13
6278.592917220832
 23
1943.613565580501
 33
0
  0
SOLID
  5
9E
100
AcDbEntity
  8
0
  6
ByBlock
 62
    0
370
   -2
100
AcDbTrace
 10
6476.092917220832
 20
1944.029850238274
 30
0
 11
6473.592917220832
 21
1943.613565580501
 31
0
 12
6473.592917220832
 22
1944.446134896047
 32
0
 13
6473.592917220832
 23
1944.446134896047
 33
0
  0
MTEXT
  5
9F
100
AcDbEntity
  8
0
  6
CONTINUOUS
 62
    0
370
   -2
100
AcDbMText
 10
6376.092917220832
 20
1963.044174931317
 30
0
 40
2.5
 41
5
 71
    5
 72
    1
  1
200
  7
Standard
210
0
220
0
230
1
 50
0
 73
    2
 44
1
  0
LINE
  5
A0
100
AcDbEntity
  8
0
  6
ByBlock
 62
    0
370
   -2
100
AcDbLine
 10
6276.092917220832
 20
2023.773738147876
 11
6276.092917220832
 21
1942.779850238274
  0
LINE
  5
A1
100
AcDbEntity
  8
0
  6
ByBlock
 62
    0
370
   -2
100
AcDbLine
 10
6476.092917220832
 20
2023.773738147876
 11
6476.092917220832
 21
1942.779850238274
  0
ENDBLK
  5
59
330
57
100
AcDbEntity
  8
0
100
AcDbBlockEnd
  0
BLOCK
  5
5B
330
5A
100
AcDbEntity
  8
0
100
AcDbBlockBegin
  2
*D13
 70
    1
 10
0
 20
0
  3
*D13
  1

  0
LINE
  5
A2
100
AcDbEntity
  8
0
  6
ByBlock
 62
    0
370
   -2
100
AcDbLine
 10
7197.137264427985
 20
2499.398738147876
 11
7197.137264427985
 21
1699.398738147876
  0
SOLID
  5
A3
100
AcDbEntity
  8
0
  6
ByBlock
 62
    0
370
   -2
100
AcDbTrace
 10
7197.137264427985
 20
2499.398738147876
 30
0
 11
7197.553549085758
 21
2496.898738147876
 31
0
 12
7196.720979770213
 22
2496.898738147876
 32
0
 13
7196.720979770213
 23
2496.898738147876
 33
0
  0
SOLID
  5
A4
100
AcDbEntity
  8
0
  6
ByBlock
 62
    0
370
   -2
100
AcDbTrace
 10
7197.137264427985
 20
1699.398738147876
 30
0
 11
7196.720979770213
 21
1701.898738147876
 31
0
 12
7197.553549085758
 22
1701.898738147876
 32
0
 13
7197.553549085758
 23
1701.898738147876
 33
0
  0
MTEXT
  5
A5
100
AcDbEntity
  8
0
  6
CONTINUOUS
 62
    0
370
   -2
100
AcDbMText
 10
7178.122939734943
 20
2099.398738147877
 30
0
 40
2.5
 41
5
 71
    5
 72
    1
  1
800
  7
Standard
210
0
220
0
230
1
 50
90
 73
    2
 44
1
  0
LINE
  5
A6
100
AcDbEntity
  8
0
  6
ByBlock
 62
    0
370
   -2
100
AcDbLine
 10
7097.717917220832
 20
2499.398738147876
 11
7198.387264427985
 21
2499.398738147876
  0
LINE
  5
A7
100
AcDbEntity
  8
0
  6
ByBlock
 62
    0
370
   -2
100
AcDbLine
 10
7097.717917220832
 20
1699.398738147876
 11
7198.387264427985
 21
1699.398738147876
  0
ENDBLK
  5
5C
330
5A
100
AcDbEntity
  8
0
100
AcDbBlockEnd
  0
BLOCK
  5
5E
330
5D
100
AcDbEntity
  8
0
100
AcDbBlockBegin
  2
*D6
 70
    1
 10
0
 20
0
  3
*D6
  1

  0
LINE
  5
A8
100
AcDbEntity
  8
0
  6
ByBlock
 62
    0
370
   -2
100
AcDbLine
 10
5410.971679905694
 20
2180.258941802509
 11
5840.970441069669
 21
2180.258941802509
  0
SOLID
  5
A9
100
AcDbEntity
  8
0
  6
ByBlock
 62
    0
370
   -2
100
AcDbTrace
 10
5410.971679905694
 20
2180.258941802509
 30
0
 11
5413.471679905694
 21
2180.675226460282
 31
0
 12
5413.471679905694
 22
2179.842657144736
 32
0
 13
5413.471679905694
 23
2179.842657144736
 33
0
  0
SOLID
  5
AA
100
AcDbEntity
  8
0
  6
ByBlock
 62
    0
370
   -2
100
AcDbTrace
 10
5840.970441069669
 20
2180.258941802509
 30
0
 11
5838.470441069669
 21
2179.842657144736
 31
0
 12
5838.470441069669
 22
2180.675226460282
 32
0
 13
5838.470441069669
 23
2180.675226460282
 33
0
  0
MTEXT
  5
AB
100
AcDbEntity
  8
0
  6
CONTINUOUS
 62
    0
370
   -2
100
AcDbMText
 10
5625.971060487682
 20
2180.258941802509
 30
0
 40
2.5
 41
5.277777777777933
 71
    5
 72
    1
  1
430
  7
Standard
210
0
220
0
230
1
 50
0
 73
    2
 44
1
  0
LINE
  5
AC
100
AcDbEntity
  8
0
  6
ByBlock
 62
    0
370
   -2
100
AcDbLine
 10
5410.971679905694
 20
2202.099498125559
 11
5410.971679905694
 21
2179.008941802509
  0
LINE
  5
AD
100
AcDbEntity
  8
0
  6
ByBlock
 62
    0
370
   -2
100
AcDbLine
 10
5840.970441069669
 20
2202.099498125559
 11
5840.970441069669
 21
2179.008941802509
  0
ENDBLK
  5
5F
330
5D
100
AcDbEntity
  8
0
100
AcDbBlockEnd
  0
BLOCK
  5
61
330
60
100
AcDbEntity
  8
0
100
AcDbBlockBegin
  2
*D2
 70
    1
 10
0
 20
0
  3
*D2
  1

  0
LINE
  5
AE
100
AcDbEntity
  8
0
  6
ByBlock
 62
    0
370
   -2
100
AcDbLine
 10
5908.286369964754
 20
1147.773738147876
 11
5908.286369964754
 21
2337.768738147876
  0
SOLID
  5
AF
100
AcDbEntity
  8
0
  6
ByBlock
 62
    0
370
   -2
100
AcDbTrace
 10
5908.286369964754
 20
1147.773738147876
 30
0
 11
5907.870085306981
 21
1150.273738147876
 31
0
 12
5908.702654622527
 22
1150.273738147876
 32
0
 13
5908.702654622527
 23
1150.273738147876
 33
0
  0
SOLID
  5
B0
100
AcDbEntity
  8
0
  6
ByBlock
 62
    0
370
   -2
100
AcDbTrace
 10
5908.286369964754
 20
2337.768738147876
 30
0
 11
5908.702654622527
 21
2335.268738147876
 31
0
 12
5907.870085306981
 22
2335.268738147876
 32
0
 13
5907.870085306981
 23
2335.268738147876
 33
0
  0
MTEXT
  5
B1
100
AcDbEntity
  8
0
  6
CONTINUOUS
 62
    0
370
   -2
100
AcDbMText
 10
5889.272045271711
 20
1742.771238147877
 30
0
 40
2.5
 41
10.69444444444444
 71
    5
 72
    1
  1
1189,99
  7
Standard
210
0
220
0
230
1
 50
90
 73
    2
 44
1
  0
LINE
  5
B2
100
AcDbEntity
  8
0
  6
ByBlock
 62
    0
370
   -2
100
AcDbLine
 10
5841.595441069669
 20
1147.773738147876
 11
5909.536369964754
 21
1147.773738147876
  0
LINE
  5
B3
100
AcDbEntity
  8
0
  6
ByBlock
 62
    0
370
   -2
100
AcDbLine
 10
5841.595441069669
 20
2337.768738147876
 11
5909.536369964754
 21
2337.768738147876
  0
ENDBLK
  5
62
330
60
100
AcDbEntity
  8
0
100
AcDbBlockEnd
  0
BLOCK
  5
64
330
63
100
AcDbEntity
  8
0
100
AcDbBlockBegin
  2
*D9
 70
    1
 10
0
 20
0
  3
*D9
  1

  0
LINE
  5
B4
100
AcDbEntity
  8
0
  6
ByBlock
 62
    0
370
   -2
100
AcDbLine
 10
4985.358426848085
 20
1148.398738147876
 11
4985.358426848085
 21
2098.398141229757
  0
SOLID
  5
B5
100
AcDbEntity
  8
0
  6
ByBlock
 62
    0
370
   -2
100
AcDbTrace
 10
4985.358426848085
 20
1148.398738147876
 30
0
 11
4984.942142190313
 21
1150.898738147876
 31
0
 12
4985.774711505858
 22
1150.898738147876
 32
0
 13
4985.774711505858
 23
1150.898738147876
 33
0
  0
SOLID
  5
B6
100
AcDbEntity
  8
0
  6
ByBlock
 62
    0
370
   -2
100
AcDbTrace
 10
4985.358426848085
 20
2098.398141229757
 30
0
 11
4985.774711505858
 21
2095.898141229757
 31
0
 12
4984.942142190313
 22
2095.898141229757
 32
0
 13
4984.942142190313
 23
2095.898141229757
 33
0
  0
MTEXT
  5
B7
100
AcDbEntity
  8
0
  6
CONTINUOUS
 62
    0
370
   -2
100
AcDbMText
 10
4966.344102155042
 20
1623.398439688817
 30
0
 40
2.5
 41
5.000000000000311
 71
    5
 72
    1
  1
950
  7
Standard
210
0
220
0
230
1
 50
90
 73
    2
 44
1
  0
LINE
  5
B8
100
AcDbEntity
  8
0
  6
ByBlock
 62
    0
370
   -2
100
AcDbLine
 10
5245.345441069669
 20
1148.398738147876
 11
4984.108426848085
 21
1148.398738147876
  0
LINE
  5
B9
100
AcDbEntity
  8
0
  6
ByBlock
 62
    0
370
   -2
100
AcDbLine
 10
5232.650106114311
 20
2098.398141229757
 11
4984.108426848085
 21
2098.398141229757
  0
ENDBLK
  5
65
330
63
100
AcDbEntity
  8
0
100
AcDbBlockEnd
  0
BLOCK
  5
67
330
66
100
AcDbEntity
  8
0
100
AcDbBlockBegin
  2
*D10
 70
    1
 10
0
 20
0
  3
*D10
  1

  0
LINE
  5
BA
100
AcDbEntity
  8
0
  6
ByBlock
 62
    0
370
   -2
100
AcDbLine
 10
5422.988097006809
 20
2498.395532166789
 11
5422.988097006809
 21
2413.395532166789
  0
SOLID
  5
BB
100
AcDbEntity
  8
0
  6
ByBlock
 62
    0
370
   -2
100
AcDbTrace
 10
5422.988097006809
 20
2498.395532166789
 30
0
 11
5423.404381664582
 21
2495.895532166789
 31
0
 12
5422.571812349036
 22
2495.895532166789
 32
0
 13
5422.571812349036
 23
2495.895532166789
 33
0
  0
SOLID
  5
BC
100
AcDbEntity
  8
0
  6
ByBlock
 62
    0
370
   -2
100
AcDbTrace
 10
5422.988097006809
 20
2413.395532166789
 30
0
 11
5422.571812349036
 21
2415.895532166789
 31
0
 12
5423.404381664582
 22
2415.895532166789
 32
0
 13
5423.404381664582
 23
2415.895532166789
 33
0
  0
MTEXT
  5
BD
100
AcDbEntity
  8
0
  6
CONTINUOUS
 62
    0
370
   -2
100
AcDbMText
 10
5403.973772313766
 20
2455.89553216679
 30
0
 40
2.5
 41
3.055555555555711
 71
    5
 72
    1
  1
85
  7
Standard
210
0
220
0
230
1
 50
90
 73
    2
 44
1
  0
LINE
  5
BE
100
AcDbEntity
  8
0
  6
ByBlock
 62
    0
370
   -2
100
AcDbLine
 10
5540.975441069669
 20
2498.395532166789
 11
5421.738097006809
 21
2498.395532166789
  0
LINE
  5
BF
100
AcDbEntity
  8
0
  6
ByBlock
 62
    0
370
   -2
100
AcDbLine
 10
5525.280265308719
 20
2413.395532166789
 11
5421.738097006809
 21
2413.395532166789
  0
ENDBLK
  5
68
330
66
100
AcDbEntity
  8
0
100
AcDbBlockEnd
  0
BLOCK
  5
6A
330
69
100
AcDbEntity
  8
0
100
AcDbBlockBegin
  2
*D14
 70
    1
 10
0
 20
0
  3
*D14
  1

  0
LINE
  5
C0
100
AcDbEntity
  8
0
  6
ByBlock
 62
    0
370
   -2
100
AcDbLine
 10
7197.137264427985
 20
1689.398738147876
 11
7197.137264427985
 21
1148.398738147876
  0
SOLID
  5
C1
100
AcDbEntity
  8
0
  6
ByBlock
 62
    0
370
   -2
100
AcDbTrace
 10
7197.137264427985
 20
1689.398738147876
 30
0
 11
7197.553549085758
 21
1686.898738147876
 31
0
 12
7196.720979770213
 22
1686.898738147876
 32
0
 13
7196.720979770213
 23
1686.898738147876
 33
0
  0
SOLID
  5
C2
100
AcDbEntity
  8
0
  6
ByBlock
 62
    0
370
   -2
100
AcDbTrace
 10
7197.137264427985
 20
1148.398738147876
 30
0
 11
7196.720979770213
 21
1150.898738147876
 31
0
 12
7197.553549085758
 22
1150.898738147876
 32
0
 13
7197.553549085758
 23
1150.898738147876
 33
0
  0
MTEXT
  5
C3
100
AcDbEntity
  8
0
  6
CONTINUOUS
 62
    0
370
   -2
100
AcDbMText
 10
7178.122939734943
 20
1418.898738147878
 30
0
 40
2.5
 41
4.722222222222378
 71
    5
 72
    1
  1
541
  7
Standard
210
0
220
0
230
1
 50
90
 73
    2
 44
1
  0
LINE
  5
C4
100
AcDbEntity
  8
0
  6
ByBlock
 62
    0
370
   -2
100
AcDbLine
 10
7097.717917220832
 20
1689.398738147876
 11
7198.387264427985
 21
1689.398738147876
  0
LINE
  5
C5
100
AcDbEntity
  8
0
  6
ByBlock
 62
    0
370
   -2
100
AcDbLine
 10
7097.717917220832
 20
1148.398738147876
 11
7198.387264427985
 21
1148.398738147876
  0
ENDBLK
  5
6B
330
69
100
AcDbEntity
  8
0
100
AcDbBlockEnd
  0
BLOCK
  5
6D
330
6C
100
AcDbEntity
  8
0
100
AcDbBlockBegin
  2
*D4
 70
    1
 10
0
 20
0
  3
*D4
  1

  0
LINE
  5
C6
100
AcDbEntity
  8
0
  6
ByBlock
 62
    0
370
   -2
100
AcDbLine
 10
5526.600441069669
 20
2548.820544681749
 11
5841.595441069669
 21
2548.820544681749
  0
SOLID
  5
C7
100
AcDbEntity
  8
0
  6
ByBlock
 62
    0
370
   -2
100
AcDbTrace
 10
5526.600441069669
 20
2548.820544681749
 30
0
 11
5529.100441069669
 21
2549.236829339522
 31
0
 12
5529.100441069669
 22
2548.404260023976
 32
0
 13
5529.100441069669
 23
2548.404260023976
 33
0
  0
SOLID
  5
C8
100
AcDbEntity
  8
0
  6
ByBlock
 62
    0
370
   -2
100
AcDbTrace
 10
5841.595441069669
 20
2548.820544681749
 30
0
 11
5839.095441069669
 21
2548.404260023976
 31
0
 12
5839.095441069669
 22
2549.236829339522
 32
0
 13
5839.095441069669
 23
2549.236829339522
 33
0
  0
MTEXT
  5
C9
100
AcDbEntity
  8
0
  6
CONTINUOUS
 62
    0
370
   -2
100
AcDbMText
 10
5684.097941069669
 20
2567.843395977792
 30
0
 40
2.5
 41
9.583333333333488
 71
    5
 72
    1
  1
314,99
  7
Standard
210
0
220
0
230
1
 50
0
 73
    2
 44
1
  0
LINE
  5
CA
100
AcDbEntity
  8
0
  6
ByBlock
 62
    0
370
   -2
100
AcDbLine
 10
5526.600441069669
 20
2484.020532166789
 11
5526.600441069669
 21
2550.070544681749
  0
LINE
  5
CB
100
AcDbEntity
  8
0
  6
ByBlock
 62
    0
370
   -2
100
AcDbLine
 10
5841.595441069669
 20
2338.393738147876
 11
5841.595441069669
 21
2550.070544681749
  0
ENDBLK
  5
6E
330
6C
100
AcDbEntity
  8
0
100
AcDbBlockEnd
  0
BLOCK
  5
70
330
6F
100
AcDbEntity
  8
0
100
AcDbBlockBegin
  2
*D8
 70
    1
 10
0
 20
0
  3
*D8
  1

  0
LINE
  5
CC
100
AcDbEntity
  8
0
  6
ByBlock
 62
    0
370
   -2
100
AcDbLine
 10
5047.429660463592
 20
1148.398738147876
 11
5047.429660463592
 21
1978.398621754411
  0
SOLID
  5
CD
100
AcDbEntity
  8
0
  6
ByBlock
 62
    0
370
   -2
100
AcDbTrace
 10
5047.429660463592
 20
1148.398738147876
 30
0
 11
5047.013375805819
 21
1150.898738147876
 31
0
 12
5047.845945121365
 22
1150.898738147876
 32
0
 13
5047.845945121365
 23
1150.898738147876
 33
0
  0
SOLID
  5
CE
100
AcDbEntity
  8
0
  6
ByBlock
 62
    0
370
   -2
100
AcDbTrace
 10
5047.429660463592
 20
1978.398621754411
 30
0
 11
5047.845945121365
 21
1975.898621754411
 31
0
 12
5047.013375805819
 22
1975.898621754411
 32
0
 13
5047.013375805819
 23
1975.898621754411
 33
0
  0
MTEXT
  5
CF
100
AcDbEntity
  8
0
  6
CONTINUOUS
 62
    0
370
   -2
100
AcDbMText
 10
5028.406809167548
 20
1563.398679951144
 30
0
 40
2.5
 41
5.000000000000155
 71
    5
 72
    1
  1
830
  7
Standard
210
0
220
0
230
1
 50
90
 73
    2
 44
1
  0
LINE
  5
D0
100
AcDbEntity
  8
0
  6
ByBlock
 62
    0
370
   -2
100
AcDbLine
 10
5245.345441069669
 20
1148.398738147876
 11
5046.179660463592
 21
1148.398738147876
  0
LINE
  5
D1
100
AcDbEntity
  8
0
  6
ByBlock
 62
    0
370
   -2
100
AcDbLine
 10
5215.345441069669
 20
1978.398621754411
 11
5046.179660463592
 21
1978.398621754411
  0
ENDBLK
  5
71
330
6F
100
AcDbEntity
  8
0
100
AcDbBlockEnd
  0
BLOCK
  5
73
330
72
100
AcDbEntity
  8
0
100
AcDbBlockBegin
  2
*D16
 70
    1
 10
0
 20
0
  3
*D16
  1

  0
LINE
  5
D2
100
AcDbEntity
  8
0
  6
ByBlock
 62
    0
370
   -2
100
AcDbLine
 10
6037.583254296287
 20
1289.398738147876
 11
6037.583254296287
 21
2194.398738147876
  0
SOLID
  5
D3
100
AcDbEntity
  8
0
  6
ByBlock
 62
    0
370
   -2
100
AcDbTrace
 10
6037.583254296287
 20
1289.398738147876
 30
0
 11
6037.166969638514
 21
1291.898738147876
 31
0
 12
6037.99953895406
 22
1291.898738147876
 32
0
 13
6037.99953895406
 23
1291.898738147876
 33
0
  0
SOLID
  5
D4
100
AcDbEntity
  8
0
  6
ByBlock
 62
    0
370
   -2
100
AcDbTrace
 10
6037.583254296287
 20
2194.398738147876
 30
0
 11
6037.99953895406
 21
2191.898738147876
 31
0
 12
6037.166969638514
 22
2191.898738147876
 32
0
 13
6037.166969638514
 23
2191.898738147876
 33
0
  0
MTEXT
  5
D5
100
AcDbEntity
  8
0
  6
CONTINUOUS
 62
    0
370
   -2
100
AcDbMText
 10
6018.568929603244
 20
1741.898738147877
 30
0
 40
2.5
 41
5.00000000000031
 71
    5
 72
    1
  1
905
  7
Standard
210
0
220
0
230
1
 50
90
 73
    2
 44
1
  0
LINE
  5
D6
100
AcDbEntity
  8
0
  6
ByBlock
 62
    0
370
   -2
100
AcDbLine
 10
6134.467917220832
 20
1289.398738147876
 11
6036.333254296287
 21
1289.398738147876
  0
LINE
  5
D7
100
AcDbEntity
  8
0
  6
ByBlock
 62
    0
370
   -2
100
AcDbLine
 10
6134.467917220832
 20
2194.398738147876
 11
6036.333254296287
 21
2194.398738147876
  0
ENDBLK
  5
74
330
72
100
AcDbEntity
  8
0
100
AcDbBlockEnd
  0
BLOCK
  5
76
330
75
100
AcDbEntity
  8
0
100
AcDbBlockBegin
  2
*D15
 70
    1
 10
0
 20
0
  3
*D15
  1

  0
LINE
  5
D8
100
AcDbEntity
  8
0
  6
ByBlock
 62
    0
370
   -2
100
AcDbLine
 10
6037.583254296286
 20
1129.398738147876
 11
6037.583254296286
 21
1279.398738147876
  0
SOLID
  5
D9
100
AcDbEntity
  8
0
  6
ByBlock
 62
    0
370
   -2
100
AcDbTrace
 10
6037.583254296286
 20
1129.398738147876
 30
0
 11
6037.166969638513
 21
1131.898738147876
 31
0
 12
6037.999538954059
 22
1131.898738147876
 32
0
 13
6037.999538954059
 23
1131.898738147876
 33
0
  0
SOLID
  5
DA
100
AcDbEntity
  8
0
  6
ByBlock
 62
    0
370
   -2
100
AcDbTrace
 10
6037.583254296286
 20
1279.398738147876
 30
0
 11
6037.999538954059
 21
1276.898738147876
 31
0
 12
6037.166969638513
 22
1276.898738147876
 32
0
 13
6037.166969638513
 23
1276.898738147876
 33
0
  0
MTEXT
  5
DB
100
AcDbEntity
  8
0
  6
CONTINUOUS
 62
    0
370
   -2
100
AcDbMText
 10
6018.568929603244
 20
1204.398738147877
 30
0
 40
2.5
 41
4.444444444444599
 71
    5
 72
    1
  1
150
  7
Standard
210
0
220
0
230
1
 50
90
 73
    2
 44
1
  0
LINE
  5
DC
100
AcDbEntity
  8
0
  6
ByBlock
 62
    0
370
   -2
100
AcDbLine
 10
6134.467917220832
 20
1129.398738147876
 11
6036.333254296286
 21
1129.398738147876
  0
LINE
  5
DD
100
AcDbEntity
  8
0
  6
ByBlock
 62
    0
370
   -2
100
AcDbLine
 10
6134.467917220832
 20
1279.398738147876
 11
6036.333254296286
 21
1279.398738147876
  0
ENDBLK
  5
77
330
75
100
AcDbEntity
  8
0
100
AcDbBlockEnd
  0
BLOCK
  5
79
330
78
100
AcDbEntity
  8
0
100
AcDbBlockBegin
  2
*D20
 70
    1
 10
0
 20
0
  3
*D20
  1

  0
LINE
  5
DE
100
AcDbEntity
  8
0
  6
ByBlock
 62
    0
370
   -2
100
AcDbLine
 10
6534.265135994549
 20
2024.398738147876
 11
6534.265135994549
 21
2124.398738147876
  0
SOLID
  5
DF
100
AcDbEntity
  8
0
  6
ByBlock
 62
    0
370
   -2
100
AcDbTrace
 10
6534.265135994549
 20
2024.398738147876
 30
0
 11
6533.848851336777
 21
2026.898738147876
 31
0
 12
6534.681420652322
 22
2026.898738147876
 32
0
 13
6534.681420652322
 23
2026.898738147876
 33
0
  0
SOLID
  5
E0
100
AcDbEntity
  8
0
  6
ByBlock
 62
    0
370
   -2
100
AcDbTrace
 10
6534.265135994549
 20
2124.398738147876
 30
0
 11
6534.681420652322
 21
2121.898738147876
 31
0
 12
6533.848851336777
 22
2121.898738147876
 32
0
 13
6533.848851336777
 23
2121.898738147876
 33
0
  0
MTEXT
  5
E1
100
AcDbEntity
  8
0
  6
CONTINUOUS
 62
    0
370
   -2
100
AcDbMText
 10
6515.250811301506
 20
2074.398738147877
 30
0
 40
2.5
 41
4.444444444444445
 71
    5
 72
    1
  1
100
  7
Standard
210
0
220
0
230
1
 50
90
 73
    2
 44
1
  0
LINE
  5
E2
100
AcDbEntity
  8
0
  6
ByBlock
 62
    0
370
   -2
100
AcDbLine
 10
6476.717917220832
 20
2024.398738147876
 11
6535.515135994549
 21
2024.398738147876
  0
LINE
  5
E3
100
AcDbEntity
  8
0
  6
ByBlock
 62
    0
370
   -2
100
AcDbLine
 10
6476.717917220832
 20
2124.398738147876
 11
6535.515135994549
 21
2124.398738147876
  0
ENDBLK
  5
7A
330
78
100
AcDbEntity
  8
0
100
AcDbBlockEnd
  0
BLOCK
  5
7C
330
7B
100
AcDbEntity
  8
0
100
AcDbBlockBegin
  2
*D7
 70
    1
 10
0
 20
0
  3
*D7
  1

  0
LINE
  5
E4
100
AcDbEntity
  8
0
  6
ByBlock
 62
    0
370
   -2
100
AcDbLine
 10
5123.759386935823
 20
1878.394210711883
 11
5123.759386935823
 21
1148.398738147876
  0
SOLID
  5
E5
100
AcDbEntity
  8
0
  6
ByBlock
 62
    0
370
   -2
100
AcDbTrace
 10
5123.759386935823
 20
1878.394210711883
 30
0
 11
5124.175671593596
 21
1875.894210711883
 31
0
 12
5123.343102278051
 22
1875.894210711883
 32
0
 13
5123.343102278051
 23
1875.894210711883
 33
0
  0
SOLID
  5
E6
100
AcDbEntity
  8
0
  6
ByBlock
 62
    0
370
   -2
100
AcDbTrace
 10
5123.759386935823
 20
1148.398738147876
 30
0
 11
5123.343102278051
 21
1150.898738147876
 31
0
 12
5124.175671593596
 22
1150.898738147876
 32
0
 13
5124.175671593596
 23
1150.898738147876
 33
0
  0
MTEXT
  5
E7
100
AcDbEntity
  8
0
  6
CONTINUOUS
 62
    0
370
   -2
100
AcDbMText
 10
5104.73653563978
 20
1513.396474429881
 30
0
 40
2.5
 41
5.000000000000155
 71
    5
 72
    1
  1
730
  7
Standard
210
0
220
0
230
1
 50
90
 73
    2
 44
1
  0
LINE
  5
E8
100
AcDbEntity
  8
0
  6
ByBlock
 62
    0
370
   -2
100
AcDbLine
 10
5245.345441069669
 20
1878.394210711883
 11
5122.509386935823
 21
1878.394210711883
  0
LINE
  5
E9
100
AcDbEntity
  8
0
  6
ByBlock
 62
    0
370
   -2
100
AcDbLine
 10
5245.345441069669
 20
1148.398738147876
 11
5122.509386935823
 21
1148.398738147876
  0
ENDBLK
  5
7D
330
7B
100
AcDbEntity
  8
0
100
AcDbBlockEnd
  0
BLOCK
  5
7F
330
7E
100
AcDbEntity
  8
0
100
AcDbBlockBegin
  2
*D18
 70
    1
 10
0
 20
0
  3
*D18
  1

  0
LINE
  5
EA
100
AcDbEntity
  8
0
  6
ByBlock
 62
    0
370
   -2
100
AcDbLine
 10
6037.583254296287
 20
2349.398738147876
 11
6037.583254296287
 21
2204.398738147876
  0
SOLID
  5
EB
100
AcDbEntity
  8
0
  6
ByBlock
 62
    0
370
   -2
100
AcDbTrace
 10
6037.583254296287
 20
2349.398738147876
 30
0
 11
6037.99953895406
 21
2346.898738147876
 31
0
 12
6037.166969638514
 22
2346.898738147876
 32
0
 13
6037.166969638514
 23
2346.898738147876
 33
0
  0
SOLID
  5
EC
100
AcDbEntity
  8
0
  6
ByBlock
 62
    0
370
   -2
100
AcDbTrace
 10
6037.583254296287
 20
2204.398738147876
 30
0
 11
6037.166969638514
 21
2206.898738147876
 31
0
 12
6037.99953895406
 22
2206.898738147876
 32
0
 13
6037.99953895406
 23
2206.898738147876
 33
0
  0
MTEXT
  5
ED
100
AcDbEntity
  8
0
  6
CONTINUOUS
 62
    0
370
   -2
100
AcDbMText
 10
6018.568929603244
 20
2276.898738147877
 30
0
 40
2.5
 41
4.722222222222378
 71
    5
 72
    1
  1
145
  7
Standard
210
0
220
0
230
1
 50
90
 73
    2
 44
1
  0
LINE
  5
EE
100
AcDbEntity
  8
0
  6
ByBlock
 62
    0
370
   -2
100
AcDbLine
 10
6134.467917220832
 20
2349.398738147876
 11
6036.333254296287
 21
2349.398738147876
  0
LINE
  5
EF
100
AcDbEntity
  8
0
  6
ByBlock
 62
    0
370
   -2
100
AcDbLine
 10
6134.467917220832
 20
2204.398738147876
 11
6036.333254296287
 21
2204.398738147876
  0
ENDBLK
  5
80
330
7E
100
AcDbEntity
  8
0
100
AcDbBlockEnd
  0
BLOCK
  5
82
330
81
100
AcDbEntity
  8
0
100
AcDbBlockBegin
  2
*D17
 70
    1
 10
0
 20
0
  3
*D17
  1

  0
LINE
  5
F0
100
AcDbEntity
  8
0
  6
ByBlock
 62
    0
370
   -2
100
AcDbLine
 10
6037.583254296287
 20
2499.398738147876
 11
6037.583254296287
 21
2359.398738147876
  0
SOLID
  5
F1
100
AcDbEntity
  8
0
  6
ByBlock
 62
    0
370
   -2
100
AcDbTrace
 10
6037.583254296287
 20
2499.398738147876
 30
0
 11
6037.99953895406
 21
2496.898738147876
 31
0
 12
6037.166969638514
 22
2496.898738147876
 32
0
 13
6037.166969638514
 23
2496.898738147876
 33
0
  0
SOLID
  5
F2
100
AcDbEntity
  8
0
  6
ByBlock
 62
    0
370
   -2
100
AcDbTrace
 10
6037.583254296287
 20
2359.398738147876
 30
0
 11
6037.166969638514
 21
2361.898738147876
 31
0
 12
6037.99953895406
 22
2361.898738147876
 32
0
 13
6037.99953895406
 23
2361.898738147876
 33
0
  0
MTEXT
  5
F3
100
AcDbEntity
  8
0
  6
CONTINUOUS
 62
    0
370
   -2
100
AcDbMText
 10
6018.568929603244
 20
2429.398738147877
 30
0
 40
2.5
 41
4.722222222222222
 71
    5
 72
    1
  1
140
  7
Standard
210
0
220
0
230
1
 50
90
 73
    2
 44
1
  0
LINE
  5
F4
100
AcDbEntity
  8
0
  6
ByBlock
 62
    0
370
   -2
100
AcDbLine
 10
6134.467917220832
 20
2499.398738147876
 11
6036.333254296287
 21
2499.398738147876
  0
LINE
  5
F5
100
AcDbEntity
  8
0
  6
ByBlock
 62
    0
370
   -2
100
AcDbLine
 10
6134.467917220832
 20
2359.398738147876
 11
6036.333254296287
 21
2359.398738147876
  0
ENDBLK
  5
83
330
81
100
AcDbEntity
  8
0
100
AcDbBlockEnd
  0
BLOCK
  5
85
330
84
100
AcDbEntity
  8
0
100
AcDbBlockBegin
  2
*D3
 70
    1
 10
0
 20
0
  3
*D3
  1

  0
LINE
  5
F6
100
AcDbEntity
  8
0
  6
ByBlock
 62
    0
370
   -2
100
AcDbLine
 10
5542.225441069669
 20
2498.395532166789
 11
5639.405434698228
 21
2498.395532166789
  0
LINE
  5
F7
100
AcDbEntity
  8
0
  6
ByBlock
 62
    0
370
   -2
100
AcDbLine
 10
5542.225441069669
 20
1148.398738147876
 11
5639.405434698228
 21
1148.398738147876
  0
LINE
  5
F8
100
AcDbEntity
  8
0
  6
ByBlock
 62
    0
370
   -2
100
AcDbLine
 10
5638.155434698228
 20
2498.395532166789
 11
5638.155434698228
 21
1148.398738147876
  0
SOLID
  5
F9
100
AcDbEntity
  8
0
  6
ByBlock
 62
    0
370
   -2
100
AcDbTrace
 10
5638.155434698228
 20
2498.395532166789
 30
0
 11
5638.571719356001
 21
2495.895532166789
 31
0
 12
5637.739150040456
 22
2495.895532166789
 32
0
 13
5637.739150040456
 23
2495.895532166789
 33
0
  0
SOLID
  5
FA
100
AcDbEntity
  8
0
  6
ByBlock
 62
    0
370
   -2
100
AcDbTrace
 10
5638.155434698228
 20
1148.398738147876
 30
0
 11
5637.739150040456
 21
1150.898738147876
 31
0
 12
5638.571719356001
 22
1150.898738147876
 32
0
 13
5638.571719356001
 23
1150.898738147876
 33
0
  0
MTEXT
  5
FB
100
AcDbEntity
  8
0
  6
CONTINUOUS
 62
    0
370
   -2
100
AcDbMText
 10
5619.132583402185
 20
1823.397135157333
 30
0
 40
2.5
 41
6.388888888889199
 71
    5
 72
    1
  1
1350
  7
Standard
210
0
220
0
230
1
 50
90
 73
    2
 44
1
  0
ENDBLK
  5
86
330
84
100
AcDbEntity
  8
0
100
AcDbBlockEnd
  0
BLOCK
  5
88
330
87
100
AcDbEntity
  8
0
100
AcDbBlockBegin
  2
*D12
 70
    1
 10
0
 20
0
  3
*D12
  1

  0
LINE
  5
FC
100
AcDbEntity
  8
0
  6
ByBlock
 62
    0
370
   -2
100
AcDbLine
 10
7097.092917220832
 20
2603.236403161273
 11
6621.092917220832
 21
2603.236403161273
  0
SOLID
  5
FD
100
AcDbEntity
  8
0
  6
ByBlock
 62
    0
370
   -2
100
AcDbTrace
 10
7097.092917220832
 20
2603.236403161273
 30
0
 11
7094.592917220832
 21
2602.8201185035
 31
0
 12
7094.592917220832
 22
2603.652687819046
 32
0
 13
7094.592917220832
 23
2603.652687819046
 33
0
  0
SOLID
  5
FE
100
AcDbEntity
  8
0
  6
ByBlock
 62
    0
370
   -2
100
AcDbTrace
 10
6621.092917220832
 20
2603.236403161273
 30
0
 11
6623.592917220832
 21
2603.652687819046
 31
0
 12
6623.592917220832
 22
2602.8201185035
 32
0
 13
6623.592917220832
 23
2602.8201185035
 33
0
  0
MTEXT
  5
FF
100
AcDbEntity
  8
0
  6
CONTINUOUS
 62
    0
370
   -2
100
AcDbMText
 10
6859.092917220832
 20
2622.250727854315
 30
0
 40
2.5
 41
5.277777777777933
 71
    5
 72
    1
  1
476
  7
Standard
210
0
220
0
230
1
 50
360
 73
    2
 44
1
  0
LINE
  5
100
100
AcDbEntity
  8
0
  6
ByBlock
 62
    0
370
   -2
100
AcDbLine
 10
7097.092917220832
 20
2500.023738147876
 11
7097.092917220832
 21
2604.486403161273
  0
LINE
  5
101
100
AcDbEntity
  8
0
  6
ByBlock
 62
    0
370
   -2
100
AcDbLine
 10
6621.092917220832
 20
2500.023738147876
 11
6621.092917220832
 21
2604.486403161273
  0
ENDBLK
  5
89
330
87
100
AcDbEntity
  8
0
100
AcDbBlockEnd
  0
ENDSEC
  0
SECTION
  2
ENTITIES
  0
LWPOLYLINE
  5
102
100
AcDbEntity
  8
0
  6
ByLayer
 62
  256
370
   -1
100
AcDbPolyline
 90
    4
 70
    1
 43
0
 10
1836.200735429766
 20
2499.398738147876
 10
2312.200735429766
 20
2499.398738147876
 10
2312.200735429766
 20
2359.398738147876
 10
1836.200735429766
 20
2359.398738147876
  0
LWPOLYLINE
  5
103
100
AcDbEntity
  8
0
  6
ByLayer
 62
  256
370
   -1
100
AcDbPolyline
 90
    4
 70
    1
 43
0
 10
1836.200735429766
 20
2204.398738147876
 10
2312.200735429766
 20
2204.398738147876
 10
2312.200735429766
 20
2349.398738147876
 10
1836.200735429766
 20
2349.398738147876
  0
LWPOLYLINE
  5
104
100
AcDbEntity
  8
0
  6
ByLayer
 62
  256
370
   -1
100
AcDbPolyline
 90
    4
 70
    1
 43
0
 10
1836.200735429766
 20
2194.398738147876
 10
2312.200735429766
 20
2194.398738147876
 10
2312.200735429766
 20
1289.398738147876
 10
1836.200735429766
 20
1289.398738147876
  0
LWPOLYLINE
  5
105
100
AcDbEntity
  8
0
  6
ByLayer
 62
  256
370
   -1
100
AcDbPolyline
 90
    4
 70
    1
 43
0
 10
2322.200735429766
 20
2499.398738147876
 10
2798.200735429766
 20
2499.398738147876
 10
2798.200735429766
 20
1699.398738147876
 10
2322.200735429766
 20
1699.398738147876
  0
LWPOLYLINE
  5
106
100
AcDbEntity
  8
0
  6
ByLayer
 62
  256
370
   -1
100
AcDbPolyline
 90
    4
 70
    1
 43
0
 10
1836.200735429766
 20
1279.398738147876
 10
2312.200735429766
 20
1279.398738147876
 10
2312.200735429766
 20
1129.398738147876
 10
1836.200735429766
 20
1129.398738147876
  0
LWPOLYLINE
  5
107
100
AcDbEntity
  8
0
  6
ByLayer
 62
  256
370
   -1
100
AcDbPolyline
 90
    4
 70
    1
 43
0
 10
2322.200735429766
 20
1689.398738147876
 10
2798.200735429766
 20
1689.398738147876
 10
2798.200735429766
 20
1148.398738147876
 10
2322.200735429766
 20
1148.398738147876
  0
LWPOLYLINE
  5
108
100
AcDbEntity
  8
0
  6
ByLayer
 62
  256
370
   -1
100
AcDbPolyline
 90
    4
 70
    1
 43
0
 10
1861.200735429766
 20
1249.398738147876
 10
2287.200735429766
 20
1249.398738147876
 10
2287.200735429766
 20
1159.398738147876
 10
1861.200735429766
 20
1159.398738147876
  0
LWPOLYLINE
  5
109
100
AcDbEntity
  8
0
  6
ByLayer
 62
  256
370
   -1
100
AcDbPolyline
 90
    4
 70
    1
 43
0
 10
1977.200735429766
 20
2124.398738147876
 10
2177.200735429766
 20
2124.398738147876
 10
2177.200735429766
 20
2024.398738147876
 10
1977.200735429766
 20
2024.398738147876
  0
LWPOLYLINE
  5
10A
100
AcDbEntity
  8
0
  6
ByLayer
 62
  256
370
   -1
100
AcDbPolyline
 90
    4
 70
    1
 43
0
 10
1977.200735429766
 20
1359.398738147876
 10
2177.200735429766
 20
1359.398738147876
 10
2177.200735429766
 20
1459.398738147876
 10
1977.200735429766
 20
1459.398738147876
  0
LINE
  5
10B
100
AcDbEntity
  8
0
  6
ByLayer
 62
  256
370
   -1
100
AcDbLine
 10
5840.970441069669
 20
1148.398738147876
 11
5840.970441069669
 21
2337.768738147876
  0
DIMENSION
  5
10C
100
AcDbEntity
  8
0
  6
ByLayer
 62
  256
370
   -1
100
AcDbDimension
  2
*D1
 10
5840.970441069669
 20
1058.64721559954
 30
0
 11
5543.470441069669
 21
1077.661540292582
 31
0
 70
   32
 71
    5
 72
    0
  3
ISO-25
 53
0
210
0
220
0
230
1
100
AcDbAlignedDimension
 13
5245.970441069669
 23
1148.398738147876
 33
0
 14
5840.970441069669
 24
1148.398738147876
 34
0
100
AcDbRotatedDimension
  0
DIMENSION
  5
10D
100
AcDbEntity
  8
0
  6
ByLayer
 62
  256
370
   -1
100
AcDbDimension
  2
*D2
 10
5908.286369964754
 20
2337.768738147876
 30
0
 11
5889.272045271711
 21
1742.771238147877
 31
0
 70
   32
 71
    5
 72
    0
  3
ISO-25
 53
0
210
0
220
0
230
1
100
AcDbAlignedDimension
 13
5840.970441069669
 23
1147.773738147876
 33
0
 14
5840.970441069669
 24
2337.768738147876
 34
0
 50
90
100
AcDbRotatedDimension
  0
DIMENSION
  5
10E
100
AcDbEntity
  8
0
  6
ByLayer
 62
  256
370
   -1
100
AcDbDimension
  2
*D3
 10
5638.155434698228
 20
1148.398738147876
 30
0
 11
5619.132583402185
 21
1823.397135157333
 31
0
 70
   33
 71
    5
 72
    0
  3
ISO-25
 53
0
210
0
220
0
230
1
100
AcDbAlignedDimension
 13
5541.600441069669
 23
2498.395532166789
 33
0
 14
5541.600441069669
 24
1148.398738147876
 34
0
  0
DIMENSION
  5
10F
100
AcDbEntity
  8
0
  6
ByLayer
 62
  256
370
   -1
100
AcDbDimension
  2
*D4
 10
5841.595441069669
 20
2548.820544681749
 30
0
 11
5684.097941069669
 21
2567.843395977792
 31
0
 70
   32
 71
    5
 72
    0
  3
ISO-25
 53
0
210
0
220
0
230
1
100
AcDbAlignedDimension
 13
5526.600441069669
 23
2483.395532166789
 33
0
 14
5841.595441069669
 24
2337.768738147876
 34
0
100
AcDbRotatedDimension
  0
DIMENSION
  5
110
100
AcDbEntity
  8
0
  6
ByLayer
 62
  256
370
   -1
100
AcDbDimension
  2
*D5
 10
5840.970441069669
 20
2024.513729825841
 30
0
 11
5528.470441069669
 21
2043.528054518883
 31
0
 70
   32
 71
    5
 72
    0
  3
ISO-25
 53
0
210
0
220
0
230
1
100
AcDbAlignedDimension
 13
5215.970441069669
 23
2068.287861651097
 33
0
 14
5840.970441069669
 24
2068.497861651097
 34
0
100
AcDbRotatedDimension
  0
DIMENSION
  5
111
100
AcDbEntity
  8
0
  6
ByLayer
 62
  256
370
   -1
100
AcDbDimension
  2
*D6
 10
5840.970441069669
 20
2180.258941802509
 30
0
 11
5625.971060487682
 21
2180.258941802509
 31
0
 70
   32
 71
    5
 72
    0
  3
ISO-25
 53
0
210
0
220
0
230
1
100
AcDbAlignedDimension
 13
5410.971679905694
 23
2202.724498125559
 33
0
 14
5840.970441069669
 24
2202.724498125559
 34
0
100
AcDbRotatedDimension
  0
DIMENSION
  5
112
100
AcDbEntity
  8
0
  6
ByLayer
 62
  256
370
   -1
100
AcDbDimension
  2
*D7
 10
5123.759386935823
 20
1148.398738147876
 30
0
 11
5104.73653563978
 21
1513.396474429881
 31
0
 70
   32
 71
    5
 72
    0
  3
ISO-25
 53
0
210
0
220
0
230
1
100
AcDbAlignedDimension
 13
5245.970441069669
 23
1878.394210711883
 33
0
 14
5245.970441069669
 24
1148.398738147876
 34
0
 50
90
100
AcDbRotatedDimension
  0
DIMENSION
  5
113
100
AcDbEntity
  8
0
  6
ByLayer
 62
  256
370
   -1
100
AcDbDimension
  2
*D8
 10
5047.429660463592
 20
1978.398621754411
 30
0
 11
5028.406809167548
 21
1563.398679951144
 31
0
 70
   32
 71
    5
 72
    0
  3
ISO-25
 53
0
210
0
220
0
230
1
100
AcDbAlignedDimension
 13
5245.970441069669
 23
1148.398738147876
 33
0
 14
5215.970441069669
 24
1978.398621754411
 34
0
 50
90
100
AcDbRotatedDimension
  0
DIMENSION
  5
114
100
AcDbEntity
  8
0
  6
ByLayer
 62
  256
370
   -1
100
AcDbDimension
  2
*D9
 10
4985.358426848085
 20
2098.398141229757
 30
0
 11
4966.344102155042
 21
1623.398439688817
 31
0
 70
   32
 71
    5
 72
    0
  3
ISO-25
 53
0
210
0
220
0
230
1
100
AcDbAlignedDimension
 13
5245.970441069669
 23
1148.398738147876
 33
0
 14
5233.275106114311
 24
2098.398141229757
 34
0
 50
90
100
AcDbRotatedDimension
  0
DIMENSION
  5
115
100
AcDbEntity
  8
0
  6
ByLayer
 62
  256
370
   -1
100
AcDbDimension
  2
*D10
 10
5422.988097006809
 20
2413.395532166789
 30
0
 11
5403.973772313766
 21
2455.89553216679
 31
0
 70
   32
 71
    5
 72
    0
  3
ISO-25
 53
0
210
0
220
0
230
1
100
AcDbAlignedDimension
 13
5541.600441069669
 23
2498.395532166789
 33
0
 14
5525.905265308719
 24
2413.395532166789
 34
0
 50
90
100
AcDbRotatedDimension
  0
LWPOLYLINE
  5
116
100
AcDbEntity
  8
0
  6
ByLayer
 62
  256
370
   -1
100
AcDbPolyline
 90
    4
 70
    1
 43
0
 10
6135.092917220832
 20
2499.398738147876
 10
6611.092917220832
 20
2499.398738147876
 10
6611.092917220832
 20
2359.398738147876
 10
6135.092917220832
 20
2359.398738147876
  0
LWPOLYLINE
  5
117
100
AcDbEntity
  8
0
  6
ByLayer
 62
  256
370
   -1
100
AcDbPolyline
 90
    4
 70
    1
 43
0
 10
6135.092917220832
 20
2204.398738147876
 10
6611.092917220832
 20
2204.398738147876
 10
6611.092917220832
 20
2349.398738147876
 10
6135.092917220832
 20
2349.398738147876
  0
LWPOLYLINE
  5
118
100
AcDbEntity
  8
0
  6
ByLayer
 62
  256
370
   -1
100
AcDbPolyline
 90
    4
 70
    1
 43
0
 10
6135.092917220832
 20
2194.398738147876
 10
6611.092917220832
 20
2194.398738147876
 10
6611.092917220832
 20
1289.398738147876
 10
6135.092917220832
 20
1289.398738147876
  0
LWPOLYLINE
  5
119
100
AcDbEntity
  8
0
  6
ByLayer
 62
  256
370
   -1
100
AcDbPolyline
 90
    4
 70
    1
 43
0
 10
6621.092917220832
 20
2499.398738147876
 10
7097.092917220832
 20
2499.398738147876
 10
7097.092917220832
 20
1699.398738147876
 10
6621.092917220832
 20
1699.398738147876
  0
LWPOLYLINE
  5
11A
100
AcDbEntity
  8
0
  6
ByLayer
 62
  256
370
   -1
100
AcDbPolyline
 90
    4
 70
    1
 43
0
 10
6135.092917220832
 20
1279.398738147876
 10
6611.092917220832
 20
1279.398738147876
 10
6611.092917220832
 20
1129.398738147876
 10
6135.092917220832
 20
1129.398738147876
  0
LWPOLYLINE
  5
11B
100
AcDbEntity
  8
0
  6
ByLayer
 62
  256
370
   -1
100
AcDbPolyline
 90
    4
 70
    1
 43
0
 10
6160.092917220832
 20
1249.398738147876
 10
6586.092917220832
 20
1249.398738147876
 10
6586.092917220832
 20
1159.398738147876
 10
6160.092917220832
 20
1159.398738147876
  0
LWPOLYLINE
  5
11C
100
AcDbEntity
  8
0
  6
ByLayer
 62
  256
370
   -1
100
AcDbPolyline
 90
    4
 70
    1
 43
0
 10
6621.092917220832
 20
1689.398738147876
 10
7097.092917220832
 20
1689.398738147876
 10
7097.092917220832
 20
1148.398738147876
 10
6621.092917220832
 20
1148.398738147876
  0
LWPOLYLINE
  5
11D
100
AcDbEntity
  8
0
  6
ByLayer
 62
  256
370
   -1
100
AcDbPolyline
 90
    4
 70
    1
 43
0
 10
6276.092917220832
 20
2124.398738147876
 10
6476.092917220832
 20
2124.398738147876
 10
6476.092917220832
 20
2024.398738147876
 10
6276.092917220832
 20
2024.398738147876
  0
LWPOLYLINE
  5
11E
100
AcDbEntity
  8
0
  6
ByLayer
 62
  256
370
   -1
100
AcDbPolyline
 90
    4
 70
    1
 43
0
 10
6276.092917220832
 20
1359.398738147876
 10
6476.092917220832
 20
1359.398738147876
 10
6476.092917220832
 20
1459.398738147876
 10
6276.092917220832
 20
1459.398738147876
  0
DIMENSION
  5
11F
100
AcDbEntity
  8
0
  6
ByLayer
 62
  256
370
   -1
100
AcDbDimension
  2
*D11
 10
6611.092917220832
 20
2603.236403161273
 30
0
 11
6373.092917220832
 21
2622.250727854315
 31
0
 70
   32
 71
    5
 72
    0
  3
ISO-25
 53
0
210
0
220
0
230
1
100
AcDbAlignedDimension
 13
6135.092917220832
 23
2499.398738147876
 33
0
 14
6611.092917220832
 24
2499.398738147876
 34
0
100
AcDbRotatedDimension
  0
DIMENSION
  5
120
100
AcDbEntity
  8
0
  6
ByLayer
 62
  256
370
   -1
100
AcDbDimension
  2
*D12
 10
6621.092917220832
 20
2603.236403161273
 30
0
 11
6859.092917220832
 21
2622.250727854315
 31
0
 70
   32
 71
    5
 72
    0
  3
ISO-25
 53
0
210
0
220
0
230
1
100
AcDbAlignedDimension
 13
7097.092917220832
 23
2499.398738147876
 33
0
 14
6621.092917220832
 24
2499.398738147876
 34
0
100
AcDbRotatedDimension
  0
DIMENSION
  5
121
100
AcDbEntity
  8
0
  6
ByLayer
 62
  256
370
   -1
100
AcDbDimension
  2
*D13
 10
7197.137264427985
 20
1699.398738147876
 30
0
 11
7178.122939734943
 21
2099.398738147877
 31
0
 70
   32
 71
    5
 72
    0
  3
ISO-25
 53
0
210
0
220
0
230
1
100
AcDbAlignedDimension
 13
7097.092917220832
 23
2499.398738147876
 33
0
 14
7097.092917220832
 24
1699.398738147876
 34
0
 50
90
100
AcDbRotatedDimension
  0
DIMENSION
  5
122
100
AcDbEntity
  8
0
  6
ByLayer
 62
  256
370
   -1
100
AcDbDimension
  2
*D14
 10
7197.137264427985
 20
1148.398738147876
 30
0
 11
7178.122939734943
 21
1418.898738147878
 31
0
 70
   32
 71
    5
 72
    0
  3
ISO-25
 53
0
210
0
220
0
230
1
100
AcDbAlignedDimension
 13
7097.092917220832
 23
1689.398738147876
 33
0
 14
7097.092917220832
 24
1148.398738147876
 34
0
 50
90
100
AcDbRotatedDimension
  0
DIMENSION
  5
123
100
AcDbEntity
  8
0
  6
ByLayer
 62
  256
370
   -1
100
AcDbDimension
  2
*D15
 10
6037.583254296286
 20
1279.398738147876
 30
0
 11
6018.568929603244
 21
1204.398738147877
 31
0
 70
   32
 71
    5
 72
    0
  3
ISO-25
 53
0
210
0
220
0
230
1
100
AcDbAlignedDimension
 13
6135.092917220832
 23
1129.398738147876
 33
0
 14
6135.092917220832
 24
1279.398738147876
 34
0
 50
90
100
AcDbRotatedDimension
  0
DIMENSION
  5
124
100
AcDbEntity
  8
0
  6
ByLayer
 62
  256
370
   -1
100
AcDbDimension
  2
*D16
 10
6037.583254296287
 20
2194.398738147876
 30
0
 11
6018.568929603244
 21
1741.898738147877
 31
0
 70
   32
 71
    5
 72
    0
  3
ISO-25
 53
0
210
0
220
0
230
1
100
AcDbAlignedDimension
 13
6135.092917220832
 23
1289.398738147876
 33
0
 14
6135.092917220832
 24
2194.398738147876
 34
0
 50
90
100
AcDbRotatedDimension
  0
DIMENSION
  5
125
100
AcDbEntity
  8
0
  6
ByLayer
 62
  256
370
   -1
100
AcDbDimension
  2
*D17
 10
6037.583254296287
 20
2359.398738147876
 30
0
 11
6018.568929603244
 21
2429.398738147877
 31
0
 70
   32
 71
    5
 72
    0
  3
ISO-25
 53
0
210
0
220
0
230
1
100
AcDbAlignedDimension
 13
6135.092917220832
 23
2499.398738147876
 33
0
 14
6135.092917220832
 24
2359.398738147876
 34
0
 50
90
100
AcDbRotatedDimension
  0
DIMENSION
  5
126
100
AcDbEntity
  8
0
  6
ByLayer
 62
  256
370
   -1
100
AcDbDimension
  2
*D18
 10
6037.583254296287
 20
2204.398738147876
 30
0
 11
6018.568929603244
 21
2276.898738147877
 31
0
 70
   32
 71
    5
 72
    0
  3
ISO-25
 53
0
210
0
220
0
230
1
100
AcDbAlignedDimension
 13
6135.092917220832
 23
2349.398738147876
 33
0
 14
6135.092917220832
 24
2204.398738147876
 34
0
 50
90
100
AcDbRotatedDimension
  0
DIMENSION
  5
127
100
AcDbEntity
  8
0
  6
ByLayer
 62
  256
370
   -1
100
AcDbDimension
  2
*D19
 10
6476.092917220832
 20
1944.029850238274
 30
0
 11
6376.092917220832
 21
1963.044174931317
 31
0
 70
   32
 71
    5
 72
    0
  3
ISO-25
 53
0
210
0
220
0
230
1
100
AcDbAlignedDimension
 13
6276.092917220832
 23
2024.398738147876
 33
0
 14
6476.092917220832
 24
2024.398738147876
 34
0
100
AcDbRotatedDimension
  0
DIMENSION
  5
128
100
AcDbEntity
  8
0
  6
ByLayer
 62
  256
370
   -1
100
AcDbDimension
  2
*D20
 10
6534.265135994549
 20
2124.398738147876
 30
0
 11
6515.250811301506
 21
2074.398738147877
 31
0
 70
   32
 71
    5
 72
    0
  3
ISO-25
 53
0
210
0
220
0
230
1
100
AcDbAlignedDimension
 13
6476.092917220832
 23
2024.398738147876
 33
0
 14
6476.092917220832
 24
2124.398738147876
 34
0
 50
90
100
AcDbRotatedDimension
  0
LINE
  5
129
100
AcDbEntity
  8
0
  6
ByLayer
 62
  256
370
   -1
100
AcDbLine
 10
5840.970441069669
 20
1148.398738147876
 11
5840.970441069669
 21
2338.398738147876
  0
LINE
  5
12A
100
AcDbEntity
  8
0
  6
ByLayer
 62
  256
370
   -1
100
AcDbLine
 10
5840.970441069669
 20
2338.398738147876
 11
5548.099212710538
 21
2496.593282539195
  0
ARC
  5
12B
100
AcDbEntity
  8
0
  6
ByLayer
 62
  256
370
   -1
100
AcDbCircle
 10
5540.970441069669
 20
2483.395532166789
 40
15
100
AcDbArc
 50
61.62427730043212
 51
180
  0
LINE
  5
12C
100
AcDbEntity
  8
0
  6
ByLayer
 62
  256
370
   -1
100
AcDbLine
 10
5525.970441069669
 20
2483.395532166789
 11
5525.970441069669
 21
2418.607123251697
  0
LINE
  5
12D
100
AcDbEntity
  8
0
  6
ByLayer
 62
  256
370
   -1
100
AcDbLine
 10
5523.427072000001
 20
2408.846691060336
 11
5413.744863249717
 21
2212.67895993546
  0
LINE
  5
12E
100
AcDbEntity
  8
0
  6
ByLayer
 62
  256
370
   -1
100
AcDbLine
 10
5406.070093425736
 20
2204.994759906677
 11
5226.188579963317
 21
2104.128432770367
  0
LINE
  5
12F
100
AcDbEntity
  8
0
  6
ByLayer
 62
  256
370
   -1
100
AcDbLine
 10
5215.970441069669
 20
2086.683800550223
 11
5215.970441069669
 21
1981.274710784838
  0
LINE
  5
130
100
AcDbEntity
  8
0
  6
ByLayer
 62
  256
370
   -1
100
AcDbLine
 10
5216.780806163417
 20
1975.639294902691
 11
5245.16007597592
 21
1879.002624602415
  0
LINE
  5
131
100
AcDbEntity
  8
0
  6
ByLayer
 62
  256
370
   -1
100
AcDbLine
 10
5840.970441069669
 20
1148.398738147876
 11
5245.970441069669
 21
1148.398738147876
  0
LINE
  5
132
100
AcDbEntity
  8
0
  6
ByLayer
 62
  256
370
   -1
100
AcDbLine
 10
5245.970441069669
 20
1873.367208720268
 11
5245.970441069669
 21
1148.398738147876
  0
ARC
  5
133
100
AcDbEntity
  8
0
  6
ByLayer
 62
  256
370
   -1
100
AcDbCircle
 10
5235.970441069669
 20
2086.683800550223
 40
20
100
AcDbArc
 50
119.2809881493213
 51
180
  0
ARC
  5
134
100
AcDbEntity
  8
0
  6
ByLayer
 62
  256
370
   -1
100
AcDbCircle
 10
5396.288232319384
 20
2222.439392126821
 40
20
100
AcDbArc
 50
299.2809881493214
 51
330.7893695468408
  0
ARC
  5
135
100
AcDbEntity
  8
0
  6
ByLayer
 62
  256
370
   -1
100
AcDbCircle
 10
5505.970441069669
 20
2418.607123251697
 40
20
100
AcDbArc
 50
330.7893695468407
 51
0
  0
ARC
  5
136
100
AcDbEntity
  8
0
  6
ByLayer
 62
  256
370
   -1
100
AcDbCircle
 10
5235.970441069669
 20
1981.274710784838
 40
20
100
AcDbArc
 50
180
 51
196.3659197016449
  0
ARC
  5
137
100
AcDbEntity
  8
0
  6
ByLayer
 62
  256
370
   -1
100
AcDbCircle
 10
5225.970441069669
 20
1873.367208720268
 40
20
100
AcDbArc
 50
0
 51
16.36591970164492
  0
LINE
  5
138
100
AcDbEntity
  8
0
  6
ByLayer
 62
  256
370
   -1
100
AcDbLine
 10
3549.457843720587
 20
1148.398738147876
 11
3549.457843720587
 21
2337.768738147876
  0
LINE
  5
139
100
AcDbEntity
  8
0
  6
ByLayer
 62
  256
370
   -1
100
AcDbLine
 10
3549.457843720587
 20
1148.398738147876
 11
3549.457843720587
 21
2338.398738147876
  0
LINE
  5
13A
100
AcDbEntity
  8
0
  6
ByLayer
 62
  256
370
   -1
100
AcDbLine
 10
3549.457843720587
 20
2338.398738147876
 11
3256.586615361457
 21
2496.593282539195
  0
ARC
  5
13B
100
AcDbEntity
  8
0
  6
ByLayer
 62
  256
370
   -1
100
AcDbCircle
 10
3249.457843720587
 20
2483.395532166789
 40
15
100
AcDbArc
 50
61.62427730043213
 51
180
  0
LINE
  5
13C
100
AcDbEntity
  8
0
  6
ByLayer
 62
  256
370
   -1
100
AcDbLine
 10
3234.457843720587
 20
2483.395532166789
 11
3234.457843720587
 21
2418.607123251697
  0
ARC
  5
13D
100
AcDbEntity
  8
0
  6
ByLayer
 62
  256
370
   -1
100
AcDbCircle
 10
3214.457843720587
 20
2418.607123251697
 40
20
100
AcDbArc
 50
330.7893695468471
 51
0
  0
LINE
  5
13E
100
AcDbEntity
  8
0
  6
ByLayer
 62
  256
370
   -1
100
AcDbLine
 10
3231.91447465092
 20
2408.846691060336
 11
3122.232265900636
 21
2212.67895993546
  0
ARC
  5
13F
100
AcDbEntity
  8
0
  6
ByLayer
 62
  256
370
   -1
100
AcDbCircle
 10
3104.775634970303
 20
2222.439392126821
 40
20
100
AcDbArc
 50
299.2809881493151
 51
330.7893695468471
  0
LINE
  5
140
100
AcDbEntity
  8
0
  6
ByLayer
 62
  256
370
   -1
100
AcDbLine
 10
3114.557496076654
 20
2204.994759906677
 11
2934.675982614236
 21
2104.128432770367
  0
LINE
  5
141
100
AcDbEntity
  8
0
  6
ByLayer
 62
  256
370
   -1
100
AcDbLine
 10
2924.457843720587
 20
2086.683800550223
 11
2924.457843720587
 21
1981.274710784838
  0
ARC
  5
142
100
AcDbEntity
  8
0
  6
ByLayer
 62
  256
370
   -1
100
AcDbCircle
 10
2944.457843720587
 20
2086.683800550223
 40
20
100
AcDbArc
 50
119.2809881493151
 51
180
  0
LINE
  5
143
100
AcDbEntity
  8
0
  6
ByLayer
 62
  256
370
   -1
100
AcDbLine
 10
2925.268208814336
 20
1975.639294902691
 11
2953.647478626839
 21
1879.002624602415
  0
ARC
  5
144
100
AcDbEntity
  8
0
  6
ByLayer
 62
  256
370
   -1
100
AcDbCircle
 10
2944.457843720587
 20
1981.274710784838
 40
20
100
AcDbArc
 50
180
 51
196.3659197016451
  0
LINE
  5
145
100
AcDbEntity
  8
0
  6
ByLayer
 62
  256
370
   -1
100
AcDbLine
 10
3549.457843720587
 20
1148.398738147876
 11
2954.457843720587
 21
1148.398738147876
  0
LINE
  5
146
100
AcDbEntity
  8
0
  6
ByLayer
 62
  256
370
   -1
100
AcDbLine
 10
2954.457843720587
 20
1873.367208720268
 11
2954.457843720587
 21
1148.398738147876
  0
ARC
  5
147
100
AcDbEntity
  8
0
  6
ByLayer
 62
  256
370
   -1
100
AcDbCircle
 10
2934.457843720587
 20
1873.367208720268
 40
20
100
AcDbArc
 50
0
 51
16.36591970164518
  0
ENDSEC
  0
SECTION
  2
OBJECTS
  0
DICTIONARY
  5
C
330
0
100
AcDbDictionary
281
    1
  3
ACAD_GROUP
350
D
  0
DICTIONARY
  5
D
330
C
100
AcDbDictionary
281
    1
  0
ENDSEC
  0
EOF
