<?xml version="1.0" encoding="UTF-8" standalone="no"?>
<!DOCTYPE svg PUBLIC "-//W3C//DTD SVG 1.1//EN" "http://www.w3.org/Graphics/SVG/1.1/DTD/svg11.dtd">
<svg width="100%" height="100%" viewBox="0 0 756 576" version="1.1" xmlns="http://www.w3.org/2000/svg" xmlns:xlink="http://www.w3.org/1999/xlink" xml:space="preserve" xmlns:serif="http://www.serif.com/" style="fill-rule:evenodd;clip-rule:evenodd;stroke-linecap:round;stroke-linejoin:round;stroke-miterlimit:1.5;">
    <g transform="matrix(0.56,0,0,0.615385,0,0)">
        <g id="PageSize">
            <rect x="0" y="0" width="1350" height="936" style="fill:none;stroke:black;stroke-width:3.4px;"/>
        </g>
    </g>
    <g id="Page1">
        <g id="LeftSide" transform="matrix(0.166667,0,0,0.166667,-33.2351,187.147)">
            <path id="LWPOLYLINE" d="M916.61,-1091.26L718.61,-983.258L715.162,-981.406L711.688,-979.598L708.188,-977.837L704.662,-976.127L701.108,-974.471L697.526,-972.872L693.916,-971.334L690.278,-969.86L686.612,-968.453L682.916,-967.116L679.191,-965.853L675.436,-964.667L673.547,-964.104L671.651,-963.561L669.747,-963.04L667.835,-962.539L665.915,-962.06L663.988,-961.604L662.053,-961.17L660.11,-960.758L658.182,-960.375L656.247,-960.014L652.357,-959.356L648.442,-958.779L644.508,-958.279L640.557,-957.848L636.594,-957.484L632.623,-957.179L628.646,-956.929L624.668,-956.728L620.693,-956.572L616.724,-956.454L612.766,-956.369L604.894,-956.279L597.11,-956.258L232.61,-956.258L231.812,-956.231L231.009,-956.15L230.205,-956.016L229.4,-955.833L228.597,-955.602L227.798,-955.324L227.004,-955.003L226.218,-954.639L225.441,-954.235L224.675,-953.793L223.923,-953.314L223.186,-952.8L222.466,-952.254L221.765,-951.678L221.085,-951.072L220.428,-950.44L219.796,-949.783L219.191,-949.103L218.614,-948.402L218.068,-947.682L217.554,-946.945L217.076,-946.193L216.633,-945.427L216.229,-944.65L215.865,-943.864L215.544,-943.07L215.266,-942.271L215.035,-941.468L214.852,-940.663L214.719,-939.859L214.637,-939.057L214.61,-938.258L214.61,596.242L4127.36,596.242L4642.61,-783.005L4643.17,-784.606L4643.68,-786.257L4644.13,-787.954L4644.52,-789.693L4644.86,-791.473L4645.14,-793.29L4645.37,-795.14L4645.55,-797.022L4645.67,-798.932L4645.73,-800.867L4645.74,-802.824L4645.7,-804.801L4645.6,-806.793L4645.45,-808.799L4645.24,-810.815L4644.98,-812.838L4644.67,-814.866L4644.3,-816.894L4643.88,-818.921L4643.41,-820.944L4642.88,-822.958L4642.3,-824.962L4641.67,-826.952L4640.98,-828.926L4640.24,-830.88L4639.45,-832.812L4638.61,-834.717L4637.71,-836.595L4636.77,-838.44L4635.77,-840.252L4634.71,-842.025L4633.61,-843.758L4632.34,-845.615L4631.01,-847.423L4629.63,-849.182L4628.2,-850.89L4626.72,-852.547L4625.19,-854.153L4623.62,-855.706L4622.01,-857.206L4620.36,-858.652L4618.67,-860.043L4616.94,-861.379L4615.19,-862.658L4613.41,-863.88L4611.6,-865.045L4609.77,-866.151L4607.91,-867.197L4606.04,-868.184L4604.15,-869.11L4602.24,-869.974L4600.33,-870.776L4598.4,-871.515L4596.47,-872.189L4594.54,-872.8L4592.6,-873.345L4590.66,-873.823L4588.73,-874.235L4586.81,-874.579L4584.89,-874.855L4582.98,-875.061L4581.09,-875.198L4579.21,-875.264L4577.36,-875.258L4377.11,-870.758L4374.41,-870.667L4371.71,-870.514L4369.02,-870.301L4366.34,-870.028L4363.65,-869.696L4360.98,-869.307L4358.3,-868.861L4355.64,-868.359L4352.98,-867.802L4350.33,-867.191L4347.68,-866.527L4345.05,-865.81L4342.42,-865.042L4339.8,-864.223L4337.19,-863.355L4334.6,-862.438L4332.01,-861.473L4329.43,-860.46L4326.87,-859.402L4324.31,-858.299L4321.77,-857.151L4319.24,-855.96L4316.73,-854.726L4314.23,-853.45L4311.74,-852.134L4309.27,-850.778L4306.81,-849.383L4304.37,-847.949L4301.94,-846.479L4299.53,-844.972L4297.14,-843.43L4294.77,-841.853L4292.41,-840.243L4290.07,-838.6L4287.76,-836.925L4285.45,-835.219L4283.18,-833.483L4280.92,-831.718L4278.68,-829.924L4276.46,-828.104L4274.27,-826.256L4272.09,-824.383L4269.94,-822.486L4267.82,-820.564L4265.71,-818.62L4263.63,-816.653L4261.58,-814.666L4259.55,-812.658L4257.54,-810.631L4255.56,-808.585L4253.61,-806.522L4251.69,-804.442L4249.79,-802.346L4247.92,-800.235L4246.08,-798.111L4244.27,-795.973L4242.48,-793.823L4240.73,-791.661L4239,-789.49L4237.31,-787.308L4235.65,-785.118L4234.02,-782.92L4232.42,-780.716L4230.86,-778.505L4215.11,-756.005L4212.64,-752.434L4210.18,-748.79L4205.23,-741.32L4200.23,-733.669L4197.68,-729.798L4195.1,-725.91L4192.48,-722.012L4189.8,-718.116L4187.07,-714.228L4184.28,-710.36L4181.42,-706.52L4179.96,-704.613L4178.48,-702.717L4176.98,-700.832L4175.47,-698.96L4173.92,-697.102L4172.36,-695.258L4169.67,-692.165L4166.94,-689.086L4164.17,-686.022L4161.36,-682.97L4158.52,-679.932L4155.63,-676.906L4152.71,-673.892L4149.76,-670.889L4146.77,-667.897L4143.75,-664.915L4140.69,-661.943L4137.61,-658.98L4134.5,-656.025L4131.35,-653.078L4128.18,-650.139L4124.99,-647.206L4118.52,-641.359L4111.96,-635.532L4105.31,-629.722L4098.59,-623.924L4091.8,-618.133L4084.95,-612.344L4071.11,-600.758L4064.65,-595.401L4058.13,-590.065L4051.56,-584.761L4044.92,-579.502L4041.58,-576.893L4038.22,-574.3L4034.84,-571.724L4031.44,-569.166L4028.02,-566.629L4024.58,-564.114L4021.12,-561.621L4017.64,-559.154L4014.14,-556.712L4010.61,-554.299L4007.07,-551.914L4003.49,-549.561L3999.9,-547.239L3996.28,-544.951L3992.64,-542.699L3988.97,-540.483L3985.27,-538.305L3981.55,-536.167L3977.8,-534.071L3974.02,-532.017L3970.21,-530.007L3966.37,-528.043L3962.51,-526.126L3958.61,-524.258C3862.29,-475.95 3755.86,-451.269 3648.11,-452.258L3641.92,-452.604L3635.41,-453.048L3628.61,-453.589L3621.53,-454.222L3614.2,-454.945L3606.64,-455.754L3598.87,-456.648L3590.91,-457.622L3582.79,-458.674L3574.54,-459.8L3566.16,-460.998L3557.69,-462.264L3549.15,-463.595L3540.55,-464.989L3531.93,-466.442L3523.31,-467.952L3514.7,-469.514L3506.13,-471.127L3497.62,-472.787L3489.19,-474.491L3480.88,-476.236L3472.69,-478.018L3464.65,-479.836L3456.79,-481.685L3449.12,-483.563L3441.68,-485.467L3434.47,-487.393L3430.97,-488.364L3427.53,-489.339L3424.17,-490.319L3420.88,-491.302L3417.66,-492.289L3414.53,-493.278L3411.48,-494.27L3408.52,-495.265L3405.64,-496.261L3402.86,-497.258L3400.12,-498.269L3397.4,-499.301L3394.69,-500.354L3392,-501.428L3389.32,-502.522L3386.65,-503.636L3383.99,-504.769L3381.35,-505.923L3378.72,-507.095L3376.1,-508.286L3370.9,-510.724L3365.75,-513.232L3360.64,-515.81L3355.58,-518.454L3350.56,-521.162L3345.58,-523.931L3340.64,-526.758L3335.73,-529.642L3330.86,-532.58L3326.03,-535.569L3321.23,-538.606L3316.46,-541.69L3311.72,-544.817L3307.01,-547.985L3302.32,-551.192L3297.66,-554.435L3293.03,-557.711L3288.41,-561.018L3283.82,-564.354L3279.24,-567.715L3274.68,-571.1L3270.14,-574.506L3265.61,-577.93L3256.59,-584.823L3247.61,-591.758L3237.81,-599.402L3232.93,-603.242L3228.08,-607.097L3223.25,-610.965L3218.43,-614.847L3213.65,-618.744L3208.89,-622.656L3204.16,-626.584L3199.47,-630.528L3194.8,-634.488L3190.17,-638.466L3185.58,-642.461L3181.03,-646.473L3176.52,-650.504L3172.05,-654.554L3167.63,-658.623L3163.26,-662.711L3158.93,-666.82L3154.66,-670.949L3150.44,-675.099L3146.27,-679.27L3142.16,-683.463L3138.12,-687.679L3134.13,-691.917L3130.21,-696.178L3126.35,-700.463L3122.56,-704.773L3118.84,-709.106L3115.19,-713.465L3111.61,-717.849L3108.11,-722.258L3101.14,-731.132L3094.21,-739.921L3087.37,-748.648L3084,-752.995L3080.66,-757.334L3077.35,-761.669L3074.1,-766.001L3070.88,-770.334L3067.73,-774.671L3064.63,-779.013L3061.59,-783.364L3058.62,-787.727L3055.71,-792.104L3052.89,-796.497L3050.14,-800.91L3048.8,-803.125L3047.48,-805.346L3046.18,-807.573L3044.91,-809.806L3043.66,-812.046L3042.43,-814.294L3041.22,-816.549L3040.05,-818.812L3038.89,-821.084L3037.77,-823.364L3036.67,-825.652L3035.6,-827.951L3034.55,-830.258L3033.53,-832.576L3032.55,-834.904L3031.59,-837.243L3030.66,-839.592L3029.77,-841.953L3028.9,-844.326L3028.07,-846.71L3027.26,-849.107L3026.5,-851.517L3025.76,-853.939L3025.06,-856.375L3024.39,-858.825L3023.76,-861.288L3023.17,-863.766L3022.61,-866.258L2986.61,-1032.76C2961.73,-1089.56 2904.57,-1125.29 2842.61,-1122.76L1015.61,-1122.76L1012.37,-1122.71L1009.13,-1122.59L1005.89,-1122.38L1002.66,-1122.09L999.437,-1121.72L996.22,-1121.27L993.01,-1120.76L989.808,-1120.17L986.613,-1119.51L983.427,-1118.79L980.251,-1118.01L977.084,-1117.16L973.927,-1116.26L970.781,-1115.3L967.647,-1114.29L964.524,-1113.23L961.414,-1112.12L958.316,-1110.96L955.233,-1109.76L952.163,-1108.51L949.107,-1107.23L946.067,-1105.91L943.042,-1104.56L940.033,-1103.17L937.042,-1101.76L934.067,-1100.32L931.11,-1098.86L928.171,-1097.37L925.251,-1095.87L922.351,-1094.35L916.61,-1091.26Z" style="fill:none;stroke:rgb(255,0,0);stroke-width:6px;stroke-miterlimit:2;"/>
            <path id="LWPOLYLINE1" serif:id="LWPOLYLINE" d="M214.719,-875.258L952.591,-875.258L952.591,-875.262L952.589,-1001.25L909.923,-1001.26L907.618,-1001.25C900.162,-1001.25 894.118,-1007.29 894.118,-1014.75C894.118,-1018.33 895.54,-1021.76 898.072,-1024.3C900.603,-1026.83 904.037,-1028.25 907.618,-1028.25L909.727,-1028.26L2865.11,-1028.26C2868.69,-1028.26 2872.12,-1026.84 2874.66,-1024.3C2877.19,-1021.77 2878.61,-1018.34 2878.61,-1014.76C2878.61,-1011.18 2877.19,-1007.74 2874.66,-1005.21C2872.12,-1002.68 2868.69,-1001.26 2865.11,-1001.26L2862.06,-1001.26L1619.11,-1001.26L1618.61,-1001.22L1618.61,-146.272L1618.75,-146.258L1726.72,-146.258L1744.61,-146.256C1748.19,-146.256 1751.62,-144.834 1754.16,-142.302C1756.69,-139.77 1758.11,-136.336 1758.11,-132.756C1758.11,-129.176 1756.69,-125.742 1754.16,-123.21C1751.62,-120.678 1748.19,-119.256 1744.61,-119.256L1734.9,-119.258L1122.39,-119.258L1105.59,-119.276C1098.13,-119.276 1092.09,-125.32 1092.09,-132.776C1092.09,-136.357 1093.51,-139.79 1096.04,-142.322C1098.57,-144.854 1102.01,-146.276 1105.59,-146.276L1119.67,-146.258L1137.09,-146.258L1137.11,-146.447L1137.11,-1001.13L1136.93,-1001.26L979.656,-1001.26L979.652,-875.206L979.662,-875.196C986.576,-874.521 991.849,-868.708 991.849,-861.76C991.849,-854.81 986.573,-848.996 979.656,-848.324L979.32,-848.283L978.984,-848.258L322.863,-848.258L322.61,-847.751L322.61,532.859L322.761,533.242L615.11,533.242C618.69,533.242 622.124,534.664 624.656,537.196C627.187,539.727 628.61,543.161 628.61,546.742C628.61,550.322 627.187,553.756 624.656,556.287C622.124,558.819 618.69,560.242 615.11,560.242L214.61,560.242L212.911,560.252C205.455,560.252 199.411,554.207 199.411,546.752C199.411,543.171 200.833,539.737 203.365,537.206C205.896,534.674 209.33,533.252 212.911,533.252L214.61,533.242L295.507,533.242L295.61,532.859L295.61,-847.751L295.266,-848.258L214.61,-848.258L213.21,-848.286C205.754,-848.286 199.71,-854.33 199.71,-861.786C199.71,-865.367 201.132,-868.801 203.664,-871.332C206.196,-873.864 209.63,-875.286 213.21,-875.286L214.719,-875.258Z" style="fill:none;stroke:rgb(0,0,255);stroke-width:6px;stroke-miterlimit:2;"/>
            <path id="LWPOLYLINE2" serif:id="LWPOLYLINE" d="M1591.62,-146.314L1591.61,-1000.92L1591.2,-1001.26L1164.35,-1001.26L1164.11,-1001.19L1164.13,-146.293L1591.62,-146.314Z" style="fill:none;stroke:rgb(0,0,255);stroke-width:6px;stroke-miterlimit:2;"/>
            <path id="LWPOLYLINE3" serif:id="LWPOLYLINE" d="M4066.5,604.579C4064.95,610.518 4059.58,614.66 4053.44,614.66C4045.99,614.66 4039.94,608.616 4039.94,601.16C4039.94,600.336 4040.02,599.514 4040.17,598.703L4040.73,596.239L4051.48,567.897L4081.23,488.243L3486.51,488.23L3486.77,489.14C3487.04,490.213 3487.18,491.316 3487.18,492.423C3487.18,496.003 3485.76,499.437 3483.22,501.969C3480.69,504.5 3477.26,505.923 3473.68,505.923C3468.55,505.923 3463.87,503.018 3461.59,498.426L3461.25,497.743L3460.93,497.052L3007.64,-524.104L2996.58,-548.531L2881.38,-497.528L2880.96,-497.383L2880.55,-497.245C2878.97,-496.619 2877.28,-496.297 2875.58,-496.297C2868.12,-496.297 2862.08,-502.342 2862.08,-509.797C2862.08,-514.308 2864.33,-518.521 2868.08,-521.026L2868.65,-521.368L2869.24,-521.671L2870.45,-522.217L2985.44,-573.133L2980.78,-583.422L2980.11,-585.289C2979.73,-586.556 2979.53,-587.871 2979.53,-589.194C2979.53,-592.774 2980.95,-596.208 2983.49,-598.74C2986.02,-601.272 2989.45,-602.694 2993.03,-602.694C2997.86,-602.694 3002.33,-600.112 3004.74,-595.924L3005.08,-595.249L3005.38,-594.557L3032.28,-535.149L3474.57,461.239L4091.27,461.242L4091.33,461.2L4562.13,-799.125L4562.39,-799.786C4564.43,-804.935 4569.4,-808.317 4574.94,-808.317C4578.52,-808.317 4581.96,-806.894 4584.49,-804.363C4587.02,-801.831 4588.44,-798.397 4588.44,-794.817C4588.44,-793.41 4588.22,-792.012 4587.79,-790.673L4587.69,-790.388L4076.77,577.345L4069.6,596.239L4066.5,604.579Z" style="fill:none;stroke:rgb(0,0,255);stroke-width:6px;stroke-miterlimit:2;"/>
            <path id="LWPOLYLINE4" serif:id="LWPOLYLINE" d="M4539.11,-789.758L4345.61,-794.258L4344.77,-758.268L4538.27,-753.768L4539.11,-789.758Z" style="fill:none;stroke:rgb(0,0,255);stroke-width:6px;stroke-miterlimit:2;"/>
            <path id="LWPOLYLINE5" serif:id="LWPOLYLINE" d="M2649.11,-573.758L2811.11,-641.258L2831.88,-591.412L2669.88,-523.912L2649.11,-573.758Z" style="fill:none;stroke:rgb(0,0,255);stroke-width:6px;stroke-miterlimit:2;"/>
            <path id="LWPOLYLINE6" serif:id="LWPOLYLINE" d="M3201.38,350.982L2783.51,-571.246L2671.4,-524.51L3126.11,479.242L3191.52,449.603L3201.38,350.982Z" style="fill:none;stroke:rgb(0,0,255);stroke-width:6px;stroke-miterlimit:2;"/>
            <path id="LWPOLYLINE7" serif:id="LWPOLYLINE" d="M2896.61,-474.758L3274.61,375.742L3323.95,353.81L2945.95,-496.69L2896.61,-474.758Z" style="fill:none;stroke:rgb(0,0,255);stroke-width:6px;stroke-miterlimit:2;"/>
            <rect id="LWPOLYLINE8" serif:id="LWPOLYLINE" x="592.61" y="501.742" width="1638" height="36" style="fill:none;stroke:rgb(0,0,255);stroke-width:6px;stroke-miterlimit:2;"/>
            <rect id="LWPOLYLINE9" serif:id="LWPOLYLINE" x="930.11" y="357.742" width="216" height="144" style="fill:none;stroke:rgb(0,0,255);stroke-width:6px;stroke-miterlimit:2;"/>
            <rect id="LWPOLYLINE10" serif:id="LWPOLYLINE" x="2451.11" y="501.742" width="720" height="36" style="fill:none;stroke:rgb(0,0,255);stroke-width:6px;stroke-miterlimit:2;"/>
            <path id="LWPOLYLINE11" serif:id="LWPOLYLINE" d="M2842.61,-852.758L2833.61,-958.505L2887.41,-963.084L2896.41,-857.338L2842.61,-852.758Z" style="fill:none;stroke:rgb(0,0,255);stroke-width:6px;stroke-miterlimit:2;"/>
            <path id="LWPOLYLINE12" serif:id="LWPOLYLINE" d="M3786.25,382.309L3835.38,404.728L4343.55,-708.8L4294.42,-731.219L3786.25,382.309Z" style="fill:none;stroke:rgb(0,0,255);stroke-width:6px;stroke-miterlimit:2;"/>
        </g>
        <g id="BackDoor" transform="matrix(-0.166667,1.38778e-17,-1.38778e-17,-0.166667,1757.59,399.998)">
            <rect id="LWPOLYLINE13" serif:id="LWPOLYLINE" x="7094.04" y="-651.009" width="3451.5" height="1215" style="fill:none;stroke:rgb(255,0,0);stroke-width:6px;stroke-miterlimit:2;"/>
            <path id="LWPOLYLINE14" serif:id="LWPOLYLINE" d="M10455.5,527.991C10455.5,530.387 10456.5,532.686 10458.1,534.38C10459.8,536.075 10462.1,537.027 10464.5,537.027C10469.5,537.027 10473.6,532.981 10473.6,527.991C10473.6,523 10469.5,518.955 10464.5,518.955C10462.1,518.955 10459.8,519.907 10458.1,521.601C10456.5,523.296 10455.5,525.594 10455.5,527.991Z" style="fill:none;stroke:rgb(255,0,0);stroke-width:6px;stroke-miterlimit:2;"/>
            <path id="LWPOLYLINE15" serif:id="LWPOLYLINE" d="M9807.5,527.991C9807.5,530.387 9808.45,532.686 9810.15,534.38C9811.84,536.075 9814.14,537.027 9816.54,537.027C9821.53,537.027 9825.57,532.981 9825.57,527.991C9825.57,523 9821.53,518.955 9816.54,518.955C9814.14,518.955 9811.84,519.907 9810.15,521.601C9808.45,523.296 9807.5,525.594 9807.5,527.991Z" style="fill:none;stroke:rgb(255,0,0);stroke-width:6px;stroke-miterlimit:2;"/>
            <path id="LWPOLYLINE16" serif:id="LWPOLYLINE" d="M9159.5,527.991C9159.5,530.387 9160.45,532.686 9162.15,534.38C9163.84,536.075 9166.14,537.027 9168.54,537.027C9173.53,537.027 9177.57,532.981 9177.57,527.991C9177.57,523 9173.53,518.955 9168.54,518.955C9166.14,518.955 9163.84,519.907 9162.15,521.601C9160.45,523.296 9159.5,525.594 9159.5,527.991Z" style="fill:none;stroke:rgb(255,0,0);stroke-width:6px;stroke-miterlimit:2;"/>
            <path id="LWPOLYLINE17" serif:id="LWPOLYLINE" d="M8511.5,527.991C8511.5,530.387 8512.45,532.686 8514.15,534.38C8515.84,536.075 8518.14,537.027 8520.54,537.027C8525.53,537.027 8529.57,532.981 8529.57,527.991C8529.57,523 8525.53,518.955 8520.54,518.955C8518.14,518.955 8515.84,519.907 8514.15,521.601C8512.45,523.296 8511.5,525.594 8511.5,527.991Z" style="fill:none;stroke:rgb(255,0,0);stroke-width:6px;stroke-miterlimit:2;"/>
            <path id="LWPOLYLINE18" serif:id="LWPOLYLINE" d="M7863.5,527.991C7863.5,530.387 7864.45,532.686 7866.15,534.38C7867.84,536.075 7870.14,537.027 7872.54,537.027C7877.53,537.027 7881.57,532.981 7881.57,527.991C7881.57,523 7877.53,518.955 7872.54,518.955C7870.14,518.955 7867.84,519.907 7866.15,521.601C7864.45,523.296 7863.5,525.594 7863.5,527.991Z" style="fill:none;stroke:rgb(255,0,0);stroke-width:6px;stroke-miterlimit:2;"/>
            <path id="LWPOLYLINE19" serif:id="LWPOLYLINE" d="M8794.32,-552.009C8794.32,-536.7 8806.73,-524.289 8822.04,-524.289C8837.35,-524.289 8849.76,-536.7 8849.76,-552.009C8849.76,-559.361 8846.84,-566.412 8841.64,-571.61C8836.44,-576.809 8829.39,-579.729 8822.04,-579.729C8814.68,-579.729 8807.64,-576.809 8802.44,-571.61C8797.24,-566.412 8794.32,-559.361 8794.32,-552.009Z" style="fill:none;stroke:rgb(255,0,0);stroke-width:6px;stroke-miterlimit:2;"/>
            <path id="LWPOLYLINE20" serif:id="LWPOLYLINE" d="M8781.54,-552.009C8781.54,-529.642 8799.67,-511.509 8822.04,-511.509C8844.41,-511.509 8862.54,-529.642 8862.54,-552.009C8862.54,-574.377 8844.41,-592.509 8822.04,-592.509C8799.67,-592.509 8781.54,-574.377 8781.54,-552.009Z" style="fill:none;stroke:rgb(0,0,255);stroke-width:6px;stroke-miterlimit:2;"/>
            <path id="LWPOLYLINE21" serif:id="LWPOLYLINE" d="M8151.54,338.991C8181.36,338.991 8205.54,314.814 8205.54,284.991L8205.54,77.991C8205.54,48.168 8181.36,23.991 8151.54,23.991C8137.22,23.991 8123.48,29.68 8113.35,39.807C8103.23,49.934 8097.54,63.669 8097.54,77.991L8097.54,284.991C8097.54,314.814 8121.71,338.991 8151.54,338.991Z" style="fill:none;stroke:rgb(255,0,0);stroke-width:6px;stroke-miterlimit:2;"/>
            <path id="LWPOLYLINE22" serif:id="LWPOLYLINE" d="M8151.54,-120.009C8181.36,-120.009 8205.54,-144.186 8205.54,-174.009L8205.54,-381.009C8205.54,-410.832 8181.36,-435.009 8151.54,-435.009C8121.71,-435.009 8097.54,-410.832 8097.54,-381.009L8097.54,-174.009C8097.54,-144.186 8121.71,-120.009 8151.54,-120.009Z" style="fill:none;stroke:rgb(255,0,0);stroke-width:6px;stroke-miterlimit:2;"/>
        </g>
        <g id="BackBottom" transform="matrix(-0.166667,-2.04108e-17,2.04108e-17,-0.166667,703.276,119.205)">
            <path id="LWPOLYLINE23" serif:id="LWPOLYLINE" d="M358.656,-2164.77C358.656,-2134.94 382.832,-2110.77 412.656,-2110.77C442.479,-2110.77 466.656,-2134.94 466.656,-2164.77C466.656,-2194.59 442.479,-2218.77 412.656,-2218.77C382.832,-2218.77 358.656,-2194.59 358.656,-2164.77Z" style="fill:none;stroke:rgb(255,0,0);stroke-width:6px;stroke-miterlimit:2;"/>
            <g id="LWPOLYLINE24" serif:id="LWPOLYLINE" transform="matrix(3.67394e-16,-6,6,3.67394e-16,-3317.84,787.232)">
                <path d="M466.5,601.5L522,601.5L522,662.25L318,662.25L318,601.5L462,601.5L462,606L466.5,606L466.5,601.5Z" style="fill:none;stroke:rgb(255,0,0);stroke-width:1px;stroke-miterlimit:2;"/>
            </g>
        </g>
        <g transform="matrix(6.12323e-17,1,-1,6.12323e-17,1446.75,-552)">
            <g id="BezelRetainer">
                <rect id="LWPOLYLINE25" serif:id="LWPOLYLINE" x="858" y="759.75" width="204" height="21" style="fill:none;stroke:rgb(255,0,0);stroke-width:1px;stroke-miterlimit:2;"/>
            </g>
        </g>
        <g transform="matrix(6.12323e-17,1,-1,6.12323e-17,1443,-552)">
            <g id="KickPlateLip">
                <rect id="LWPOLYLINE26" serif:id="LWPOLYLINE" x="858" y="722.25" width="204" height="18.75" style="fill:none;stroke:rgb(255,0,0);stroke-width:1px;stroke-miterlimit:2;"/>
            </g>
        </g>
        <g id="BlockingLeft" transform="matrix(0.166667,0,0,0.166667,229.843,359.428)">
            <g id="MonitorBlockingRight" transform="matrix(1,0,0,1,-1662.5,-857.892)">
                <path id="LWPOLYLINE27" serif:id="LWPOLYLINE" d="M1299.48,1833.33L287.001,1834.53L283.445,1955.94L1385.39,1954.72L1385.3,1882.91L1299.48,1833.33Z" style="fill:none;stroke:rgb(255,0,0);stroke-width:6px;stroke-miterlimit:2;"/>
            </g>
            <g transform="matrix(1,0,0,1,-808.142,-48.0067)">
                <rect id="LWPOLYLINE28" serif:id="LWPOLYLINE" x="617.083" y="1023.44" width="216" height="144" style="fill:none;stroke:rgb(255,0,0);stroke-width:6px;stroke-miterlimit:2;"/>
            </g>
            <g id="_4ftBlock" serif:id="4ftBlock" transform="matrix(1.05495,0,0,1.5,-1677,-1026.59)">
                <rect id="LWPOLYLINE29" serif:id="LWPOLYLINE" x="282.426" y="1446.68" width="1638" height="36" style="fill:none;stroke:rgb(255,0,0);stroke-width:4.63px;stroke-miterlimit:2;"/>
            </g>
            <g id="_4ftBlock1" serif:id="4ftBlock" transform="matrix(1.05495,0,0,1.5,158.997,-1026.59)">
                <rect id="LWPOLYLINE30" serif:id="LWPOLYLINE" x="282.426" y="1446.68" width="1638" height="36" style="fill:none;stroke:rgb(255,0,0);stroke-width:4.63px;stroke-miterlimit:2;"/>
            </g>
            <g id="_4ftBlock2" serif:id="4ftBlock" transform="matrix(1.05495,0,0,1.5,158.997,-1134.59)">
                <rect id="LWPOLYLINE31" serif:id="LWPOLYLINE" x="282.426" y="1446.68" width="1638" height="36" style="fill:none;stroke:rgb(255,0,0);stroke-width:4.63px;stroke-miterlimit:2;"/>
            </g>
        </g>
    </g>
</svg>
