  0
SECTION
  2
HEADER
  9
$ACADVER
  1
AC1015
  9
$ACADMAINTVER
 70
     6
  9
$DWGCODEPAGE
  3
ANSI_1252
  9
$INSBASE
 10
0.0
 20
0.0
 30
0.0
  9
$EXTMIN
 10
1.000000E+20
 20
1.000000E+20
 30
1.000000E+20
  9
$EXTMAX
 10
-1.000000E+20
 20
-1.000000E+20
 30
-1.000000E+20
  9
$LIMMIN
 10
0.0
 20
0.0
  9
$LIMMAX
 10
420.0
 20
297.0
  9
$ORTHOMODE
 70
     0
  9
$REGENMODE
 70
     1
  9
$FILLMODE
 70
     1
  9
$QTEXTMODE
 70
     0
  9
$MIRRTEXT
 70
     1
  9
$LTSCALE
 40
1.0
  9
$ATTMODE
 70
     1
  9
$TEXTSIZE
 40
2.5
  9
$TRACEWID
 40
1.0
  9
$TEXTSTYLE
  7
Standard
  9
$CLAYER
  8
0
  9
$CELTYPE
  6
ByLayer
  9
$CECOLOR
 62
   256
  9
$CELTSCALE
 40
1.0
  9
$DISPSILH
 70
     0
  9
$DIMSCALE
 40
1.0
  9
$DIMASZ
 40
2.5
  9
$DIMEXO
 40
0.625
  9
$DIMDLI
 40
3.75
  9
$DIMRND
 40
0.0
  9
$DIMDLE
 40
0.0
  9
$DIMEXE
 40
1.25
  9
$DIMTP
 40
0.0
  9
$DIMTM
 40
0.0
  9
$DIMTXT
 40
2.5
  9
$DIMCEN
 40
2.5
  9
$DIMTSZ
 40
0.0
  9
$DIMTOL
 70
     0
  9
$DIMLIM
 70
     0
  9
$DIMTIH
 70
     0
  9
$DIMTOH
 70
     0
  9
$DIMSE1
 70
     0
  9
$DIMSE2
 70
     0
  9
$DIMTAD
 70
     1
  9
$DIMZIN
 70
     8
  9
$DIMBLK
  1

  9
$DIMASO
 70
     1
  9
$DIMSHO
 70
     1
  9
$DIMPOST
  1

  9
$DIMAPOST
  1

  9
$DIMALT
 70
     0
  9
$DIMALTD
 70
     3
  9
$DIMALTF
 40
0.03937
  9
$DIMLFAC
 40
1.0
  9
$DIMTOFL
 70
     1
  9
$DIMTVP
 40
0.0
  9
$DIMTIX
 70
     0
  9
$DIMSOXD
 70
     0
  9
$DIMSAH
 70
     0
  9
$DIMBLK1
  1

  9
$DIMBLK2
  1

  9
$DIMSTYLE
  2
ISO-25
  9
$DIMCLRD
 70
     0
  9
$DIMCLRE
 70
     0
  9
$DIMCLRT
 70
     0
  9
$DIMTFAC
 40
1.0
  9
$DIMGAP
 40
0.625
  9
$DIMJUST
 70
     0
  9
$DIMSD1
 70
     0
  9
$DIMSD2
 70
     0
  9
$DIMTOLJ
 70
     0
  9
$DIMTZIN
 70
     8
  9
$DIMALTZ
 70
     0
  9
$DIMALTTZ
 70
     0
  9
$DIMUPT
 70
     0
  9
$DIMDEC
 70
     2
  9
$DIMTDEC
 70
     2
  9
$DIMALTU
 70
     2
  9
$DIMALTTD
 70
     3
  9
$DIMTXSTY
  7
Standard
  9
$DIMAUNIT
 70
     0
  9
$DIMADEC
 70
     0
  9
$DIMALTRND
 40
0.0
  9
$DIMAZIN
 70
     0
  9
$DIMDSEP
 70
    44
  9
$DIMATFIT
 70
     3
  9
$DIMFRAC
 70
     0
  9
$DIMLDRBLK
  1

  9
$DIMLUNIT
 70
     2
  9
$DIMLWD
 70
    -2
  9
$DIMLWE
 70
    -2
  9
$DIMTMOVE
 70
     0
  9
$LUNITS
 70
     2
  9
$LUPREC
 70
     4
  9
$SKETCHINC
 40
1.0
  9
$FILLETRAD
 40
10.0
  9
$AUNITS
 70
     0
  9
$AUPREC
 70
     0
  9
$MENU
  1
.
  9
$ELEVATION
 40
0.0
  9
$PELEVATION
 40
0.0
  9
$THICKNESS
 40
0.0
  9
$LIMCHECK
 70
     0
  9
$CHAMFERA
 40
10.0
  9
$CHAMFERB
 40
10.0
  9
$CHAMFERC
 40
20.0
  9
$CHAMFERD
 40
0.0
  9
$SKPOLY
 70
     0
  9
$TDCREATE
 40
2457255.607283704
  9
$TDUCREATE
 40
2457255.773950371
  9
$TDUPDATE
 40
2457255.607283715
  9
$TDUUPDATE
 40
2457255.773950382
  9
$TDINDWG
 40
0.0000000116
  9
$TDUSRTIMER
 40
0.0000000116
  9
$USRTIMER
 70
     1
  9
$ANGBASE
 50
0.0
  9
$ANGDIR
 70
     0
  9
$PDMODE
 70
     3
  9
$PDSIZE
 40
-0.7
  9
$PLINEWID
 40
0.0
  9
$SPLFRAME
 70
     0
  9
$SPLINETYPE
 70
     6
  9
$SPLINESEGS
 70
     8
  9
$HANDSEED
  5
47
  9
$SURFTAB1
 70
     6
  9
$SURFTAB2
 70
     6
  9
$SURFTYPE
 70
     6
  9
$SURFU
 70
     6
  9
$SURFV
 70
     6
  9
$UCSBASE
  2

  9
$UCSNAME
  2

  9
$UCSORG
 10
0.0
 20
0.0
 30
0.0
  9
$UCSXDIR
 10
1.0
 20
0.0
 30
0.0
  9
$UCSYDIR
 10
0.0
 20
1.0
 30
0.0
  9
$UCSORTHOREF
  2

  9
$UCSORTHOVIEW
 70
     0
  9
$UCSORGTOP
 10
0.0
 20
0.0
 30
0.0
  9
$UCSORGBOTTOM
 10
0.0
 20
0.0
 30
0.0
  9
$UCSORGLEFT
 10
0.0
 20
0.0
 30
0.0
  9
$UCSORGRIGHT
 10
0.0
 20
0.0
 30
0.0
  9
$UCSORGFRONT
 10
0.0
 20
0.0
 30
0.0
  9
$UCSORGBACK
 10
0.0
 20
0.0
 30
0.0
  9
$PUCSBASE
  2

  9
$PUCSNAME
  2

  9
$PUCSORG
 10
0.0
 20
0.0
 30
0.0
  9
$PUCSXDIR
 10
1.0
 20
0.0
 30
0.0
  9
$PUCSYDIR
 10
0.0
 20
1.0
 30
0.0
  9
$PUCSORTHOREF
  2

  9
$PUCSORTHOVIEW
 70
     0
  9
$PUCSORGTOP
 10
0.0
 20
0.0
 30
0.0
  9
$PUCSORGBOTTOM
 10
0.0
 20
0.0
 30
0.0
  9
$PUCSORGLEFT
 10
0.0
 20
0.0
 30
0.0
  9
$PUCSORGRIGHT
 10
0.0
 20
0.0
 30
0.0
  9
$PUCSORGFRONT
 10
0.0
 20
0.0
 30
0.0
  9
$PUCSORGBACK
 10
0.0
 20
0.0
 30
0.0
  9
$USERI1
 70
     0
  9
$USERI2
 70
     0
  9
$USERI3
 70
     0
  9
$USERI4
 70
     0
  9
$USERI5
 70
     0
  9
$USERR1
 40
0.0
  9
$USERR2
 40
0.0
  9
$USERR3
 40
0.0
  9
$USERR4
 40
0.0
  9
$USERR5
 40
0.0
  9
$WORLDVIEW
 70
     1
  9
$SHADEDGE
 70
     3
  9
$SHADEDIF
 70
    70
  9
$TILEMODE
 70
     1
  9
$MAXACTVP
 70
    64
  9
$PINSBASE
 10
0.0
 20
0.0
 30
0.0
  9
$PLIMCHECK
 70
     0
  9
$PEXTMIN
 10
1.000000E+20
 20
1.000000E+20
 30
1.000000E+20
  9
$PEXTMAX
 10
-1.000000E+20
 20
-1.000000E+20
 30
-1.000000E+20
  9
$PLIMMIN
 10
0.0
 20
0.0
  9
$PLIMMAX
 10
420.0
 20
297.0
  9
$UNITMODE
 70
     0
  9
$VISRETAIN
 70
     1
  9
$PLINEGEN
 70
     0
  9
$PSLTSCALE
 70
     1
  9
$TREEDEPTH
 70
  3020
  9
$CMLSTYLE
  2
Standard
  9
$CMLJUST
 70
     1
  9
$CMLSCALE
 40
1.0
  9
$PROXYGRAPHICS
 70
     1
  9
$MEASUREMENT
 70
     0
  9
$CELWEIGHT
370
    -1
  9
$ENDCAPS
280
     0
  9
$JOINSTYLE
280
     0
  9
$LWDISPLAY
290
     0
  9
$INSUNITS
 70
     4
  9
$HYPERLINKBASE
  1

  9
$STYLESHEET
  1

  9
$XEDIT
290
     1
  9
$CEPSNTYPE
380
     0
  9
$PSTYLEMODE
290
     1
  9
$FINGERPRINTGUID
  2
{FAEB1C30-E019-11D5-929B-00C0DF256EC4}
  9
$VERSIONGUID
  2
{FAEB1C32-E019-11D5-929B-00C0DF256EC4}
  9
$EXTNAMES
290
     1
  9
$PSVPSCALE
 40
0.0
  9
$OLESTARTUP
290
     0
  0
ENDSEC
  0
SECTION
  2
CLASSES
  0
CLASS
  1
ACDBDICTIONARYWDFLT
  2
AcDbDictionaryWithDefault
  3
ObjectDBX Classes
 90
        0
280
     0
281
     0
  0
CLASS
  1
ACDBPLACEHOLDER
  2
AcDbPlaceHolder
  3
ObjectDBX Classes
 90
        0
280
     0
281
     0
  0
CLASS
  1
LAYOUT
  2
AcDbLayout
  3
ObjectDBX Classes
 90
        0
280
     0
281
     0
  0
ENDSEC
  0
SECTION
  2
TABLES
  0
TABLE
  2
VPORT
  5
8
330
0
100
AcDbSymbolTable
 70
     2
  0
VPORT
  5
29
330
8
100
AcDbSymbolTableRecord
100
AcDbViewportTableRecord
  2
*Active
 70
     0
 10
0.0
 20
0.0
 11
1.0
 21
1.0
 12
50.0
 22
50.0
 13
0.0
 23
0.0
 14
10.0
 24
10.0
 15
10.0
 25
10.0
 16
0.0
 26
0.0
 36
1.0
 17
0.0
 27
0.0
 37
0.0
 40
103.921569
 41
1.0
 42
50.0
 43
0.0
 44
0.0
 50
0.0
 51
0.0
 71
     0
 72
   100
 73
     1
 74
     3
 75
     0
 76
     0
 77
     0
 78
     0
281
     0
 65
     1
110
0.0
120
0.0
130
0.0
111
1.0
121
0.0
131
0.0
112
0.0
122
1.0
132
0.0
 79
     0
146
0.0
  0
ENDTAB
  0
TABLE
  2
LTYPE
  5
5
330
0
100
AcDbSymbolTable
 70
     1
  0
LTYPE
  5
14
330
5
100
AcDbSymbolTableRecord
100
AcDbLinetypeTableRecord
  2
ByBlock
 70
     0
  3

 72
    65
 73
     0
 40
0.0
  0
LTYPE
  5
15
330
5
100
AcDbSymbolTableRecord
100
AcDbLinetypeTableRecord
  2
ByLayer
 70
     0
  3

 72
    65
 73
     0
 40
0.0
  0
LTYPE
  5
16
330
5
100
AcDbSymbolTableRecord
100
AcDbLinetypeTableRecord
  2
Continuous
 70
     0
  3

 72
    65
 73
     0
 40
0.0
  0
ENDTAB
  0
TABLE
  2
LAYER
  5
2
330
0
100
AcDbSymbolTable
 70
     1
  0
LAYER
  5
10
330
2
100
AcDbSymbolTableRecord
100
AcDbLayerTableRecord
  2
0
 70
     0
 62
     7
  6
Continuous
370
    -3
390
F
  0
ENDTAB
  0
TABLE
  2
STYLE
  5
3
330
0
100
AcDbSymbolTable
 70
     1
  0
STYLE
  5
11
330
3
100
AcDbSymbolTableRecord
100
AcDbTextStyleTableRecord
  2
Standard
 70
     0
 40
1.0
 41
1.0
 50
0.0
 71
     0
 42
2.5
  3
RomanS
  4

  0
ENDTAB
  0
TABLE
  2
VIEW
  5
6
330
0
100
AcDbSymbolTable
 70
     0
  0
ENDTAB
  0
TABLE
  2
UCS
  5
7
330
0
100
AcDbSymbolTable
 70
     0
  0
ENDTAB
  0
TABLE
  2
APPID
  5
9
330
0
100
AcDbSymbolTable
 70
     1
  0
APPID
  5
12
330
9
100
AcDbSymbolTableRecord
100
AcDbRegAppTableRecord
  2
ACAD
 70
     0
  0
ENDTAB
  0
TABLE
  2
DIMSTYLE
  5
A
330
0
100
AcDbSymbolTable
 70
     1
100
AcDbDimStyleTable
  0
DIMSTYLE
105
27
330
A
100
AcDbSymbolTableRecord
100
AcDbDimStyleTableRecord
  2
ISO-25
 70
     0
 41
2.5
 42
0.625
 44
1.25
 73
     0
 74
     0
 77
     1
 78
     8
 79
     2
140
2.5
141
2.5
146
0.0
147
0.625
271
     2
272
     0
273
     0
274
     0
278
    44
283
     0
289
     0
340
11
  0
ENDTAB
  0
TABLE
  2
BLOCK_RECORD
  5
1
330
0
100
AcDbSymbolTable
 70
     1
  0
BLOCK_RECORD
  5
1F
330
1
100
AcDbSymbolTableRecord
100
AcDbBlockTableRecord
  2
*Model_Space
340
22
  0
BLOCK_RECORD
  5
1B
330
1
100
AcDbSymbolTableRecord
100
AcDbBlockTableRecord
  2
*Paper_Space
340
1E
  0
BLOCK_RECORD
  5
23
330
1
100
AcDbSymbolTableRecord
100
AcDbBlockTableRecord
  2
*Paper_Space0
340
26
  0
ENDTAB
  0
ENDSEC
  0
SECTION
  2
BLOCKS
  0
BLOCK
  5
20
330
1F
100
AcDbEntity
  8
0
100
AcDbBlockBegin
  2
*Model_Space
 70
     0
 71
     0
 10
0.0
 20
0.0
 30
0.0
  3
*Model_Space
  1

  0
ENDBLK
  5
21
330
1F
100
AcDbEntity
  8
0
100
AcDbBlockEnd
  0
BLOCK
  5
1C
330
1B
100
AcDbEntity
 67
     1
  8
0
100
AcDbBlockBegin
  2
*Paper_Space
 70
     0
 71
     0
 10
0.0
 20
0.0
 30
0.0
  3
*Paper_Space
  1

  0
ENDBLK
  5
1D
330
1B
100
AcDbEntity
 67
     1
  8
0
100
AcDbBlockEnd
  0
BLOCK
  5
24
330
23
100
AcDbEntity
  8
0
100
AcDbBlockBegin
  2
*Paper_Space0
 70
     0
 71
     0
 10
0.0
 20
0.0
 30
0.0
  3
*Paper_Space0
  1

  0
ENDBLK
  5
25
330
23
100
AcDbEntity
  8
0
100
AcDbBlockEnd
  0
ENDSEC
  0
SECTION
  2
ENTITIES
  0
LWPOLYLINE
  5
2A
330
1F
100
AcDbEntity
  8
0
100
AcDbPolyline
 90
        5
 70
   128
 43
0.0
 10
26.242125
 20
11.777502
 10
44.554625
 20
11.777502
 10
44.554625
 20
13.777502
 10
26.242125
 20
13.777502
 10
26.242125
 20
11.777502
  0
LWPOLYLINE
  5
2B
330
1F
100
AcDbEntity
  8
0
100
AcDbPolyline
 90
        5
 70
   128
 43
0.0
 10
1.666866
 20
45.019231
 10
6.916866
 20
45.019231
 10
6.916866
 20
47.019231
 10
1.666866
 20
47.019231
 10
1.666866
 20
45.019231
  0
LWPOLYLINE
  5
2C
330
1F
100
AcDbEntity
  8
0
100
AcDbPolyline
 90
        5
 70
   128
 43
0.0
 10
8.434644
 20
45.019231
 10
13.684644
 20
45.019231
 10
13.684644
 20
47.019231
 10
8.434644
 20
47.019231
 10
8.434644
 20
45.019231
  0
LWPOLYLINE
  5
2D
330
1F
100
AcDbEntity
  8
0
100
AcDbPolyline
 90
        5
 70
   128
 43
0.0
 10
25.988863
 20
1.104797
 10
49.738863
 20
1.104797
 10
49.738863
 20
3.104797
 10
25.988863
 20
3.104797
 10
25.988863
 20
1.104797
  0
LWPOLYLINE
  5
2E
330
1F
100
AcDbEntity
  8
0
100
AcDbPolyline
 90
        5
 70
   128
 43
0.0
 10
1.286904
 20
41.784153
 10
25.036904
 20
41.784153
 10
25.036904
 20
43.784153
 10
1.286904
 20
43.784153
 10
1.286904
 20
41.784153
  0
LWPOLYLINE
  5
2F
330
1F
100
AcDbEntity
  8
0
100
AcDbPolyline
 90
        5
 70
   128
 43
0.0
 10
26.255752
 20
8.194561
 10
50.005752
 20
8.194561
 10
50.005752
 20
10.194561
 10
26.255752
 20
10.194561
 10
26.255752
 20
8.194561
  0
LWPOLYLINE
  5
30
330
1F
100
AcDbEntity
  8
0
100
AcDbPolyline
 90
        5
 70
   128
 43
0.0
 10
26.0567
 20
4.61162
 10
49.8067
 20
4.61162
 10
49.8067
 20
6.61162
 10
26.0567
 20
6.61162
 10
26.0567
 20
4.61162
  0
LWPOLYLINE
  5
31
330
1F
100
AcDbEntity
  8
0
100
AcDbPolyline
 90
        9
 70
   128
 43
0.0
 10
23.838926
 20
40.598243
 10
23.838926
 20
39.569672
 10
24.838926
 20
39.569672
 10
24.838926
 20
36.098243
 10
1.088926
 20
36.098243
 10
1.088926
 20
39.569672
 10
2.088926
 20
39.569672
 10
2.088926
 20
40.598243
 10
23.838926
 20
40.598243
  0
LWPOLYLINE
  5
32
330
1F
100
AcDbEntity
  8
0
100
AcDbPolyline
 90
        5
 70
   128
 43
0.0
 10
1.046675
 20
30.016706
 10
24.796675
 20
30.016706
 10
24.796675
 20
34.516706
 10
1.046675
 20
34.516706
 10
1.046675
 20
30.016706
  0
LWPOLYLINE
  5
33
330
1F
100
AcDbEntity
  8
0
100
AcDbPolyline
 90
        5
 70
   128
 43
0.0
 10
1.0
 20
1.0
 10
24.75
 20
1.0
 10
24.75
 20
28.5
 10
1.0
 20
28.5
 10
1.0
 20
1.0
  0
LWPOLYLINE
  5
34
330
1F
100
AcDbEntity
  8
0
100
AcDbPolyline
 90
       41
 70
   128
 43
0.0
 10
12.875
 20
20.75
 10
22.125
 20
20.75
 42
-0.414214
 10
22.375
 20
20.5
 10
22.375
 20
18.625
 42
0.414214
 10
22.25
 20
18.5
 10
22.25
 20
16.625
 10
23.4375
 20
16.625
 42
-0.414214
 10
23.6875
 20
16.375
 10
23.6875
 20
10.3125
 42
-0.414214
 10
23.4375
 20
10.0625
 10
22.375
 20
10.0625
 10
22.375
 20
9.5625
 42
-0.414214
 10
22.25
 20
9.4375
 10
22.25
 20
8.4375
 42
-0.414214
 10
22.375
 20
8.3125
 10
22.375
 20
7.1875
 10
23.0
 20
7.1875
 42
-0.414214
 10
23.125
 20
7.0625
 10
23.125
 20
6.0625
 42
-1.0
 10
22.625
 20
6.0625
 10
12.875
 20
6.0625
 10
3.125
 20
6.0625
 42
-1.0
 10
2.625
 20
6.0625
 10
2.625
 20
7.0625
 42
-0.414214
 10
2.75
 20
7.1875
 10
3.375
 20
7.1875
 10
3.375
 20
8.3125
 42
-0.414214
 10
3.5
 20
8.4375
 10
3.5
 20
9.4375
 42
-0.414214
 10
3.375
 20
9.5625
 10
3.375
 20
10.0625
 10
2.3125
 20
10.0625
 42
-0.414214
 10
2.0625
 20
10.3125
 10
2.0625
 20
16.375
 42
-0.414214
 10
2.3125
 20
16.625
 10
3.5
 20
16.625
 10
3.5
 20
18.5
 42
0.414214
 10
3.375
 20
18.625
 10
3.375
 20
20.5
 42
-0.414214
 10
3.625
 20
20.75
 10
12.875
 20
20.75
  0
LWPOLYLINE
  5
35
330
1F
100
AcDbEntity
  8
0
100
AcDbPolyline
 90
        5
 70
   128
 43
0.0
 10
2.991953
 20
18.156457
 42
-0.414214
 10
2.861953
 20
18.026457
 42
-0.414214
 10
2.731953
 20
18.156457
 42
-0.414214
 10
2.861953
 20
18.286457
 42
-0.414214
 10
2.991953
 20
18.156457
  0
LWPOLYLINE
  5
36
330
1F
100
AcDbEntity
  8
0
100
AcDbPolyline
 90
        5
 70
   128
 43
0.0
 10
2.991953
 20
9.156457
 42
-0.414214
 10
2.861953
 20
9.026457
 42
-0.414214
 10
2.731953
 20
9.156457
 42
-0.414214
 10
2.861953
 20
9.286457
 42
-0.414214
 10
2.991953
 20
9.156457
  0
LWPOLYLINE
  5
37
330
1F
100
AcDbEntity
  8
0
100
AcDbPolyline
 90
        5
 70
   128
 43
0.0
 10
22.784939
 20
18.144722
 42
-0.414214
 10
22.654939
 20
18.014722
 42
-0.414214
 10
22.524939
 20
18.144722
 42
-0.414214
 10
22.654939
 20
18.274722
 42
-0.414214
 10
22.784939
 20
18.144722
  0
LWPOLYLINE
  5
38
330
1F
100
AcDbEntity
  8
0
100
AcDbPolyline
 90
        5
 70
   128
 43
0.0
 10
22.784939
 20
9.144722
 42
-0.414214
 10
22.654939
 20
9.014722
 42
-0.414214
 10
22.524939
 20
9.144722
 42
-0.414214
 10
22.654939
 20
9.274722
 42
-0.414214
 10
22.784939
 20
9.144722
  0
LWPOLYLINE
  5
39
330
1F
100
AcDbEntity
  8
0
100
AcDbPolyline
 90
        6
 70
   128
 43
0.0
 10
50.179152
 20
24.942494
 10
45.741652
 20
24.942494
 10
44.116652
 20
20.692494
 10
47.866652
 20
11.317494
 10
50.179152
 20
11.942494
 10
50.179152
 20
24.942494
  0
LWPOLYLINE
  5
3A
330
1F
100
AcDbEntity
  8
0
100
AcDbPolyline
 90
        6
 70
   128
 43
0.0
 10
40.564102
 20
40.798406
 10
40.564102
 20
45.235906
 10
36.314102
 20
46.860906
 10
26.939102
 20
43.110906
 10
27.564102
 20
40.798406
 10
40.564102
 20
40.798406
  0
LWPOLYLINE
  5
3B
330
1F
100
AcDbEntity
  8
0
100
AcDbPolyline
 90
        5
 70
   128
 43
0.0
 10
74.880319
 20
21.985653
 10
51.130319
 20
21.985653
 10
51.130319
 20
0.985653
 10
74.880319
 20
0.985653
 10
74.880319
 20
21.985653
  0
LWPOLYLINE
  5
3C
330
1F
100
AcDbEntity
  8
0
100
AcDbPolyline
 90
        5
 70
   128
 43
0.0
 10
73.630319
 20
2.360653
 42
0.414214
 10
73.880319
 20
2.610653
 42
0.414214
 10
73.630319
 20
2.860653
 42
0.414214
 10
73.380319
 20
2.610653
 42
0.414214
 10
73.630319
 20
2.360653
  0
LWPOLYLINE
  5
3D
330
1F
100
AcDbEntity
  8
0
100
AcDbPolyline
 90
        5
 70
   128
 43
0.0
 10
73.630319
 20
20.610653
 42
0.414214
 10
73.880319
 20
20.860653
 42
0.414214
 10
73.630319
 20
21.110653
 42
0.414214
 10
73.380319
 20
20.860653
 42
0.414214
 10
73.630319
 20
20.610653
  0
LWPOLYLINE
  5
3E
330
1F
100
AcDbEntity
  8
0
100
AcDbPolyline
 90
        5
 70
   128
 43
0.0
 10
52.380319
 20
2.360653
 42
0.414214
 10
52.630319
 20
2.610653
 42
0.414214
 10
52.380319
 20
2.860653
 42
0.414214
 10
52.130319
 20
2.610653
 42
0.414214
 10
52.380319
 20
2.360653
  0
LWPOLYLINE
  5
3F
330
1F
100
AcDbEntity
  8
0
100
AcDbPolyline
 90
        5
 70
   128
 43
0.0
 10
52.380319
 20
20.610653
 42
0.414214
 10
52.630319
 20
20.860653
 42
0.414214
 10
52.380319
 20
21.110653
 42
0.414214
 10
52.130319
 20
20.860653
 42
0.414214
 10
52.380319
 20
20.610653
  0
LWPOLYLINE
  5
40
330
1F
100
AcDbEntity
  8
0
100
AcDbPolyline
 90
        5
 70
   128
 43
0.0
 10
22.435191
 20
44.902066
 10
28.435191
 20
44.902066
 10
28.435191
 20
46.902066
 10
22.435191
 20
46.902066
 10
22.435191
 20
44.902066
  0
LWPOLYLINE
  5
41
330
1F
100
AcDbEntity
  8
0
100
AcDbPolyline
 90
        5
 70
   128
 43
0.0
 10
14.987226
 20
45.028303
 10
20.987226
 20
45.028303
 10
20.987226
 20
47.028303
 10
14.987226
 20
47.028303
 10
14.987226
 20
45.028303
  0
LWPOLYLINE
  5
42
330
1F
100
AcDbEntity
  8
0
100
AcDbPolyline
 90
        5
 70
   128
 43
0.0
 10
26.2421
 20
15.5595
 10
44.5546
 20
15.5595
 10
44.5546
 20
17.5595
 10
26.2421
 20
17.5595
 10
26.2421
 20
15.5595
  0
LWPOLYLINE
  5
43
330
1F
100
AcDbEntity
  8
0
100
AcDbPolyline
 90
      164
 70
   128
 43
0.0
 10
41.568707
 20
35.53577
 10
41.068707
 20
38.47327
 10
42.068707
 20
42.16077
 10
43.756207
 20
42.16077
 10
43.767292
 20
42.161153
 10
43.778434
 20
42.162283
 10
43.789606
 20
42.164134
 10
43.800782
 20
42.166679
 10
43.811934
 20
42.169891
 10
43.823036
 20
42.173743
 10
43.834062
 20
42.178209
 10
43.844983
 20
42.183262
 10
43.855774
 20
42.188874
 10
43.866407
 20
42.195019
 10
43.876856
 20
42.20167
 10
43.887093
 20
42.208801
 10
43.897093
 20
42.216384
 10
43.906828
 20
42.224393
 10
43.916272
 20
42.232801
 10
43.925397
 20
42.24158
 10
43.934177
 20
42.250705
 10
43.942584
 20
42.260149
 10
43.950593
 20
42.269884
 10
43.958176
 20
42.279884
 10
43.965307
 20
42.290122
 10
43.971958
 20
42.30057
 10
43.978103
 20
42.311204
 10
43.983716
 20
42.321994
 10
43.988768
 20
42.332916
 10
43.993234
 20
42.343941
 10
43.997086
 20
42.355043
 10
44.000298
 20
42.366195
 10
44.002843
 20
42.377371
 10
44.004694
 20
42.388543
 10
44.005824
 20
42.399685
 10
44.006207
 20
42.41077
 10
44.006207
 20
44.03577
 10
44.004818
 20
44.051068
 10
44.004538
 20
44.063933
 10
44.003708
 20
44.076629
 10
44.00234
 20
44.089141
 10
44.000449
 20
44.101452
 10
43.998049
 20
44.113547
 10
43.995152
 20
44.12541
 10
43.991771
 20
44.137026
 10
43.987922
 20
44.148379
 10
43.983616
 20
44.159453
 10
43.978868
 20
44.170233
 10
43.973691
 20
44.180702
 10
43.968099
 20
44.190845
 10
43.962105
 20
44.200647
 10
43.955722
 20
44.210091
 10
43.948964
 20
44.219162
 10
43.941845
 20
44.227845
 10
43.934379
 20
44.236123
 10
43.926577
 20
44.24398
 10
43.918455
 20
44.251402
 10
43.910026
 20
44.258372
 10
43.901303
 20
44.264875
 10
43.892299
 20
44.270894
 10
43.883029
 20
44.276415
 10
43.873505
 20
44.281422
 10
43.863742
 20
44.285898
 10
43.853752
 20
44.289829
 10
43.843549
 20
44.293197
 10
43.833148
 20
44.295989
 10
43.82256
 20
44.298187
 10
43.8118
 20
44.299777
 10
43.800881
 20
44.300743
 10
43.789818
 20
44.301068
 10
43.77573
 20
44.30054
 10
43.761884
 20
44.298977
 10
43.748309
 20
44.296413
 10
43.735033
 20
44.292879
 10
43.722083
 20
44.288409
 10
43.709487
 20
44.283034
 10
43.697274
 20
44.276788
 10
43.685472
 20
44.269703
 10
43.674108
 20
44.261812
 10
43.663211
 20
44.253147
 10
43.652809
 20
44.243741
 10
43.642929
 20
44.233627
 10
43.6336
 20
44.222836
 10
43.62485
 20
44.211403
 10
43.616707
 20
44.199359
 10
43.609199
 20
44.186736
 10
43.568707
 20
44.09827
 10
42.193707
 20
44.66077
 10
42.872203
 20
46.535738
 10
49.818707
 20
46.53577
 10
49.818707
 20
38.91077
 10
47.131207
 20
38.91077
 10
47.130817
 20
38.914107
 42
0.414214
 10
46.880817
 20
39.164107
 42
0.414214
 10
46.630817
 20
38.914107
 10
46.631207
 20
38.91077
 10
46.631207
 20
38.28577
 10
45.318707
 20
38.28577
 10
45.318707
 20
34.28577
 10
43.193707
 20
34.28577
 10
43.160849
 20
34.285995
 10
43.127696
 20
34.28668
 10
43.094275
 20
34.28784
 10
43.060614
 20
34.289492
 10
43.026739
 20
34.29165
 10
42.992678
 20
34.29433
 10
42.958458
 20
34.297548
 10
42.924107
 20
34.301319
 10
42.889652
 20
34.30566
 10
42.855119
 20
34.310584
 10
42.820538
 20
34.316109
 10
42.785934
 20
34.322249
 10
42.751334
 20
34.329021
 10
42.716768
 20
34.336439
 10
42.682261
 20
34.344519
 10
42.64784
 20
34.353277
 10
42.613534
 20
34.362728
 10
42.57937
 20
34.372888
 10
42.545374
 20
34.383772
 10
42.511574
 20
34.395397
 10
42.477998
 20
34.407777
 10
42.444672
 20
34.420928
 10
42.411625
 20
34.434866
 10
42.378882
 20
34.449606
 10
42.346472
 20
34.465163
 10
42.314422
 20
34.481554
 10
42.282759
 20
34.498794
 10
42.251511
 20
34.516898
 10
42.220704
 20
34.535882
 10
42.190366
 20
34.555762
 10
42.160525
 20
34.576553
 10
42.131207
 20
34.59827
 10
42.103611
 20
34.619991
 10
42.076542
 20
34.642575
 10
42.050011
 20
34.665986
 10
42.024032
 20
34.690186
 10
41.998615
 20
34.715137
 10
41.973772
 20
34.740802
 10
41.949517
 20
34.767143
 10
41.92586
 20
34.794123
 10
41.902813
 20
34.821705
 10
41.880389
 20
34.849851
 10
41.858599
 20
34.878522
 10
41.837455
 20
34.907683
 10
41.81697
 20
34.937295
 10
41.797155
 20
34.967321
 10
41.778022
 20
34.997723
 10
41.759583
 20
35.028463
 10
41.741851
 20
35.059505
 10
41.724836
 20
35.090811
 10
41.708551
 20
35.122343
 10
41.693008
 20
35.154063
 10
41.678219
 20
35.185935
 10
41.664196
 20
35.21792
 10
41.65095
 20
35.249981
 10
41.638494
 20
35.282081
 10
41.62684
 20
35.314183
 10
41.615999
 20
35.346247
 10
41.605983
 20
35.378238
 10
41.596805
 20
35.410118
 10
41.588477
 20
35.441848
 10
41.58101
 20
35.473392
 10
41.574416
 20
35.504712
 10
41.568707
 20
35.53577
  0
LWPOLYLINE
  5
44
330
1F
100
AcDbEntity
  8
0
100
AcDbPolyline
 90
      164
 70
   128
 43
0.0
 10
38.097198
 20
22.407154
 10
37.597198
 20
25.344654
 10
38.597198
 20
29.032154
 10
40.284698
 20
29.032154
 10
40.295783
 20
29.032537
 10
40.306925
 20
29.033667
 10
40.318097
 20
29.035518
 10
40.329273
 20
29.038063
 10
40.340425
 20
29.041275
 10
40.351527
 20
29.045127
 10
40.362553
 20
29.049593
 10
40.373474
 20
29.054645
 10
40.384265
 20
29.060258
 10
40.394898
 20
29.066403
 10
40.405347
 20
29.073054
 10
40.415584
 20
29.080185
 10
40.425584
 20
29.087768
 10
40.435319
 20
29.095777
 10
40.444763
 20
29.104184
 10
40.453888
 20
29.112964
 10
40.462667
 20
29.122089
 10
40.471075
 20
29.131533
 10
40.479084
 20
29.141268
 10
40.486667
 20
29.151268
 10
40.493798
 20
29.161505
 10
40.500449
 20
29.171954
 10
40.506594
 20
29.182587
 10
40.512207
 20
29.193378
 10
40.517259
 20
29.204299
 10
40.521725
 20
29.215325
 10
40.525577
 20
29.226427
 10
40.528789
 20
29.237579
 10
40.531334
 20
29.248755
 10
40.533185
 20
29.259927
 10
40.534315
 20
29.271069
 10
40.534698
 20
29.282154
 10
40.534698
 20
30.907154
 10
40.533308
 20
30.922452
 10
40.533029
 20
30.935317
 10
40.532198
 20
30.948013
 10
40.530831
 20
30.960524
 10
40.52894
 20
30.972836
 10
40.52654
 20
30.984931
 10
40.523642
 20
30.996794
 10
40.520262
 20
31.00841
 10
40.516413
 20
31.019763
 10
40.512107
 20
31.030837
 10
40.507359
 20
31.041617
 10
40.502182
 20
31.052086
 10
40.49659
 20
31.062229
 10
40.490596
 20
31.072031
 10
40.484213
 20
31.081475
 10
40.477455
 20
31.090546
 10
40.470336
 20
31.099229
 10
40.46287
 20
31.107506
 10
40.455068
 20
31.115364
 10
40.446946
 20
31.122786
 10
40.438517
 20
31.129756
 10
40.429794
 20
31.136259
 10
40.42079
 20
31.142278
 10
40.41152
 20
31.147799
 10
40.401996
 20
31.152806
 10
40.392233
 20
31.157282
 10
40.382243
 20
31.161212
 10
40.37204
 20
31.164581
 10
40.361638
 20
31.167373
 10
40.351051
 20
31.169571
 10
40.340291
 20
31.171161
 10
40.329372
 20
31.172127
 10
40.318308
 20
31.172452
 10
40.304221
 20
31.171924
 10
40.290375
 20
31.170361
 10
40.2768
 20
31.167797
 10
40.263524
 20
31.164263
 10
40.250574
 20
31.159792
 10
40.237978
 20
31.154418
 10
40.225765
 20
31.148172
 10
40.213963
 20
31.141087
 10
40.202599
 20
31.133196
 10
40.191702
 20
31.124531
 10
40.1813
 20
31.115125
 10
40.17142
 20
31.105011
 10
40.162091
 20
31.09422
 10
40.153341
 20
31.082787
 10
40.145198
 20
31.070742
 10
40.13769
 20
31.05812
 10
40.097198
 20
30.969654
 10
38.722198
 20
31.532154
 10
39.400693
 20
33.407122
 10
46.347198
 20
33.407154
 10
46.347198
 20
25.782154
 10
43.659698
 20
25.782154
 10
43.659308
 20
25.785491
 42
0.414214
 10
43.409308
 20
26.035491
 42
0.414214
 10
43.159308
 20
25.785491
 10
43.159698
 20
25.782154
 10
43.159698
 20
25.157154
 10
41.847198
 20
25.157154
 10
41.847198
 20
21.157154
 10
39.722198
 20
21.157154
 10
39.68934
 20
21.157379
 10
39.656187
 20
21.158064
 10
39.622766
 20
21.159224
 10
39.589105
 20
21.160875
 10
39.55523
 20
21.163034
 10
39.521169
 20
21.165714
 10
39.486949
 20
21.168932
 10
39.452598
 20
21.172703
 10
39.418143
 20
21.177044
 10
39.38361
 20
21.181968
 10
39.349029
 20
21.187493
 10
39.314424
 20
21.193633
 10
39.279825
 20
21.200405
 10
39.245259
 20
21.207822
 10
39.210752
 20
21.215903
 10
39.176331
 20
21.224661
 10
39.142025
 20
21.234112
 10
39.107861
 20
21.244272
 10
39.073865
 20
21.255156
 10
39.040065
 20
21.266781
 10
39.006489
 20
21.279161
 10
38.973163
 20
21.292312
 10
38.940115
 20
21.30625
 10
38.907373
 20
21.320989
 10
38.874963
 20
21.336547
 10
38.842913
 20
21.352938
 10
38.81125
 20
21.370178
 10
38.780002
 20
21.388282
 10
38.749195
 20
21.407266
 10
38.718857
 20
21.427146
 10
38.689016
 20
21.447937
 10
38.659698
 20
21.469654
 10
38.632102
 20
21.491374
 10
38.605033
 20
21.513959
 10
38.578502
 20
21.53737
 10
38.552523
 20
21.561569
 10
38.527106
 20
21.586521
 10
38.502263
 20
21.612186
 10
38.478008
 20
21.638527
 10
38.454351
 20
21.665507
 10
38.431304
 20
21.693089
 10
38.40888
 20
21.721234
 10
38.38709
 20
21.749906
 10
38.365946
 20
21.779067
 10
38.345461
 20
21.808679
 10
38.325646
 20
21.838704
 10
38.306513
 20
21.869106
 10
38.288074
 20
21.899847
 10
38.270342
 20
21.930889
 10
38.253327
 20
21.962195
 10
38.237042
 20
21.993726
 10
38.221499
 20
22.025447
 10
38.20671
 20
22.057319
 10
38.192687
 20
22.089304
 10
38.179441
 20
22.121365
 10
38.166985
 20
22.153465
 10
38.15533
 20
22.185566
 10
38.14449
 20
22.217631
 10
38.134474
 20
22.249622
 10
38.125296
 20
22.281501
 10
38.116968
 20
22.313232
 10
38.109501
 20
22.344776
 10
38.102907
 20
22.376096
 10
38.097198
 20
22.407154
  0
LWPOLYLINE
  5
45
330
1F
100
AcDbEntity
  8
0
100
AcDbPolyline
 90
        5
 70
   128
 43
0.0
 10
27.180192
 20
29.049434
 42
0.414214
 10
30.305192
 20
25.924434
 42
0.414214
 10
33.430192
 20
29.049434
 42
0.414214
 10
30.305192
 20
32.174434
 42
0.414214
 10
27.180192
 20
29.049434
  0
LWPOLYLINE
  5
46
330
1F
100
AcDbEntity
  8
0
100
AcDbPolyline
 90
        5
 70
   128
 43
0.0
 10
36.430197
 20
18.799468
 10
36.430197
 20
39.299468
 10
26.180197
 20
39.299468
 10
26.180197
 20
18.799468
 10
36.430197
 20
18.799468
  0
ENDSEC
  0
SECTION
  2
OBJECTS
  0
DICTIONARY
  5
C
330
0
100
AcDbDictionary
281
     1
  3
ACAD_GROUP
350
D
  3
ACAD_LAYOUT
350
1A
  3
ACAD_MLINESTYLE
350
17
  3
ACAD_PLOTSETTINGS
350
19
  3
ACAD_PLOTSTYLENAME
350
E
  0
DICTIONARY
  5
D
102
{ACAD_REACTORS
330
C
102
}
330
C
100
AcDbDictionary
281
     1
  0
DICTIONARY
  5
1A
102
{ACAD_REACTORS
330
C
102
}
330
C
100
AcDbDictionary
281
     1
  3
Layout1
350
1E
  3
Layout2
350
26
  3
Model
350
22
  0
DICTIONARY
  5
17
102
{ACAD_REACTORS
330
C
102
}
330
C
100
AcDbDictionary
281
     1
  3
Standard
350
18
  0
DICTIONARY
  5
19
102
{ACAD_REACTORS
330
C
102
}
330
C
100
AcDbDictionary
281
     1
  0
ACDBDICTIONARYWDFLT
  5
E
102
{ACAD_REACTORS
330
C
102
}
330
C
100
AcDbDictionary
281
     1
  3
Normal
350
F
100
AcDbDictionaryWithDefault
340
F
  0
LAYOUT
  5
1E
102
{ACAD_REACTORS
330
1A
102
}
330
1A
100
AcDbPlotSettings
  1

  2

  4

  6

 40
0.0
 41
0.0
 42
0.0
 43
0.0
 44
0.0
 45
0.0
 46
0.0
 47
0.0
 48
0.0
 49
0.0
140
0.0
141
0.0
142
1.0
143
1.0
 70
   688
 72
     0
 73
     0
 74
     5
  7

 75
    16
147
1.0
148
0.0
149
0.0
100
AcDbLayout
  1
Layout1
 70
     1
 71
     1
 10
0.0
 20
0.0
 11
420.0
 21
297.0
 12
0.0
 22
0.0
 32
0.0
 14
1.000000E+20
 24
1.000000E+20
 34
1.000000E+20
 15
-1.000000E+20
 25
-1.000000E+20
 35
-1.000000E+20
146
0.0
 13
0.0
 23
0.0
 33
0.0
 16
1.0
 26
0.0
 36
0.0
 17
0.0
 27
1.0
 37
0.0
 76
     0
330
1B
  0
LAYOUT
  5
26
102
{ACAD_REACTORS
330
1A
102
}
330
1A
100
AcDbPlotSettings
  1

  2

  4

  6

 40
0.0
 41
0.0
 42
0.0
 43
0.0
 44
0.0
 45
0.0
 46
0.0
 47
0.0
 48
0.0
 49
0.0
140
0.0
141
0.0
142
1.0
143
1.0
 70
   688
 72
     0
 73
     0
 74
     5
  7

 75
    16
147
1.0
148
0.0
149
0.0
100
AcDbLayout
  1
Layout2
 70
     1
 71
     2
 10
0.0
 20
0.0
 11
0.0
 21
0.0
 12
0.0
 22
0.0
 32
0.0
 14
0.0
 24
0.0
 34
0.0
 15
0.0
 25
0.0
 35
0.0
146
0.0
 13
0.0
 23
0.0
 33
0.0
 16
1.0
 26
0.0
 36
0.0
 17
0.0
 27
1.0
 37
0.0
 76
     0
330
23
  0
LAYOUT
  5
22
102
{ACAD_REACTORS
330
1A
102
}
330
1A
100
AcDbPlotSettings
  1

  2

  4

  6

 40
0.0
 41
0.0
 42
0.0
 43
0.0
 44
0.0
 45
0.0
 46
0.0
 47
0.0
 48
0.0
 49
0.0
140
0.0
141
0.0
142
1.0
143
1.0
 70
  1712
 72
     0
 73
     0
 74
     0
  7

 75
     0
147
1.0
148
0.0
149
0.0
100
AcDbLayout
  1
Model
 70
     1
 71
     0
 10
0.0
 20
0.0
 11
0.0
 21
0.0
 12
0.0
 22
0.0
 32
0.0
 14
0.0
 24
0.0
 34
0.0
 15
0.0
 25
0.0
 35
0.0
146
0.0
 13
0.0
 23
0.0
 33
0.0
 16
1.0
 26
0.0
 36
0.0
 17
0.0
 27
1.0
 37
0.0
 76
     0
330
1F
  0
MLINESTYLE
  5
18
102
{ACAD_REACTORS
330
17
102
}
330
17
100
AcDbMlineStyle
  2
Standard
 70
     0
  3

 62
   256
 51
90.0
 52
90.0
 71
     2
 49
1.0
 62
   256
  6
BYLAYER
 49
-1.0
 62
   256
  6
BYLAYER
  0
ACDBPLACEHOLDER
  5
F
102
{ACAD_REACTORS
330
E
102
}
330
E
  0
ENDSEC
  0
EOF
