  0
SECTION
  2
HEADER
  9
$ACADVER
  1
AC1015
  9
$ACADMAINTVER
 70
     6
  9
$DWGCODEPAGE
  3
ANSI_1252
  9
$INSBASE
 10
0.0
 20
0.0
 30
0.0
  9
$EXTMIN
 10
1.000000E+20
 20
1.000000E+20
 30
1.000000E+20
  9
$EXTMAX
 10
-1.000000E+20
 20
-1.000000E+20
 30
-1.000000E+20
  9
$LIMMIN
 10
0.0
 20
0.0
  9
$LIMMAX
 10
420.0
 20
297.0
  9
$ORTHOMODE
 70
     0
  9
$REGENMODE
 70
     1
  9
$FILLMODE
 70
     1
  9
$QTEXTMODE
 70
     0
  9
$MIRRTEXT
 70
     1
  9
$LTSCALE
 40
1.0
  9
$ATTMODE
 70
     1
  9
$TEXTSIZE
 40
2.5
  9
$TRACEWID
 40
1.0
  9
$TEXTSTYLE
  7
Standard
  9
$CLAYER
  8
0
  9
$CELTYPE
  6
ByLayer
  9
$CECOLOR
 62
   256
  9
$CELTSCALE
 40
1.0
  9
$DISPSILH
 70
     0
  9
$DIMSCALE
 40
1.0
  9
$DIMASZ
 40
2.5
  9
$DIMEXO
 40
0.625
  9
$DIMDLI
 40
3.75
  9
$DIMRND
 40
0.0
  9
$DIMDLE
 40
0.0
  9
$DIMEXE
 40
1.25
  9
$DIMTP
 40
0.0
  9
$DIMTM
 40
0.0
  9
$DIMTXT
 40
2.5
  9
$DIMCEN
 40
2.5
  9
$DIMTSZ
 40
0.0
  9
$DIMTOL
 70
     0
  9
$DIMLIM
 70
     0
  9
$DIMTIH
 70
     0
  9
$DIMTOH
 70
     0
  9
$DIMSE1
 70
     0
  9
$DIMSE2
 70
     0
  9
$DIMTAD
 70
     1
  9
$DIMZIN
 70
     8
  9
$DIMBLK
  1

  9
$DIMASO
 70
     1
  9
$DIMSHO
 70
     1
  9
$DIMPOST
  1

  9
$DIMAPOST
  1

  9
$DIMALT
 70
     0
  9
$DIMALTD
 70
     3
  9
$DIMALTF
 40
0.03937
  9
$DIMLFAC
 40
1.0
  9
$DIMTOFL
 70
     1
  9
$DIMTVP
 40
0.0
  9
$DIMTIX
 70
     0
  9
$DIMSOXD
 70
     0
  9
$DIMSAH
 70
     0
  9
$DIMBLK1
  1

  9
$DIMBLK2
  1

  9
$DIMSTYLE
  2
ISO-25
  9
$DIMCLRD
 70
     0
  9
$DIMCLRE
 70
     0
  9
$DIMCLRT
 70
     0
  9
$DIMTFAC
 40
1.0
  9
$DIMGAP
 40
0.625
  9
$DIMJUST
 70
     0
  9
$DIMSD1
 70
     0
  9
$DIMSD2
 70
     0
  9
$DIMTOLJ
 70
     0
  9
$DIMTZIN
 70
     8
  9
$DIMALTZ
 70
     0
  9
$DIMALTTZ
 70
     0
  9
$DIMUPT
 70
     0
  9
$DIMDEC
 70
     2
  9
$DIMTDEC
 70
     2
  9
$DIMALTU
 70
     2
  9
$DIMALTTD
 70
     3
  9
$DIMTXSTY
  7
Standard
  9
$DIMAUNIT
 70
     0
  9
$DIMADEC
 70
     0
  9
$DIMALTRND
 40
0.0
  9
$DIMAZIN
 70
     0
  9
$DIMDSEP
 70
    44
  9
$DIMATFIT
 70
     3
  9
$DIMFRAC
 70
     0
  9
$DIMLDRBLK
  1

  9
$DIMLUNIT
 70
     2
  9
$DIMLWD
 70
    -2
  9
$DIMLWE
 70
    -2
  9
$DIMTMOVE
 70
     0
  9
$LUNITS
 70
     2
  9
$LUPREC
 70
     4
  9
$SKETCHINC
 40
1.0
  9
$FILLETRAD
 40
10.0
  9
$AUNITS
 70
     0
  9
$AUPREC
 70
     0
  9
$MENU
  1
.
  9
$ELEVATION
 40
0.0
  9
$PELEVATION
 40
0.0
  9
$THICKNESS
 40
0.0
  9
$LIMCHECK
 70
     0
  9
$CHAMFERA
 40
10.0
  9
$CHAMFERB
 40
10.0
  9
$CHAMFERC
 40
20.0
  9
$CHAMFERD
 40
0.0
  9
$SKPOLY
 70
     0
  9
$TDCREATE
 40
2457255.606878067
  9
$TDUCREATE
 40
2457255.773544734
  9
$TDUPDATE
 40
2457255.606878079
  9
$TDUUPDATE
 40
2457255.773544746
  9
$TDINDWG
 40
0.0000000116
  9
$TDUSRTIMER
 40
0.0000000116
  9
$USRTIMER
 70
     1
  9
$ANGBASE
 50
0.0
  9
$ANGDIR
 70
     0
  9
$PDMODE
 70
     3
  9
$PDSIZE
 40
-0.7
  9
$PLINEWID
 40
0.0
  9
$SPLFRAME
 70
     0
  9
$SPLINETYPE
 70
     6
  9
$SPLINESEGS
 70
     8
  9
$HANDSEED
  5
40
  9
$SURFTAB1
 70
     6
  9
$SURFTAB2
 70
     6
  9
$SURFTYPE
 70
     6
  9
$SURFU
 70
     6
  9
$SURFV
 70
     6
  9
$UCSBASE
  2

  9
$UCSNAME
  2

  9
$UCSORG
 10
0.0
 20
0.0
 30
0.0
  9
$UCSXDIR
 10
1.0
 20
0.0
 30
0.0
  9
$UCSYDIR
 10
0.0
 20
1.0
 30
0.0
  9
$UCSORTHOREF
  2

  9
$UCSORTHOVIEW
 70
     0
  9
$UCSORGTOP
 10
0.0
 20
0.0
 30
0.0
  9
$UCSORGBOTTOM
 10
0.0
 20
0.0
 30
0.0
  9
$UCSORGLEFT
 10
0.0
 20
0.0
 30
0.0
  9
$UCSORGRIGHT
 10
0.0
 20
0.0
 30
0.0
  9
$UCSORGFRONT
 10
0.0
 20
0.0
 30
0.0
  9
$UCSORGBACK
 10
0.0
 20
0.0
 30
0.0
  9
$PUCSBASE
  2

  9
$PUCSNAME
  2

  9
$PUCSORG
 10
0.0
 20
0.0
 30
0.0
  9
$PUCSXDIR
 10
1.0
 20
0.0
 30
0.0
  9
$PUCSYDIR
 10
0.0
 20
1.0
 30
0.0
  9
$PUCSORTHOREF
  2

  9
$PUCSORTHOVIEW
 70
     0
  9
$PUCSORGTOP
 10
0.0
 20
0.0
 30
0.0
  9
$PUCSORGBOTTOM
 10
0.0
 20
0.0
 30
0.0
  9
$PUCSORGLEFT
 10
0.0
 20
0.0
 30
0.0
  9
$PUCSORGRIGHT
 10
0.0
 20
0.0
 30
0.0
  9
$PUCSORGFRONT
 10
0.0
 20
0.0
 30
0.0
  9
$PUCSORGBACK
 10
0.0
 20
0.0
 30
0.0
  9
$USERI1
 70
     0
  9
$USERI2
 70
     0
  9
$USERI3
 70
     0
  9
$USERI4
 70
     0
  9
$USERI5
 70
     0
  9
$USERR1
 40
0.0
  9
$USERR2
 40
0.0
  9
$USERR3
 40
0.0
  9
$USERR4
 40
0.0
  9
$USERR5
 40
0.0
  9
$WORLDVIEW
 70
     1
  9
$SHADEDGE
 70
     3
  9
$SHADEDIF
 70
    70
  9
$TILEMODE
 70
     1
  9
$MAXACTVP
 70
    64
  9
$PINSBASE
 10
0.0
 20
0.0
 30
0.0
  9
$PLIMCHECK
 70
     0
  9
$PEXTMIN
 10
1.000000E+20
 20
1.000000E+20
 30
1.000000E+20
  9
$PEXTMAX
 10
-1.000000E+20
 20
-1.000000E+20
 30
-1.000000E+20
  9
$PLIMMIN
 10
0.0
 20
0.0
  9
$PLIMMAX
 10
420.0
 20
297.0
  9
$UNITMODE
 70
     0
  9
$VISRETAIN
 70
     1
  9
$PLINEGEN
 70
     0
  9
$PSLTSCALE
 70
     1
  9
$TREEDEPTH
 70
  3020
  9
$CMLSTYLE
  2
Standard
  9
$CMLJUST
 70
     1
  9
$CMLSCALE
 40
1.0
  9
$PROXYGRAPHICS
 70
     1
  9
$MEASUREMENT
 70
     0
  9
$CELWEIGHT
370
    -1
  9
$ENDCAPS
280
     0
  9
$JOINSTYLE
280
     0
  9
$LWDISPLAY
290
     0
  9
$INSUNITS
 70
     4
  9
$HYPERLINKBASE
  1

  9
$STYLESHEET
  1

  9
$XEDIT
290
     1
  9
$CEPSNTYPE
380
     0
  9
$PSTYLEMODE
290
     1
  9
$FINGERPRINTGUID
  2
{FAEB1C30-E019-11D5-929B-00C0DF256EC4}
  9
$VERSIONGUID
  2
{FAEB1C32-E019-11D5-929B-00C0DF256EC4}
  9
$EXTNAMES
290
     1
  9
$PSVPSCALE
 40
0.0
  9
$OLESTARTUP
290
     0
  0
ENDSEC
  0
SECTION
  2
CLASSES
  0
CLASS
  1
ACDBDICTIONARYWDFLT
  2
AcDbDictionaryWithDefault
  3
ObjectDBX Classes
 90
        0
280
     0
281
     0
  0
CLASS
  1
ACDBPLACEHOLDER
  2
AcDbPlaceHolder
  3
ObjectDBX Classes
 90
        0
280
     0
281
     0
  0
CLASS
  1
LAYOUT
  2
AcDbLayout
  3
ObjectDBX Classes
 90
        0
280
     0
281
     0
  0
ENDSEC
  0
SECTION
  2
TABLES
  0
TABLE
  2
VPORT
  5
8
330
0
100
AcDbSymbolTable
 70
     2
  0
VPORT
  5
29
330
8
100
AcDbSymbolTableRecord
100
AcDbViewportTableRecord
  2
*Active
 70
     0
 10
0.0
 20
0.0
 11
1.0
 21
1.0
 12
50.0
 22
50.0
 13
0.0
 23
0.0
 14
10.0
 24
10.0
 15
10.0
 25
10.0
 16
0.0
 26
0.0
 36
1.0
 17
0.0
 27
0.0
 37
0.0
 40
103.921569
 41
1.0
 42
50.0
 43
0.0
 44
0.0
 50
0.0
 51
0.0
 71
     0
 72
   100
 73
     1
 74
     3
 75
     0
 76
     0
 77
     0
 78
     0
281
     0
 65
     1
110
0.0
120
0.0
130
0.0
111
1.0
121
0.0
131
0.0
112
0.0
122
1.0
132
0.0
 79
     0
146
0.0
  0
ENDTAB
  0
TABLE
  2
LTYPE
  5
5
330
0
100
AcDbSymbolTable
 70
     1
  0
LTYPE
  5
14
330
5
100
AcDbSymbolTableRecord
100
AcDbLinetypeTableRecord
  2
ByBlock
 70
     0
  3

 72
    65
 73
     0
 40
0.0
  0
LTYPE
  5
15
330
5
100
AcDbSymbolTableRecord
100
AcDbLinetypeTableRecord
  2
ByLayer
 70
     0
  3

 72
    65
 73
     0
 40
0.0
  0
LTYPE
  5
16
330
5
100
AcDbSymbolTableRecord
100
AcDbLinetypeTableRecord
  2
Continuous
 70
     0
  3

 72
    65
 73
     0
 40
0.0
  0
ENDTAB
  0
TABLE
  2
LAYER
  5
2
330
0
100
AcDbSymbolTable
 70
     1
  0
LAYER
  5
10
330
2
100
AcDbSymbolTableRecord
100
AcDbLayerTableRecord
  2
0
 70
     0
 62
     7
  6
Continuous
370
    -3
390
F
  0
ENDTAB
  0
TABLE
  2
STYLE
  5
3
330
0
100
AcDbSymbolTable
 70
     1
  0
STYLE
  5
11
330
3
100
AcDbSymbolTableRecord
100
AcDbTextStyleTableRecord
  2
Standard
 70
     0
 40
1.0
 41
1.0
 50
0.0
 71
     0
 42
2.5
  3
RomanS
  4

  0
ENDTAB
  0
TABLE
  2
VIEW
  5
6
330
0
100
AcDbSymbolTable
 70
     0
  0
ENDTAB
  0
TABLE
  2
UCS
  5
7
330
0
100
AcDbSymbolTable
 70
     0
  0
ENDTAB
  0
TABLE
  2
APPID
  5
9
330
0
100
AcDbSymbolTable
 70
     1
  0
APPID
  5
12
330
9
100
AcDbSymbolTableRecord
100
AcDbRegAppTableRecord
  2
ACAD
 70
     0
  0
ENDTAB
  0
TABLE
  2
DIMSTYLE
  5
A
330
0
100
AcDbSymbolTable
 70
     1
100
AcDbDimStyleTable
  0
DIMSTYLE
105
27
330
A
100
AcDbSymbolTableRecord
100
AcDbDimStyleTableRecord
  2
ISO-25
 70
     0
 41
2.5
 42
0.625
 44
1.25
 73
     0
 74
     0
 77
     1
 78
     8
 79
     2
140
2.5
141
2.5
146
0.0
147
0.625
271
     2
272
     0
273
     0
274
     0
278
    44
283
     0
289
     0
340
11
  0
ENDTAB
  0
TABLE
  2
BLOCK_RECORD
  5
1
330
0
100
AcDbSymbolTable
 70
     1
  0
BLOCK_RECORD
  5
1F
330
1
100
AcDbSymbolTableRecord
100
AcDbBlockTableRecord
  2
*Model_Space
340
22
  0
BLOCK_RECORD
  5
1B
330
1
100
AcDbSymbolTableRecord
100
AcDbBlockTableRecord
  2
*Paper_Space
340
1E
  0
BLOCK_RECORD
  5
23
330
1
100
AcDbSymbolTableRecord
100
AcDbBlockTableRecord
  2
*Paper_Space0
340
26
  0
ENDTAB
  0
ENDSEC
  0
SECTION
  2
BLOCKS
  0
BLOCK
  5
20
330
1F
100
AcDbEntity
  8
0
100
AcDbBlockBegin
  2
*Model_Space
 70
     0
 71
     0
 10
0.0
 20
0.0
 30
0.0
  3
*Model_Space
  1

  0
ENDBLK
  5
21
330
1F
100
AcDbEntity
  8
0
100
AcDbBlockEnd
  0
BLOCK
  5
1C
330
1B
100
AcDbEntity
 67
     1
  8
0
100
AcDbBlockBegin
  2
*Paper_Space
 70
     0
 71
     0
 10
0.0
 20
0.0
 30
0.0
  3
*Paper_Space
  1

  0
ENDBLK
  5
1D
330
1B
100
AcDbEntity
 67
     1
  8
0
100
AcDbBlockEnd
  0
BLOCK
  5
24
330
23
100
AcDbEntity
  8
0
100
AcDbBlockBegin
  2
*Paper_Space0
 70
     0
 71
     0
 10
0.0
 20
0.0
 30
0.0
  3
*Paper_Space0
  1

  0
ENDBLK
  5
25
330
23
100
AcDbEntity
  8
0
100
AcDbBlockEnd
  0
ENDSEC
  0
SECTION
  2
ENTITIES
  0
LWPOLYLINE
  5
2A
330
1F
100
AcDbEntity
  8
0
100
AcDbPolyline
 90
     1119
 70
   128
 43
0.0
 10
27.9375
 20
33.480109
 10
35.5625
 20
14.636409
 10
35.57603
 20
14.603433
 10
35.590609
 20
14.569744
 10
35.598395
 20
14.55282
 10
35.606569
 20
14.535944
 10
35.615172
 20
14.519191
 10
35.624246
 20
14.502637
 10
35.633832
 20
14.486357
 10
35.643973
 20
14.470427
 10
35.65471
 20
14.454922
 10
35.666085
 20
14.439917
 10
35.67814
 20
14.425487
 10
35.690916
 20
14.411709
 10
35.704456
 20
14.398658
 10
35.7188
 20
14.386409
 10
35.729399
 20
14.378194
 10
35.740284
 20
14.370289
 10
35.751437
 20
14.362692
 10
35.762846
 20
14.355399
 10
35.774495
 20
14.348407
 10
35.786369
 20
14.341713
 10
35.798452
 20
14.335313
 10
35.810731
 20
14.329205
 10
35.823189
 20
14.323384
 10
35.835813
 20
14.317847
 10
35.848587
 20
14.312592
 10
35.861495
 20
14.307615
 10
35.887659
 20
14.298482
 10
35.914183
 20
14.290422
 10
35.940948
 20
14.283408
 10
35.967835
 20
14.277414
 10
35.994723
 20
14.272414
 10
36.021493
 20
14.268382
 10
36.048026
 20
14.265292
 10
36.074201
 20
14.263117
 10
36.099899
 20
14.261832
 10
36.125
 20
14.261409
 10
93.5
 20
14.261409
 10
96.0
 20
16.761409
 10
96.0
 20
40.698909
 10
95.999808
 20
40.709976
 10
95.999235
 20
40.721079
 10
95.998288
 20
40.73221
 10
95.996974
 20
40.743363
 10
95.9953
 20
40.754531
 10
95.993272
 20
40.765707
 10
95.990897
 20
40.776885
 10
95.988182
 20
40.788059
 10
95.985134
 20
40.79922
 10
95.981758
 20
40.810363
 10
95.978063
 20
40.821482
 10
95.974054
 20
40.832568
 10
95.965122
 20
40.854618
 10
95.955017
 20
40.876461
 10
95.943793
 20
40.898042
 10
95.931503
 20
40.919308
 10
95.9182
 20
40.940206
 10
95.903939
 20
40.960682
 10
95.888772
 20
40.980681
 10
95.872755
 20
41.000151
 10
95.855939
 20
41.019038
 10
95.83838
 20
41.037288
 10
95.820129
 20
41.054848
 10
95.801243
 20
41.071663
 10
95.781772
 20
41.087681
 10
95.761773
 20
41.102848
 10
95.741297
 20
41.117109
 10
95.7204
 20
41.130411
 10
95.699133
 20
41.142702
 10
95.677552
 20
41.153926
 10
95.655709
 20
41.164031
 10
95.633659
 20
41.172962
 10
95.622573
 20
41.176971
 10
95.611455
 20
41.180667
 10
95.600311
 20
41.184042
 10
95.58915
 20
41.187091
 10
95.577977
 20
41.189806
 10
95.566798
 20
41.192181
 10
95.555622
 20
41.194209
 10
95.544454
 20
41.195883
 10
95.533301
 20
41.197197
 10
95.52217
 20
41.198143
 10
95.511067
 20
41.198716
 10
95.5
 20
41.198909
 10
67.5625
 20
41.198909
 10
67.531528
 20
41.199164
 10
67.50056
 20
41.199927
 10
67.469585
 20
41.201194
 10
67.438597
 20
41.202959
 10
67.407585
 20
41.205219
 10
67.376542
 20
41.207968
 10
67.345459
 20
41.211202
 10
67.314328
 20
41.214918
 10
67.283139
 20
41.219109
 10
67.251885
 20
41.223773
 10
67.220557
 20
41.228903
 10
67.189145
 20
41.234497
 10
67.157643
 20
41.240549
 10
67.12604
 20
41.247054
 10
67.094328
 20
41.254009
 10
67.0625
 20
41.261409
 10
67.007445
 20
41.274166
 10
66.951761
 20
41.286684
 10
66.895816
 20
41.299494
 10
66.86786
 20
41.306173
 10
66.839976
 20
41.313123
 10
66.81221
 20
41.32041
 10
66.784608
 20
41.3281
 10
66.757215
 20
41.336259
 10
66.730078
 20
41.344954
 10
66.703242
 20
41.354251
 10
66.676753
 20
41.364214
 10
66.650657
 20
41.374912
 10
66.625
 20
41.386409
 10
66.599026
 20
41.39897
 10
66.573497
 20
41.412065
 10
66.548392
 20
41.425667
 10
66.523686
 20
41.439749
 10
66.499357
 20
41.454283
 10
66.475381
 20
41.469244
 10
66.451736
 20
41.484605
 10
66.428399
 20
41.500338
 10
66.405346
 20
41.516417
 10
66.382554
 20
41.532816
 10
66.360001
 20
41.549506
 10
66.337663
 20
41.566463
 10
66.293539
 20
41.601065
 10
66.25
 20
41.636409
 10
66.230099
 20
41.653141
 10
66.210379
 20
41.670424
 10
66.190866
 20
41.68822
 10
66.17159
 20
41.70649
 10
66.152577
 20
41.725197
 10
66.133855
 20
41.744302
 10
66.115452
 20
41.763768
 10
66.097395
 20
41.783556
 10
66.079713
 20
41.803629
 10
66.062433
 20
41.823948
 10
66.045583
 20
41.844475
 10
66.02919
 20
41.865173
 10
66.013283
 20
41.886004
 10
65.997889
 20
41.906928
 10
65.983035
 20
41.927909
 10
65.96875
 20
41.948909
 10
65.8438
 20
42.136409
 10
65.824167
 20
42.165538
 10
65.804218
 20
42.194478
 10
65.783957
 20
42.223229
 10
65.763388
 20
42.251789
 10
65.742513
 20
42.280157
 10
65.721336
 20
42.308334
 10
65.69986
 20
42.336319
 10
65.678088
 20
42.364111
 10
65.656023
 20
42.391709
 10
65.633669
 20
42.419112
 10
65.611029
 20
42.446321
 10
65.588106
 20
42.473334
 10
65.564904
 20
42.50015
 10
65.541425
 20
42.52677
 10
65.517673
 20
42.553192
 10
65.493651
 20
42.579416
 10
65.435997
 20
42.642342
 10
65.377526
 20
42.70662
 10
65.318066
 20
42.771415
 10
65.287913
 20
42.803745
 10
65.257449
 20
42.835891
 10
65.226654
 20
42.867749
 10
65.195504
 20
42.899214
 10
65.163981
 20
42.930182
 10
65.132061
 20
42.960548
 10
65.099725
 20
42.990208
 10
65.06695
 20
43.019058
 10
65.033715
 20
43.046993
 10
65.0
 20
43.073909
 10
64.931946
 20
43.127188
 10
64.863935
 20
43.180786
 10
64.795623
 20
43.234184
 10
64.761247
 20
43.260648
 10
64.726666
 20
43.286867
 10
64.691838
 20
43.312779
 10
64.65672
 20
43.338318
 10
64.621268
 20
43.36342
 10
64.58544
 20
43.388019
 10
64.549192
 20
43.412053
 10
64.512481
 20
43.435455
 10
64.475265
 20
43.458162
 10
64.4375
 20
43.480109
 10
64.400395
 20
43.500668
 10
64.36281
 20
43.520646
 10
64.324791
 20
43.540083
 10
64.286386
 20
43.559017
 10
64.247642
 20
43.577488
 10
64.208605
 20
43.595536
 10
64.169323
 20
43.6132
 10
64.129843
 20
43.630519
 10
64.050475
 20
43.664282
 10
63.970878
 20
43.697141
 10
63.8125
 20
43.761409
 10
63.73584
 20
43.792233
 10
63.658475
 20
43.822487
 10
63.58055
 20
43.851957
 10
63.502207
 20
43.880432
 10
63.462923
 20
43.894229
 10
63.423588
 20
43.907697
 10
63.384219
 20
43.92081
 10
63.344835
 20
43.933541
 10
63.305453
 20
43.945862
 10
63.266092
 20
43.957749
 10
63.226768
 20
43.969173
 10
63.1875
 20
43.980109
 10
63.164272
 20
43.986223
 10
63.140996
 20
43.991945
 10
63.117675
 20
43.997291
 10
63.094314
 20
44.002281
 10
63.070916
 20
44.006934
 10
63.047483
 20
44.011269
 10
63.000529
 20
44.019059
 10
62.953481
 20
44.025802
 10
62.906365
 20
44.031648
 10
62.859208
 20
44.036747
 10
62.812039
 20
44.041251
 10
62.71777
 20
44.049075
 10
62.623779
 20
44.056322
 10
62.576955
 20
44.060107
 10
62.530282
 20
44.064199
 10
62.483788
 20
44.068749
 10
62.4375
 20
44.073909
 10
62.279338
 20
44.092796
 10
62.216467
 20
44.100773
 10
62.184799
 20
44.105182
 10
62.153038
 20
44.109902
 10
62.121229
 20
44.114955
 10
62.089418
 20
44.120363
 10
62.057652
 20
44.126149
 10
62.025975
 20
44.132335
 10
61.994433
 20
44.138944
 10
61.963074
 20
44.145997
 10
61.931942
 20
44.153517
 10
61.901083
 20
44.161527
 10
61.870544
 20
44.170049
 10
61.84037
 20
44.179105
 10
61.810606
 20
44.188717
 10
61.7813
 20
44.198909
 10
61.750817
 20
44.209591
 10
61.718714
 20
44.220365
 10
61.650722
 20
44.242678
 10
61.615373
 20
44.254459
 10
61.579482
 20
44.266818
 10
61.543317
 20
44.279876
 10
61.507148
 20
44.293756
 10
61.471245
 20
44.308577
 10
61.453477
 20
44.316379
 10
61.435877
 20
44.324462
 10
61.418478
 20
44.332842
 10
61.401314
 20
44.341533
 10
61.384418
 20
44.35055
 10
61.367825
 20
44.35991
 10
61.351567
 20
44.369626
 10
61.335679
 20
44.379714
 10
61.320195
 20
44.39019
 10
61.305147
 20
44.401068
 10
61.29057
 20
44.412364
 10
61.276497
 20
44.424092
 10
61.262963
 20
44.436269
 10
61.25
 20
44.448909
 10
61.147262
 20
44.55286
 10
61.095352
 20
44.605776
 10
61.043527
 20
44.659541
 10
61.017752
 20
44.686793
 10
60.992124
 20
44.71432
 10
60.966686
 20
44.742142
 10
60.941478
 20
44.77028
 10
60.916544
 20
44.798755
 10
60.891925
 20
44.827588
 10
60.867663
 20
44.856799
 10
60.8438
 20
44.886409
 10
60.823847
 20
44.912074
 10
60.804063
 20
44.938456
 10
60.784424
 20
44.965449
 10
60.764905
 20
44.992947
 10
60.726131
 20
45.049037
 10
60.68755
 20
45.105881
 10
60.64897
 20
45.162635
 10
60.610196
 20
45.218454
 10
60.590677
 20
45.245749
 10
60.571037
 20
45.272494
 10
60.551253
 20
45.298582
 10
60.5313
 20
45.323909
 10
60.508158
 20
45.353465
 10
60.485785
 20
45.383573
 10
60.464128
 20
45.414175
 10
60.443134
 20
45.445208
 10
60.422747
 20
45.476614
 10
60.402916
 20
45.508331
 10
60.383587
 20
45.5403
 10
60.364706
 20
45.57246
 10
60.34622
 20
45.604751
 10
60.328075
 20
45.637113
 10
60.292594
 20
45.701808
 10
60.257837
 20
45.766063
 10
60.223374
 20
45.829394
 10
60.20612
 20
45.860564
 10
60.188779
 20
45.891322
 10
60.171298
 20
45.921608
 10
60.153623
 20
45.951362
 10
60.135701
 20
45.980524
 10
60.117478
 20
46.009034
 10
60.098901
 20
46.036831
 10
60.079917
 20
46.063854
 10
60.060471
 20
46.090045
 10
60.040511
 20
46.115342
 10
60.019982
 20
46.139685
 10
59.998832
 20
46.163014
 10
59.988007
 20
46.174279
 10
59.977007
 20
46.185268
 10
59.965825
 20
46.195974
 10
59.954453
 20
46.206388
 10
59.942887
 20
46.216504
 10
59.931117
 20
46.226313
 10
59.91914
 20
46.235809
 10
59.906946
 20
46.244983
 10
59.894631
 20
46.253478
 10
59.881763
 20
46.261357
 10
59.868371
 20
46.268642
 10
59.85448
 20
46.275357
 10
59.84012
 20
46.281524
 10
59.825317
 20
46.287165
 10
59.810099
 20
46.292304
 10
59.794494
 20
46.296963
 10
59.778527
 20
46.301165
 10
59.762228
 20
46.304933
 10
59.745624
 20
46.308289
 10
59.728742
 20
46.311256
 10
59.711609
 20
46.313856
 10
59.694253
 20
46.316114
 10
59.676702
 20
46.31805
 10
59.658982
 20
46.319688
 10
59.623149
 20
46.322162
 10
59.586972
 20
46.323716
 10
59.550671
 20
46.324532
 10
59.514467
 20
46.324793
 10
59.443224
 20
46.324372
 10
59.375
 20
46.323909
 10
56.8125
 20
46.323909
 10
56.796249
 20
46.323665
 10
56.77948
 20
46.322934
 10
56.762266
 20
46.321715
 10
56.744684
 20
46.320009
 10
56.726807
 20
46.317814
 10
56.708711
 20
46.315132
 10
56.690471
 20
46.31196
 10
56.672162
 20
46.308301
 10
56.653859
 20
46.304152
 10
56.635637
 20
46.299515
 10
56.61757
 20
46.294388
 10
56.599735
 20
46.288772
 10
56.582205
 20
46.282666
 10
56.565056
 20
46.27607
 10
56.548362
 20
46.268985
 10
56.5322
 20
46.261409
 10
56.511329
 20
46.250802
 10
56.490333
 20
46.23945
 10
56.469363
 20
46.227373
 10
56.44857
 20
46.214589
 10
56.428105
 20
46.201117
 10
56.408117
 20
46.186976
 10
56.388758
 20
46.172184
 10
56.370179
 20
46.15676
 10
56.352529
 20
46.140724
 10
56.3441
 20
46.132482
 10
56.33596
 20
46.124093
 10
56.328128
 20
46.115561
 10
56.320622
 20
46.106887
 10
56.313462
 20
46.098074
 10
56.306666
 20
46.089124
 10
56.300253
 20
46.08004
 10
56.294242
 20
46.070823
 10
56.288652
 20
46.061477
 10
56.283502
 20
46.052003
 10
56.27881
 20
46.042404
 10
56.274595
 20
46.032683
 10
56.270876
 20
46.02284
 10
56.267673
 20
46.01288
 10
55.433088
 20
43.166731
 10
55.419564
 20
43.11922
 10
55.406301
 20
43.070396
 10
55.379676
 20
42.969789
 10
55.365875
 20
42.918498
 10
55.351456
 20
42.866876
 10
55.3362
 20
42.815167
 10
55.328189
 20
42.789357
 10
55.319887
 20
42.763618
 10
55.311265
 20
42.737979
 10
55.302297
 20
42.712473
 10
55.292955
 20
42.687129
 10
55.283212
 20
42.661979
 10
55.273039
 20
42.637052
 10
55.262411
 20
42.61238
 10
55.251299
 20
42.587993
 10
55.239676
 20
42.563922
 10
55.227514
 20
42.540198
 10
55.214787
 20
42.516851
 10
55.201466
 20
42.493911
 10
55.187524
 20
42.471411
 10
55.172934
 20
42.44938
 10
55.157668
 20
42.427849
 10
55.141699
 20
42.406848
 10
55.125
 20
42.386409
 10
55.104783
 20
42.363381
 10
55.083845
 20
42.341074
 10
55.062249
 20
42.319434
 10
55.040055
 20
42.298406
 10
55.017328
 20
42.277935
 10
54.99413
 20
42.257967
 10
54.970523
 20
42.238447
 10
54.946571
 20
42.219321
 10
54.922334
 20
42.200533
 10
54.897877
 20
42.182029
 10
54.848551
 20
42.145654
 10
54.799091
 20
42.10976
 10
54.75
 20
42.073909
 10
54.730726
 20
42.060082
 10
54.710795
 20
42.046531
 10
54.690285
 20
42.033257
 10
54.669273
 20
42.020262
 10
54.647837
 20
42.007545
 10
54.626055
 20
41.995109
 10
54.604005
 20
41.982955
 10
54.581764
 20
41.971082
 10
54.537021
 20
41.94819
 10
54.492448
 20
41.926441
 10
54.448667
 20
41.905845
 10
54.4063
 20
41.886409
 10
54.382006
 20
41.875798
 10
54.357466
 20
41.865922
 10
54.332703
 20
41.856744
 10
54.307741
 20
41.848229
 10
54.282605
 20
41.840343
 10
54.257318
 20
41.83305
 10
54.231904
 20
41.826315
 10
54.206388
 20
41.820103
 10
54.180792
 20
41.814379
 10
54.155141
 20
41.809107
 10
54.129459
 20
41.804253
 10
54.10377
 20
41.799781
 10
54.052465
 20
41.791844
 10
54.001418
 20
41.785014
 10
53.873582
 20
41.769003
 10
53.82314
 20
41.763055
 10
53.772685
 20
41.75778
 10
53.722215
 20
41.753078
 10
53.671723
 20
41.74885
 10
53.570659
 20
41.741418
 10
53.469455
 20
41.734689
 10
53.368074
 20
41.727869
 10
53.317306
 20
41.724176
 10
53.26648
 20
41.720162
 10
53.215591
 20
41.715728
 10
53.164634
 20
41.710774
 10
53.113605
 20
41.705201
 10
53.0625
 20
41.698909
 10
52.957552
 20
41.68588
 10
52.848758
 20
41.673233
 10
52.737407
 20
41.660407
 10
52.624792
 20
41.646839
 10
52.568413
 20
41.639601
 10
52.512202
 20
41.631967
 10
52.456321
 20
41.623867
 10
52.40093
 20
41.61523
 10
52.346191
 20
41.605986
 10
52.292265
 20
41.596064
 10
52.239315
 20
41.585395
 10
52.1875
 20
41.573909
 10
52.068331
 20
41.545959
 10
51.950171
 20
41.517669
 10
51.832797
 20
41.488738
 10
51.774337
 20
41.473937
 10
51.71599
 20
41.458863
 10
51.65773
 20
41.443479
 10
51.599528
 20
41.427745
 10
51.541357
 20
41.411625
 10
51.483189
 20
41.39508
 10
51.424997
 20
41.378074
 10
51.366754
 20
41.360569
 10
51.30843
 20
41.342526
 10
51.25
 20
41.323909
 10
51.19648
 20
41.306145
 10
51.142887
 20
41.287481
 10
51.089262
 20
41.267984
 10
51.035648
 20
41.247719
 10
50.982086
 20
41.226752
 10
50.928619
 20
41.205148
 10
50.875287
 20
41.182973
 10
50.822133
 20
41.160293
 10
50.769198
 20
41.137173
 10
50.716524
 20
41.113678
 10
50.664153
 20
41.089875
 10
50.612127
 20
41.065829
 10
50.509276
 20
41.01727
 10
50.408304
 20
40.968527
 10
50.363411
 20
40.946392
 10
50.318769
 20
40.923849
 10
50.274378
 20
40.900912
 10
50.230233
 20
40.877597
 10
50.186333
 20
40.853919
 10
50.142674
 20
40.829894
 10
50.099255
 20
40.805536
 10
50.056071
 20
40.780862
 10
50.013122
 20
40.755886
 10
49.970404
 20
40.730625
 10
49.927914
 20
40.705092
 10
49.88565
 20
40.679305
 10
49.843609
 20
40.653277
 10
49.801789
 20
40.627025
 10
49.7188
 20
40.573909
 10
49.67354
 20
40.543851
 10
49.628132
 20
40.512329
 10
49.582618
 20
40.47951
 10
49.53704
 20
40.445562
 10
49.491437
 20
40.410655
 10
49.445852
 20
40.374955
 10
49.400325
 20
40.338632
 10
49.354898
 20
40.301854
 10
49.264507
 20
40.227602
 10
49.175008
 20
40.153547
 10
49.086729
 20
40.081034
 10
49.04315
 20
40.045776
 10
49.0
 20
40.011409
 10
48.931447
 20
39.957267
 10
48.865796
 20
39.904957
 10
48.802461
 20
39.853485
 10
48.771479
 20
39.827752
 10
48.740856
 20
39.801857
 10
48.710518
 20
39.775674
 10
48.680394
 20
39.749079
 10
48.650408
 20
39.721949
 10
48.620488
 20
39.694158
 10
48.590561
 20
39.665583
 10
48.560552
 20
39.636099
 10
48.53039
 20
39.605583
 10
48.5
 20
39.573909
 10
48.456465
 20
39.528499
 10
48.412118
 20
39.483049
 10
48.367446
 20
39.437369
 10
48.322939
 20
39.39127
 10
48.300899
 20
39.368005
 10
48.279082
 20
39.344564
 10
48.257551
 20
39.320924
 10
48.236365
 20
39.297061
 10
48.215586
 20
39.272951
 10
48.195275
 20
39.248572
 10
48.175493
 20
39.223899
 10
48.1563
 20
39.198909
 10
48.0625
 20
39.073909
 10
48.052691
 20
39.061132
 10
48.042541
 20
39.048484
 10
48.032058
 20
39.035964
 10
48.021252
 20
39.023576
 10
48.010131
 20
39.011321
 10
47.998705
 20
38.999199
 10
47.974974
 20
38.975367
 10
47.950132
 20
38.952093
 10
47.924251
 20
38.92939
 10
47.897405
 20
38.907272
 10
47.869667
 20
38.885753
 10
47.841108
 20
38.864845
 10
47.811804
 20
38.844563
 10
47.781826
 20
38.82492
 10
47.751247
 20
38.805929
 10
47.72014
 20
38.787605
 10
47.688579
 20
38.76996
 10
47.656636
 20
38.753007
 10
47.624384
 20
38.736762
 10
47.590826
 20
38.720659
 10
47.557118
 20
38.705198
 10
47.523248
 20
38.690353
 10
47.489203
 20
38.676102
 10
47.454971
 20
38.662419
 10
47.42054
 20
38.649282
 10
47.385897
 20
38.636665
 10
47.351029
 20
38.624546
 10
47.315925
 20
38.6129
 10
47.28057
 20
38.601702
 10
47.244953
 20
38.59093
 10
47.209062
 20
38.58056
 10
47.172884
 20
38.570566
 10
47.136406
 20
38.560926
 10
47.099615
 20
38.551615
 10
47.0625
 20
38.542609
 10
47.041254
 20
38.537796
 10
47.020681
 20
38.533598
 10
47.000687
 20
38.529966
 10
46.981175
 20
38.52685
 10
46.962051
 20
38.524198
 10
46.943218
 20
38.521962
 10
46.90605
 20
38.518534
 10
46.868906
 20
38.516165
 10
46.831025
 20
38.514456
 10
46.75
 20
38.511409
 10
46.646121
 20
38.507283
 10
46.59465
 20
38.505762
 10
46.543618
 20
38.504925
 10
46.493119
 20
38.505014
 10
46.468099
 20
38.505482
 10
46.443248
 20
38.506272
 10
46.418578
 20
38.507414
 10
46.394101
 20
38.50894
 10
46.369829
 20
38.510879
 10
46.345772
 20
38.513262
 10
46.321945
 20
38.516118
 10
46.298357
 20
38.519478
 10
46.275022
 20
38.523373
 10
46.25195
 20
38.527832
 10
46.229155
 20
38.532887
 10
46.206647
 20
38.538566
 10
46.184438
 20
38.544901
 10
46.162541
 20
38.551922
 10
46.140967
 20
38.559659
 10
46.119729
 20
38.568142
 10
46.098837
 20
38.577402
 10
46.078304
 20
38.587468
 10
46.058143
 20
38.598372
 10
46.038363
 20
38.610143
 10
46.018978
 20
38.622812
 10
46.0
 20
38.636409
 10
45.875
 20
38.730109
 10
45.846006
 20
38.751534
 10
45.816686
 20
38.772603
 10
45.787054
 20
38.793333
 10
45.757121
 20
38.813738
 10
45.7269
 20
38.833836
 10
45.696405
 20
38.853641
 10
45.665647
 20
38.87317
 10
45.63464
 20
38.89244
 10
45.603396
 20
38.911466
 10
45.571928
 20
38.930263
 10
45.508371
 20
38.967239
 10
45.444069
 20
39.003496
 10
45.379125
 20
39.039161
 10
45.294949
 20
39.085696
 10
45.211107
 20
39.132996
 10
45.127107
 20
39.180231
 10
45.084894
 20
39.203565
 10
45.042457
 20
39.226571
 10
44.999734
 20
39.249147
 10
44.956664
 20
39.271189
 10
44.913184
 20
39.292592
 10
44.869235
 20
39.313253
 10
44.824753
 20
39.333069
 10
44.779678
 20
39.351937
 10
44.756898
 20
39.360982
 10
44.733947
 20
39.369751
 10
44.710817
 20
39.378231
 10
44.6875
 20
39.386409
 10
44.581358
 20
39.422896
 10
44.473985
 20
39.459527
 10
44.419885
 20
39.47764
 10
44.365535
 20
39.495482
 10
44.310953
 20
39.51295
 10
44.25616
 20
39.529941
 10
44.201175
 20
39.546353
 10
44.146016
 20
39.562083
 10
44.090703
 20
39.577029
 10
44.035255
 20
39.591089
 10
43.979691
 20
39.604159
 10
43.924032
 20
39.616137
 10
43.896172
 20
39.621685
 10
43.868295
 20
39.626922
 10
43.840403
 20
39.631834
 10
43.8125
 20
39.636409
 10
43.757413
 20
39.644814
 10
43.702512
 20
39.65262
 10
43.647769
 20
39.659825
 10
43.593155
 20
39.666431
 10
43.538642
 20
39.672436
 10
43.484201
 20
39.677842
 10
43.429803
 20
39.682647
 10
43.375421
 20
39.686853
 10
43.321026
 20
39.690459
 10
43.266589
 20
39.693465
 10
43.212082
 20
39.695872
 10
43.157477
 20
39.697678
 10
43.102744
 20
39.698885
 10
43.047856
 20
39.699493
 10
42.992784
 20
39.699501
 10
42.9375
 20
39.698909
 10
42.887825
 20
39.697673
 10
42.837469
 20
39.695587
 10
42.786544
 20
39.6927
 10
42.735167
 20
39.689062
 10
42.683451
 20
39.684724
 10
42.631511
 20
39.679735
 10
42.579461
 20
39.674146
 10
42.527417
 20
39.668007
 10
42.475492
 20
39.661368
 10
42.423802
 20
39.654279
 10
42.372461
 20
39.646791
 10
42.321584
 20
39.638953
 10
42.271284
 20
39.630815
 10
42.221677
 20
39.622429
 10
42.125
 20
39.605109
 10
42.081056
 20
39.596387
 10
42.037093
 20
39.586585
 10
41.993144
 20
39.575793
 10
41.949239
 20
39.564101
 10
41.90541
 20
39.551598
 10
41.861691
 20
39.538376
 10
41.818112
 20
39.524524
 10
41.774706
 20
39.510133
 10
41.731505
 20
39.495293
 10
41.688539
 20
39.480094
 10
41.603446
 20
39.448979
 10
41.519681
 20
39.41751
 10
41.4375
 20
39.386409
 10
41.41671
 20
39.378275
 10
41.396275
 20
39.369734
 10
41.376155
 20
39.360827
 10
41.356309
 20
39.351594
 10
41.317283
 20
39.33231
 10
41.278876
 20
39.312209
 10
41.202629
 20
39.27085
 10
41.164148
 20
39.25024
 10
41.125
 20
39.230109
 10
40.9375
 20
39.136409
 10
40.880649
 20
39.107253
 10
40.821515
 20
39.076447
 10
40.791196
 20
39.060938
 10
40.760432
 20
39.045632
 10
40.729264
 20
39.030735
 10
40.697734
 20
39.016452
 10
40.665885
 20
39.002988
 10
40.633757
 20
38.990548
 10
40.617602
 20
38.984776
 10
40.601394
 20
38.979337
 10
40.585137
 20
38.974257
 10
40.568836
 20
38.969561
 10
40.552497
 20
38.965275
 10
40.536126
 20
38.961425
 10
40.519727
 20
38.958036
 10
40.503305
 20
38.955134
 10
40.486867
 20
38.952745
 10
40.470416
 20
38.950894
 10
40.453959
 20
38.949606
 10
40.4375
 20
38.948909
 10
40.402476
 20
38.948579
 10
40.364757
 20
38.949185
 10
40.324727
 20
38.950711
 10
40.282772
 20
38.953143
 10
40.239275
 20
38.956462
 10
40.194622
 20
38.960655
 10
40.149197
 20
38.965705
 10
40.103384
 20
38.971596
 10
40.057569
 20
38.978312
 10
40.012135
 20
38.985837
 10
39.967468
 20
38.994156
 10
39.923952
 20
39.003253
 10
39.881973
 20
39.013112
 10
39.861679
 20
39.018321
 10
39.841913
 20
39.023716
 10
39.822724
 20
39.029293
 10
39.804159
 20
39.03505
 10
39.786266
 20
39.040986
 10
39.769094
 20
39.047099
 10
39.736644
 20
39.059452
 10
39.707166
 20
39.071426
 10
39.680259
 20
39.083117
 10
39.655527
 20
39.09462
 10
39.632571
 20
39.106031
 10
39.610994
 20
39.117448
 10
39.590396
 20
39.128967
 10
39.57038
 20
39.140683
 10
39.5305
 20
39.165094
 10
39.488171
 20
39.19145
 10
39.465092
 20
39.205599
 10
39.440206
 20
39.220523
 10
39.413115
 20
39.236319
 10
39.383421
 20
39.253083
 10
39.368414
 20
39.261862
 10
39.353633
 20
39.271384
 10
39.339076
 20
39.281607
 10
39.324739
 20
39.29249
 10
39.310619
 20
39.303993
 10
39.296713
 20
39.316075
 10
39.283018
 20
39.328694
 10
39.269531
 20
39.341809
 10
39.256248
 20
39.35538
 10
39.243167
 20
39.369366
 10
39.230285
 20
39.383724
 10
39.217597
 20
39.398416
 10
39.192795
 20
39.428631
 10
39.168736
 20
39.459685
 10
39.145395
 20
39.491248
 10
39.122747
 20
39.522993
 10
39.079429
 20
39.585716
 10
39.03858
 20
39.645229
 10
39.019019
 20
39.672962
 10
39.0
 20
39.698909
 10
32.903912
 20
47.726106
 10
32.889389
 20
47.744642
 10
32.874059
 20
47.762712
 10
32.857958
 20
47.780295
 10
32.841124
 20
47.797369
 10
32.823591
 20
47.813911
 10
32.805396
 20
47.829901
 10
32.786575
 20
47.845316
 10
32.767166
 20
47.860134
 10
32.747203
 20
47.874334
 10
32.726723
 20
47.887894
 10
32.705763
 20
47.900792
 10
32.684359
 20
47.913006
 10
32.662546
 20
47.924514
 10
32.640362
 20
47.935295
 10
32.617842
 20
47.945327
 10
32.595023
 20
47.954588
 10
32.571941
 20
47.963056
 10
32.548632
 20
47.97071
 10
32.525133
 20
47.977527
 10
32.501479
 20
47.983486
 10
32.477708
 20
47.988565
 10
32.453854
 20
47.992741
 10
32.429955
 20
47.995995
 10
32.406047
 20
47.998302
 10
32.382166
 20
47.999643
 10
32.358348
 20
47.999994
 10
32.33463
 20
47.999334
 10
32.311047
 20
47.997642
 10
32.287637
 20
47.994895
 10
32.264435
 20
47.991072
 10
32.241477
 20
47.98615
 10
32.2188
 20
47.980109
 10
27.0
 20
46.448909
 10
26.972878
 20
46.44055
 10
26.945652
 20
46.43132
 10
26.918447
 20
46.421198
 10
26.891393
 20
46.410162
 10
26.864617
 20
46.398192
 10
26.838247
 20
46.385267
 10
26.812411
 20
46.371366
 10
26.799733
 20
46.364043
 10
26.787237
 20
46.356468
 10
26.774938
 20
46.348639
 10
26.762852
 20
46.340553
 10
26.750995
 20
46.332208
 10
26.739384
 20
46.3236
 10
26.728034
 20
46.314727
 10
26.716962
 20
46.305588
 10
26.706182
 20
46.296178
 10
26.695712
 20
46.286495
 10
26.685567
 20
46.276537
 10
26.675763
 20
46.266302
 10
26.666317
 20
46.255786
 10
26.657243
 20
46.244987
 10
26.648559
 20
46.233902
 10
26.640279
 20
46.22253
 10
26.632421
 20
46.210866
 10
26.625
 20
46.198909
 10
25.25
 20
43.886409
 10
25.235411
 20
43.861363
 10
25.221303
 20
43.836118
 10
25.207663
 20
43.81068
 10
25.194483
 20
43.785053
 10
25.181751
 20
43.759243
 10
25.169457
 20
43.733255
 10
25.15759
 20
43.707093
 10
25.14614
 20
43.680763
 10
25.135096
 20
43.65427
 10
25.124447
 20
43.627618
 10
25.114183
 20
43.600813
 10
25.104294
 20
43.57386
 10
25.094768
 20
43.546764
 10
25.085595
 20
43.519529
 10
25.076765
 20
43.492162
 10
25.068266
 20
43.464666
 10
25.060089
 20
43.437047
 10
25.052223
 20
43.40931
 10
25.044657
 20
43.38146
 10
25.037381
 20
43.353502
 10
25.023654
 20
43.297282
 10
25.010959
 20
43.24069
 10
24.999211
 20
43.183767
 10
24.988325
 20
43.126552
 10
24.978216
 20
43.069086
 10
24.9688
 20
43.011409
 10
24.959538
 20
42.954345
 10
24.949818
 20
42.89706
 10
24.92979
 20
42.781839
 10
24.919871
 20
42.723912
 10
24.910275
 20
42.665777
 10
24.901197
 20
42.60744
 10
24.892833
 20
42.548904
 10
24.885377
 20
42.490172
 10
24.88205
 20
42.460735
 10
24.879024
 20
42.43125
 10
24.876322
 20
42.401718
 10
24.87397
 20
42.372139
 10
24.87199
 20
42.342515
 10
24.870409
 20
42.312845
 10
24.869249
 20
42.283131
 10
24.868537
 20
42.253372
 10
24.868294
 20
42.223568
 10
24.868548
 20
42.193722
 10
24.86932
 20
42.163832
 10
24.870637
 20
42.133899
 10
24.872522
 20
42.103925
 10
24.875
 20
42.073909
 10
24.884805
 20
41.963767
 10
24.894425
 20
41.853715
 10
24.899455
 20
41.798743
 10
24.904785
 20
41.743819
 10
24.910531
 20
41.688949
 10
24.916808
 20
41.634141
 10
24.923732
 20
41.579405
 10
24.931417
 20
41.524748
 10
24.939981
 20
41.470177
 10
24.949537
 20
41.415702
 10
24.960201
 20
41.361329
 10
24.965985
 20
41.334184
 10
24.97209
 20
41.307067
 10
24.978529
 20
41.27998
 10
24.985317
 20
41.252924
 10
24.99247
 20
41.2259
 10
25.0
 20
41.198909
 10
25.007702
 20
41.17269
 10
25.015769
 20
41.146505
 10
25.024178
 20
41.120355
 10
25.032904
 20
41.094242
 10
25.05122
 20
41.042137
 10
25.070531
 20
40.990206
 10
25.090652
 20
40.938465
 10
25.111399
 20
40.88693
 10
25.154026
 20
40.78454
 10
25.196931
 20
40.683165
 10
25.218025
 20
40.632899
 10
25.238632
 20
40.582933
 10
25.258569
 20
40.533286
 10
25.277649
 20
40.483972
 10
25.295688
 20
40.435007
 10
25.3125
 20
40.386409
 10
25.375
 20
40.198909
 10
25.381394
 20
40.179197
 10
25.387406
 20
40.159585
 10
25.393047
 20
40.140063
 10
25.398324
 20
40.120623
 10
25.403249
 20
40.101256
 10
25.40783
 20
40.081954
 10
25.412077
 20
40.062707
 10
25.415999
 20
40.043506
 10
25.422908
 20
40.00521
 10
25.428632
 20
39.966996
 10
25.433249
 20
39.928794
 10
25.436834
 20
39.890532
 10
25.439463
 20
39.852142
 10
25.441213
 20
39.813553
 10
25.442159
 20
39.774694
 10
25.442377
 20
39.735496
 10
25.441945
 20
39.695889
 10
25.440937
 20
39.655802
 10
25.43943
 20
39.615165
 10
25.4375
 20
39.573909
 10
25.43392
 20
39.507126
 10
25.429782
 20
39.438337
 10
25.424984
 20
39.368165
 10
25.419424
 20
39.297229
 10
25.412999
 20
39.226152
 10
25.405606
 20
39.155553
 10
25.401515
 20
39.120627
 10
25.397144
 20
39.086054
 10
25.392479
 20
39.051911
 10
25.387508
 20
39.018276
 10
25.383372
 20
38.99445
 10
25.378177
 20
38.968769
 10
25.366027
 20
38.914309
 10
25.353889
 20
38.859832
 10
25.34871
 20
38.83413
 10
25.344596
 20
38.810275
 10
25.338913
 20
38.769557
 10
25.334413
 20
38.730689
 10
25.330789
 20
38.693059
 10
25.327735
 20
38.656056
 10
25.322111
 20
38.581484
 10
25.318927
 20
38.542692
 10
25.315088
 20
38.502082
 10
25.313432
 20
38.483764
 10
25.312158
 20
38.465174
 10
25.310598
 20
38.427341
 10
25.310096
 20
38.388904
 10
25.310338
 20
38.350183
 10
25.311806
 20
38.273181
 10
25.312406
 20
38.235543
 10
25.3125
 20
38.198909
 10
25.311867
 20
38.166365
 10
25.310694
 20
38.134822
 10
25.308168
 20
38.073479
 10
25.307537
 20
38.043046
 10
25.307808
 20
38.01235
 10
25.308395
 20
37.996805
 10
25.309342
 20
37.981077
 10
25.310696
 20
37.965124
 10
25.3125
 20
37.948909
 10
25.5625
 20
35.948909
 10
25.566569
 20
35.919937
 10
25.571541
 20
35.890791
 10
25.577385
 20
35.861556
 10
25.584071
 20
35.832314
 10
25.591568
 20
35.803149
 10
25.599846
 20
35.774146
 10
25.608873
 20
35.745387
 10
25.61862
 20
35.716958
 10
25.629054
 20
35.688941
 10
25.640147
 20
35.66142
 10
25.651867
 20
35.634479
 10
25.664183
 20
35.608202
 10
25.677065
 20
35.582673
 10
25.690483
 20
35.557975
 10
25.704404
 20
35.534193
 10
25.7188
 20
35.511409
 10
25.734426
 20
35.487141
 10
25.749726
 20
35.462586
 10
25.77985
 20
35.412953
 10
25.810178
 20
35.363193
 10
25.825732
 20
35.338479
 10
25.841713
 20
35.31399
 10
25.858246
 20
35.28981
 10
25.875458
 20
35.266026
 10
25.893474
 20
35.242723
 10
25.912419
 20
35.219986
 10
25.922279
 20
35.208857
 10
25.932418
 20
35.197901
 10
25.942853
 20
35.187129
 10
25.953598
 20
35.176553
 10
25.96467
 20
35.166182
 10
25.976083
 20
35.156027
 10
25.987855
 20
35.146099
 10
26.0
 20
35.136409
 10
26.012783
 20
35.12609
 10
26.027217
 20
35.113806
 10
26.060617
 20
35.08442
 10
26.09936
 20
35.050408
 10
26.120473
 20
35.032341
 10
26.142605
 20
35.013925
 10
26.165654
 20
34.995431
 10
26.189512
 20
34.977128
 10
26.214076
 20
34.959285
 10
26.239241
 20
34.942172
 10
26.252015
 20
34.933973
 10
26.2649
 20
34.926058
 10
26.277883
 20
34.918461
 10
26.29095
 20
34.911214
 10
26.304088
 20
34.904351
 10
26.317285
 20
34.897907
 10
26.330527
 20
34.891915
 10
26.3438
 20
34.886409
 10
26.363424
 20
34.878883
 10
26.382534
 20
34.871988
 10
26.401071
 20
34.865692
 10
26.418975
 20
34.859963
 10
26.45264
 20
34.850081
 10
26.483049
 20
34.842087
 10
26.532173
 20
34.830746
 10
26.549927
 20
34.826892
 10
26.5625
 20
34.823909
 10
26.613373
 20
34.810162
 10
26.638786
 20
34.802833
 10
26.664055
 20
34.794902
 10
26.689082
 20
34.786146
 10
26.701475
 20
34.781388
 10
26.713772
 20
34.776339
 10
26.72596
 20
34.770972
 10
26.738028
 20
34.765259
 10
26.749962
 20
34.759171
 10
26.761752
 20
34.752681
 10
26.825044
 20
34.716358
 10
26.887617
 20
34.68006
 10
26.949506
 20
34.643539
 10
27.01075
 20
34.606546
 10
27.071385
 20
34.568835
 10
27.101485
 20
34.549633
 10
27.131447
 20
34.530157
 10
27.161274
 20
34.510378
 10
27.190973
 20
34.490264
 10
27.220546
 20
34.469785
 10
27.25
 20
34.448909
 10
27.26535
 20
34.437668
 10
27.28057
 20
34.426075
 10
27.295663
 20
34.414148
 10
27.310631
 20
34.401908
 10
27.340198
 20
34.376563
 10
27.369291
 20
34.350199
 10
27.397924
 20
34.322973
 10
27.426116
 20
34.29504
 10
27.453884
 20
34.266558
 10
27.481244
 20
34.237684
 10
27.53481
 20
34.179388
 10
27.58695
 20
34.121406
 10
27.637802
 20
34.064995
 10
27.662786
 20
34.03777
 10
27.6875
 20
34.011409
 10
27.699737
 20
33.998045
 10
27.711482
 20
33.984263
 10
27.722754
 20
33.970083
 10
27.733576
 20
33.955527
 10
27.743967
 20
33.940616
 10
27.753948
 20
33.92537
 10
27.763539
 20
33.90981
 10
27.772763
 20
33.893958
 10
27.781639
 20
33.877834
 10
27.790188
 20
33.861459
 10
27.798431
 20
33.844855
 10
27.806388
 20
33.828041
 10
27.821529
 20
33.79387
 10
27.835777
 20
33.759115
 10
27.849297
 20
33.723942
 10
27.862256
 20
33.688519
 10
27.887152
 20
33.617593
 10
27.899421
 20
33.582425
 10
27.911792
 20
33.547677
 10
27.924429
 20
33.513515
 10
27.9375
 20
33.480109
  0
LWPOLYLINE
  5
2B
330
1F
100
AcDbEntity
  8
0
100
AcDbPolyline
 90
        5
 70
   128
 43
0.0
 10
1.0
 20
1.0
 10
24.75
 20
1.0
 10
24.75
 20
30.0
 10
1.0
 20
30.0
 10
1.0
 20
1.0
  0
LWPOLYLINE
  5
2C
330
1F
100
AcDbEntity
  8
0
100
AcDbPolyline
 90
        5
 70
   128
 43
0.0
 10
6.875
 20
9.1875
 10
18.875
 20
9.1875
 10
18.875
 20
12.1875
 10
6.875
 20
12.1875
 10
6.875
 20
9.1875
  0
LWPOLYLINE
  5
2D
330
1F
100
AcDbEntity
  8
0
100
AcDbPolyline
 90
        5
 70
   128
 43
0.0
 10
26.006324
 20
0.9355
 10
49.756324
 20
0.9355
 10
49.756324
 20
13.498
 10
26.006324
 20
13.498
 10
26.006324
 20
0.9355
  0
LWPOLYLINE
  5
2E
330
1F
100
AcDbEntity
  8
0
100
AcDbPolyline
 90
        5
 70
   128
 43
0.0
 10
37.881324
 20
12.123
 42
0.414214
 10
34.756324
 20
8.998
 42
0.414214
 10
37.881324
 20
5.873
 42
0.414214
 10
41.006324
 20
8.998
 42
0.414214
 10
37.881324
 20
12.123
  0
LWPOLYLINE
  5
2F
330
1F
100
AcDbEntity
  8
0
100
AcDbPolyline
 90
        5
 70
   128
 43
0.0
 10
34.256324
 20
12.753
 42
0.414214
 10
34.126324
 20
12.623
 42
0.414214
 10
34.256324
 20
12.493
 42
0.414214
 10
34.386324
 20
12.623
 42
0.414214
 10
34.256324
 20
12.753
  0
LWPOLYLINE
  5
30
330
1F
100
AcDbEntity
  8
0
100
AcDbPolyline
 90
        5
 70
   128
 43
0.0
 10
34.256324
 20
5.503
 42
0.414214
 10
34.126324
 20
5.373
 42
0.414214
 10
34.256324
 20
5.243
 42
0.414214
 10
34.386324
 20
5.373
 42
0.414214
 10
34.256324
 20
5.503
  0
LWPOLYLINE
  5
31
330
1F
100
AcDbEntity
  8
0
100
AcDbPolyline
 90
        5
 70
   128
 43
0.0
 10
41.506324
 20
12.753
 42
0.414214
 10
41.376324
 20
12.623
 42
0.414214
 10
41.506324
 20
12.493
 42
0.414214
 10
41.636324
 20
12.623
 42
0.414214
 10
41.506324
 20
12.753
  0
LWPOLYLINE
  5
32
330
1F
100
AcDbEntity
  8
0
100
AcDbPolyline
 90
        5
 70
   128
 43
0.0
 10
41.506324
 20
5.503
 42
0.414214
 10
41.376324
 20
5.373
 42
0.414214
 10
41.506324
 20
5.243
 42
0.414214
 10
41.636324
 20
5.373
 42
0.414214
 10
41.506324
 20
5.503
  0
LWPOLYLINE
  5
33
330
1F
100
AcDbEntity
  8
0
100
AcDbPolyline
 90
        5
 70
   128
 43
0.0
 10
27.631324
 20
2.2485
 42
0.414214
 10
27.505824
 20
2.123
 42
0.414214
 10
27.631324
 20
1.9975
 42
0.414214
 10
27.756824
 20
2.123
 42
0.414214
 10
27.631324
 20
2.2485
  0
LWPOLYLINE
  5
34
330
1F
100
AcDbEntity
  8
0
100
AcDbPolyline
 90
        5
 70
   128
 43
0.0
 10
37.881324
 20
2.2485
 42
0.414214
 10
37.755824
 20
2.123
 42
0.414214
 10
37.881324
 20
1.9975
 42
0.414214
 10
38.006824
 20
2.123
 42
0.414214
 10
37.881324
 20
2.2485
  0
LWPOLYLINE
  5
35
330
1F
100
AcDbEntity
  8
0
100
AcDbPolyline
 90
        5
 70
   128
 43
0.0
 10
48.256324
 20
2.2485
 42
0.414214
 10
48.130824
 20
2.123
 42
0.414214
 10
48.256324
 20
1.9975
 42
0.414214
 10
48.381824
 20
2.123
 42
0.414214
 10
48.256324
 20
2.2485
  0
LWPOLYLINE
  5
36
330
1F
100
AcDbEntity
  8
0
100
AcDbPolyline
 90
        5
 70
   128
 43
0.0
 10
30.006324
 20
5.561
 42
0.414214
 10
29.880824
 20
5.4355
 42
0.414214
 10
30.006324
 20
5.31
 42
0.414214
 10
30.131824
 20
5.4355
 42
0.414214
 10
30.006324
 20
5.561
  0
LWPOLYLINE
  5
37
330
1F
100
AcDbEntity
  8
0
100
AcDbPolyline
 90
        5
 70
   128
 43
0.0
 10
45.756324
 20
5.561
 42
0.414214
 10
45.630824
 20
5.4355
 42
0.414214
 10
45.756324
 20
5.31
 42
0.414214
 10
45.881824
 20
5.4355
 42
0.414214
 10
45.756324
 20
5.561
  0
LWPOLYLINE
  5
38
330
1F
100
AcDbEntity
  8
0
100
AcDbPolyline
 90
        5
 70
   128
 43
0.0
 10
0.878647
 20
31.000047
 10
24.628647
 20
31.000047
 10
24.628647
 20
36.750047
 10
0.878647
 20
36.750047
 10
0.878647
 20
31.000047
  0
LWPOLYLINE
  5
39
330
1F
100
AcDbEntity
  8
0
100
AcDbPolyline
 90
        5
 70
   128
 43
0.0
 10
2.503647
 20
32.126047
 42
0.414214
 10
2.378147
 20
32.000547
 42
0.414214
 10
2.503647
 20
31.875047
 42
0.414214
 10
2.629147
 20
32.000547
 42
0.414214
 10
2.503647
 20
32.126047
  0
LWPOLYLINE
  5
3A
330
1F
100
AcDbEntity
  8
0
100
AcDbPolyline
 90
        5
 70
   128
 43
0.0
 10
12.753647
 20
32.126047
 42
0.414214
 10
12.628147
 20
32.000547
 42
0.414214
 10
12.753647
 20
31.875047
 42
0.414214
 10
12.879147
 20
32.000547
 42
0.414214
 10
12.753647
 20
32.126047
  0
LWPOLYLINE
  5
3B
330
1F
100
AcDbEntity
  8
0
100
AcDbPolyline
 90
        5
 70
   128
 43
0.0
 10
23.128647
 20
32.126047
 42
0.414214
 10
23.003147
 20
32.000547
 42
0.414214
 10
23.128647
 20
31.875047
 42
0.414214
 10
23.254147
 20
32.000547
 42
0.414214
 10
23.128647
 20
32.126047
  0
LWPOLYLINE
  5
3C
330
1F
100
AcDbEntity
  8
0
100
AcDbPolyline
 90
        5
 70
   128
 43
0.0
 10
50.817674
 20
11.860888
 10
74.817674
 20
11.860888
 10
74.817674
 20
12.360888
 10
50.817674
 20
12.360888
 10
50.817674
 20
11.860888
  0
LWPOLYLINE
  5
3D
330
1F
100
AcDbEntity
  8
0
100
AcDbPolyline
 90
       12
 70
   128
 43
0.0
 10
57.306439
 20
12.235888
 10
74.692674
 20
12.235888
 10
74.692674
 20
4.173388
 10
50.942674
 20
4.173388
 10
50.942674
 20
12.235888
 10
56.135452
 20
12.235888
 10
56.255174
 20
12.235888
 10
56.255174
 20
9.860888
 42
0.414214
 10
56.755174
 20
9.360888
 42
0.414214
 10
57.255174
 20
9.860888
 10
57.255174
 20
12.235888
 10
57.306439
 20
12.235888
  0
LWPOLYLINE
  5
3E
330
1F
100
AcDbEntity
  8
0
100
AcDbPolyline
 90
        5
 70
   128
 43
0.0
 10
69.817674
 20
10.423388
 42
0.414214
 10
69.317674
 20
9.923388
 42
0.414214
 10
69.817674
 20
9.423388
 42
0.414214
 10
70.317674
 20
9.923388
 42
0.414214
 10
69.817674
 20
10.423388
  0
LWPOLYLINE
  5
3F
330
1F
100
AcDbEntity
  8
0
100
AcDbPolyline
 90
        5
 70
   128
 43
0.0
 10
60.067674
 20
8.173388
 10
65.567674
 20
8.173388
 10
65.567674
 20
10.173388
 10
60.067674
 20
10.173388
 10
60.067674
 20
8.173388
  0
ENDSEC
  0
SECTION
  2
OBJECTS
  0
DICTIONARY
  5
C
330
0
100
AcDbDictionary
281
     1
  3
ACAD_GROUP
350
D
  3
ACAD_LAYOUT
350
1A
  3
ACAD_MLINESTYLE
350
17
  3
ACAD_PLOTSETTINGS
350
19
  3
ACAD_PLOTSTYLENAME
350
E
  0
DICTIONARY
  5
D
102
{ACAD_REACTORS
330
C
102
}
330
C
100
AcDbDictionary
281
     1
  0
DICTIONARY
  5
1A
102
{ACAD_REACTORS
330
C
102
}
330
C
100
AcDbDictionary
281
     1
  3
Layout1
350
1E
  3
Layout2
350
26
  3
Model
350
22
  0
DICTIONARY
  5
17
102
{ACAD_REACTORS
330
C
102
}
330
C
100
AcDbDictionary
281
     1
  3
Standard
350
18
  0
DICTIONARY
  5
19
102
{ACAD_REACTORS
330
C
102
}
330
C
100
AcDbDictionary
281
     1
  0
ACDBDICTIONARYWDFLT
  5
E
102
{ACAD_REACTORS
330
C
102
}
330
C
100
AcDbDictionary
281
     1
  3
Normal
350
F
100
AcDbDictionaryWithDefault
340
F
  0
LAYOUT
  5
1E
102
{ACAD_REACTORS
330
1A
102
}
330
1A
100
AcDbPlotSettings
  1

  2

  4

  6

 40
0.0
 41
0.0
 42
0.0
 43
0.0
 44
0.0
 45
0.0
 46
0.0
 47
0.0
 48
0.0
 49
0.0
140
0.0
141
0.0
142
1.0
143
1.0
 70
   688
 72
     0
 73
     0
 74
     5
  7

 75
    16
147
1.0
148
0.0
149
0.0
100
AcDbLayout
  1
Layout1
 70
     1
 71
     1
 10
0.0
 20
0.0
 11
420.0
 21
297.0
 12
0.0
 22
0.0
 32
0.0
 14
1.000000E+20
 24
1.000000E+20
 34
1.000000E+20
 15
-1.000000E+20
 25
-1.000000E+20
 35
-1.000000E+20
146
0.0
 13
0.0
 23
0.0
 33
0.0
 16
1.0
 26
0.0
 36
0.0
 17
0.0
 27
1.0
 37
0.0
 76
     0
330
1B
  0
LAYOUT
  5
26
102
{ACAD_REACTORS
330
1A
102
}
330
1A
100
AcDbPlotSettings
  1

  2

  4

  6

 40
0.0
 41
0.0
 42
0.0
 43
0.0
 44
0.0
 45
0.0
 46
0.0
 47
0.0
 48
0.0
 49
0.0
140
0.0
141
0.0
142
1.0
143
1.0
 70
   688
 72
     0
 73
     0
 74
     5
  7

 75
    16
147
1.0
148
0.0
149
0.0
100
AcDbLayout
  1
Layout2
 70
     1
 71
     2
 10
0.0
 20
0.0
 11
0.0
 21
0.0
 12
0.0
 22
0.0
 32
0.0
 14
0.0
 24
0.0
 34
0.0
 15
0.0
 25
0.0
 35
0.0
146
0.0
 13
0.0
 23
0.0
 33
0.0
 16
1.0
 26
0.0
 36
0.0
 17
0.0
 27
1.0
 37
0.0
 76
     0
330
23
  0
LAYOUT
  5
22
102
{ACAD_REACTORS
330
1A
102
}
330
1A
100
AcDbPlotSettings
  1

  2

  4

  6

 40
0.0
 41
0.0
 42
0.0
 43
0.0
 44
0.0
 45
0.0
 46
0.0
 47
0.0
 48
0.0
 49
0.0
140
0.0
141
0.0
142
1.0
143
1.0
 70
  1712
 72
     0
 73
     0
 74
     0
  7

 75
     0
147
1.0
148
0.0
149
0.0
100
AcDbLayout
  1
Model
 70
     1
 71
     0
 10
0.0
 20
0.0
 11
0.0
 21
0.0
 12
0.0
 22
0.0
 32
0.0
 14
0.0
 24
0.0
 34
0.0
 15
0.0
 25
0.0
 35
0.0
146
0.0
 13
0.0
 23
0.0
 33
0.0
 16
1.0
 26
0.0
 36
0.0
 17
0.0
 27
1.0
 37
0.0
 76
     0
330
1F
  0
MLINESTYLE
  5
18
102
{ACAD_REACTORS
330
17
102
}
330
17
100
AcDbMlineStyle
  2
Standard
 70
     0
  3

 62
   256
 51
90.0
 52
90.0
 71
     2
 49
1.0
 62
   256
  6
BYLAYER
 49
-1.0
 62
   256
  6
BYLAYER
  0
ACDBPLACEHOLDER
  5
F
102
{ACAD_REACTORS
330
E
102
}
330
E
  0
ENDSEC
  0
EOF
