  0
SECTION
  2
HEADER
  9
$ACADVER
  1
AC1015
  9
$ACADMAINTVER
 70
     6
  9
$DWGCODEPAGE
  3
ANSI_1252
  9
$INSBASE
 10
0.0
 20
0.0
 30
0.0
  9
$EXTMIN
 10
1.000000E+20
 20
1.000000E+20
 30
1.000000E+20
  9
$EXTMAX
 10
-1.000000E+20
 20
-1.000000E+20
 30
-1.000000E+20
  9
$LIMMIN
 10
0.0
 20
0.0
  9
$LIMMAX
 10
420.0
 20
297.0
  9
$ORTHOMODE
 70
     0
  9
$REGENMODE
 70
     1
  9
$FILLMODE
 70
     1
  9
$QTEXTMODE
 70
     0
  9
$MIRRTEXT
 70
     1
  9
$LTSCALE
 40
1.0
  9
$ATTMODE
 70
     1
  9
$TEXTSIZE
 40
2.5
  9
$TRACEWID
 40
1.0
  9
$TEXTSTYLE
  7
Standard
  9
$CLAYER
  8
0
  9
$CELTYPE
  6
ByLayer
  9
$CECOLOR
 62
   256
  9
$CELTSCALE
 40
1.0
  9
$DISPSILH
 70
     0
  9
$DIMSCALE
 40
1.0
  9
$DIMASZ
 40
2.5
  9
$DIMEXO
 40
0.625
  9
$DIMDLI
 40
3.75
  9
$DIMRND
 40
0.0
  9
$DIMDLE
 40
0.0
  9
$DIMEXE
 40
1.25
  9
$DIMTP
 40
0.0
  9
$DIMTM
 40
0.0
  9
$DIMTXT
 40
2.5
  9
$DIMCEN
 40
2.5
  9
$DIMTSZ
 40
0.0
  9
$DIMTOL
 70
     0
  9
$DIMLIM
 70
     0
  9
$DIMTIH
 70
     0
  9
$DIMTOH
 70
     0
  9
$DIMSE1
 70
     0
  9
$DIMSE2
 70
     0
  9
$DIMTAD
 70
     1
  9
$DIMZIN
 70
     8
  9
$DIMBLK
  1

  9
$DIMASO
 70
     1
  9
$DIMSHO
 70
     1
  9
$DIMPOST
  1

  9
$DIMAPOST
  1

  9
$DIMALT
 70
     0
  9
$DIMALTD
 70
     3
  9
$DIMALTF
 40
0.03937
  9
$DIMLFAC
 40
1.0
  9
$DIMTOFL
 70
     1
  9
$DIMTVP
 40
0.0
  9
$DIMTIX
 70
     0
  9
$DIMSOXD
 70
     0
  9
$DIMSAH
 70
     0
  9
$DIMBLK1
  1

  9
$DIMBLK2
  1

  9
$DIMSTYLE
  2
ISO-25
  9
$DIMCLRD
 70
     0
  9
$DIMCLRE
 70
     0
  9
$DIMCLRT
 70
     0
  9
$DIMTFAC
 40
1.0
  9
$DIMGAP
 40
0.625
  9
$DIMJUST
 70
     0
  9
$DIMSD1
 70
     0
  9
$DIMSD2
 70
     0
  9
$DIMTOLJ
 70
     0
  9
$DIMTZIN
 70
     8
  9
$DIMALTZ
 70
     0
  9
$DIMALTTZ
 70
     0
  9
$DIMUPT
 70
     0
  9
$DIMDEC
 70
     2
  9
$DIMTDEC
 70
     2
  9
$DIMALTU
 70
     2
  9
$DIMALTTD
 70
     3
  9
$DIMTXSTY
  7
Standard
  9
$DIMAUNIT
 70
     0
  9
$DIMADEC
 70
     0
  9
$DIMALTRND
 40
0.0
  9
$DIMAZIN
 70
     0
  9
$DIMDSEP
 70
    44
  9
$DIMATFIT
 70
     3
  9
$DIMFRAC
 70
     0
  9
$DIMLDRBLK
  1

  9
$DIMLUNIT
 70
     2
  9
$DIMLWD
 70
    -2
  9
$DIMLWE
 70
    -2
  9
$DIMTMOVE
 70
     0
  9
$LUNITS
 70
     2
  9
$LUPREC
 70
     4
  9
$SKETCHINC
 40
1.0
  9
$FILLETRAD
 40
10.0
  9
$AUNITS
 70
     0
  9
$AUPREC
 70
     0
  9
$MENU
  1
.
  9
$ELEVATION
 40
0.0
  9
$PELEVATION
 40
0.0
  9
$THICKNESS
 40
0.0
  9
$LIMCHECK
 70
     0
  9
$CHAMFERA
 40
10.0
  9
$CHAMFERB
 40
10.0
  9
$CHAMFERC
 40
20.0
  9
$CHAMFERD
 40
0.0
  9
$SKPOLY
 70
     0
  9
$TDCREATE
 40
2457255.606690533
  9
$TDUCREATE
 40
2457255.773357199
  9
$TDUPDATE
 40
2457255.606690544
  9
$TDUUPDATE
 40
2457255.773357211
  9
$TDINDWG
 40
0.0000000116
  9
$TDUSRTIMER
 40
0.0000000116
  9
$USRTIMER
 70
     1
  9
$ANGBASE
 50
0.0
  9
$ANGDIR
 70
     0
  9
$PDMODE
 70
     3
  9
$PDSIZE
 40
-0.7
  9
$PLINEWID
 40
0.0
  9
$SPLFRAME
 70
     0
  9
$SPLINETYPE
 70
     6
  9
$SPLINESEGS
 70
     8
  9
$HANDSEED
  5
34
  9
$SURFTAB1
 70
     6
  9
$SURFTAB2
 70
     6
  9
$SURFTYPE
 70
     6
  9
$SURFU
 70
     6
  9
$SURFV
 70
     6
  9
$UCSBASE
  2

  9
$UCSNAME
  2

  9
$UCSORG
 10
0.0
 20
0.0
 30
0.0
  9
$UCSXDIR
 10
1.0
 20
0.0
 30
0.0
  9
$UCSYDIR
 10
0.0
 20
1.0
 30
0.0
  9
$UCSORTHOREF
  2

  9
$UCSORTHOVIEW
 70
     0
  9
$UCSORGTOP
 10
0.0
 20
0.0
 30
0.0
  9
$UCSORGBOTTOM
 10
0.0
 20
0.0
 30
0.0
  9
$UCSORGLEFT
 10
0.0
 20
0.0
 30
0.0
  9
$UCSORGRIGHT
 10
0.0
 20
0.0
 30
0.0
  9
$UCSORGFRONT
 10
0.0
 20
0.0
 30
0.0
  9
$UCSORGBACK
 10
0.0
 20
0.0
 30
0.0
  9
$PUCSBASE
  2

  9
$PUCSNAME
  2

  9
$PUCSORG
 10
0.0
 20
0.0
 30
0.0
  9
$PUCSXDIR
 10
1.0
 20
0.0
 30
0.0
  9
$PUCSYDIR
 10
0.0
 20
1.0
 30
0.0
  9
$PUCSORTHOREF
  2

  9
$PUCSORTHOVIEW
 70
     0
  9
$PUCSORGTOP
 10
0.0
 20
0.0
 30
0.0
  9
$PUCSORGBOTTOM
 10
0.0
 20
0.0
 30
0.0
  9
$PUCSORGLEFT
 10
0.0
 20
0.0
 30
0.0
  9
$PUCSORGRIGHT
 10
0.0
 20
0.0
 30
0.0
  9
$PUCSORGFRONT
 10
0.0
 20
0.0
 30
0.0
  9
$PUCSORGBACK
 10
0.0
 20
0.0
 30
0.0
  9
$USERI1
 70
     0
  9
$USERI2
 70
     0
  9
$USERI3
 70
     0
  9
$USERI4
 70
     0
  9
$USERI5
 70
     0
  9
$USERR1
 40
0.0
  9
$USERR2
 40
0.0
  9
$USERR3
 40
0.0
  9
$USERR4
 40
0.0
  9
$USERR5
 40
0.0
  9
$WORLDVIEW
 70
     1
  9
$SHADEDGE
 70
     3
  9
$SHADEDIF
 70
    70
  9
$TILEMODE
 70
     1
  9
$MAXACTVP
 70
    64
  9
$PINSBASE
 10
0.0
 20
0.0
 30
0.0
  9
$PLIMCHECK
 70
     0
  9
$PEXTMIN
 10
1.000000E+20
 20
1.000000E+20
 30
1.000000E+20
  9
$PEXTMAX
 10
-1.000000E+20
 20
-1.000000E+20
 30
-1.000000E+20
  9
$PLIMMIN
 10
0.0
 20
0.0
  9
$PLIMMAX
 10
420.0
 20
297.0
  9
$UNITMODE
 70
     0
  9
$VISRETAIN
 70
     1
  9
$PLINEGEN
 70
     0
  9
$PSLTSCALE
 70
     1
  9
$TREEDEPTH
 70
  3020
  9
$CMLSTYLE
  2
Standard
  9
$CMLJUST
 70
     1
  9
$CMLSCALE
 40
1.0
  9
$PROXYGRAPHICS
 70
     1
  9
$MEASUREMENT
 70
     0
  9
$CELWEIGHT
370
    -1
  9
$ENDCAPS
280
     0
  9
$JOINSTYLE
280
     0
  9
$LWDISPLAY
290
     0
  9
$INSUNITS
 70
     4
  9
$HYPERLINKBASE
  1

  9
$STYLESHEET
  1

  9
$XEDIT
290
     1
  9
$CEPSNTYPE
380
     0
  9
$PSTYLEMODE
290
     1
  9
$FINGERPRINTGUID
  2
{FAEB1C30-E019-11D5-929B-00C0DF256EC4}
  9
$VERSIONGUID
  2
{FAEB1C32-E019-11D5-929B-00C0DF256EC4}
  9
$EXTNAMES
290
     1
  9
$PSVPSCALE
 40
0.0
  9
$OLESTARTUP
290
     0
  0
ENDSEC
  0
SECTION
  2
CLASSES
  0
CLASS
  1
ACDBDICTIONARYWDFLT
  2
AcDbDictionaryWithDefault
  3
ObjectDBX Classes
 90
        0
280
     0
281
     0
  0
CLASS
  1
ACDBPLACEHOLDER
  2
AcDbPlaceHolder
  3
ObjectDBX Classes
 90
        0
280
     0
281
     0
  0
CLASS
  1
LAYOUT
  2
AcDbLayout
  3
ObjectDBX Classes
 90
        0
280
     0
281
     0
  0
ENDSEC
  0
SECTION
  2
TABLES
  0
TABLE
  2
VPORT
  5
8
330
0
100
AcDbSymbolTable
 70
     2
  0
VPORT
  5
29
330
8
100
AcDbSymbolTableRecord
100
AcDbViewportTableRecord
  2
*Active
 70
     0
 10
0.0
 20
0.0
 11
1.0
 21
1.0
 12
50.0
 22
50.0
 13
0.0
 23
0.0
 14
10.0
 24
10.0
 15
10.0
 25
10.0
 16
0.0
 26
0.0
 36
1.0
 17
0.0
 27
0.0
 37
0.0
 40
103.921569
 41
1.0
 42
50.0
 43
0.0
 44
0.0
 50
0.0
 51
0.0
 71
     0
 72
   100
 73
     1
 74
     3
 75
     0
 76
     0
 77
     0
 78
     0
281
     0
 65
     1
110
0.0
120
0.0
130
0.0
111
1.0
121
0.0
131
0.0
112
0.0
122
1.0
132
0.0
 79
     0
146
0.0
  0
ENDTAB
  0
TABLE
  2
LTYPE
  5
5
330
0
100
AcDbSymbolTable
 70
     1
  0
LTYPE
  5
14
330
5
100
AcDbSymbolTableRecord
100
AcDbLinetypeTableRecord
  2
ByBlock
 70
     0
  3

 72
    65
 73
     0
 40
0.0
  0
LTYPE
  5
15
330
5
100
AcDbSymbolTableRecord
100
AcDbLinetypeTableRecord
  2
ByLayer
 70
     0
  3

 72
    65
 73
     0
 40
0.0
  0
LTYPE
  5
16
330
5
100
AcDbSymbolTableRecord
100
AcDbLinetypeTableRecord
  2
Continuous
 70
     0
  3

 72
    65
 73
     0
 40
0.0
  0
ENDTAB
  0
TABLE
  2
LAYER
  5
2
330
0
100
AcDbSymbolTable
 70
     1
  0
LAYER
  5
10
330
2
100
AcDbSymbolTableRecord
100
AcDbLayerTableRecord
  2
0
 70
     0
 62
     7
  6
Continuous
370
    -3
390
F
  0
ENDTAB
  0
TABLE
  2
STYLE
  5
3
330
0
100
AcDbSymbolTable
 70
     1
  0
STYLE
  5
11
330
3
100
AcDbSymbolTableRecord
100
AcDbTextStyleTableRecord
  2
Standard
 70
     0
 40
1.0
 41
1.0
 50
0.0
 71
     0
 42
2.5
  3
RomanS
  4

  0
ENDTAB
  0
TABLE
  2
VIEW
  5
6
330
0
100
AcDbSymbolTable
 70
     0
  0
ENDTAB
  0
TABLE
  2
UCS
  5
7
330
0
100
AcDbSymbolTable
 70
     0
  0
ENDTAB
  0
TABLE
  2
APPID
  5
9
330
0
100
AcDbSymbolTable
 70
     1
  0
APPID
  5
12
330
9
100
AcDbSymbolTableRecord
100
AcDbRegAppTableRecord
  2
ACAD
 70
     0
  0
ENDTAB
  0
TABLE
  2
DIMSTYLE
  5
A
330
0
100
AcDbSymbolTable
 70
     1
100
AcDbDimStyleTable
  0
DIMSTYLE
105
27
330
A
100
AcDbSymbolTableRecord
100
AcDbDimStyleTableRecord
  2
ISO-25
 70
     0
 41
2.5
 42
0.625
 44
1.25
 73
     0
 74
     0
 77
     1
 78
     8
 79
     2
140
2.5
141
2.5
146
0.0
147
0.625
271
     2
272
     0
273
     0
274
     0
278
    44
283
     0
289
     0
340
11
  0
ENDTAB
  0
TABLE
  2
BLOCK_RECORD
  5
1
330
0
100
AcDbSymbolTable
 70
     1
  0
BLOCK_RECORD
  5
1F
330
1
100
AcDbSymbolTableRecord
100
AcDbBlockTableRecord
  2
*Model_Space
340
22
  0
BLOCK_RECORD
  5
1B
330
1
100
AcDbSymbolTableRecord
100
AcDbBlockTableRecord
  2
*Paper_Space
340
1E
  0
BLOCK_RECORD
  5
23
330
1
100
AcDbSymbolTableRecord
100
AcDbBlockTableRecord
  2
*Paper_Space0
340
26
  0
ENDTAB
  0
ENDSEC
  0
SECTION
  2
BLOCKS
  0
BLOCK
  5
20
330
1F
100
AcDbEntity
  8
0
100
AcDbBlockBegin
  2
*Model_Space
 70
     0
 71
     0
 10
0.0
 20
0.0
 30
0.0
  3
*Model_Space
  1

  0
ENDBLK
  5
21
330
1F
100
AcDbEntity
  8
0
100
AcDbBlockEnd
  0
BLOCK
  5
1C
330
1B
100
AcDbEntity
 67
     1
  8
0
100
AcDbBlockBegin
  2
*Paper_Space
 70
     0
 71
     0
 10
0.0
 20
0.0
 30
0.0
  3
*Paper_Space
  1

  0
ENDBLK
  5
1D
330
1B
100
AcDbEntity
 67
     1
  8
0
100
AcDbBlockEnd
  0
BLOCK
  5
24
330
23
100
AcDbEntity
  8
0
100
AcDbBlockBegin
  2
*Paper_Space0
 70
     0
 71
     0
 10
0.0
 20
0.0
 30
0.0
  3
*Paper_Space0
  1

  0
ENDBLK
  5
25
330
23
100
AcDbEntity
  8
0
100
AcDbBlockEnd
  0
ENDSEC
  0
SECTION
  2
ENTITIES
  0
LWPOLYLINE
  5
2A
330
1F
100
AcDbEntity
  8
0
100
AcDbPolyline
 90
     1119
 70
   128
 43
0.0
 10
69.0625
 20
33.476105
 10
61.4375
 20
14.632405
 10
61.42397
 20
14.59943
 10
61.409391
 20
14.56574
 10
61.401605
 20
14.548816
 10
61.393431
 20
14.53194
 10
61.384828
 20
14.515188
 10
61.375754
 20
14.498634
 10
61.366168
 20
14.482354
 10
61.356027
 20
14.466423
 10
61.34529
 20
14.450918
 10
61.333915
 20
14.435913
 10
61.32186
 20
14.421484
 10
61.309084
 20
14.407706
 10
61.295544
 20
14.394655
 10
61.2812
 20
14.382405
 10
61.270601
 20
14.37419
 10
61.259716
 20
14.366286
 10
61.248563
 20
14.358689
 10
61.237154
 20
14.351396
 10
61.225505
 20
14.344404
 10
61.213631
 20
14.33771
 10
61.201548
 20
14.33131
 10
61.189269
 20
14.325201
 10
61.176811
 20
14.31938
 10
61.164187
 20
14.313844
 10
61.151413
 20
14.308589
 10
61.138505
 20
14.303612
 10
61.112341
 20
14.294479
 10
61.085817
 20
14.286418
 10
61.059052
 20
14.279404
 10
61.032165
 20
14.273411
 10
61.005277
 20
14.268411
 10
60.978507
 20
14.264379
 10
60.951974
 20
14.261289
 10
60.925799
 20
14.259114
 10
60.900101
 20
14.257828
 10
60.875
 20
14.257405
 10
3.5
 20
14.257405
 10
1.0
 20
16.757405
 10
1.0
 20
40.694905
 10
1.000192
 20
40.705973
 10
1.000765
 20
40.717075
 10
1.001712
 20
40.728206
 10
1.003026
 20
40.739359
 10
1.0047
 20
40.750527
 10
1.006728
 20
40.761704
 10
1.009103
 20
40.772882
 10
1.011818
 20
40.784055
 10
1.014866
 20
40.795217
 10
1.018242
 20
40.80636
 10
1.021937
 20
40.817478
 10
1.025946
 20
40.828564
 10
1.034878
 20
40.850615
 10
1.044983
 20
40.872457
 10
1.056207
 20
40.894039
 10
1.068497
 20
40.915305
 10
1.0818
 20
40.936203
 10
1.096061
 20
40.956678
 10
1.111228
 20
40.976678
 10
1.127245
 20
40.996148
 10
1.144061
 20
41.015035
 10
1.16162
 20
41.033285
 10
1.179871
 20
41.050844
 10
1.198757
 20
41.06766
 10
1.218228
 20
41.083678
 10
1.238227
 20
41.098844
 10
1.258703
 20
41.113105
 10
1.2796
 20
41.126408
 10
1.300867
 20
41.138698
 10
1.322448
 20
41.149923
 10
1.344291
 20
41.160027
 10
1.366341
 20
41.168959
 10
1.377427
 20
41.172968
 10
1.388545
 20
41.176663
 10
1.399689
 20
41.180039
 10
1.41085
 20
41.183087
 10
1.422023
 20
41.185803
 10
1.433202
 20
41.188177
 10
1.444378
 20
41.190205
 10
1.455546
 20
41.191879
 10
1.466699
 20
41.193193
 10
1.47783
 20
41.19414
 10
1.488933
 20
41.194713
 10
1.5
 20
41.194905
 10
29.4375
 20
41.194905
 10
29.468472
 20
41.195161
 10
29.49944
 20
41.195924
 10
29.530415
 20
41.19719
 10
29.561403
 20
41.198956
 10
29.592415
 20
41.201215
 10
29.623458
 20
41.203964
 10
29.654541
 20
41.207199
 10
29.685672
 20
41.210914
 10
29.716861
 20
41.215106
 10
29.748115
 20
41.219769
 10
29.779443
 20
41.2249
 10
29.810855
 20
41.230493
 10
29.842357
 20
41.236545
 10
29.87396
 20
41.243051
 10
29.905672
 20
41.250006
 10
29.9375
 20
41.257405
 10
29.992555
 20
41.270162
 10
30.048239
 20
41.282681
 10
30.104184
 20
41.29549
 10
30.13214
 20
41.302169
 10
30.160024
 20
41.309119
 10
30.18779
 20
41.316406
 10
30.215392
 20
41.324097
 10
30.242785
 20
41.332256
 10
30.269922
 20
41.340951
 10
30.296758
 20
41.350247
 10
30.323247
 20
41.360211
 10
30.349343
 20
41.370908
 10
30.375
 20
41.382405
 10
30.400974
 20
41.394967
 10
30.426503
 20
41.408062
 10
30.451608
 20
41.421664
 10
30.476314
 20
41.435745
 10
30.500643
 20
41.45028
 10
30.524619
 20
41.465241
 10
30.548264
 20
41.480601
 10
30.571601
 20
41.496335
 10
30.594654
 20
41.512414
 10
30.617446
 20
41.528812
 10
30.639999
 20
41.545503
 10
30.662337
 20
41.562459
 10
30.706461
 20
41.597062
 10
30.75
 20
41.632405
 10
30.769901
 20
41.649138
 10
30.789621
 20
41.666421
 10
30.809134
 20
41.684217
 10
30.82841
 20
41.702487
 10
30.847423
 20
41.721193
 10
30.866145
 20
41.740299
 10
30.884548
 20
41.759764
 10
30.902605
 20
41.779553
 10
30.920287
 20
41.799625
 10
30.937567
 20
41.819944
 10
30.954417
 20
41.840472
 10
30.97081
 20
41.86117
 10
30.986717
 20
41.882
 10
31.002111
 20
41.902925
 10
31.016965
 20
41.923906
 10
31.03125
 20
41.944905
 10
31.1562
 20
42.132405
 10
31.175833
 20
42.161535
 10
31.195782
 20
42.190475
 10
31.216043
 20
42.219225
 10
31.236612
 20
42.247785
 10
31.257487
 20
42.276154
 10
31.278664
 20
42.304331
 10
31.30014
 20
42.332316
 10
31.321912
 20
42.360107
 10
31.343977
 20
42.387705
 10
31.366331
 20
42.415109
 10
31.388971
 20
42.442317
 10
31.411894
 20
42.46933
 10
31.435096
 20
42.496147
 10
31.458575
 20
42.522766
 10
31.482327
 20
42.549189
 10
31.506349
 20
42.575413
 10
31.564003
 20
42.638338
 10
31.622474
 20
42.702616
 10
31.681934
 20
42.767411
 10
31.712087
 20
42.799741
 10
31.742551
 20
42.831888
 10
31.773346
 20
42.863745
 10
31.804496
 20
42.89521
 10
31.836019
 20
42.926178
 10
31.867939
 20
42.956544
 10
31.900275
 20
42.986205
 10
31.93305
 20
43.015054
 10
31.966285
 20
43.04299
 10
32.0
 20
43.069905
 10
32.068054
 20
43.123185
 10
32.136065
 20
43.176782
 10
32.204377
 20
43.230181
 10
32.238753
 20
43.256644
 10
32.273334
 20
43.282864
 10
32.308162
 20
43.308775
 10
32.34328
 20
43.334314
 10
32.378732
 20
43.359416
 10
32.41456
 20
43.384016
 10
32.450808
 20
43.408049
 10
32.487519
 20
43.431452
 10
32.524735
 20
43.454159
 10
32.5625
 20
43.476105
 10
32.599605
 20
43.496665
 10
32.63719
 20
43.516643
 10
32.675209
 20
43.536079
 10
32.713614
 20
43.555013
 10
32.752358
 20
43.573484
 10
32.791395
 20
43.591532
 10
32.830677
 20
43.609196
 10
32.870157
 20
43.626515
 10
32.949525
 20
43.660279
 10
33.029122
 20
43.693138
 10
33.1875
 20
43.757405
 10
33.26416
 20
43.788229
 10
33.341525
 20
43.818483
 10
33.41945
 20
43.847954
 10
33.497793
 20
43.876428
 10
33.537077
 20
43.890226
 10
33.576412
 20
43.903694
 10
33.615781
 20
43.916807
 10
33.655165
 20
43.929537
 10
33.694547
 20
43.941859
 10
33.733908
 20
43.953745
 10
33.773232
 20
43.96517
 10
33.8125
 20
43.976105
 10
33.835728
 20
43.98222
 10
33.859004
 20
43.987941
 10
33.882325
 20
43.993287
 10
33.905686
 20
43.998278
 10
33.929084
 20
44.002931
 10
33.952517
 20
44.007266
 10
33.999471
 20
44.015056
 10
34.046519
 20
44.021798
 10
34.093635
 20
44.027644
 10
34.140792
 20
44.032744
 10
34.187961
 20
44.037248
 10
34.28223
 20
44.045071
 10
34.376221
 20
44.052319
 10
34.423045
 20
44.056103
 10
34.469718
 20
44.060195
 10
34.516212
 20
44.064746
 10
34.5625
 20
44.069905
 10
34.720662
 20
44.088792
 10
34.783533
 20
44.096769
 10
34.815201
 20
44.101179
 10
34.846962
 20
44.105899
 10
34.878771
 20
44.110952
 10
34.910582
 20
44.11636
 10
34.942348
 20
44.122146
 10
34.974025
 20
44.128332
 10
35.005567
 20
44.13494
 10
35.036926
 20
44.141993
 10
35.068058
 20
44.149514
 10
35.098917
 20
44.157523
 10
35.129456
 20
44.166045
 10
35.15963
 20
44.175101
 10
35.189394
 20
44.184714
 10
35.2187
 20
44.194905
 10
35.249183
 20
44.205587
 10
35.281286
 20
44.216362
 10
35.349278
 20
44.238675
 10
35.384627
 20
44.250455
 10
35.420518
 20
44.262814
 10
35.456683
 20
44.275873
 10
35.492852
 20
44.289752
 10
35.528755
 20
44.304574
 10
35.546523
 20
44.312376
 10
35.564123
 20
44.320459
 10
35.581522
 20
44.328838
 10
35.598686
 20
44.337529
 10
35.615582
 20
44.346547
 10
35.632175
 20
44.355906
 10
35.648433
 20
44.365622
 10
35.664321
 20
44.375711
 10
35.679805
 20
44.386186
 10
35.694853
 20
44.397065
 10
35.70943
 20
44.40836
 10
35.723503
 20
44.420089
 10
35.737037
 20
44.432266
 10
35.75
 20
44.444905
 10
35.852738
 20
44.548856
 10
35.904648
 20
44.601773
 10
35.956473
 20
44.655537
 10
35.982248
 20
44.68279
 10
36.007876
 20
44.710317
 10
36.033314
 20
44.738139
 10
36.058522
 20
44.766277
 10
36.083456
 20
44.794752
 10
36.108075
 20
44.823585
 10
36.132337
 20
44.852795
 10
36.1562
 20
44.882405
 10
36.176153
 20
44.908071
 10
36.195937
 20
44.934452
 10
36.215576
 20
44.961445
 10
36.235095
 20
44.988943
 10
36.273869
 20
45.045033
 10
36.31245
 20
45.101877
 10
36.35103
 20
45.158631
 10
36.389804
 20
45.214451
 10
36.409323
 20
45.241746
 10
36.428963
 20
45.26849
 10
36.448747
 20
45.294579
 10
36.4687
 20
45.319905
 10
36.491842
 20
45.349461
 10
36.514215
 20
45.37957
 10
36.535872
 20
45.410171
 10
36.556866
 20
45.441205
 10
36.577253
 20
45.47261
 10
36.597084
 20
45.504328
 10
36.616413
 20
45.536297
 10
36.635294
 20
45.568457
 10
36.65378
 20
45.600748
 10
36.671925
 20
45.63311
 10
36.707406
 20
45.697805
 10
36.742163
 20
45.762059
 10
36.776626
 20
45.825391
 10
36.79388
 20
45.85656
 10
36.811221
 20
45.887318
 10
36.828702
 20
45.917605
 10
36.846377
 20
45.947359
 10
36.864299
 20
45.976521
 10
36.882522
 20
46.00503
 10
36.901099
 20
46.032827
 10
36.920083
 20
46.059851
 10
36.939529
 20
46.086041
 10
36.959489
 20
46.111338
 10
36.980018
 20
46.135681
 10
37.001168
 20
46.15901
 10
37.011993
 20
46.170276
 10
37.022993
 20
46.181265
 10
37.034175
 20
46.191971
 10
37.045547
 20
46.202385
 10
37.057113
 20
46.212501
 10
37.068883
 20
46.22231
 10
37.08086
 20
46.231806
 10
37.093054
 20
46.24098
 10
37.105369
 20
46.249475
 10
37.118237
 20
46.257354
 10
37.131629
 20
46.264639
 10
37.14552
 20
46.271354
 10
37.15988
 20
46.27752
 10
37.174683
 20
46.283162
 10
37.189901
 20
46.288301
 10
37.205506
 20
46.29296
 10
37.221473
 20
46.297162
 10
37.237772
 20
46.300929
 10
37.254376
 20
46.304285
 10
37.271258
 20
46.307252
 10
37.288391
 20
46.309853
 10
37.305747
 20
46.31211
 10
37.323298
 20
46.314047
 10
37.341018
 20
46.315685
 10
37.376851
 20
46.318159
 10
37.413028
 20
46.319713
 10
37.449329
 20
46.320529
 10
37.485533
 20
46.320789
 10
37.556776
 20
46.320369
 10
37.625
 20
46.319905
 10
40.1875
 20
46.319905
 10
40.203751
 20
46.319662
 10
40.22052
 20
46.318931
 10
40.237734
 20
46.317712
 10
40.255316
 20
46.316005
 10
40.273193
 20
46.313811
 10
40.291289
 20
46.311128
 10
40.309529
 20
46.307957
 10
40.327838
 20
46.304297
 10
40.346141
 20
46.300149
 10
40.364363
 20
46.295511
 10
40.38243
 20
46.290384
 10
40.400265
 20
46.284768
 10
40.417795
 20
46.278662
 10
40.434944
 20
46.272067
 10
40.451638
 20
46.264981
 10
40.4678
 20
46.257405
 10
40.488671
 20
46.246798
 10
40.509667
 20
46.235446
 10
40.530637
 20
46.223369
 10
40.55143
 20
46.210585
 10
40.571895
 20
46.197113
 10
40.591883
 20
46.182972
 10
40.611242
 20
46.16818
 10
40.629821
 20
46.152757
 10
40.647471
 20
46.13672
 10
40.6559
 20
46.128478
 10
40.66404
 20
46.12009
 10
40.671872
 20
46.111557
 10
40.679378
 20
46.102883
 10
40.686538
 20
46.09407
 10
40.693334
 20
46.08512
 10
40.699747
 20
46.076036
 10
40.705758
 20
46.06682
 10
40.711348
 20
46.057473
 10
40.716498
 20
46.048
 10
40.72119
 20
46.038401
 10
40.725405
 20
46.028679
 10
40.729124
 20
46.018837
 10
40.732327
 20
46.008877
 10
41.566912
 20
43.162728
 10
41.580436
 20
43.115217
 10
41.593699
 20
43.066392
 10
41.620324
 20
42.965786
 10
41.634125
 20
42.914495
 10
41.648544
 20
42.862872
 10
41.6638
 20
42.811163
 10
41.671811
 20
42.785353
 10
41.680113
 20
42.759614
 10
41.688735
 20
42.733976
 10
41.697703
 20
42.70847
 10
41.707045
 20
42.683126
 10
41.716788
 20
42.657975
 10
41.726961
 20
42.633048
 10
41.737589
 20
42.608376
 10
41.748701
 20
42.583989
 10
41.760324
 20
42.559918
 10
41.772486
 20
42.536194
 10
41.785213
 20
42.512847
 10
41.798534
 20
42.489908
 10
41.812476
 20
42.467407
 10
41.827066
 20
42.445376
 10
41.842332
 20
42.423845
 10
41.858301
 20
42.402845
 10
41.875
 20
42.382405
 10
41.895217
 20
42.359377
 10
41.916155
 20
42.337071
 10
41.937751
 20
42.315431
 10
41.959945
 20
42.294403
 10
41.982672
 20
42.273932
 10
42.00587
 20
42.253964
 10
42.029477
 20
42.234444
 10
42.053429
 20
42.215317
 10
42.077666
 20
42.196529
 10
42.102123
 20
42.178025
 10
42.151449
 20
42.141651
 10
42.200909
 20
42.105756
 10
42.25
 20
42.069905
 10
42.269274
 20
42.056079
 10
42.289205
 20
42.042528
 10
42.309715
 20
42.029254
 10
42.330727
 20
42.016258
 10
42.352163
 20
42.003542
 10
42.373945
 20
41.991106
 10
42.395995
 20
41.978951
 10
42.418236
 20
41.967079
 10
42.462979
 20
41.944187
 10
42.507552
 20
41.922438
 10
42.551333
 20
41.901841
 10
42.5937
 20
41.882405
 10
42.617994
 20
41.871795
 10
42.642534
 20
41.861918
 10
42.667297
 20
41.85274
 10
42.692259
 20
41.844226
 10
42.717395
 20
41.83634
 10
42.742682
 20
41.829047
 10
42.768096
 20
41.822312
 10
42.793612
 20
41.8161
 10
42.819208
 20
41.810375
 10
42.844859
 20
41.805104
 10
42.870541
 20
41.80025
 10
42.89623
 20
41.795778
 10
42.947535
 20
41.787841
 10
42.998582
 20
41.781011
 10
43.126418
 20
41.765
 10
43.17686
 20
41.759052
 10
43.227315
 20
41.753777
 10
43.277785
 20
41.749075
 10
43.328277
 20
41.744847
 10
43.429341
 20
41.737415
 10
43.530545
 20
41.730686
 10
43.631926
 20
41.723866
 10
43.682694
 20
41.720173
 10
43.73352
 20
41.716159
 10
43.784409
 20
41.711724
 10
43.835366
 20
41.70677
 10
43.886395
 20
41.701197
 10
43.9375
 20
41.694905
 10
44.042448
 20
41.681876
 10
44.151242
 20
41.66923
 10
44.262593
 20
41.656403
 10
44.375208
 20
41.642836
 10
44.431587
 20
41.635598
 10
44.487798
 20
41.627964
 10
44.543679
 20
41.619864
 10
44.59907
 20
41.611226
 10
44.653809
 20
41.601982
 10
44.707735
 20
41.592061
 10
44.760685
 20
41.581392
 10
44.8125
 20
41.569905
 10
44.931669
 20
41.541956
 10
45.049829
 20
41.513666
 10
45.167203
 20
41.484734
 10
45.225663
 20
41.469934
 10
45.28401
 20
41.45486
 10
45.34227
 20
41.439475
 10
45.400472
 20
41.423741
 10
45.458643
 20
41.407621
 10
45.516811
 20
41.391077
 10
45.575003
 20
41.374071
 10
45.633246
 20
41.356565
 10
45.69157
 20
41.338523
 10
45.75
 20
41.319905
 10
45.80352
 20
41.302141
 10
45.857113
 20
41.283478
 10
45.910738
 20
41.263981
 10
45.964352
 20
41.243716
 10
46.017914
 20
41.222749
 10
46.071381
 20
41.201145
 10
46.124713
 20
41.17897
 10
46.177867
 20
41.156289
 10
46.230802
 20
41.133169
 10
46.283476
 20
41.109675
 10
46.335847
 20
41.085871
 10
46.387873
 20
41.061825
 10
46.490724
 20
41.013266
 10
46.591696
 20
40.964523
 10
46.636589
 20
40.942389
 10
46.681231
 20
40.919845
 10
46.725622
 20
40.896908
 10
46.769767
 20
40.873593
 10
46.813667
 20
40.849915
 10
46.857326
 20
40.82589
 10
46.900745
 20
40.801533
 10
46.943929
 20
40.776858
 10
46.986878
 20
40.751883
 10
47.029596
 20
40.726621
 10
47.072086
 20
40.701089
 10
47.11435
 20
40.675301
 10
47.156391
 20
40.649274
 10
47.198211
 20
40.623022
 10
47.2812
 20
40.569905
 10
47.32646
 20
40.539848
 10
47.371868
 20
40.508325
 10
47.417382
 20
40.475506
 10
47.46296
 20
40.441559
 10
47.508563
 20
40.406651
 10
47.554148
 20
40.370952
 10
47.599675
 20
40.334629
 10
47.645102
 20
40.29785
 10
47.735493
 20
40.223599
 10
47.824992
 20
40.149544
 10
47.913271
 20
40.077031
 10
47.95685
 20
40.041773
 10
48.0
 20
40.007405
 10
48.068553
 20
39.953263
 10
48.134204
 20
39.900953
 10
48.197539
 20
39.849481
 10
48.228521
 20
39.823749
 10
48.259144
 20
39.797853
 10
48.289482
 20
39.771671
 10
48.319606
 20
39.745076
 10
48.349592
 20
39.717945
 10
48.379512
 20
39.690155
 10
48.409439
 20
39.66158
 10
48.439448
 20
39.632096
 10
48.46961
 20
39.601579
 10
48.5
 20
39.569905
 10
48.543535
 20
39.524496
 10
48.587882
 20
39.479046
 10
48.632554
 20
39.433366
 10
48.677061
 20
39.387267
 10
48.699101
 20
39.364001
 10
48.720918
 20
39.34056
 10
48.742449
 20
39.31692
 10
48.763635
 20
39.293057
 10
48.784414
 20
39.268948
 10
48.804725
 20
39.244569
 10
48.824507
 20
39.219896
 10
48.8437
 20
39.194905
 10
48.9375
 20
39.069905
 10
48.947309
 20
39.057129
 10
48.957459
 20
39.04448
 10
48.967942
 20
39.031961
 10
48.978748
 20
39.019573
 10
48.989869
 20
39.007317
 10
49.001295
 20
38.995196
 10
49.025026
 20
38.971364
 10
49.049868
 20
38.948089
 10
49.075749
 20
38.925387
 10
49.102595
 20
38.903269
 10
49.130333
 20
38.881749
 10
49.158892
 20
38.860842
 10
49.188196
 20
38.84056
 10
49.218174
 20
38.820917
 10
49.248753
 20
38.801926
 10
49.27986
 20
38.783601
 10
49.311421
 20
38.765956
 10
49.343364
 20
38.749004
 10
49.375616
 20
38.732758
 10
49.409174
 20
38.716656
 10
49.442882
 20
38.701194
 10
49.476752
 20
38.68635
 10
49.510797
 20
38.672098
 10
49.545029
 20
38.658416
 10
49.57946
 20
38.645278
 10
49.614103
 20
38.632662
 10
49.648971
 20
38.620542
 10
49.684075
 20
38.608896
 10
49.71943
 20
38.597699
 10
49.755047
 20
38.586927
 10
49.790938
 20
38.576556
 10
49.827116
 20
38.566563
 10
49.863594
 20
38.556922
 10
49.900385
 20
38.547611
 10
49.9375
 20
38.538605
 10
49.958746
 20
38.533792
 10
49.979319
 20
38.529595
 10
49.999313
 20
38.525963
 10
50.018825
 20
38.522846
 10
50.037949
 20
38.520195
 10
50.056782
 20
38.517958
 10
50.09395
 20
38.51453
 10
50.131094
 20
38.512162
 10
50.168975
 20
38.510452
 10
50.25
 20
38.507405
 10
50.353879
 20
38.50328
 10
50.40535
 20
38.501758
 10
50.456382
 20
38.500921
 10
50.506881
 20
38.501011
 10
50.531901
 20
38.501478
 10
50.556752
 20
38.502268
 10
50.581422
 20
38.503411
 10
50.605899
 20
38.504937
 10
50.630171
 20
38.506876
 10
50.654228
 20
38.509258
 10
50.678055
 20
38.512114
 10
50.701643
 20
38.515475
 10
50.724978
 20
38.51937
 10
50.74805
 20
38.523829
 10
50.770845
 20
38.528883
 10
50.793353
 20
38.534563
 10
50.815562
 20
38.540898
 10
50.837459
 20
38.547918
 10
50.859033
 20
38.555655
 10
50.880271
 20
38.564138
 10
50.901163
 20
38.573398
 10
50.921696
 20
38.583465
 10
50.941857
 20
38.594368
 10
50.961637
 20
38.60614
 10
50.981022
 20
38.618808
 10
51.0
 20
38.632405
 10
51.125
 20
38.726105
 10
51.153994
 20
38.747531
 10
51.183314
 20
38.7686
 10
51.212946
 20
38.789329
 10
51.242879
 20
38.809735
 10
51.2731
 20
38.829832
 10
51.303595
 20
38.849637
 10
51.334353
 20
38.869167
 10
51.36536
 20
38.888437
 10
51.396604
 20
38.907462
 10
51.428072
 20
38.92626
 10
51.491629
 20
38.963236
 10
51.555931
 20
38.999492
 10
51.620875
 20
39.035158
 10
51.705051
 20
39.081693
 10
51.788893
 20
39.128993
 10
51.872893
 20
39.176227
 10
51.915106
 20
39.199561
 10
51.957543
 20
39.222568
 10
52.000266
 20
39.245144
 10
52.043336
 20
39.267185
 10
52.086816
 20
39.288588
 10
52.130765
 20
39.30925
 10
52.175247
 20
39.329066
 10
52.220322
 20
39.347933
 10
52.243102
 20
39.356978
 10
52.266053
 20
39.365747
 10
52.289183
 20
39.374227
 10
52.3125
 20
39.382405
 10
52.418642
 20
39.418892
 10
52.526015
 20
39.455523
 10
52.580115
 20
39.473637
 10
52.634465
 20
39.491479
 10
52.689047
 20
39.508946
 10
52.74384
 20
39.525937
 10
52.798825
 20
39.542349
 10
52.853984
 20
39.55808
 10
52.909297
 20
39.573026
 10
52.964745
 20
39.587085
 10
53.020309
 20
39.600156
 10
53.075968
 20
39.612134
 10
53.103828
 20
39.617682
 10
53.131705
 20
39.622918
 10
53.159597
 20
39.62783
 10
53.1875
 20
39.632405
 10
53.242587
 20
39.640811
 10
53.297488
 20
39.648616
 10
53.352231
 20
39.655822
 10
53.406845
 20
39.662427
 10
53.461358
 20
39.668433
 10
53.515799
 20
39.673838
 10
53.570197
 20
39.678644
 10
53.624579
 20
39.68285
 10
53.678974
 20
39.686456
 10
53.733411
 20
39.689462
 10
53.787918
 20
39.691868
 10
53.842523
 20
39.693675
 10
53.897256
 20
39.694882
 10
53.952144
 20
39.695489
 10
54.007216
 20
39.695497
 10
54.0625
 20
39.694905
 10
54.112175
 20
39.69367
 10
54.162531
 20
39.691583
 10
54.213456
 20
39.688696
 10
54.264833
 20
39.685058
 10
54.316549
 20
39.68072
 10
54.368489
 20
39.675731
 10
54.420539
 20
39.670142
 10
54.472583
 20
39.664003
 10
54.524508
 20
39.657364
 10
54.576198
 20
39.650276
 10
54.627539
 20
39.642787
 10
54.678416
 20
39.634949
 10
54.728716
 20
39.626812
 10
54.778323
 20
39.618426
 10
54.875
 20
39.601105
 10
54.918944
 20
39.592384
 10
54.962907
 20
39.582582
 10
55.006856
 20
39.57179
 10
55.050761
 20
39.560097
 10
55.09459
 20
39.547595
 10
55.138309
 20
39.534373
 10
55.181888
 20
39.520521
 10
55.225294
 20
39.50613
 10
55.268495
 20
39.49129
 10
55.311461
 20
39.47609
 10
55.396554
 20
39.444975
 10
55.480319
 20
39.413507
 10
55.5625
 20
39.382405
 10
55.58329
 20
39.374272
 10
55.603725
 20
39.365731
 10
55.623845
 20
39.356824
 10
55.643691
 20
39.34759
 10
55.682717
 20
39.328307
 10
55.721124
 20
39.308206
 10
55.797371
 20
39.266846
 10
55.835852
 20
39.246236
 10
55.875
 20
39.226105
 10
56.0625
 20
39.132405
 10
56.119351
 20
39.103249
 10
56.178485
 20
39.072443
 10
56.208804
 20
39.056935
 10
56.239568
 20
39.041629
 10
56.270736
 20
39.026732
 10
56.302266
 20
39.012449
 10
56.334115
 20
38.998984
 10
56.366243
 20
38.986544
 10
56.382398
 20
38.980772
 10
56.398606
 20
38.975333
 10
56.414863
 20
38.970253
 10
56.431164
 20
38.965557
 10
56.447503
 20
38.961272
 10
56.463874
 20
38.957421
 10
56.480273
 20
38.954032
 10
56.496695
 20
38.951131
 10
56.513133
 20
38.948741
 10
56.529584
 20
38.94689
 10
56.546041
 20
38.945603
 10
56.5625
 20
38.944905
 10
56.597524
 20
38.944575
 10
56.635243
 20
38.945181
 10
56.675273
 20
38.946708
 10
56.717228
 20
38.949139
 10
56.760725
 20
38.952459
 10
56.805378
 20
38.956652
 10
56.850803
 20
38.961702
 10
56.896616
 20
38.967592
 10
56.942431
 20
38.974309
 10
56.987865
 20
38.981834
 10
57.032532
 20
38.990153
 10
57.076048
 20
38.99925
 10
57.118027
 20
39.009108
 10
57.138321
 20
39.014318
 10
57.158087
 20
39.019712
 10
57.177276
 20
39.025289
 10
57.195841
 20
39.031047
 10
57.213734
 20
39.036983
 10
57.230906
 20
39.043095
 10
57.263356
 20
39.055449
 10
57.292834
 20
39.067423
 10
57.319741
 20
39.079113
 10
57.344473
 20
39.090616
 10
57.367429
 20
39.102028
 10
57.389006
 20
39.113445
 10
57.409604
 20
39.124963
 10
57.42962
 20
39.13668
 10
57.4695
 20
39.16109
 10
57.511829
 20
39.187447
 10
57.534908
 20
39.201596
 10
57.559794
 20
39.21652
 10
57.586885
 20
39.232316
 10
57.616579
 20
39.249079
 10
57.631586
 20
39.257859
 10
57.646367
 20
39.26738
 10
57.660924
 20
39.277603
 10
57.675261
 20
39.288487
 10
57.689381
 20
39.29999
 10
57.703287
 20
39.312072
 10
57.716982
 20
39.32469
 10
57.730469
 20
39.337806
 10
57.743752
 20
39.351377
 10
57.756833
 20
39.365362
 10
57.769715
 20
39.379721
 10
57.782403
 20
39.394412
 10
57.807205
 20
39.424628
 10
57.831264
 20
39.455681
 10
57.854605
 20
39.487245
 10
57.877253
 20
39.51899
 10
57.920571
 20
39.581712
 10
57.96142
 20
39.641226
 10
57.980981
 20
39.668959
 10
58.0
 20
39.694905
 10
64.096088
 20
47.722102
 10
64.110611
 20
47.740638
 10
64.125941
 20
47.758709
 10
64.142042
 20
47.776291
 10
64.158876
 20
47.793365
 10
64.176409
 20
47.809908
 10
64.194604
 20
47.825897
 10
64.213425
 20
47.841312
 10
64.232834
 20
47.85613
 10
64.252797
 20
47.87033
 10
64.273277
 20
47.88389
 10
64.294237
 20
47.896788
 10
64.315641
 20
47.909002
 10
64.337454
 20
47.920511
 10
64.359638
 20
47.931292
 10
64.382158
 20
47.941324
 10
64.404977
 20
47.950585
 10
64.428059
 20
47.959053
 10
64.451368
 20
47.966706
 10
64.474867
 20
47.973524
 10
64.498521
 20
47.979482
 10
64.522292
 20
47.984561
 10
64.546146
 20
47.988738
 10
64.570045
 20
47.991991
 10
64.593953
 20
47.994299
 10
64.617834
 20
47.995639
 10
64.641652
 20
47.99599
 10
64.66537
 20
47.995331
 10
64.688953
 20
47.993638
 10
64.712363
 20
47.990891
 10
64.735565
 20
47.987068
 10
64.758523
 20
47.982147
 10
64.7812
 20
47.976105
 10
70.0
 20
46.444905
 10
70.027122
 20
46.436547
 10
70.054348
 20
46.427317
 10
70.081553
 20
46.417194
 10
70.108607
 20
46.406158
 10
70.135383
 20
46.394188
 10
70.161753
 20
46.381263
 10
70.187589
 20
46.367362
 10
70.200267
 20
46.36004
 10
70.212763
 20
46.352465
 10
70.225062
 20
46.344636
 10
70.237148
 20
46.33655
 10
70.249005
 20
46.328204
 10
70.260616
 20
46.319597
 10
70.271966
 20
46.310724
 10
70.283038
 20
46.301584
 10
70.293818
 20
46.292174
 10
70.304288
 20
46.282492
 10
70.314433
 20
46.272534
 10
70.324237
 20
46.262298
 10
70.333683
 20
46.251782
 10
70.342757
 20
46.240983
 10
70.351441
 20
46.229899
 10
70.359721
 20
46.218526
 10
70.367579
 20
46.206862
 10
70.375
 20
46.194905
 10
71.75
 20
43.882405
 10
71.764589
 20
43.857359
 10
71.778697
 20
43.832114
 10
71.792337
 20
43.806676
 10
71.805517
 20
43.78105
 10
71.818249
 20
43.75524
 10
71.830543
 20
43.729251
 10
71.84241
 20
43.70309
 10
71.85386
 20
43.676759
 10
71.864904
 20
43.650266
 10
71.875553
 20
43.623615
 10
71.885817
 20
43.59681
 10
71.895706
 20
43.569857
 10
71.905232
 20
43.54276
 10
71.914405
 20
43.515526
 10
71.923235
 20
43.488158
 10
71.931734
 20
43.460662
 10
71.939911
 20
43.433044
 10
71.947777
 20
43.405307
 10
71.955343
 20
43.377457
 10
71.962619
 20
43.349499
 10
71.976346
 20
43.293279
 10
71.989041
 20
43.236687
 10
72.000789
 20
43.179763
 10
72.011675
 20
43.122549
 10
72.021784
 20
43.065082
 10
72.0312
 20
43.007405
 10
72.040462
 20
42.950342
 10
72.050182
 20
42.893057
 10
72.07021
 20
42.777836
 10
72.080129
 20
42.719908
 10
72.089725
 20
42.661774
 10
72.098803
 20
42.603436
 10
72.107167
 20
42.5449
 10
72.114623
 20
42.486169
 10
72.11795
 20
42.456731
 10
72.120976
 20
42.427246
 10
72.123678
 20
42.397714
 10
72.12603
 20
42.368136
 10
72.12801
 20
42.338512
 10
72.129591
 20
42.308842
 10
72.130751
 20
42.279127
 10
72.131463
 20
42.249368
 10
72.131706
 20
42.219565
 10
72.131452
 20
42.189718
 10
72.13068
 20
42.159828
 10
72.129363
 20
42.129896
 10
72.127478
 20
42.099921
 10
72.125
 20
42.069905
 10
72.115195
 20
41.959763
 10
72.105575
 20
41.849712
 10
72.100545
 20
41.79474
 10
72.095215
 20
41.739815
 10
72.089469
 20
41.684945
 10
72.083192
 20
41.630138
 10
72.076268
 20
41.575402
 10
72.068583
 20
41.520744
 10
72.060019
 20
41.466174
 10
72.050463
 20
41.411698
 10
72.039799
 20
41.357325
 10
72.034015
 20
41.33018
 10
72.02791
 20
41.303064
 10
72.021471
 20
41.275977
 10
72.014683
 20
41.248921
 10
72.00753
 20
41.221897
 10
72.0
 20
41.194905
 10
71.992298
 20
41.168686
 10
71.984231
 20
41.142501
 10
71.975822
 20
41.116351
 10
71.967096
 20
41.090239
 10
71.94878
 20
41.038134
 10
71.929469
 20
40.986203
 10
71.909348
 20
40.934462
 10
71.888601
 20
40.882926
 10
71.845974
 20
40.780537
 10
71.803069
 20
40.679162
 10
71.781975
 20
40.628895
 10
71.761368
 20
40.57893
 10
71.741431
 20
40.529282
 10
71.722351
 20
40.479968
 10
71.704312
 20
40.431004
 10
71.6875
 20
40.382405
 10
71.625
 20
40.194905
 10
71.618606
 20
40.175194
 10
71.612594
 20
40.155581
 10
71.606953
 20
40.13606
 10
71.601676
 20
40.11662
 10
71.596751
 20
40.097253
 10
71.59217
 20
40.07795
 10
71.587923
 20
40.058703
 10
71.584001
 20
40.039503
 10
71.577092
 20
40.001207
 10
71.571368
 20
39.962993
 10
71.566751
 20
39.92479
 10
71.563166
 20
39.886529
 10
71.560537
 20
39.848138
 10
71.558787
 20
39.809549
 10
71.557841
 20
39.770691
 10
71.557623
 20
39.731493
 10
71.558055
 20
39.691886
 10
71.559063
 20
39.651799
 10
71.56057
 20
39.611162
 10
71.5625
 20
39.569905
 10
71.56608
 20
39.503122
 10
71.570218
 20
39.434334
 10
71.575016
 20
39.364161
 10
71.580576
 20
39.293226
 10
71.587001
 20
39.222148
 10
71.594394
 20
39.15155
 10
71.598485
 20
39.116624
 10
71.602856
 20
39.082051
 10
71.607521
 20
39.047907
 10
71.612492
 20
39.014272
 10
71.616628
 20
38.990447
 10
71.621823
 20
38.964766
 10
71.633973
 20
38.910306
 10
71.646111
 20
38.855829
 10
71.65129
 20
38.830127
 10
71.655404
 20
38.806271
 10
71.661087
 20
38.765554
 10
71.665587
 20
38.726685
 10
71.669211
 20
38.689055
 10
71.672265
 20
38.652052
 10
71.677889
 20
38.577481
 10
71.681073
 20
38.538689
 10
71.684912
 20
38.498078
 10
71.686568
 20
38.47976
 10
71.687842
 20
38.461171
 10
71.689402
 20
38.423338
 10
71.689904
 20
38.3849
 10
71.689662
 20
38.34618
 10
71.688194
 20
38.269178
 10
71.687594
 20
38.23154
 10
71.6875
 20
38.194905
 10
71.688133
 20
38.162361
 10
71.689306
 20
38.130819
 10
71.691832
 20
38.069475
 10
71.692463
 20
38.039042
 10
71.692192
 20
38.008347
 10
71.691605
 20
37.992802
 10
71.690658
 20
37.977073
 10
71.689304
 20
37.961121
 10
71.6875
 20
37.944905
 10
71.4375
 20
35.944905
 10
71.433431
 20
35.915934
 10
71.428459
 20
35.886788
 10
71.422615
 20
35.857552
 10
71.415929
 20
35.82831
 10
71.408432
 20
35.799146
 10
71.400154
 20
35.770142
 10
71.391127
 20
35.741384
 10
71.38138
 20
35.712954
 10
71.370946
 20
35.684937
 10
71.359853
 20
35.657416
 10
71.348133
 20
35.630476
 10
71.335817
 20
35.604199
 10
71.322935
 20
35.57867
 10
71.309517
 20
35.553972
 10
71.295596
 20
35.530189
 10
71.2812
 20
35.507405
 10
71.265574
 20
35.483138
 10
71.250274
 20
35.458582
 10
71.22015
 20
35.408949
 10
71.189822
 20
35.359189
 10
71.174268
 20
35.334476
 10
71.158287
 20
35.309986
 10
71.141754
 20
35.285807
 10
71.124542
 20
35.262023
 10
71.106526
 20
35.23872
 10
71.087581
 20
35.215983
 10
71.077721
 20
35.204853
 10
71.067582
 20
35.193897
 10
71.057147
 20
35.183126
 10
71.046402
 20
35.172549
 10
71.03533
 20
35.162178
 10
71.023917
 20
35.152023
 10
71.012145
 20
35.142095
 10
71.0
 20
35.132405
 10
70.987217
 20
35.122086
 10
70.972783
 20
35.109802
 10
70.939383
 20
35.080417
 10
70.90064
 20
35.046405
 10
70.879527
 20
35.028337
 10
70.857395
 20
35.009922
 10
70.834346
 20
34.991428
 10
70.810488
 20
34.973124
 10
70.785924
 20
34.955282
 10
70.760759
 20
34.938169
 10
70.747985
 20
34.92997
 10
70.7351
 20
34.922055
 10
70.722117
 20
34.914457
 10
70.70905
 20
34.90721
 10
70.695912
 20
34.900348
 10
70.682715
 20
34.893904
 10
70.669473
 20
34.887912
 10
70.6562
 20
34.882405
 10
70.636576
 20
34.874879
 10
70.617466
 20
34.867984
 10
70.598929
 20
34.861688
 10
70.581025
 20
34.85596
 10
70.54736
 20
34.846077
 10
70.516951
 20
34.838083
 10
70.467827
 20
34.826743
 10
70.450073
 20
34.822888
 10
70.4375
 20
34.819905
 10
70.386627
 20
34.806158
 10
70.361214
 20
34.79883
 10
70.335945
 20
34.790899
 10
70.310918
 20
34.782142
 10
70.298525
 20
34.777384
 10
70.286228
 20
34.772336
 10
70.27404
 20
34.766969
 10
70.261972
 20
34.761256
 10
70.250038
 20
34.755168
 10
70.238248
 20
34.748678
 10
70.174956
 20
34.712355
 10
70.112383
 20
34.676056
 10
70.050494
 20
34.639535
 10
69.98925
 20
34.602543
 10
69.928615
 20
34.564832
 10
69.898515
 20
34.545629
 10
69.868553
 20
34.526154
 10
69.838726
 20
34.506375
 10
69.809027
 20
34.486261
 10
69.779454
 20
34.465781
 10
69.75
 20
34.444905
 10
69.73465
 20
34.433665
 10
69.71943
 20
34.422072
 10
69.704337
 20
34.410145
 10
69.689369
 20
34.397904
 10
69.659802
 20
34.37256
 10
69.630709
 20
34.346196
 10
69.602076
 20
34.318969
 10
69.573884
 20
34.291036
 10
69.546116
 20
34.262555
 10
69.518756
 20
34.233681
 10
69.46519
 20
34.175384
 10
69.41305
 20
34.117403
 10
69.362198
 20
34.060991
 10
69.337214
 20
34.033767
 10
69.3125
 20
34.007405
 10
69.300263
 20
33.994041
 10
69.288518
 20
33.980259
 10
69.277246
 20
33.96608
 10
69.266424
 20
33.951524
 10
69.256033
 20
33.936612
 10
69.246052
 20
33.921367
 10
69.236461
 20
33.905807
 10
69.227237
 20
33.889955
 10
69.218361
 20
33.873831
 10
69.209812
 20
33.857456
 10
69.201569
 20
33.840851
 10
69.193612
 20
33.824037
 10
69.178471
 20
33.789867
 10
69.164223
 20
33.755111
 10
69.150703
 20
33.719938
 10
69.137744
 20
33.684516
 10
69.112848
 20
33.61359
 10
69.100579
 20
33.578422
 10
69.088208
 20
33.543673
 10
69.075571
 20
33.509512
 10
69.0625
 20
33.476105
  0
LWPOLYLINE
  5
2B
330
1F
100
AcDbEntity
  8
0
100
AcDbPolyline
 90
        5
 70
   128
 43
0.0
 10
72.25
 20
1.0
 10
96.0
 20
1.0
 10
96.0
 20
35.6875
 10
72.25
 20
35.6875
 10
72.25
 20
1.0
  0
LWPOLYLINE
  5
2C
330
1F
100
AcDbEntity
  8
0
100
AcDbPolyline
 90
        9
 70
   128
 43
0.0
 10
80.5
 20
11.8125
 42
0.414214
 10
81.25
 20
11.0625
 10
87.0
 20
11.0625
 42
0.414214
 10
87.75
 20
11.8125
 10
87.75
 20
30.25
 42
0.414214
 10
87.0
 20
31.0
 10
81.25
 20
31.0
 42
0.414214
 10
80.5
 20
30.25
 10
80.5
 20
11.8125
  0
LWPOLYLINE
  5
2D
330
1F
100
AcDbEntity
  8
0
100
AcDbPolyline
 90
        5
 70
   128
 43
0.0
 10
73.75
 20
35.313
 42
0.414214
 10
73.6245
 20
35.1875
 42
0.414214
 10
73.75
 20
35.062
 42
0.414214
 10
73.8755
 20
35.1875
 42
0.414214
 10
73.75
 20
35.313
  0
LWPOLYLINE
  5
2E
330
1F
100
AcDbEntity
  8
0
100
AcDbPolyline
 90
        5
 70
   128
 43
0.0
 10
84.125
 20
35.313
 42
0.414214
 10
83.9995
 20
35.1875
 42
0.414214
 10
84.125
 20
35.062
 42
0.414214
 10
84.2505
 20
35.1875
 42
0.414214
 10
84.125
 20
35.313
  0
LWPOLYLINE
  5
2F
330
1F
100
AcDbEntity
  8
0
100
AcDbPolyline
 90
        5
 70
   128
 43
0.0
 10
94.5
 20
35.313
 42
0.414214
 10
94.3745
 20
35.1875
 42
0.414214
 10
94.5
 20
35.062
 42
0.414214
 10
94.6255
 20
35.1875
 42
0.414214
 10
94.5
 20
35.313
  0
LWPOLYLINE
  5
30
330
1F
100
AcDbEntity
  8
0
100
AcDbPolyline
 90
        5
 70
   128
 43
0.0
 10
1.317106
 20
2.283153
 10
25.067106
 20
2.283153
 10
25.067106
 20
10.283153
 10
1.317106
 20
10.283153
 10
1.317106
 20
2.283153
  0
LWPOLYLINE
  5
31
330
1F
100
AcDbEntity
  8
0
100
AcDbPolyline
 90
        5
 70
   128
 43
0.0
 10
8.598356
 20
5.783153
 10
17.785856
 20
5.783153
 10
17.785856
 20
7.783153
 10
8.598356
 20
7.783153
 10
8.598356
 20
5.783153
  0
LWPOLYLINE
  5
32
330
1F
100
AcDbEntity
  8
0
100
AcDbPolyline
 90
        5
 70
   128
 43
0.0
 10
26.516531
 20
2.441234
 10
50.266531
 20
2.441234
 10
50.266531
 20
9.441234
 10
26.516531
 20
9.441234
 10
26.516531
 20
2.441234
  0
LWPOLYLINE
  5
33
330
1F
100
AcDbEntity
  8
0
100
AcDbPolyline
 90
        5
 70
   128
 43
0.0
 10
31.391531
 20
5.441234
 10
45.391531
 20
5.441234
 10
45.391531
 20
6.441234
 10
31.391531
 20
6.441234
 10
31.391531
 20
5.441234
  0
ENDSEC
  0
SECTION
  2
OBJECTS
  0
DICTIONARY
  5
C
330
0
100
AcDbDictionary
281
     1
  3
ACAD_GROUP
350
D
  3
ACAD_LAYOUT
350
1A
  3
ACAD_MLINESTYLE
350
17
  3
ACAD_PLOTSETTINGS
350
19
  3
ACAD_PLOTSTYLENAME
350
E
  0
DICTIONARY
  5
D
102
{ACAD_REACTORS
330
C
102
}
330
C
100
AcDbDictionary
281
     1
  0
DICTIONARY
  5
1A
102
{ACAD_REACTORS
330
C
102
}
330
C
100
AcDbDictionary
281
     1
  3
Layout1
350
1E
  3
Layout2
350
26
  3
Model
350
22
  0
DICTIONARY
  5
17
102
{ACAD_REACTORS
330
C
102
}
330
C
100
AcDbDictionary
281
     1
  3
Standard
350
18
  0
DICTIONARY
  5
19
102
{ACAD_REACTORS
330
C
102
}
330
C
100
AcDbDictionary
281
     1
  0
ACDBDICTIONARYWDFLT
  5
E
102
{ACAD_REACTORS
330
C
102
}
330
C
100
AcDbDictionary
281
     1
  3
Normal
350
F
100
AcDbDictionaryWithDefault
340
F
  0
LAYOUT
  5
1E
102
{ACAD_REACTORS
330
1A
102
}
330
1A
100
AcDbPlotSettings
  1

  2

  4

  6

 40
0.0
 41
0.0
 42
0.0
 43
0.0
 44
0.0
 45
0.0
 46
0.0
 47
0.0
 48
0.0
 49
0.0
140
0.0
141
0.0
142
1.0
143
1.0
 70
   688
 72
     0
 73
     0
 74
     5
  7

 75
    16
147
1.0
148
0.0
149
0.0
100
AcDbLayout
  1
Layout1
 70
     1
 71
     1
 10
0.0
 20
0.0
 11
420.0
 21
297.0
 12
0.0
 22
0.0
 32
0.0
 14
1.000000E+20
 24
1.000000E+20
 34
1.000000E+20
 15
-1.000000E+20
 25
-1.000000E+20
 35
-1.000000E+20
146
0.0
 13
0.0
 23
0.0
 33
0.0
 16
1.0
 26
0.0
 36
0.0
 17
0.0
 27
1.0
 37
0.0
 76
     0
330
1B
  0
LAYOUT
  5
26
102
{ACAD_REACTORS
330
1A
102
}
330
1A
100
AcDbPlotSettings
  1

  2

  4

  6

 40
0.0
 41
0.0
 42
0.0
 43
0.0
 44
0.0
 45
0.0
 46
0.0
 47
0.0
 48
0.0
 49
0.0
140
0.0
141
0.0
142
1.0
143
1.0
 70
   688
 72
     0
 73
     0
 74
     5
  7

 75
    16
147
1.0
148
0.0
149
0.0
100
AcDbLayout
  1
Layout2
 70
     1
 71
     2
 10
0.0
 20
0.0
 11
0.0
 21
0.0
 12
0.0
 22
0.0
 32
0.0
 14
0.0
 24
0.0
 34
0.0
 15
0.0
 25
0.0
 35
0.0
146
0.0
 13
0.0
 23
0.0
 33
0.0
 16
1.0
 26
0.0
 36
0.0
 17
0.0
 27
1.0
 37
0.0
 76
     0
330
23
  0
LAYOUT
  5
22
102
{ACAD_REACTORS
330
1A
102
}
330
1A
100
AcDbPlotSettings
  1

  2

  4

  6

 40
0.0
 41
0.0
 42
0.0
 43
0.0
 44
0.0
 45
0.0
 46
0.0
 47
0.0
 48
0.0
 49
0.0
140
0.0
141
0.0
142
1.0
143
1.0
 70
  1712
 72
     0
 73
     0
 74
     0
  7

 75
     0
147
1.0
148
0.0
149
0.0
100
AcDbLayout
  1
Model
 70
     1
 71
     0
 10
0.0
 20
0.0
 11
0.0
 21
0.0
 12
0.0
 22
0.0
 32
0.0
 14
0.0
 24
0.0
 34
0.0
 15
0.0
 25
0.0
 35
0.0
146
0.0
 13
0.0
 23
0.0
 33
0.0
 16
1.0
 26
0.0
 36
0.0
 17
0.0
 27
1.0
 37
0.0
 76
     0
330
1F
  0
MLINESTYLE
  5
18
102
{ACAD_REACTORS
330
17
102
}
330
17
100
AcDbMlineStyle
  2
Standard
 70
     0
  3

 62
   256
 51
90.0
 52
90.0
 71
     2
 49
1.0
 62
   256
  6
BYLAYER
 49
-1.0
 62
   256
  6
BYLAYER
  0
ACDBPLACEHOLDER
  5
F
102
{ACAD_REACTORS
330
E
102
}
330
E
  0
ENDSEC
  0
EOF
