  0
SECTION
  2
HEADER
  9
$ACADVER
  1
AC1015
  9
$ACADMAINTVER
 70
     6
  9
$DWGCODEPAGE
  3
ANSI_1252
  9
$INSBASE
 10
0.0
 20
0.0
 30
0.0
  9
$EXTMIN
 10
1.000000E+20
 20
1.000000E+20
 30
1.000000E+20
  9
$EXTMAX
 10
-1.000000E+20
 20
-1.000000E+20
 30
-1.000000E+20
  9
$LIMMIN
 10
0.0
 20
0.0
  9
$LIMMAX
 10
420.0
 20
297.0
  9
$ORTHOMODE
 70
     0
  9
$REGENMODE
 70
     1
  9
$FILLMODE
 70
     1
  9
$QTEXTMODE
 70
     0
  9
$MIRRTEXT
 70
     1
  9
$LTSCALE
 40
1.0
  9
$ATTMODE
 70
     1
  9
$TEXTSIZE
 40
2.5
  9
$TRACEWID
 40
1.0
  9
$TEXTSTYLE
  7
Standard
  9
$CLAYER
  8
0
  9
$CELTYPE
  6
ByLayer
  9
$CECOLOR
 62
   256
  9
$CELTSCALE
 40
1.0
  9
$DISPSILH
 70
     0
  9
$DIMSCALE
 40
1.0
  9
$DIMASZ
 40
2.5
  9
$DIMEXO
 40
0.625
  9
$DIMDLI
 40
3.75
  9
$DIMRND
 40
0.0
  9
$DIMDLE
 40
0.0
  9
$DIMEXE
 40
1.25
  9
$DIMTP
 40
0.0
  9
$DIMTM
 40
0.0
  9
$DIMTXT
 40
2.5
  9
$DIMCEN
 40
2.5
  9
$DIMTSZ
 40
0.0
  9
$DIMTOL
 70
     0
  9
$DIMLIM
 70
     0
  9
$DIMTIH
 70
     0
  9
$DIMTOH
 70
     0
  9
$DIMSE1
 70
     0
  9
$DIMSE2
 70
     0
  9
$DIMTAD
 70
     1
  9
$DIMZIN
 70
     8
  9
$DIMBLK
  1

  9
$DIMASO
 70
     1
  9
$DIMSHO
 70
     1
  9
$DIMPOST
  1

  9
$DIMAPOST
  1

  9
$DIMALT
 70
     0
  9
$DIMALTD
 70
     3
  9
$DIMALTF
 40
0.03937
  9
$DIMLFAC
 40
1.0
  9
$DIMTOFL
 70
     1
  9
$DIMTVP
 40
0.0
  9
$DIMTIX
 70
     0
  9
$DIMSOXD
 70
     0
  9
$DIMSAH
 70
     0
  9
$DIMBLK1
  1

  9
$DIMBLK2
  1

  9
$DIMSTYLE
  2
ISO-25
  9
$DIMCLRD
 70
     0
  9
$DIMCLRE
 70
     0
  9
$DIMCLRT
 70
     0
  9
$DIMTFAC
 40
1.0
  9
$DIMGAP
 40
0.625
  9
$DIMJUST
 70
     0
  9
$DIMSD1
 70
     0
  9
$DIMSD2
 70
     0
  9
$DIMTOLJ
 70
     0
  9
$DIMTZIN
 70
     8
  9
$DIMALTZ
 70
     0
  9
$DIMALTTZ
 70
     0
  9
$DIMUPT
 70
     0
  9
$DIMDEC
 70
     2
  9
$DIMTDEC
 70
     2
  9
$DIMALTU
 70
     2
  9
$DIMALTTD
 70
     3
  9
$DIMTXSTY
  7
Standard
  9
$DIMAUNIT
 70
     0
  9
$DIMADEC
 70
     0
  9
$DIMALTRND
 40
0.0
  9
$DIMAZIN
 70
     0
  9
$DIMDSEP
 70
    44
  9
$DIMATFIT
 70
     3
  9
$DIMFRAC
 70
     0
  9
$DIMLDRBLK
  1

  9
$DIMLUNIT
 70
     2
  9
$DIMLWD
 70
    -2
  9
$DIMLWE
 70
    -2
  9
$DIMTMOVE
 70
     0
  9
$LUNITS
 70
     2
  9
$LUPREC
 70
     4
  9
$SKETCHINC
 40
1.0
  9
$FILLETRAD
 40
10.0
  9
$AUNITS
 70
     0
  9
$AUPREC
 70
     0
  9
$MENU
  1
.
  9
$ELEVATION
 40
0.0
  9
$PELEVATION
 40
0.0
  9
$THICKNESS
 40
0.0
  9
$LIMCHECK
 70
     0
  9
$CHAMFERA
 40
10.0
  9
$CHAMFERB
 40
10.0
  9
$CHAMFERC
 40
20.0
  9
$CHAMFERD
 40
0.0
  9
$SKPOLY
 70
     0
  9
$TDCREATE
 40
2457255.607491134
  9
$TDUCREATE
 40
2457255.774157801
  9
$TDUPDATE
 40
2457255.607491146
  9
$TDUUPDATE
 40
2457255.774157812
  9
$TDINDWG
 40
0.0000000116
  9
$TDUSRTIMER
 40
0.0000000116
  9
$USRTIMER
 70
     1
  9
$ANGBASE
 50
0.0
  9
$ANGDIR
 70
     0
  9
$PDMODE
 70
     3
  9
$PDSIZE
 40
-0.7
  9
$PLINEWID
 40
0.0
  9
$SPLFRAME
 70
     0
  9
$SPLINETYPE
 70
     6
  9
$SPLINESEGS
 70
     8
  9
$HANDSEED
  5
6E
  9
$SURFTAB1
 70
     6
  9
$SURFTAB2
 70
     6
  9
$SURFTYPE
 70
     6
  9
$SURFU
 70
     6
  9
$SURFV
 70
     6
  9
$UCSBASE
  2

  9
$UCSNAME
  2

  9
$UCSORG
 10
0.0
 20
0.0
 30
0.0
  9
$UCSXDIR
 10
1.0
 20
0.0
 30
0.0
  9
$UCSYDIR
 10
0.0
 20
1.0
 30
0.0
  9
$UCSORTHOREF
  2

  9
$UCSORTHOVIEW
 70
     0
  9
$UCSORGTOP
 10
0.0
 20
0.0
 30
0.0
  9
$UCSORGBOTTOM
 10
0.0
 20
0.0
 30
0.0
  9
$UCSORGLEFT
 10
0.0
 20
0.0
 30
0.0
  9
$UCSORGRIGHT
 10
0.0
 20
0.0
 30
0.0
  9
$UCSORGFRONT
 10
0.0
 20
0.0
 30
0.0
  9
$UCSORGBACK
 10
0.0
 20
0.0
 30
0.0
  9
$PUCSBASE
  2

  9
$PUCSNAME
  2

  9
$PUCSORG
 10
0.0
 20
0.0
 30
0.0
  9
$PUCSXDIR
 10
1.0
 20
0.0
 30
0.0
  9
$PUCSYDIR
 10
0.0
 20
1.0
 30
0.0
  9
$PUCSORTHOREF
  2

  9
$PUCSORTHOVIEW
 70
     0
  9
$PUCSORGTOP
 10
0.0
 20
0.0
 30
0.0
  9
$PUCSORGBOTTOM
 10
0.0
 20
0.0
 30
0.0
  9
$PUCSORGLEFT
 10
0.0
 20
0.0
 30
0.0
  9
$PUCSORGRIGHT
 10
0.0
 20
0.0
 30
0.0
  9
$PUCSORGFRONT
 10
0.0
 20
0.0
 30
0.0
  9
$PUCSORGBACK
 10
0.0
 20
0.0
 30
0.0
  9
$USERI1
 70
     0
  9
$USERI2
 70
     0
  9
$USERI3
 70
     0
  9
$USERI4
 70
     0
  9
$USERI5
 70
     0
  9
$USERR1
 40
0.0
  9
$USERR2
 40
0.0
  9
$USERR3
 40
0.0
  9
$USERR4
 40
0.0
  9
$USERR5
 40
0.0
  9
$WORLDVIEW
 70
     1
  9
$SHADEDGE
 70
     3
  9
$SHADEDIF
 70
    70
  9
$TILEMODE
 70
     1
  9
$MAXACTVP
 70
    64
  9
$PINSBASE
 10
0.0
 20
0.0
 30
0.0
  9
$PLIMCHECK
 70
     0
  9
$PEXTMIN
 10
1.000000E+20
 20
1.000000E+20
 30
1.000000E+20
  9
$PEXTMAX
 10
-1.000000E+20
 20
-1.000000E+20
 30
-1.000000E+20
  9
$PLIMMIN
 10
0.0
 20
0.0
  9
$PLIMMAX
 10
420.0
 20
297.0
  9
$UNITMODE
 70
     0
  9
$VISRETAIN
 70
     1
  9
$PLINEGEN
 70
     0
  9
$PSLTSCALE
 70
     1
  9
$TREEDEPTH
 70
  3020
  9
$CMLSTYLE
  2
Standard
  9
$CMLJUST
 70
     1
  9
$CMLSCALE
 40
1.0
  9
$PROXYGRAPHICS
 70
     1
  9
$MEASUREMENT
 70
     0
  9
$CELWEIGHT
370
    -1
  9
$ENDCAPS
280
     0
  9
$JOINSTYLE
280
     0
  9
$LWDISPLAY
290
     0
  9
$INSUNITS
 70
     4
  9
$HYPERLINKBASE
  1

  9
$STYLESHEET
  1

  9
$XEDIT
290
     1
  9
$CEPSNTYPE
380
     0
  9
$PSTYLEMODE
290
     1
  9
$FINGERPRINTGUID
  2
{FAEB1C30-E019-11D5-929B-00C0DF256EC4}
  9
$VERSIONGUID
  2
{FAEB1C32-E019-11D5-929B-00C0DF256EC4}
  9
$EXTNAMES
290
     1
  9
$PSVPSCALE
 40
0.0
  9
$OLESTARTUP
290
     0
  0
ENDSEC
  0
SECTION
  2
CLASSES
  0
CLASS
  1
ACDBDICTIONARYWDFLT
  2
AcDbDictionaryWithDefault
  3
ObjectDBX Classes
 90
        0
280
     0
281
     0
  0
CLASS
  1
ACDBPLACEHOLDER
  2
AcDbPlaceHolder
  3
ObjectDBX Classes
 90
        0
280
     0
281
     0
  0
CLASS
  1
LAYOUT
  2
AcDbLayout
  3
ObjectDBX Classes
 90
        0
280
     0
281
     0
  0
ENDSEC
  0
SECTION
  2
TABLES
  0
TABLE
  2
VPORT
  5
8
330
0
100
AcDbSymbolTable
 70
     2
  0
VPORT
  5
29
330
8
100
AcDbSymbolTableRecord
100
AcDbViewportTableRecord
  2
*Active
 70
     0
 10
0.0
 20
0.0
 11
1.0
 21
1.0
 12
50.0
 22
50.0
 13
0.0
 23
0.0
 14
10.0
 24
10.0
 15
10.0
 25
10.0
 16
0.0
 26
0.0
 36
1.0
 17
0.0
 27
0.0
 37
0.0
 40
103.921569
 41
1.0
 42
50.0
 43
0.0
 44
0.0
 50
0.0
 51
0.0
 71
     0
 72
   100
 73
     1
 74
     3
 75
     0
 76
     0
 77
     0
 78
     0
281
     0
 65
     1
110
0.0
120
0.0
130
0.0
111
1.0
121
0.0
131
0.0
112
0.0
122
1.0
132
0.0
 79
     0
146
0.0
  0
ENDTAB
  0
TABLE
  2
LTYPE
  5
5
330
0
100
AcDbSymbolTable
 70
     1
  0
LTYPE
  5
14
330
5
100
AcDbSymbolTableRecord
100
AcDbLinetypeTableRecord
  2
ByBlock
 70
     0
  3

 72
    65
 73
     0
 40
0.0
  0
LTYPE
  5
15
330
5
100
AcDbSymbolTableRecord
100
AcDbLinetypeTableRecord
  2
ByLayer
 70
     0
  3

 72
    65
 73
     0
 40
0.0
  0
LTYPE
  5
16
330
5
100
AcDbSymbolTableRecord
100
AcDbLinetypeTableRecord
  2
Continuous
 70
     0
  3

 72
    65
 73
     0
 40
0.0
  0
ENDTAB
  0
TABLE
  2
LAYER
  5
2
330
0
100
AcDbSymbolTable
 70
     1
  0
LAYER
  5
10
330
2
100
AcDbSymbolTableRecord
100
AcDbLayerTableRecord
  2
0
 70
     0
 62
     7
  6
Continuous
370
    -3
390
F
  0
ENDTAB
  0
TABLE
  2
STYLE
  5
3
330
0
100
AcDbSymbolTable
 70
     1
  0
STYLE
  5
11
330
3
100
AcDbSymbolTableRecord
100
AcDbTextStyleTableRecord
  2
Standard
 70
     0
 40
1.0
 41
1.0
 50
0.0
 71
     0
 42
2.5
  3
RomanS
  4

  0
ENDTAB
  0
TABLE
  2
VIEW
  5
6
330
0
100
AcDbSymbolTable
 70
     0
  0
ENDTAB
  0
TABLE
  2
UCS
  5
7
330
0
100
AcDbSymbolTable
 70
     0
  0
ENDTAB
  0
TABLE
  2
APPID
  5
9
330
0
100
AcDbSymbolTable
 70
     1
  0
APPID
  5
12
330
9
100
AcDbSymbolTableRecord
100
AcDbRegAppTableRecord
  2
ACAD
 70
     0
  0
ENDTAB
  0
TABLE
  2
DIMSTYLE
  5
A
330
0
100
AcDbSymbolTable
 70
     1
100
AcDbDimStyleTable
  0
DIMSTYLE
105
27
330
A
100
AcDbSymbolTableRecord
100
AcDbDimStyleTableRecord
  2
ISO-25
 70
     0
 41
2.5
 42
0.625
 44
1.25
 73
     0
 74
     0
 77
     1
 78
     8
 79
     2
140
2.5
141
2.5
146
0.0
147
0.625
271
     2
272
     0
273
     0
274
     0
278
    44
283
     0
289
     0
340
11
  0
ENDTAB
  0
TABLE
  2
BLOCK_RECORD
  5
1
330
0
100
AcDbSymbolTable
 70
     1
  0
BLOCK_RECORD
  5
1F
330
1
100
AcDbSymbolTableRecord
100
AcDbBlockTableRecord
  2
*Model_Space
340
22
  0
BLOCK_RECORD
  5
1B
330
1
100
AcDbSymbolTableRecord
100
AcDbBlockTableRecord
  2
*Paper_Space
340
1E
  0
BLOCK_RECORD
  5
23
330
1
100
AcDbSymbolTableRecord
100
AcDbBlockTableRecord
  2
*Paper_Space0
340
26
  0
ENDTAB
  0
ENDSEC
  0
SECTION
  2
BLOCKS
  0
BLOCK
  5
20
330
1F
100
AcDbEntity
  8
0
100
AcDbBlockBegin
  2
*Model_Space
 70
     0
 71
     0
 10
0.0
 20
0.0
 30
0.0
  3
*Model_Space
  1

  0
ENDBLK
  5
21
330
1F
100
AcDbEntity
  8
0
100
AcDbBlockEnd
  0
BLOCK
  5
1C
330
1B
100
AcDbEntity
 67
     1
  8
0
100
AcDbBlockBegin
  2
*Paper_Space
 70
     0
 71
     0
 10
0.0
 20
0.0
 30
0.0
  3
*Paper_Space
  1

  0
ENDBLK
  5
1D
330
1B
100
AcDbEntity
 67
     1
  8
0
100
AcDbBlockEnd
  0
BLOCK
  5
24
330
23
100
AcDbEntity
  8
0
100
AcDbBlockBegin
  2
*Paper_Space0
 70
     0
 71
     0
 10
0.0
 20
0.0
 30
0.0
  3
*Paper_Space0
  1

  0
ENDBLK
  5
25
330
23
100
AcDbEntity
  8
0
100
AcDbBlockEnd
  0
ENDSEC
  0
SECTION
  2
ENTITIES
  0
LWPOLYLINE
  5
2A
330
1F
100
AcDbEntity
  8
0
100
AcDbPolyline
 90
     1111
 70
   128
 43
0.0
 10
70.0625
 20
21.2187
 10
62.4375
 20
2.375
 10
62.42397
 20
2.342024
 10
62.409391
 20
2.308335
 10
62.401605
 20
2.291411
 10
62.393431
 20
2.274535
 10
62.384828
 20
2.257782
 10
62.375754
 20
2.241228
 10
62.366168
 20
2.224948
 10
62.356027
 20
2.209018
 10
62.34529
 20
2.193513
 10
62.333915
 20
2.178508
 10
62.32186
 20
2.164079
 10
62.309084
 20
2.150301
 10
62.295544
 20
2.137249
 10
62.2812
 20
2.125
 10
62.270601
 20
2.116785
 10
62.259716
 20
2.10888
 10
62.248563
 20
2.101283
 10
62.237154
 20
2.09399
 10
62.225505
 20
2.086999
 10
62.213631
 20
2.080304
 10
62.201548
 20
2.073905
 10
62.189269
 20
2.067796
 10
62.176811
 20
2.061975
 10
62.164187
 20
2.056439
 10
62.151413
 20
2.051184
 10
62.138505
 20
2.046207
 10
62.112341
 20
2.037073
 10
62.085817
 20
2.029013
 10
62.059052
 20
2.021999
 10
62.032165
 20
2.016005
 10
62.005277
 20
2.011005
 10
61.978507
 20
2.006974
 10
61.951974
 20
2.003883
 10
61.925799
 20
2.001708
 10
61.900101
 20
2.000423
 10
61.875
 20
2.0
 10
4.5
 20
2.0
 10
2.0
 20
4.5
 10
2.0
 20
28.4375
 10
2.000192
 20
28.448567
 10
2.000765
 20
28.45967
 10
2.001712
 20
28.470801
 10
2.003026
 20
28.481954
 10
2.0047
 20
28.493122
 10
2.006728
 20
28.504298
 10
2.009103
 20
28.515477
 10
2.011818
 20
28.52665
 10
2.014866
 20
28.537811
 10
2.018242
 20
28.548955
 10
2.021937
 20
28.560073
 10
2.025946
 20
28.571159
 10
2.034878
 20
28.593209
 10
2.044983
 20
28.615052
 10
2.056207
 20
28.636633
 10
2.068497
 20
28.6579
 10
2.0818
 20
28.678797
 10
2.096061
 20
28.699273
 10
2.111228
 20
28.719272
 10
2.127245
 20
28.738743
 10
2.144061
 20
28.757629
 10
2.16162
 20
28.77588
 10
2.179871
 20
28.793439
 10
2.198757
 20
28.810255
 10
2.218228
 20
28.826272
 10
2.238227
 20
28.841439
 10
2.258703
 20
28.8557
 10
2.2796
 20
28.869003
 10
2.300867
 20
28.881293
 10
2.322448
 20
28.892517
 10
2.344291
 20
28.902622
 10
2.366341
 20
28.911554
 10
2.377427
 20
28.915563
 10
2.388545
 20
28.919258
 10
2.399689
 20
28.922634
 10
2.41085
 20
28.925682
 10
2.422023
 20
28.928397
 10
2.433202
 20
28.930772
 10
2.444378
 20
28.9328
 10
2.455546
 20
28.934474
 10
2.466699
 20
28.935788
 10
2.47783
 20
28.936735
 10
2.488933
 20
28.937308
 10
2.5
 20
28.9375
 10
30.4375
 20
28.9375
 10
30.468472
 20
28.937755
 10
30.49944
 20
28.938519
 10
30.530415
 20
28.939785
 10
30.561403
 20
28.94155
 10
30.592415
 20
28.94381
 10
30.623458
 20
28.946559
 10
30.654541
 20
28.949794
 10
30.685672
 20
28.953509
 10
30.716861
 20
28.957701
 10
30.748115
 20
28.962364
 10
30.779443
 20
28.967495
 10
30.810855
 20
28.973088
 10
30.842357
 20
28.97914
 10
30.87396
 20
28.985646
 10
30.905672
 20
28.9926
 10
30.9375
 20
29.0
 10
30.992555
 20
29.012757
 10
31.048239
 20
29.025275
 10
31.104184
 20
29.038085
 10
31.13214
 20
29.044764
 10
31.160024
 20
29.051714
 10
31.18779
 20
29.059001
 10
31.215392
 20
29.066691
 10
31.242785
 20
29.074851
 10
31.269922
 20
29.083545
 10
31.296758
 20
29.092842
 10
31.323247
 20
29.102805
 10
31.349343
 20
29.113503
 10
31.375
 20
29.125
 10
31.400974
 20
29.137562
 10
31.426503
 20
29.150657
 10
31.451608
 20
29.164258
 10
31.476314
 20
29.17834
 10
31.500643
 20
29.192874
 10
31.524619
 20
29.207835
 10
31.548264
 20
29.223196
 10
31.571601
 20
29.238929
 10
31.594654
 20
29.255008
 10
31.617446
 20
29.271407
 10
31.639999
 20
29.288098
 10
31.662337
 20
29.305054
 10
31.706461
 20
29.339657
 10
31.75
 20
29.375
 10
31.769901
 20
29.391733
 10
31.789621
 20
29.409016
 10
31.809134
 20
29.426811
 10
31.82841
 20
29.445081
 10
31.847423
 20
29.463788
 10
31.866145
 20
29.482893
 10
31.884548
 20
29.502359
 10
31.902605
 20
29.522147
 10
31.920287
 20
29.54222
 10
31.937567
 20
29.562539
 10
31.954417
 20
29.583066
 10
31.97081
 20
29.603764
 10
31.986717
 20
29.624595
 10
32.002111
 20
29.645519
 10
32.016965
 20
29.666501
 10
32.03125
 20
29.6875
 10
32.1562
 20
29.875
 10
32.175833
 20
29.904129
 10
32.195782
 20
29.93307
 10
32.216043
 20
29.96182
 10
32.236612
 20
29.99038
 10
32.257487
 20
30.018749
 10
32.278664
 20
30.046926
 10
32.30014
 20
30.07491
 10
32.321912
 20
30.102702
 10
32.343977
 20
30.1303
 10
32.366331
 20
30.157703
 10
32.388971
 20
30.184912
 10
32.411894
 20
30.211925
 10
32.435096
 20
30.238741
 10
32.458575
 20
30.265361
 10
32.482327
 20
30.291783
 10
32.506349
 20
30.318007
 10
32.564003
 20
30.380933
 10
32.622474
 20
30.445211
 10
32.681934
 20
30.510006
 10
32.712087
 20
30.542336
 10
32.742551
 20
30.574482
 10
32.773346
 20
30.60634
 10
32.804496
 20
30.637805
 10
32.836019
 20
30.668773
 10
32.867939
 20
30.699139
 10
32.900275
 20
30.728799
 10
32.93305
 20
30.757649
 10
32.966285
 20
30.785584
 10
33.0
 20
30.8125
 10
33.068054
 20
30.86578
 10
33.136065
 20
30.919377
 10
33.204377
 20
30.972776
 10
33.238753
 20
30.999239
 10
33.273334
 20
31.025459
 10
33.308162
 20
31.05137
 10
33.34328
 20
31.076909
 10
33.378732
 20
31.102011
 10
33.41456
 20
31.126611
 10
33.450808
 20
31.150644
 10
33.487519
 20
31.174047
 10
33.524735
 20
31.196753
 10
33.5625
 20
31.2187
 10
33.599605
 20
31.239259
 10
33.63719
 20
31.259238
 10
33.675209
 20
31.278674
 10
33.713614
 20
31.297608
 10
33.752358
 20
31.316079
 10
33.791395
 20
31.334127
 10
33.830677
 20
31.351791
 10
33.870157
 20
31.36911
 10
33.949525
 20
31.402873
 10
34.029122
 20
31.435732
 10
34.1875
 20
31.5
 10
34.26416
 20
31.530824
 10
34.341525
 20
31.561078
 10
34.41945
 20
31.590549
 10
34.497793
 20
31.619023
 10
34.537077
 20
31.63282
 10
34.576412
 20
31.646289
 10
34.615781
 20
31.659401
 10
34.655165
 20
31.672132
 10
34.694547
 20
31.684454
 10
34.733908
 20
31.69634
 10
34.773232
 20
31.707764
 10
34.8125
 20
31.7187
 10
34.835728
 20
31.724815
 10
34.859004
 20
31.730536
 10
34.882325
 20
31.735882
 10
34.905686
 20
31.740872
 10
34.929084
 20
31.745526
 10
34.952517
 20
31.74986
 10
34.999471
 20
31.75765
 10
35.046519
 20
31.764393
 10
35.093635
 20
31.770239
 10
35.140792
 20
31.775339
 10
35.187961
 20
31.779843
 10
35.28223
 20
31.787666
 10
35.376221
 20
31.794913
 10
35.423045
 20
31.798698
 10
35.469718
 20
31.80279
 10
35.516212
 20
31.80734
 10
35.5625
 20
31.8125
 10
35.720662
 20
31.831387
 10
35.783533
 20
31.839364
 10
35.815201
 20
31.843773
 10
35.846962
 20
31.848493
 10
35.878771
 20
31.853546
 10
35.910582
 20
31.858954
 10
35.942348
 20
31.86474
 10
35.974025
 20
31.870926
 10
36.005567
 20
31.877535
 10
36.036926
 20
31.884588
 10
36.068058
 20
31.892108
 10
36.098917
 20
31.900118
 10
36.129456
 20
31.90864
 10
36.15963
 20
31.917696
 10
36.189394
 20
31.927308
 10
36.2187
 20
31.9375
 10
36.249183
 20
31.948182
 10
36.281286
 20
31.958957
 10
36.349278
 20
31.981269
 10
36.384627
 20
31.99305
 10
36.420518
 20
32.005409
 10
36.456683
 20
32.018467
 10
36.492852
 20
32.032347
 10
36.528755
 20
32.047168
 10
36.546523
 20
32.054971
 10
36.564123
 20
32.063054
 10
36.581522
 20
32.071433
 10
36.598686
 20
32.080124
 10
36.615582
 20
32.089142
 10
36.632175
 20
32.098501
 10
36.648433
 20
32.108217
 10
36.664321
 20
32.118305
 10
36.679805
 20
32.128781
 10
36.694853
 20
32.139659
 10
36.70943
 20
32.150955
 10
36.723503
 20
32.162684
 10
36.737037
 20
32.17486
 10
36.75
 20
32.1875
 10
36.852738
 20
32.291451
 10
36.904648
 20
32.344367
 10
36.956473
 20
32.398132
 10
36.982248
 20
32.425384
 10
37.007876
 20
32.452911
 10
37.033314
 20
32.480734
 10
37.058522
 20
32.508872
 10
37.083456
 20
32.537347
 10
37.108075
 20
32.566179
 10
37.132337
 20
32.59539
 10
37.1562
 20
32.625
 10
37.176153
 20
32.650665
 10
37.195937
 20
32.677047
 10
37.215576
 20
32.70404
 10
37.235095
 20
32.731538
 10
37.273869
 20
32.787628
 10
37.31245
 20
32.844472
 10
37.35103
 20
32.901226
 10
37.389804
 20
32.957045
 10
37.409323
 20
32.98434
 10
37.428963
 20
33.011085
 10
37.448747
 20
33.037173
 10
37.4687
 20
33.0625
 10
37.491842
 20
33.092056
 10
37.514215
 20
33.122164
 10
37.535872
 20
33.152766
 10
37.556866
 20
33.183799
 10
37.577253
 20
33.215205
 10
37.597084
 20
33.246922
 10
37.616413
 20
33.278891
 10
37.635294
 20
33.311051
 10
37.65378
 20
33.343343
 10
37.671925
 20
33.375704
 10
37.707406
 20
33.440399
 10
37.742163
 20
33.504654
 10
37.776626
 20
33.567986
 10
37.79388
 20
33.599155
 10
37.811221
 20
33.629913
 10
37.828702
 20
33.660199
 10
37.846377
 20
33.689954
 10
37.864299
 20
33.719116
 10
37.882522
 20
33.747625
 10
37.901099
 20
33.775422
 10
37.920083
 20
33.802446
 10
37.939529
 20
33.828636
 10
37.959489
 20
33.853933
 10
37.980018
 20
33.878276
 10
38.001168
 20
33.901605
 10
38.011993
 20
33.91287
 10
38.022993
 20
33.92386
 10
38.034175
 20
33.934565
 10
38.045547
 20
33.94498
 10
38.057113
 20
33.955095
 10
38.068883
 20
33.964905
 10
38.08086
 20
33.9744
 10
38.093054
 20
33.983574
 10
38.105369
 20
33.992069
 10
38.118237
 20
33.999948
 10
38.131629
 20
34.007234
 10
38.14552
 20
34.013948
 10
38.15988
 20
34.020115
 10
38.174683
 20
34.025756
 10
38.189901
 20
34.030895
 10
38.205506
 20
34.035554
 10
38.221473
 20
34.039756
 10
38.237772
 20
34.043524
 10
38.254376
 20
34.04688
 10
38.271258
 20
34.049847
 10
38.288391
 20
34.052447
 10
38.305747
 20
34.054705
 10
38.323298
 20
34.056641
 10
38.341018
 20
34.05828
 10
38.376851
 20
34.060753
 10
38.413028
 20
34.062307
 10
38.449329
 20
34.063124
 10
38.485533
 20
34.063384
 10
38.556776
 20
34.062963
 10
38.625
 20
34.0625
 10
41.1875
 20
34.0625
 10
41.203751
 20
34.062256
 10
41.22052
 20
34.061525
 10
41.237734
 20
34.060307
 10
41.255316
 20
34.0586
 10
41.273193
 20
34.056406
 10
41.291289
 20
34.053723
 10
41.309529
 20
34.050552
 10
41.327838
 20
34.046892
 10
41.346141
 20
34.042743
 10
41.364363
 20
34.038106
 10
41.38243
 20
34.032979
 10
41.400265
 20
34.027363
 10
41.417795
 20
34.021257
 10
41.434944
 20
34.014661
 10
41.451638
 20
34.007576
 10
41.4678
 20
34.0
 10
41.488168
 20
33.989376
 10
41.507741
 20
33.977978
 10
41.5265
 20
33.965828
 10
41.544425
 20
33.95295
 10
41.561498
 20
33.939367
 10
41.577699
 20
33.925101
 10
41.593009
 20
33.910176
 10
41.607408
 20
33.894616
 10
41.620877
 20
33.878442
 10
41.633396
 20
33.861678
 10
41.644948
 20
33.844348
 10
41.655511
 20
33.826474
 10
41.665067
 20
33.808079
 10
41.673597
 20
33.789186
 10
41.681081
 20
33.769819
 10
41.6875
 20
33.75
 10
42.5312
 20
30.875
 10
42.545124
 20
30.827829
 10
42.559521
 20
30.779967
 10
42.574505
 20
30.731571
 10
42.590192
 20
30.682796
 10
42.606695
 20
30.6338
 10
42.624131
 20
30.584739
 10
42.642613
 20
30.535769
 10
42.652283
 20
30.511367
 10
42.662257
 20
30.487048
 10
42.672551
 20
30.462829
 10
42.683177
 20
30.438731
 10
42.694152
 20
30.414773
 10
42.705489
 20
30.390976
 10
42.717202
 20
30.367357
 10
42.729306
 20
30.343938
 10
42.741815
 20
30.320738
 10
42.754744
 20
30.297775
 10
42.768107
 20
30.275071
 10
42.781918
 20
30.252643
 10
42.796191
 20
30.230513
 10
42.810942
 20
30.208699
 10
42.826183
 20
30.187221
 10
42.841931
 20
30.166099
 10
42.858198
 20
30.145352
 10
42.875
 20
30.125
 10
42.895217
 20
30.101972
 10
42.916155
 20
30.079665
 10
42.937751
 20
30.058025
 10
42.959945
 20
30.036997
 10
42.982672
 20
30.016527
 10
43.00587
 20
29.996559
 10
43.029477
 20
29.977039
 10
43.053429
 20
29.957912
 10
43.077666
 20
29.939124
 10
43.102123
 20
29.92062
 10
43.151449
 20
29.884245
 10
43.200909
 20
29.848351
 10
43.25
 20
29.8125
 10
43.269274
 20
29.798673
 10
43.289205
 20
29.785122
 10
43.309715
 20
29.771849
 10
43.330727
 20
29.758853
 10
43.352163
 20
29.746137
 10
43.373945
 20
29.7337
 10
43.395995
 20
29.721546
 10
43.418236
 20
29.709674
 10
43.462979
 20
29.686781
 10
43.507552
 20
29.665032
 10
43.551333
 20
29.644436
 10
43.5937
 20
29.625
 10
43.617994
 20
29.61439
 10
43.642534
 20
29.604513
 10
43.667297
 20
29.595335
 10
43.692259
 20
29.58682
 10
43.717395
 20
29.578934
 10
43.742682
 20
29.571641
 10
43.768096
 20
29.564906
 10
43.793612
 20
29.558694
 10
43.819208
 20
29.55297
 10
43.844859
 20
29.547698
 10
43.870541
 20
29.542844
 10
43.89623
 20
29.538372
 10
43.947535
 20
29.530435
 10
43.998582
 20
29.523606
 10
44.126418
 20
29.507594
 10
44.17686
 20
29.501646
 10
44.227315
 20
29.496371
 10
44.277785
 20
29.491669
 10
44.328277
 20
29.487441
 10
44.429341
 20
29.480009
 10
44.530545
 20
29.473281
 10
44.631926
 20
29.46646
 10
44.682694
 20
29.462767
 10
44.73352
 20
29.458753
 10
44.784409
 20
29.454319
 10
44.835366
 20
29.449365
 10
44.886395
 20
29.443792
 10
44.9375
 20
29.4375
 10
45.042448
 20
29.424471
 10
45.151242
 20
29.411824
 10
45.262593
 20
29.398998
 10
45.375208
 20
29.38543
 10
45.431587
 20
29.378192
 10
45.487798
 20
29.370559
 10
45.543679
 20
29.362458
 10
45.59907
 20
29.353821
 10
45.653809
 20
29.344577
 10
45.707735
 20
29.334656
 10
45.760685
 20
29.323987
 10
45.8125
 20
29.3125
 10
45.931669
 20
29.28455
 10
46.049829
 20
29.25626
 10
46.167203
 20
29.227329
 10
46.225663
 20
29.212529
 10
46.28401
 20
29.197455
 10
46.34227
 20
29.18207
 10
46.400472
 20
29.166336
 10
46.458643
 20
29.150216
 10
46.516811
 20
29.133672
 10
46.575003
 20
29.116666
 10
46.633246
 20
29.09916
 10
46.69157
 20
29.081117
 10
46.75
 20
29.0625
 10
46.80352
 20
29.044736
 10
46.857113
 20
29.026072
 10
46.910738
 20
29.006575
 10
46.964352
 20
28.986311
 10
47.017914
 20
28.965343
 10
47.071381
 20
28.94374
 10
47.124713
 20
28.921565
 10
47.177867
 20
28.898884
 10
47.230802
 20
28.875764
 10
47.283476
 20
28.852269
 10
47.335847
 20
28.828466
 10
47.387873
 20
28.80442
 10
47.490724
 20
28.755861
 10
47.591696
 20
28.707118
 10
47.636589
 20
28.684983
 10
47.681231
 20
28.66244
 10
47.725622
 20
28.639503
 10
47.769767
 20
28.616188
 10
47.813667
 20
28.59251
 10
47.857326
 20
28.568485
 10
47.900745
 20
28.544127
 10
47.943929
 20
28.519453
 10
47.986878
 20
28.494477
 10
48.029596
 20
28.469216
 10
48.072086
 20
28.443684
 10
48.11435
 20
28.417896
 10
48.156391
 20
28.391868
 10
48.198211
 20
28.365616
 10
48.2812
 20
28.3125
 10
48.32646
 20
28.282442
 10
48.371868
 20
28.25092
 10
48.417382
 20
28.218101
 10
48.46296
 20
28.184154
 10
48.508563
 20
28.149246
 10
48.554148
 20
28.113547
 10
48.599675
 20
28.077223
 10
48.645102
 20
28.040445
 10
48.735493
 20
27.966194
 10
48.824992
 20
27.892139
 10
48.913271
 20
27.819625
 10
48.95685
 20
27.784368
 10
49.0
 20
27.75
 10
49.068553
 20
27.695858
 10
49.134204
 20
27.643548
 10
49.197539
 20
27.592076
 10
49.228521
 20
27.566344
 10
49.259144
 20
27.540448
 10
49.289482
 20
27.514265
 10
49.319606
 20
27.487671
 10
49.349592
 20
27.46054
 10
49.379512
 20
27.432749
 10
49.409439
 20
27.404174
 10
49.439448
 20
27.374691
 10
49.46961
 20
27.344174
 10
49.5
 20
27.3125
 10
49.543535
 20
27.267091
 10
49.587882
 20
27.22164
 10
49.632554
 20
27.17596
 10
49.677061
 20
27.129862
 10
49.699101
 20
27.106596
 10
49.720918
 20
27.083155
 10
49.742449
 20
27.059515
 10
49.763635
 20
27.035652
 10
49.784414
 20
27.011543
 10
49.804725
 20
26.987163
 10
49.824507
 20
26.96249
 10
49.8437
 20
26.9375
 10
49.9375
 20
26.8125
 10
49.947309
 20
26.799724
 10
49.957459
 20
26.787075
 10
49.967942
 20
26.774556
 10
49.978748
 20
26.762167
 10
49.989869
 20
26.749912
 10
50.001295
 20
26.737791
 10
50.025026
 20
26.713958
 10
50.049868
 20
26.690684
 10
50.075749
 20
26.667981
 10
50.102595
 20
26.645863
 10
50.130333
 20
26.624344
 10
50.158892
 20
26.603436
 10
50.188196
 20
26.583154
 10
50.218174
 20
26.563511
 10
50.248753
 20
26.544521
 10
50.27986
 20
26.526196
 10
50.311421
 20
26.508551
 10
50.343364
 20
26.491599
 10
50.375616
 20
26.475353
 10
50.409174
 20
26.45925
 10
50.442882
 20
26.443789
 10
50.476752
 20
26.428945
 10
50.510797
 20
26.414693
 10
50.545029
 20
26.40101
 10
50.57946
 20
26.387873
 10
50.614103
 20
26.375256
 10
50.648971
 20
26.363137
 10
50.684075
 20
26.351491
 10
50.71943
 20
26.340294
 10
50.755047
 20
26.329522
 10
50.790938
 20
26.319151
 10
50.827116
 20
26.309157
 10
50.863594
 20
26.299517
 10
50.900385
 20
26.290206
 10
50.9375
 20
26.2812
 10
50.958746
 20
26.276387
 10
50.979319
 20
26.27219
 10
50.999313
 20
26.268558
 10
51.018825
 20
26.265441
 10
51.037949
 20
26.262789
 10
51.056782
 20
26.260553
 10
51.09395
 20
26.257125
 10
51.131094
 20
26.254757
 10
51.168975
 20
26.253047
 10
51.25
 20
26.25
 10
51.353879
 20
26.245874
 10
51.40535
 20
26.244353
 10
51.456382
 20
26.243516
 10
51.506881
 20
26.243605
 10
51.531901
 20
26.244073
 10
51.556752
 20
26.244863
 10
51.581422
 20
26.246006
 10
51.605899
 20
26.247531
 10
51.630171
 20
26.24947
 10
51.654228
 20
26.251853
 10
51.678055
 20
26.254709
 10
51.701643
 20
26.258069
 10
51.724978
 20
26.261964
 10
51.74805
 20
26.266424
 10
51.770845
 20
26.271478
 10
51.793353
 20
26.277157
 10
51.815562
 20
26.283492
 10
51.837459
 20
26.290513
 10
51.859033
 20
26.29825
 10
51.880271
 20
26.306733
 10
51.901163
 20
26.315993
 10
51.921696
 20
26.326059
 10
51.941857
 20
26.336963
 10
51.961637
 20
26.348734
 10
51.981022
 20
26.361403
 10
52.0
 20
26.375
 10
52.125
 20
26.4687
 10
52.153994
 20
26.490125
 10
52.183314
 20
26.511195
 10
52.212946
 20
26.531924
 10
52.242879
 20
26.552329
 10
52.2731
 20
26.572427
 10
52.303595
 20
26.592232
 10
52.334353
 20
26.611762
 10
52.36536
 20
26.631031
 10
52.396604
 20
26.650057
 10
52.428072
 20
26.668855
 10
52.491629
 20
26.705831
 10
52.555931
 20
26.742087
 10
52.620875
 20
26.777752
 10
52.705051
 20
26.824288
 10
52.788893
 20
26.871587
 10
52.872893
 20
26.918822
 10
52.915106
 20
26.942156
 10
52.957543
 20
26.965162
 10
53.000266
 20
26.987738
 10
53.043336
 20
27.00978
 10
53.086816
 20
27.031183
 10
53.130765
 20
27.051845
 10
53.175247
 20
27.071661
 10
53.220322
 20
27.090528
 10
53.243102
 20
27.099573
 10
53.266053
 20
27.108342
 10
53.289183
 20
27.116822
 10
53.3125
 20
27.125
 10
53.418642
 20
27.161487
 10
53.526015
 20
27.198118
 10
53.580115
 20
27.216231
 10
53.634465
 20
27.234073
 10
53.689047
 20
27.251541
 10
53.74384
 20
27.268532
 10
53.798825
 20
27.284944
 10
53.853984
 20
27.300675
 10
53.909297
 20
27.315621
 10
53.964745
 20
27.32968
 10
54.020309
 20
27.34275
 10
54.075968
 20
27.354729
 10
54.103828
 20
27.360276
 10
54.131705
 20
27.365513
 10
54.159597
 20
27.370425
 10
54.1875
 20
27.375
 10
54.242587
 20
27.383406
 10
54.297488
 20
27.391211
 10
54.352231
 20
27.398416
 10
54.406845
 20
27.405022
 10
54.461358
 20
27.411027
 10
54.515799
 20
27.416433
 10
54.570197
 20
27.421239
 10
54.624579
 20
27.425444
 10
54.678974
 20
27.42905
 10
54.733411
 20
27.432056
 10
54.787918
 20
27.434463
 10
54.842523
 20
27.43627
 10
54.897256
 20
27.437477
 10
54.952144
 20
27.438084
 10
55.007216
 20
27.438092
 10
55.0625
 20
27.4375
 10
55.112175
 20
27.436265
 10
55.162531
 20
27.434178
 10
55.213456
 20
27.431291
 10
55.264833
 20
27.427653
 10
55.316549
 20
27.423315
 10
55.368489
 20
27.418326
 10
55.420539
 20
27.412737
 10
55.472583
 20
27.406598
 10
55.524508
 20
27.399959
 10
55.576198
 20
27.39287
 10
55.627539
 20
27.385382
 10
55.678416
 20
27.377544
 10
55.728716
 20
27.369407
 10
55.778323
 20
27.36102
 10
55.875
 20
27.3437
 10
55.918944
 20
27.334979
 10
55.962907
 20
27.325177
 10
56.006856
 20
27.314384
 10
56.050761
 20
27.302692
 10
56.09459
 20
27.290189
 10
56.138309
 20
27.276967
 10
56.181888
 20
27.263116
 10
56.225294
 20
27.248725
 10
56.268495
 20
27.233884
 10
56.311461
 20
27.218685
 10
56.396554
 20
27.18757
 10
56.480319
 20
27.156101
 10
56.5625
 20
27.125
 10
56.58329
 20
27.116866
 10
56.603725
 20
27.108326
 10
56.623845
 20
27.099418
 10
56.643691
 20
27.090185
 10
56.682717
 20
27.070902
 10
56.721124
 20
27.0508
 10
56.797371
 20
27.009441
 10
56.835852
 20
26.988831
 10
56.875
 20
26.9687
 10
57.0625
 20
26.875
 10
57.119351
 20
26.845844
 10
57.178485
 20
26.815038
 10
57.208804
 20
26.799529
 10
57.239568
 20
26.784224
 10
57.270736
 20
26.769327
 10
57.302266
 20
26.755043
 10
57.334115
 20
26.741579
 10
57.366243
 20
26.729139
 10
57.382398
 20
26.723367
 10
57.398606
 20
26.717928
 10
57.414863
 20
26.712848
 10
57.431164
 20
26.708152
 10
57.447503
 20
26.703866
 10
57.463874
 20
26.700016
 10
57.480273
 20
26.696627
 10
57.496695
 20
26.693725
 10
57.513133
 20
26.691336
 10
57.529584
 20
26.689485
 10
57.546041
 20
26.688198
 10
57.5625
 20
26.6875
 10
57.579179
 20
26.687386
 10
57.595676
 20
26.687832
 10
57.612004
 20
26.688814
 10
57.628173
 20
26.690309
 10
57.644198
 20
26.692294
 10
57.660089
 20
26.694744
 10
57.675859
 20
26.697635
 10
57.69152
 20
26.700946
 10
57.707084
 20
26.704651
 10
57.722564
 20
26.708728
 10
57.737971
 20
26.713152
 10
57.753318
 20
26.717901
 10
57.783881
 20
26.728277
 10
57.814349
 20
26.739666
 10
57.84482
 20
26.751881
 10
57.87539
 20
26.764732
 10
57.937222
 20
26.79159
 10
57.968677
 20
26.80522
 10
58.000623
 20
26.818732
 10
58.033155
 20
26.831937
 10
58.066372
 20
26.844648
 10
58.100412
 20
26.857837
 10
58.134387
 20
26.872171
 10
58.168279
 20
26.887529
 10
58.202072
 20
26.903789
 10
58.235749
 20
26.920829
 10
58.269293
 20
26.938528
 10
58.302687
 20
26.956764
 10
58.335914
 20
26.975416
 10
58.4018
 20
27.01348
 10
58.466817
 20
27.051747
 10
58.530828
 20
27.089245
 10
58.562415
 20
27.107401
 10
58.5937
 20
27.125
 10
58.653366
 20
27.158679
 10
58.68252
 20
27.175688
 10
58.711165
 20
27.192894
 10
58.73926
 20
27.21036
 10
58.766763
 20
27.228148
 10
58.793632
 20
27.24632
 10
58.819824
 20
27.264939
 10
58.845299
 20
27.284068
 10
58.870014
 20
27.303769
 10
58.893927
 20
27.324106
 10
58.916996
 20
27.345139
 10
58.928202
 20
27.355937
 10
58.93918
 20
27.366933
 10
58.949927
 20
27.378134
 10
58.960437
 20
27.389549
 10
58.970704
 20
27.401185
 10
58.980724
 20
27.413051
 10
58.990491
 20
27.425153
 10
59.0
 20
27.4375
 10
65.0625
 20
35.5
 10
65.077119
 20
35.518435
 10
65.09273
 20
35.53621
 10
65.109284
 20
35.553317
 10
65.126732
 20
35.569746
 10
65.145025
 20
35.585489
 10
65.164116
 20
35.600537
 10
65.183955
 20
35.614881
 10
65.204494
 20
35.628512
 10
65.225685
 20
35.641421
 10
65.247479
 20
35.6536
 10
65.269827
 20
35.665039
 10
65.292681
 20
35.67573
 10
65.315992
 20
35.685663
 10
65.339711
 20
35.694831
 10
65.363791
 20
35.703223
 10
65.388183
 20
35.710831
 10
65.412837
 20
35.717647
 10
65.437706
 20
35.72366
 10
65.462741
 20
35.728863
 10
65.487893
 20
35.733247
 10
65.513114
 20
35.736802
 10
65.538356
 20
35.739521
 10
65.563569
 20
35.741393
 10
65.588705
 20
35.74241
 10
65.613715
 20
35.742563
 10
65.638552
 20
35.741843
 10
65.663166
 20
35.740242
 10
65.68751
 20
35.73775
 10
65.711533
 20
35.734359
 10
65.735188
 20
35.730059
 10
65.758427
 20
35.724843
 10
65.7812
 20
35.7187
 10
71.0
 20
34.1875
 10
71.027122
 20
34.179142
 10
71.054348
 20
34.169911
 10
71.081553
 20
34.159789
 10
71.108607
 20
34.148753
 10
71.135383
 20
34.136783
 10
71.161753
 20
34.123858
 10
71.187589
 20
34.109957
 10
71.200267
 20
34.102634
 10
71.212763
 20
34.09506
 10
71.225062
 20
34.087231
 10
71.237148
 20
34.079145
 10
71.249005
 20
34.070799
 10
71.260616
 20
34.062191
 10
71.271966
 20
34.053319
 10
71.283038
 20
34.044179
 10
71.293818
 20
34.034769
 10
71.304288
 20
34.025086
 10
71.314433
 20
34.015129
 10
71.324237
 20
34.004893
 10
71.333683
 20
33.994377
 10
71.342757
 20
33.983578
 10
71.351441
 20
33.972494
 10
71.359721
 20
33.961121
 10
71.367579
 20
33.949457
 10
71.375
 20
33.9375
 10
72.75
 20
31.625
 10
72.764589
 20
31.599954
 10
72.778697
 20
31.574709
 10
72.792337
 20
31.549271
 10
72.805517
 20
31.523644
 10
72.818249
 20
31.497834
 10
72.830543
 20
31.471846
 10
72.84241
 20
31.445684
 10
72.85386
 20
31.419354
 10
72.864904
 20
31.392861
 10
72.875553
 20
31.366209
 10
72.885817
 20
31.339404
 10
72.895706
 20
31.312451
 10
72.905232
 20
31.285355
 10
72.914405
 20
31.25812
 10
72.923235
 20
31.230753
 10
72.931734
 20
31.203257
 10
72.939911
 20
31.175638
 10
72.947777
 20
31.147901
 10
72.955343
 20
31.120051
 10
72.962619
 20
31.092093
 10
72.976346
 20
31.035873
 10
72.989041
 20
30.979281
 10
73.000789
 20
30.922358
 10
73.011675
 20
30.865143
 10
73.021784
 20
30.807677
 10
73.0312
 20
30.75
 10
73.040462
 20
30.692937
 10
73.050182
 20
30.635651
 10
73.07021
 20
30.520431
 10
73.080129
 20
30.462503
 10
73.089725
 20
30.404368
 10
73.098803
 20
30.346031
 10
73.107167
 20
30.287495
 10
73.114623
 20
30.228764
 10
73.11795
 20
30.199326
 10
73.120976
 20
30.169841
 10
73.123678
 20
30.140309
 10
73.12603
 20
30.110731
 10
73.12801
 20
30.081106
 10
73.129591
 20
30.051437
 10
73.130751
 20
30.021722
 10
73.131463
 20
29.991963
 10
73.131706
 20
29.96216
 10
73.131452
 20
29.932313
 10
73.13068
 20
29.902423
 10
73.129363
 20
29.872491
 10
73.127478
 20
29.842516
 10
73.125
 20
29.8125
 10
73.115195
 20
29.702358
 10
73.105575
 20
29.592306
 10
73.100545
 20
29.537335
 10
73.095215
 20
29.48241
 10
73.089469
 20
29.42754
 10
73.083192
 20
29.372733
 10
73.076268
 20
29.317996
 10
73.068583
 20
29.263339
 10
73.060019
 20
29.208768
 10
73.050463
 20
29.154293
 10
73.039799
 20
29.09992
 10
73.034015
 20
29.072775
 10
73.02791
 20
29.045658
 10
73.021471
 20
29.018572
 10
73.014683
 20
28.991516
 10
73.00753
 20
28.964491
 10
73.0
 20
28.9375
 10
72.992298
 20
28.911281
 10
72.984231
 20
28.885096
 10
72.975822
 20
28.858946
 10
72.967096
 20
28.832833
 10
72.94878
 20
28.780729
 10
72.929469
 20
28.728798
 10
72.909348
 20
28.677057
 10
72.888601
 20
28.625521
 10
72.845974
 20
28.523131
 10
72.803069
 20
28.421757
 10
72.781975
 20
28.37149
 10
72.761368
 20
28.321524
 10
72.741431
 20
28.271877
 10
72.722351
 20
28.222563
 10
72.704312
 20
28.173599
 10
72.6875
 20
28.125
 10
72.625
 20
27.9375
 10
72.618606
 20
27.917788
 10
72.612594
 20
27.898176
 10
72.606953
 20
27.878654
 10
72.601676
 20
27.859215
 10
72.596751
 20
27.839848
 10
72.59217
 20
27.820545
 10
72.587923
 20
27.801298
 10
72.584001
 20
27.782097
 10
72.577092
 20
27.743802
 10
72.571368
 20
27.705587
 10
72.566751
 20
27.667385
 10
72.563166
 20
27.629123
 10
72.560537
 20
27.590733
 10
72.558787
 20
27.552144
 10
72.557841
 20
27.513285
 10
72.557623
 20
27.474087
 10
72.558055
 20
27.43448
 10
72.559063
 20
27.394393
 10
72.56057
 20
27.353757
 10
72.5625
 20
27.3125
 10
72.56608
 20
27.245717
 10
72.570218
 20
27.176928
 10
72.575016
 20
27.106756
 10
72.580576
 20
27.035821
 10
72.587001
 20
26.964743
 10
72.594394
 20
26.894144
 10
72.598485
 20
26.859218
 10
72.602856
 20
26.824645
 10
72.607521
 20
26.790502
 10
72.612492
 20
26.756867
 10
72.616628
 20
26.733041
 10
72.621823
 20
26.707361
 10
72.633973
 20
26.652901
 10
72.646111
 20
26.598424
 10
72.65129
 20
26.572721
 10
72.655404
 20
26.548866
 10
72.661087
 20
26.508148
 10
72.665587
 20
26.46928
 10
72.669211
 20
26.43165
 10
72.672265
 20
26.394647
 10
72.677889
 20
26.320075
 10
72.681073
 20
26.281284
 10
72.684912
 20
26.240673
 10
72.686568
 20
26.222355
 10
72.687842
 20
26.203766
 10
72.689402
 20
26.165932
 10
72.689904
 20
26.127495
 10
72.689662
 20
26.088775
 10
72.688194
 20
26.011773
 10
72.687594
 20
25.974134
 10
72.6875
 20
25.9375
 10
72.688133
 20
25.904956
 10
72.689306
 20
25.873414
 10
72.691832
 20
25.81207
 10
72.692463
 20
25.781637
 10
72.692192
 20
25.750941
 10
72.691605
 20
25.735397
 10
72.690658
 20
25.719668
 10
72.689304
 20
25.703715
 10
72.6875
 20
25.6875
 10
72.4375
 20
23.6875
 10
72.433431
 20
23.658528
 10
72.428459
 20
23.629383
 10
72.422615
 20
23.600147
 10
72.415929
 20
23.570905
 10
72.408432
 20
23.54174
 10
72.400154
 20
23.512737
 10
72.391127
 20
23.483978
 10
72.38138
 20
23.455549
 10
72.370946
 20
23.427532
 10
72.359853
 20
23.400011
 10
72.348133
 20
23.37307
 10
72.335817
 20
23.346794
 10
72.322935
 20
23.321264
 10
72.309517
 20
23.296566
 10
72.295596
 20
23.272784
 10
72.2812
 20
23.25
 10
72.265574
 20
23.225732
 10
72.250274
 20
23.201177
 10
72.22015
 20
23.151544
 10
72.189822
 20
23.101784
 10
72.174268
 20
23.07707
 10
72.158287
 20
23.052581
 10
72.141754
 20
23.028401
 10
72.124542
 20
23.004618
 10
72.106526
 20
22.981314
 10
72.087581
 20
22.958577
 10
72.077721
 20
22.947448
 10
72.067582
 20
22.936492
 10
72.057147
 20
22.92572
 10
72.046402
 20
22.915144
 10
72.03533
 20
22.904773
 10
72.023917
 20
22.894618
 10
72.012145
 20
22.88469
 10
72.0
 20
22.875
 10
71.97251
 20
22.852994
 10
71.938447
 20
22.825057
 10
71.898886
 20
22.792834
 10
71.8549
 20
22.75797
 10
71.831584
 20
22.740062
 10
71.807564
 20
22.72211
 10
71.782976
 20
22.70432
 10
71.757953
 20
22.686899
 10
71.73263
 20
22.67005
 10
71.70714
 20
22.65398
 10
71.681619
 20
22.638895
 10
71.6562
 20
22.625
 10
71.638225
 20
22.616116
 10
71.620339
 20
22.608213
 10
71.602645
 20
22.601223
 10
71.585247
 20
22.595078
 10
71.56825
 20
22.58971
 10
71.551758
 20
22.585051
 10
71.535875
 20
22.581033
 10
71.520704
 20
22.577588
 10
71.492918
 20
22.572145
 10
71.469234
 20
22.568179
 10
71.450483
 20
22.565145
 10
71.443219
 20
22.563808
 10
71.4375
 20
22.5625
 10
71.386627
 20
22.548753
 10
71.361214
 20
22.541424
 10
71.335945
 20
22.533493
 10
71.310918
 20
22.524737
 10
71.298525
 20
22.519979
 10
71.286228
 20
22.51493
 10
71.27404
 20
22.509564
 10
71.261972
 20
22.50385
 10
71.250038
 20
22.497763
 10
71.238248
 20
22.491273
 10
71.174956
 20
22.454949
 10
71.112383
 20
22.418651
 10
71.050494
 20
22.38213
 10
70.98925
 20
22.345138
 10
70.928615
 20
22.307426
 10
70.898515
 20
22.288224
 10
70.868553
 20
22.268748
 10
70.838726
 20
22.248969
 10
70.809027
 20
22.228856
 10
70.779454
 20
22.208376
 10
70.75
 20
22.1875
 10
70.73465
 20
22.17626
 10
70.71943
 20
22.164666
 10
70.704337
 20
22.152739
 10
70.689369
 20
22.140499
 10
70.659802
 20
22.115155
 10
70.630709
 20
22.088791
 10
70.602076
 20
22.061564
 10
70.573884
 20
22.033631
 10
70.546116
 20
22.005149
 10
70.518756
 20
21.976275
 10
70.46519
 20
21.917979
 10
70.41305
 20
21.859997
 10
70.362198
 20
21.803586
 10
70.337214
 20
21.776361
 10
70.3125
 20
21.75
 10
70.300263
 20
21.736636
 10
70.288518
 20
21.722854
 10
70.277246
 20
21.708674
 10
70.266424
 20
21.694119
 10
70.256033
 20
21.679207
 10
70.246052
 20
21.663961
 10
70.236461
 20
21.648402
 10
70.227237
 20
21.632549
 10
70.218361
 20
21.616425
 10
70.209812
 20
21.600051
 10
70.201569
 20
21.583446
 10
70.193612
 20
21.566632
 10
70.178471
 20
21.532461
 10
70.164223
 20
21.497706
 10
70.150703
 20
21.462533
 10
70.137744
 20
21.42711
 10
70.112848
 20
21.356184
 10
70.100579
 20
21.321016
 10
70.088208
 20
21.286268
 10
70.075571
 20
21.252107
 10
70.0625
 20
21.2187
  0
LWPOLYLINE
  5
2B
330
1F
100
AcDbEntity
  8
0
100
AcDbPolyline
 90
        5
 70
   128
 43
0.0
 10
8.25
 20
2.75
 10
15.25
 20
2.75
 10
15.25
 20
3.5625
 10
8.25
 20
3.5625
 10
8.25
 20
2.75
  0
LWPOLYLINE
  5
2C
330
1F
100
AcDbEntity
  8
0
100
AcDbPolyline
 90
        5
 70
   128
 43
0.0
 10
7.375
 20
6.9375
 10
8.1875
 20
6.9375
 10
8.1875
 20
20.9375
 10
7.375
 20
20.9375
 10
7.375
 20
6.9375
  0
LWPOLYLINE
  5
2D
330
1F
100
AcDbEntity
  8
0
100
AcDbPolyline
 90
        5
 70
   128
 43
0.0
 10
9.5
 20
21.0
 10
13.5
 20
21.0
 10
13.5
 20
21.8125
 10
9.5
 20
21.8125
 10
9.5
 20
21.0
  0
LWPOLYLINE
  5
2E
330
1F
100
AcDbEntity
  8
0
100
AcDbPolyline
 90
        5
 70
   128
 43
0.0
 10
13.5375
 20
6.5
 10
15.0375
 20
6.5
 10
15.0375
 20
8.0
 10
13.5375
 20
8.0
 10
13.5375
 20
6.5
  0
LWPOLYLINE
  5
2F
330
1F
100
AcDbEntity
  8
0
100
AcDbPolyline
 90
        5
 70
   128
 43
0.0
 10
17.625
 20
5.4375
 10
18.4375
 20
5.4375
 10
18.4375
 20
27.0625
 10
17.625
 20
27.0625
 10
17.625
 20
5.4375
  0
LWPOLYLINE
  5
30
330
1F
100
AcDbEntity
  8
0
100
AcDbPolyline
 90
        5
 70
   128
 43
0.0
 10
35.0625
 20
2.75
 10
61.0625
 20
2.75
 10
61.0625
 20
3.5625
 10
35.0625
 20
3.5625
 10
35.0625
 20
2.75
  0
LWPOLYLINE
  5
31
330
1F
100
AcDbEntity
  8
0
100
AcDbPolyline
 90
        5
 70
   128
 43
0.0
 10
62.72868
 20
20.2225
 10
62.92658
 20
20.945919
 10
43.635401
 20
26.223266
 10
43.4375
 20
25.499847
 10
62.72868
 20
20.2225
  0
LWPOLYLINE
  5
32
330
1F
100
AcDbEntity
  8
0
100
AcDbPolyline
 90
        9
 70
   128
 43
0.0
 10
2.5
 20
27.1725
 10
2.5
 20
8.86
 10
4.5625
 20
8.86
 10
4.55451
 20
27.138378
 10
33.249914
 20
27.145812
 10
33.25
 20
27.9375
 10
2.5
 20
27.9375
 10
2.5
 20
27.1875
 10
2.5
 20
27.1725
  0
LWPOLYLINE
  5
33
330
1F
100
AcDbEntity
  8
0
100
AcDbPolyline
 90
      168
 70
   128
 43
0.0
 10
40.508904
 20
20.312332
 10
33.5624
 20
20.3123
 10
33.5624
 20
27.9373
 10
36.2499
 20
27.9373
 10
36.25029
 20
27.933963
 42
0.414214
 10
36.50029
 20
27.683963
 42
0.414214
 10
36.75029
 20
27.933963
 10
36.7499
 20
27.9373
 10
36.7499
 20
28.5623
 10
38.0624
 20
28.5623
 10
38.0624
 20
32.5623
 10
40.1874
 20
32.5623
 10
40.220258
 20
32.562075
 10
40.253411
 20
32.56139
 10
40.286832
 20
32.56023
 10
40.320493
 20
32.558579
 10
40.354368
 20
32.55642
 10
40.388429
 20
32.55374
 10
40.422649
 20
32.550522
 10
40.457
 20
32.546751
 10
40.491455
 20
32.54241
 10
40.525988
 20
32.537486
 10
40.560569
 20
32.531961
 10
40.595173
 20
32.525821
 10
40.629772
 20
32.51905
 10
40.664339
 20
32.511632
 10
40.698846
 20
32.503551
 10
40.733267
 20
32.494794
 10
40.767573
 20
32.485342
 10
40.801737
 20
32.475182
 10
40.835733
 20
32.464298
 10
40.869533
 20
32.452673
 10
40.903109
 20
32.440293
 10
40.936435
 20
32.427142
 10
40.969482
 20
32.413204
 10
41.002225
 20
32.398465
 10
41.034635
 20
32.382907
 10
41.066685
 20
32.366516
 10
41.098348
 20
32.349276
 10
41.129596
 20
32.331172
 10
41.160403
 20
32.312188
 10
41.190741
 20
32.292308
 10
41.220582
 20
32.271517
 10
41.2499
 20
32.2498
 10
41.277496
 20
32.22808
 10
41.304565
 20
32.205495
 10
41.331096
 20
32.182084
 10
41.357075
 20
32.157885
 10
41.382492
 20
32.132934
 10
41.407334
 20
32.107268
 10
41.43159
 20
32.080927
 10
41.455247
 20
32.053947
 10
41.478294
 20
32.026365
 10
41.500718
 20
31.99822
 10
41.522508
 20
31.969548
 10
41.543652
 20
31.940387
 10
41.564137
 20
31.910775
 10
41.583952
 20
31.88075
 10
41.603085
 20
31.850348
 10
41.621524
 20
31.819607
 10
41.639256
 20
31.788565
 10
41.656271
 20
31.757259
 10
41.672556
 20
31.725728
 10
41.688099
 20
31.694007
 10
41.702888
 20
31.662135
 10
41.716911
 20
31.63015
 10
41.730157
 20
31.598089
 10
41.742613
 20
31.565989
 10
41.754267
 20
31.533888
 10
41.765108
 20
31.501823
 10
41.775124
 20
31.469832
 10
41.784302
 20
31.437953
 10
41.79263
 20
31.406222
 10
41.800097
 20
31.374678
 10
41.806691
 20
31.343358
 10
41.8124
 20
31.3123
 10
42.3124
 20
28.3748
 10
41.3124
 20
24.6873
 10
39.6249
 20
24.6873
 10
39.613815
 20
24.686917
 10
39.602673
 20
24.685787
 10
39.591501
 20
24.683936
 10
39.580325
 20
24.681391
 10
39.569173
 20
24.678179
 10
39.55807
 20
24.674327
 10
39.547045
 20
24.669861
 10
39.536124
 20
24.664809
 10
39.525333
 20
24.659196
 10
39.5147
 20
24.653051
 10
39.504251
 20
24.6464
 10
39.494014
 20
24.639269
 10
39.484014
 20
24.631686
 10
39.474279
 20
24.623677
 10
39.464835
 20
24.61527
 10
39.45571
 20
24.60649
 10
39.44693
 20
24.597365
 10
39.438523
 20
24.587921
 10
39.430514
 20
24.578186
 10
39.422931
 20
24.568186
 10
39.4158
 20
24.557949
 10
39.409149
 20
24.5475
 10
39.403004
 20
24.536867
 10
39.397391
 20
24.526076
 10
39.392339
 20
24.515155
 10
39.387873
 20
24.50413
 10
39.384021
 20
24.493027
 10
39.380809
 20
24.481875
 10
39.378264
 20
24.470699
 10
39.376413
 20
24.459527
 10
39.375283
 20
24.448385
 10
39.3749
 20
24.4373
 10
39.3749
 20
22.8123
 10
39.376289
 20
22.797002
 10
39.376569
 20
22.784137
 10
39.377399
 20
22.771441
 10
39.378767
 20
22.75893
 10
39.380657
 20
22.746618
 10
39.383058
 20
22.734523
 10
39.385955
 20
22.72266
 10
39.389336
 20
22.711044
 10
39.393185
 20
22.699691
 10
39.397491
 20
22.688617
 10
39.402239
 20
22.677837
 10
39.407416
 20
22.667368
 10
39.413008
 20
22.657225
 10
39.419002
 20
22.647423
 10
39.425385
 20
22.637979
 10
39.432143
 20
22.628908
 10
39.439261
 20
22.620225
 10
39.446728
 20
22.611948
 10
39.454529
 20
22.60409
 10
39.462651
 20
22.596668
 10
39.471081
 20
22.589698
 10
39.479804
 20
22.583195
 10
39.488808
 20
22.577176
 10
39.498078
 20
22.571655
 10
39.507602
 20
22.566648
 10
39.517365
 20
22.562172
 10
39.527355
 20
22.558242
 10
39.537558
 20
22.554873
 10
39.547959
 20
22.552081
 10
39.558547
 20
22.549883
 10
39.569307
 20
22.548293
 10
39.580226
 20
22.547327
 10
39.591289
 20
22.547002
 10
39.605377
 20
22.54753
 10
39.619223
 20
22.549093
 10
39.632798
 20
22.551657
 10
39.646074
 20
22.555191
 10
39.659024
 20
22.559662
 10
39.67162
 20
22.565036
 10
39.683833
 20
22.571282
 10
39.695635
 20
22.578367
 10
39.706999
 20
22.586258
 10
39.717896
 20
22.594923
 10
39.728298
 20
22.604329
 10
39.738178
 20
22.614443
 10
39.747507
 20
22.625234
 10
39.756257
 20
22.636667
 10
39.7644
 20
22.648712
 10
39.771908
 20
22.661334
 10
39.8124
 20
22.7498
 10
41.1874
 20
22.1873
 10
41.188541
 20
22.187195
 10
63.51702
 20
14.093893
 10
62.835479
 20
12.2136
 10
40.507
 20
20.306902
 10
40.508904
 20
20.312332
  0
LWPOLYLINE
  5
34
330
1F
100
AcDbEntity
  8
0
100
AcDbPolyline
 90
        8
 70
   128
 43
0.0
 10
31.71875
 20
5.4375
 10
31.71875
 20
27.0625
 10
32.5
 20
27.0625
 10
32.5
 20
5.4375
 10
32.5
 20
3.9375
 10
30.9375
 20
3.9375
 10
30.9375
 20
5.4375
 10
31.71875
 20
5.4375
  0
LWPOLYLINE
  5
35
330
1F
100
AcDbEntity
  8
0
100
AcDbPolyline
 90
       18
 70
   128
 43
0.0
 10
67.4375
 20
19.6875
 10
65.125
 20
20.3125
 10
65.125
 20
33.3125
 10
69.5625
 20
33.3125
 10
69.666795
 20
33.039728
 10
69.666858
 20
33.040009
 10
70.367414
 20
33.307816
 10
71.79572
 20
29.571516
 10
71.095163
 20
29.303708
 10
71.095334
 20
29.303551
 10
71.1875
 20
29.0625
 10
71.176357
 20
29.034643
 10
71.176485
 20
29.034582
 10
71.87128
 20
28.756807
 10
62.219407
 20
4.6147
 10
61.523
 20
4.893119
 10
67.437694
 20
19.687468
 10
67.4375
 20
19.6875
  0
LWPOLYLINE
  5
36
330
1F
100
AcDbEntity
  8
0
100
AcDbPolyline
 90
        5
 70
   128
 43
0.0
 10
2.5
 20
28.063
 42
0.414214
 10
2.3745
 20
27.9375
 42
0.414214
 10
2.5
 20
27.812
 42
0.414214
 10
2.6255
 20
27.9375
 42
0.414214
 10
2.5
 20
28.063
  0
LWPOLYLINE
  5
37
330
1F
100
AcDbEntity
  8
0
100
AcDbPolyline
 90
        5
 70
   128
 43
0.0
 10
2.5
 20
8.9855
 42
0.414214
 10
2.3745
 20
8.86
 42
0.414214
 10
2.5
 20
8.7345
 42
0.414214
 10
2.6255
 20
8.86
 42
0.414214
 10
2.5
 20
8.9855
  0
LWPOLYLINE
  5
38
330
1F
100
AcDbEntity
  8
0
100
AcDbPolyline
 90
        5
 70
   128
 43
0.0
 10
4.5625
 20
8.9855
 42
0.414214
 10
4.437
 20
8.86
 42
0.414214
 10
4.5625
 20
8.7345
 42
0.414214
 10
4.688
 20
8.86
 42
0.414214
 10
4.5625
 20
8.9855
  0
LWPOLYLINE
  5
39
330
1F
100
AcDbEntity
  8
0
100
AcDbPolyline
 90
        5
 70
   128
 43
0.0
 10
8.1875
 20
21.063
 42
0.414214
 10
8.062
 20
20.9375
 42
0.414214
 10
8.1875
 20
20.812
 42
0.414214
 10
8.313
 20
20.9375
 42
0.414214
 10
8.1875
 20
21.063
  0
LWPOLYLINE
  5
3A
330
1F
100
AcDbEntity
  8
0
100
AcDbPolyline
 90
        5
 70
   128
 43
0.0
 10
7.375
 20
21.063
 42
0.414214
 10
7.2495
 20
20.9375
 42
0.414214
 10
7.375
 20
20.812
 42
0.414214
 10
7.5005
 20
20.9375
 42
0.414214
 10
7.375
 20
21.063
  0
LWPOLYLINE
  5
3B
330
1F
100
AcDbEntity
  8
0
100
AcDbPolyline
 90
        5
 70
   128
 43
0.0
 10
7.375
 20
7.063
 42
0.414214
 10
7.2495
 20
6.9375
 42
0.414214
 10
7.375
 20
6.812
 42
0.414214
 10
7.5005
 20
6.9375
 42
0.414214
 10
7.375
 20
7.063
  0
LWPOLYLINE
  5
3C
330
1F
100
AcDbEntity
  8
0
100
AcDbPolyline
 90
        5
 70
   128
 43
0.0
 10
8.1875
 20
7.063
 42
0.414214
 10
8.062
 20
6.9375
 42
0.414214
 10
8.1875
 20
6.812
 42
0.414214
 10
8.313
 20
6.9375
 42
0.414214
 10
8.1875
 20
7.063
  0
LWPOLYLINE
  5
3D
330
1F
100
AcDbEntity
  8
0
100
AcDbPolyline
 90
        5
 70
   128
 43
0.0
 10
8.25
 20
3.688
 42
0.414214
 10
8.1245
 20
3.5625
 42
0.414214
 10
8.25
 20
3.437
 42
0.414214
 10
8.3755
 20
3.5625
 42
0.414214
 10
8.25
 20
3.688
  0
LWPOLYLINE
  5
3E
330
1F
100
AcDbEntity
  8
0
100
AcDbPolyline
 90
        5
 70
   128
 43
0.0
 10
8.25
 20
2.8755
 42
0.414214
 10
8.1245
 20
2.75
 42
0.414214
 10
8.25
 20
2.6245
 42
0.414214
 10
8.3755
 20
2.75
 42
0.414214
 10
8.25
 20
2.8755
  0
LWPOLYLINE
  5
3F
330
1F
100
AcDbEntity
  8
0
100
AcDbPolyline
 90
        5
 70
   128
 43
0.0
 10
15.25
 20
2.8755
 42
0.414214
 10
15.1245
 20
2.75
 42
0.414214
 10
15.25
 20
2.6245
 42
0.414214
 10
15.3755
 20
2.75
 42
0.414214
 10
15.25
 20
2.8755
  0
LWPOLYLINE
  5
40
330
1F
100
AcDbEntity
  8
0
100
AcDbPolyline
 90
        5
 70
   128
 43
0.0
 10
15.25
 20
3.688
 42
0.414214
 10
15.1245
 20
3.5625
 42
0.414214
 10
15.25
 20
3.437
 42
0.414214
 10
15.3755
 20
3.5625
 42
0.414214
 10
15.25
 20
3.688
  0
LWPOLYLINE
  5
41
330
1F
100
AcDbEntity
  8
0
100
AcDbPolyline
 90
        5
 70
   128
 43
0.0
 10
13.5375
 20
6.6255
 42
0.414214
 10
13.412
 20
6.5
 42
0.414214
 10
13.5375
 20
6.3745
 42
0.414214
 10
13.663
 20
6.5
 42
0.414214
 10
13.5375
 20
6.6255
  0
LWPOLYLINE
  5
42
330
1F
100
AcDbEntity
  8
0
100
AcDbPolyline
 90
        5
 70
   128
 43
0.0
 10
15.0375
 20
6.6255
 42
0.414214
 10
14.912
 20
6.5
 42
0.414214
 10
15.0375
 20
6.3745
 42
0.414214
 10
15.163
 20
6.5
 42
0.414214
 10
15.0375
 20
6.6255
  0
LWPOLYLINE
  5
43
330
1F
100
AcDbEntity
  8
0
100
AcDbPolyline
 90
        5
 70
   128
 43
0.0
 10
15.0375
 20
8.1255
 42
0.414214
 10
14.912
 20
8.0
 42
0.414214
 10
15.0375
 20
7.8745
 42
0.414214
 10
15.163
 20
8.0
 42
0.414214
 10
15.0375
 20
8.1255
  0
LWPOLYLINE
  5
44
330
1F
100
AcDbEntity
  8
0
100
AcDbPolyline
 90
        5
 70
   128
 43
0.0
 10
13.5375
 20
8.1255
 42
0.414214
 10
13.412
 20
8.0
 42
0.414214
 10
13.5375
 20
7.8745
 42
0.414214
 10
13.663
 20
8.0
 42
0.414214
 10
13.5375
 20
8.1255
  0
LWPOLYLINE
  5
45
330
1F
100
AcDbEntity
  8
0
100
AcDbPolyline
 90
        5
 70
   128
 43
0.0
 10
17.625
 20
5.563
 42
0.414214
 10
17.4995
 20
5.4375
 42
0.414214
 10
17.625
 20
5.312
 42
0.414214
 10
17.7505
 20
5.4375
 42
0.414214
 10
17.625
 20
5.563
  0
LWPOLYLINE
  5
46
330
1F
100
AcDbEntity
  8
0
100
AcDbPolyline
 90
        5
 70
   128
 43
0.0
 10
18.4375
 20
5.563
 42
0.414214
 10
18.312
 20
5.4375
 42
0.414214
 10
18.4375
 20
5.312
 42
0.414214
 10
18.563
 20
5.4375
 42
0.414214
 10
18.4375
 20
5.563
  0
LWPOLYLINE
  5
47
330
1F
100
AcDbEntity
  8
0
100
AcDbPolyline
 90
        5
 70
   128
 43
0.0
 10
18.4375
 20
27.0625
 42
0.414214
 10
18.312
 20
26.937
 42
0.414214
 10
18.4375
 20
26.8115
 42
0.414214
 10
18.563
 20
26.937
 42
0.414214
 10
18.4375
 20
27.0625
  0
LWPOLYLINE
  5
48
330
1F
100
AcDbEntity
  8
0
100
AcDbPolyline
 90
        5
 70
   128
 43
0.0
 10
17.625
 20
27.0625
 42
0.414214
 10
17.4995
 20
26.937
 42
0.414214
 10
17.625
 20
26.8115
 42
0.414214
 10
17.7505
 20
26.937
 42
0.414214
 10
17.625
 20
27.0625
  0
LWPOLYLINE
  5
49
330
1F
100
AcDbEntity
  8
0
100
AcDbPolyline
 90
        5
 70
   128
 43
0.0
 10
31.7188
 20
27.0625
 42
0.414214
 10
31.5933
 20
26.937
 42
0.414214
 10
31.7188
 20
26.8115
 42
0.414214
 10
31.8443
 20
26.937
 42
0.414214
 10
31.7188
 20
27.0625
  0
LWPOLYLINE
  5
4A
330
1F
100
AcDbEntity
  8
0
100
AcDbPolyline
 90
        5
 70
   128
 43
0.0
 10
32.5
 20
27.0625
 42
0.414214
 10
32.3745
 20
26.937
 42
0.414214
 10
32.5
 20
26.8115
 42
0.414214
 10
32.6255
 20
26.937
 42
0.414214
 10
32.5
 20
27.0625
  0
LWPOLYLINE
  5
4B
330
1F
100
AcDbEntity
  8
0
100
AcDbPolyline
 90
        5
 70
   128
 43
0.0
 10
30.9375
 20
5.563
 42
0.414214
 10
30.812
 20
5.4375
 42
0.414214
 10
30.9375
 20
5.312
 42
0.414214
 10
31.063
 20
5.4375
 42
0.414214
 10
30.9375
 20
5.563
  0
LWPOLYLINE
  5
4C
330
1F
100
AcDbEntity
  8
0
100
AcDbPolyline
 90
        5
 70
   128
 43
0.0
 10
30.9375
 20
4.063
 42
0.414214
 10
30.812
 20
3.9375
 42
0.414214
 10
30.9375
 20
3.812
 42
0.414214
 10
31.063
 20
3.9375
 42
0.414214
 10
30.9375
 20
4.063
  0
LWPOLYLINE
  5
4D
330
1F
100
AcDbEntity
  8
0
100
AcDbPolyline
 90
        5
 70
   128
 43
0.0
 10
32.5
 20
4.063
 42
0.414214
 10
32.3745
 20
3.9375
 42
0.414214
 10
32.5
 20
3.812
 42
0.414214
 10
32.6255
 20
3.9375
 42
0.414214
 10
32.5
 20
4.063
  0
LWPOLYLINE
  5
4E
330
1F
100
AcDbEntity
  8
0
100
AcDbPolyline
 90
        5
 70
   128
 43
0.0
 10
35.0625
 20
2.8755
 42
0.414214
 10
34.937
 20
2.75
 42
0.414214
 10
35.0625
 20
2.6245
 42
0.414214
 10
35.188
 20
2.75
 42
0.414214
 10
35.0625
 20
2.8755
  0
LWPOLYLINE
  5
4F
330
1F
100
AcDbEntity
  8
0
100
AcDbPolyline
 90
        5
 70
   128
 43
0.0
 10
35.0625
 20
3.688
 42
0.414214
 10
34.937
 20
3.5625
 42
0.414214
 10
35.0625
 20
3.437
 42
0.414214
 10
35.188
 20
3.5625
 42
0.414214
 10
35.0625
 20
3.688
  0
LWPOLYLINE
  5
50
330
1F
100
AcDbEntity
  8
0
100
AcDbPolyline
 90
        5
 70
   128
 43
0.0
 10
61.0625
 20
2.8755
 42
0.414214
 10
60.937
 20
2.75
 42
0.414214
 10
61.0625
 20
2.6245
 42
0.414214
 10
61.188
 20
2.75
 42
0.414214
 10
61.0625
 20
2.8755
  0
LWPOLYLINE
  5
51
330
1F
100
AcDbEntity
  8
0
100
AcDbPolyline
 90
        5
 70
   128
 43
0.0
 10
61.0625
 20
3.688
 42
0.414214
 10
60.937
 20
3.5625
 42
0.414214
 10
61.0625
 20
3.437
 42
0.414214
 10
61.188
 20
3.5625
 42
0.414214
 10
61.0625
 20
3.688
  0
LWPOLYLINE
  5
52
330
1F
100
AcDbEntity
  8
0
100
AcDbPolyline
 90
        5
 70
   128
 43
0.0
 10
62.2194
 20
4.7402
 42
0.414214
 10
62.0939
 20
4.6147
 42
0.414214
 10
62.2194
 20
4.4892
 42
0.414214
 10
62.3449
 20
4.6147
 42
0.414214
 10
62.2194
 20
4.7402
  0
LWPOLYLINE
  5
53
330
1F
100
AcDbEntity
  8
0
100
AcDbPolyline
 90
        5
 70
   128
 43
0.0
 10
61.523
 20
5.0186
 42
0.414214
 10
61.3975
 20
4.8931
 42
0.414214
 10
61.523
 20
4.7676
 42
0.414214
 10
61.6485
 20
4.8931
 42
0.414214
 10
61.523
 20
5.0186
  0
LWPOLYLINE
  5
54
330
1F
100
AcDbEntity
  8
0
100
AcDbPolyline
 90
        5
 70
   128
 43
0.0
 10
62.8355
 20
12.3391
 42
0.414214
 10
62.71
 20
12.2136
 42
0.414214
 10
62.8355
 20
12.0881
 42
0.414214
 10
62.961
 20
12.2136
 42
0.414214
 10
62.8355
 20
12.3391
  0
LWPOLYLINE
  5
55
330
1F
100
AcDbEntity
  8
0
100
AcDbPolyline
 90
        5
 70
   128
 43
0.0
 10
63.517
 20
14.2194
 42
0.414214
 10
63.3915
 20
14.0939
 42
0.414214
 10
63.517
 20
13.9684
 42
0.414214
 10
63.6425
 20
14.0939
 42
0.414214
 10
63.517
 20
14.2194
  0
LWPOLYLINE
  5
56
330
1F
100
AcDbEntity
  8
0
100
AcDbPolyline
 90
        5
 70
   128
 43
0.0
 10
39.8124
 20
22.8753
 42
0.414214
 10
39.6869
 20
22.7498
 42
0.414214
 10
39.8124
 20
22.6243
 42
0.414214
 10
39.9379
 20
22.7498
 42
0.414214
 10
39.8124
 20
22.8753
  0
LWPOLYLINE
  5
57
330
1F
100
AcDbEntity
  8
0
100
AcDbPolyline
 90
        5
 70
   128
 43
0.0
 10
41.3124
 20
24.8128
 42
0.414214
 10
41.1869
 20
24.6873
 42
0.414214
 10
41.3124
 20
24.5618
 42
0.414214
 10
41.4379
 20
24.6873
 42
0.414214
 10
41.3124
 20
24.8128
  0
LWPOLYLINE
  5
58
330
1F
100
AcDbEntity
  8
0
100
AcDbPolyline
 90
        5
 70
   128
 43
0.0
 10
33.5624
 20
20.4378
 42
0.414214
 10
33.4369
 20
20.3123
 42
0.414214
 10
33.5624
 20
20.1868
 42
0.414214
 10
33.6879
 20
20.3123
 42
0.414214
 10
33.5624
 20
20.4378
  0
LWPOLYLINE
  5
59
330
1F
100
AcDbEntity
  8
0
100
AcDbPolyline
 90
        5
 70
   128
 43
0.0
 10
33.124066
 20
27.2691
 42
0.414214
 10
32.998566
 20
27.1436
 42
0.414214
 10
33.124066
 20
27.0181
 42
0.414214
 10
33.249566
 20
27.1436
 42
0.414214
 10
33.124066
 20
27.2691
  0
LWPOLYLINE
  5
5A
330
1F
100
AcDbEntity
  8
0
100
AcDbPolyline
 90
        5
 70
   128
 43
0.0
 10
33.12526
 20
28.061584
 42
0.414214
 10
32.99976
 20
27.936084
 42
0.414214
 10
33.12526
 20
27.810584
 42
0.414214
 10
33.25076
 20
27.936084
 42
0.414214
 10
33.12526
 20
28.061584
  0
LWPOLYLINE
  5
5B
330
1F
100
AcDbEntity
  8
0
100
AcDbPolyline
 90
        5
 70
   128
 43
0.0
 10
33.68769
 20
28.05989
 42
0.414214
 10
33.56219
 20
27.93439
 42
0.414214
 10
33.68769
 20
27.80889
 42
0.414214
 10
33.81319
 20
27.93439
 42
0.414214
 10
33.68769
 20
28.05989
  0
LWPOLYLINE
  5
5C
330
1F
100
AcDbEntity
  8
0
100
AcDbPolyline
 90
        5
 70
   128
 43
0.0
 10
36.2501
 20
28.0611
 42
0.414214
 10
36.1246
 20
27.9356
 42
0.414214
 10
36.2501
 20
27.8101
 42
0.414214
 10
36.3756
 20
27.9356
 42
0.414214
 10
36.2501
 20
28.0611
  0
LWPOLYLINE
  5
5D
330
1F
100
AcDbEntity
  8
0
100
AcDbPolyline
 90
        5
 70
   128
 43
0.0
 10
36.7499
 20
28.6878
 42
0.414214
 10
36.6244
 20
28.5623
 42
0.414214
 10
36.7499
 20
28.4368
 42
0.414214
 10
36.8754
 20
28.5623
 42
0.414214
 10
36.7499
 20
28.6878
  0
LWPOLYLINE
  5
5E
330
1F
100
AcDbEntity
  8
0
100
AcDbPolyline
 90
        5
 70
   128
 43
0.0
 10
9.5
 20
21.938
 42
0.414214
 10
9.3745
 20
21.8125
 42
0.414214
 10
9.5
 20
21.687
 42
0.414214
 10
9.6255
 20
21.8125
 42
0.414214
 10
9.5
 20
21.938
  0
LWPOLYLINE
  5
5F
330
1F
100
AcDbEntity
  8
0
100
AcDbPolyline
 90
        5
 70
   128
 43
0.0
 10
9.5
 20
21.1255
 42
0.414214
 10
9.3745
 20
21.0
 42
0.414214
 10
9.5
 20
20.8745
 42
0.414214
 10
9.6255
 20
21.0
 42
0.414214
 10
9.5
 20
21.1255
  0
LWPOLYLINE
  5
60
330
1F
100
AcDbEntity
  8
0
100
AcDbPolyline
 90
        5
 70
   128
 43
0.0
 10
13.5
 20
21.1255
 42
0.414214
 10
13.3745
 20
21.0
 42
0.414214
 10
13.5
 20
20.8745
 42
0.414214
 10
13.6255
 20
21.0
 42
0.414214
 10
13.5
 20
21.1255
  0
LWPOLYLINE
  5
61
330
1F
100
AcDbEntity
  8
0
100
AcDbPolyline
 90
        5
 70
   128
 43
0.0
 10
13.5
 20
21.938
 42
0.414214
 10
13.3745
 20
21.8125
 42
0.414214
 10
13.5
 20
21.687
 42
0.414214
 10
13.6255
 20
21.8125
 42
0.414214
 10
13.5
 20
21.938
  0
LWPOLYLINE
  5
62
330
1F
100
AcDbEntity
  8
0
100
AcDbPolyline
 90
        5
 70
   128
 43
0.0
 10
38.0624
 20
32.6878
 42
0.414214
 10
37.9369
 20
32.5623
 42
0.414214
 10
38.0624
 20
32.4368
 42
0.414214
 10
38.1879
 20
32.5623
 42
0.414214
 10
38.0624
 20
32.6878
  0
LWPOLYLINE
  5
63
330
1F
100
AcDbEntity
  8
0
100
AcDbPolyline
 90
        5
 70
   128
 43
0.0
 10
42.3124
 20
28.5003
 42
0.414214
 10
42.1869
 20
28.3748
 42
0.414214
 10
42.3124
 20
28.2493
 42
0.414214
 10
42.4379
 20
28.3748
 42
0.414214
 10
42.3124
 20
28.5003
  0
LWPOLYLINE
  5
64
330
1F
100
AcDbEntity
  8
0
100
AcDbPolyline
 90
        5
 70
   128
 43
0.0
 10
43.6354
 20
26.3488
 42
0.414214
 10
43.5099
 20
26.2233
 42
0.414214
 10
43.6354
 20
26.0978
 42
0.414214
 10
43.7609
 20
26.2233
 42
0.414214
 10
43.6354
 20
26.3488
  0
LWPOLYLINE
  5
65
330
1F
100
AcDbEntity
  8
0
100
AcDbPolyline
 90
        5
 70
   128
 43
0.0
 10
43.4375
 20
25.6253
 42
0.414214
 10
43.312
 20
25.4998
 42
0.414214
 10
43.4375
 20
25.3743
 42
0.414214
 10
43.563
 20
25.4998
 42
0.414214
 10
43.4375
 20
25.6253
  0
LWPOLYLINE
  5
66
330
1F
100
AcDbEntity
  8
0
100
AcDbPolyline
 90
        5
 70
   128
 43
0.0
 10
62.7287
 20
20.348
 42
0.414214
 10
62.6032
 20
20.2225
 42
0.414214
 10
62.7287
 20
20.097
 42
0.414214
 10
62.8542
 20
20.2225
 42
0.414214
 10
62.7287
 20
20.348
  0
LWPOLYLINE
  5
67
330
1F
100
AcDbEntity
  8
0
100
AcDbPolyline
 90
        5
 70
   128
 43
0.0
 10
62.9266
 20
21.0714
 42
0.414214
 10
62.8011
 20
20.9459
 42
0.414214
 10
62.9266
 20
20.8204
 42
0.414214
 10
63.0521
 20
20.9459
 42
0.414214
 10
62.9266
 20
21.0714
  0
LWPOLYLINE
  5
68
330
1F
100
AcDbEntity
  8
0
100
AcDbPolyline
 90
        5
 70
   128
 43
0.0
 10
65.125
 20
20.438
 42
0.414214
 10
64.9995
 20
20.3125
 42
0.414214
 10
65.125
 20
20.187
 42
0.414214
 10
65.2505
 20
20.3125
 42
0.414214
 10
65.125
 20
20.438
  0
LWPOLYLINE
  5
69
330
1F
100
AcDbEntity
  8
0
100
AcDbPolyline
 90
        5
 70
   128
 43
0.0
 10
65.125
 20
33.438
 42
0.414214
 10
64.9995
 20
33.3125
 42
0.414214
 10
65.125
 20
33.187
 42
0.414214
 10
65.2505
 20
33.3125
 42
0.414214
 10
65.125
 20
33.438
  0
LWPOLYLINE
  5
6A
330
1F
100
AcDbEntity
  8
0
100
AcDbPolyline
 90
        5
 70
   128
 43
0.0
 10
69.5625
 20
33.438
 42
0.414214
 10
69.437
 20
33.3125
 42
0.414214
 10
69.5625
 20
33.187
 42
0.414214
 10
69.688
 20
33.3125
 42
0.414214
 10
69.5625
 20
33.438
  0
LWPOLYLINE
  5
6B
330
1F
100
AcDbEntity
  8
0
100
AcDbPolyline
 90
        5
 70
   128
 43
0.0
 10
70.3674
 20
33.4333
 42
0.414214
 10
70.2419
 20
33.3078
 42
0.414214
 10
70.3674
 20
33.1823
 42
0.414214
 10
70.4929
 20
33.3078
 42
0.414214
 10
70.3674
 20
33.4333
  0
LWPOLYLINE
  5
6C
330
1F
100
AcDbEntity
  8
0
100
AcDbPolyline
 90
        5
 70
   128
 43
0.0
 10
71.7957
 20
29.697
 42
0.414214
 10
71.6702
 20
29.5715
 42
0.414214
 10
71.7957
 20
29.446
 42
0.414214
 10
71.9212
 20
29.5715
 42
0.414214
 10
71.7957
 20
29.697
  0
LWPOLYLINE
  5
6D
330
1F
100
AcDbEntity
  8
0
100
AcDbPolyline
 90
        5
 70
   128
 43
0.0
 10
71.8713
 20
28.8823
 42
0.414214
 10
71.7458
 20
28.7568
 42
0.414214
 10
71.8713
 20
28.6313
 42
0.414214
 10
71.9968
 20
28.7568
 42
0.414214
 10
71.8713
 20
28.8823
  0
ENDSEC
  0
SECTION
  2
OBJECTS
  0
DICTIONARY
  5
C
330
0
100
AcDbDictionary
281
     1
  3
ACAD_GROUP
350
D
  3
ACAD_LAYOUT
350
1A
  3
ACAD_MLINESTYLE
350
17
  3
ACAD_PLOTSETTINGS
350
19
  3
ACAD_PLOTSTYLENAME
350
E
  0
DICTIONARY
  5
D
102
{ACAD_REACTORS
330
C
102
}
330
C
100
AcDbDictionary
281
     1
  0
DICTIONARY
  5
1A
102
{ACAD_REACTORS
330
C
102
}
330
C
100
AcDbDictionary
281
     1
  3
Layout1
350
1E
  3
Layout2
350
26
  3
Model
350
22
  0
DICTIONARY
  5
17
102
{ACAD_REACTORS
330
C
102
}
330
C
100
AcDbDictionary
281
     1
  3
Standard
350
18
  0
DICTIONARY
  5
19
102
{ACAD_REACTORS
330
C
102
}
330
C
100
AcDbDictionary
281
     1
  0
ACDBDICTIONARYWDFLT
  5
E
102
{ACAD_REACTORS
330
C
102
}
330
C
100
AcDbDictionary
281
     1
  3
Normal
350
F
100
AcDbDictionaryWithDefault
340
F
  0
LAYOUT
  5
1E
102
{ACAD_REACTORS
330
1A
102
}
330
1A
100
AcDbPlotSettings
  1

  2

  4

  6

 40
0.0
 41
0.0
 42
0.0
 43
0.0
 44
0.0
 45
0.0
 46
0.0
 47
0.0
 48
0.0
 49
0.0
140
0.0
141
0.0
142
1.0
143
1.0
 70
   688
 72
     0
 73
     0
 74
     5
  7

 75
    16
147
1.0
148
0.0
149
0.0
100
AcDbLayout
  1
Layout1
 70
     1
 71
     1
 10
0.0
 20
0.0
 11
420.0
 21
297.0
 12
0.0
 22
0.0
 32
0.0
 14
1.000000E+20
 24
1.000000E+20
 34
1.000000E+20
 15
-1.000000E+20
 25
-1.000000E+20
 35
-1.000000E+20
146
0.0
 13
0.0
 23
0.0
 33
0.0
 16
1.0
 26
0.0
 36
0.0
 17
0.0
 27
1.0
 37
0.0
 76
     0
330
1B
  0
LAYOUT
  5
26
102
{ACAD_REACTORS
330
1A
102
}
330
1A
100
AcDbPlotSettings
  1

  2

  4

  6

 40
0.0
 41
0.0
 42
0.0
 43
0.0
 44
0.0
 45
0.0
 46
0.0
 47
0.0
 48
0.0
 49
0.0
140
0.0
141
0.0
142
1.0
143
1.0
 70
   688
 72
     0
 73
     0
 74
     5
  7

 75
    16
147
1.0
148
0.0
149
0.0
100
AcDbLayout
  1
Layout2
 70
     1
 71
     2
 10
0.0
 20
0.0
 11
0.0
 21
0.0
 12
0.0
 22
0.0
 32
0.0
 14
0.0
 24
0.0
 34
0.0
 15
0.0
 25
0.0
 35
0.0
146
0.0
 13
0.0
 23
0.0
 33
0.0
 16
1.0
 26
0.0
 36
0.0
 17
0.0
 27
1.0
 37
0.0
 76
     0
330
23
  0
LAYOUT
  5
22
102
{ACAD_REACTORS
330
1A
102
}
330
1A
100
AcDbPlotSettings
  1

  2

  4

  6

 40
0.0
 41
0.0
 42
0.0
 43
0.0
 44
0.0
 45
0.0
 46
0.0
 47
0.0
 48
0.0
 49
0.0
140
0.0
141
0.0
142
1.0
143
1.0
 70
  1712
 72
     0
 73
     0
 74
     0
  7

 75
     0
147
1.0
148
0.0
149
0.0
100
AcDbLayout
  1
Model
 70
     1
 71
     0
 10
0.0
 20
0.0
 11
0.0
 21
0.0
 12
0.0
 22
0.0
 32
0.0
 14
0.0
 24
0.0
 34
0.0
 15
0.0
 25
0.0
 35
0.0
146
0.0
 13
0.0
 23
0.0
 33
0.0
 16
1.0
 26
0.0
 36
0.0
 17
0.0
 27
1.0
 37
0.0
 76
     0
330
1F
  0
MLINESTYLE
  5
18
102
{ACAD_REACTORS
330
17
102
}
330
17
100
AcDbMlineStyle
  2
Standard
 70
     0
  3

 62
   256
 51
90.0
 52
90.0
 71
     2
 49
1.0
 62
   256
  6
BYLAYER
 49
-1.0
 62
   256
  6
BYLAYER
  0
ACDBPLACEHOLDER
  5
F
102
{ACAD_REACTORS
330
E
102
}
330
E
  0
ENDSEC
  0
EOF
