<?xml version="1.0" encoding="UTF-8" standalone="no"?>
<!DOCTYPE svg PUBLIC "-//W3C//DTD SVG 1.1//EN" "http://www.w3.org/Graphics/SVG/1.1/DTD/svg11.dtd">
<svg width="100%" height="100%" viewBox="0 0 1772 1772" version="1.1" xmlns="http://www.w3.org/2000/svg" xmlns:xlink="http://www.w3.org/1999/xlink" xml:space="preserve" xmlns:serif="http://www.serif.com/" style="fill-rule:evenodd;clip-rule:evenodd;stroke-linecap:round;stroke-linejoin:round;">
    <g transform="matrix(4.16667,0,0,4.16667,0,0)">
        <g id="p-1" transform="matrix(1,0,0,1,-5.38583,-5.95276)">
            <path d="M29.197,358.319L21.075,358.319L17.814,355.058L17.814,226.836L20.976,223.674L29.197,223.674L29.197,204.378C29.197,204.222 29.324,204.094 29.48,204.094L246.331,204.094C246.487,204.094 246.614,204.222 246.614,204.378L246.614,223.674L255.02,223.674L258.281,226.935L258.281,355.158L255.119,358.319L246.614,358.319L246.614,376.724C246.614,376.88 246.487,377.008 246.331,377.008L222.945,377.008C222.789,377.008 222.661,376.88 222.661,376.724L222.661,371.339L211.89,371.339L211.89,376.724C211.89,376.88 211.762,377.008 211.606,377.008L200.268,377.008C200.112,377.008 199.984,376.88 199.984,376.724L199.984,371.339L189.213,371.339L189.213,376.724C189.213,376.88 189.085,377.008 188.929,377.008L177.591,377.008C177.435,377.008 177.307,376.88 177.307,376.724L177.307,371.339L166.535,371.339L166.535,376.724C166.535,376.88 166.408,377.008 166.252,377.008L154.913,377.008C154.757,377.008 154.63,376.88 154.63,376.724L154.63,371.339L143.858,371.339L143.858,376.724C143.858,376.88 143.731,377.008 143.575,377.008L132.236,377.008C132.08,377.008 131.953,376.88 131.953,376.724L131.953,371.339L121.181,371.339L121.181,376.724C121.181,376.88 121.054,377.008 120.898,377.008L109.559,377.008C109.403,377.008 109.276,376.88 109.276,376.724L109.276,371.339L98.504,371.339L98.504,376.724C98.504,376.88 98.376,377.008 98.22,377.008L86.882,377.008C86.726,377.008 86.598,376.88 86.598,376.724L86.598,371.339L75.827,371.339L75.827,376.724C75.827,376.88 75.699,377.008 75.543,377.008L64.205,377.008C64.049,377.008 63.921,376.88 63.921,376.724L63.921,371.339L53.15,371.339L53.15,376.724C53.15,376.88 53.022,377.008 52.866,377.008L29.48,377.008C29.324,377.008 29.197,376.88 29.197,376.724L29.197,358.319ZM29.625,225.638L29.625,236.409L34.866,236.409L34.866,225.638L29.625,225.638ZM29.625,248.315L29.625,259.087L34.866,259.087L34.866,248.315L29.625,248.315ZM29.625,270.992L29.625,281.764L34.866,281.764L34.866,270.992L29.625,270.992ZM29.625,293.669L29.625,304.441L34.866,304.441L34.866,293.669L29.625,293.669ZM29.625,316.346L29.625,327.118L34.866,327.118L34.866,316.346L29.625,316.346ZM29.625,339.024L29.625,349.795L34.866,349.795L34.866,339.024L29.625,339.024ZM246.47,225.601C246.429,225.624 246.381,225.638 246.331,225.638L240.945,225.638L240.945,236.409L246.331,236.409C246.381,236.409 246.429,236.423 246.47,236.446L246.47,225.601ZM246.47,248.278C246.429,248.302 246.381,248.315 246.331,248.315L240.945,248.315L240.945,259.087L246.331,259.087C246.381,259.087 246.429,259.1 246.47,259.123L246.47,248.278ZM246.47,270.955C246.429,270.979 246.381,270.992 246.331,270.992L240.945,270.992L240.945,281.764L246.331,281.764C246.381,281.764 246.429,281.777 246.47,281.8L246.47,270.955ZM246.47,293.633C246.429,293.656 246.381,293.669 246.331,293.669L240.945,293.669L240.945,304.441L246.331,304.441C246.381,304.441 246.429,304.454 246.47,304.478L246.47,293.633ZM246.47,316.31C246.429,316.333 246.381,316.346 246.331,316.346L240.945,316.346L240.945,327.118L246.331,327.118C246.381,327.118 246.429,327.131 246.47,327.155L246.47,316.31ZM246.47,338.987C246.429,339.01 246.381,339.024 246.331,339.024L240.945,339.024L240.945,349.795L246.331,349.795C246.381,349.795 246.429,349.809 246.47,349.832L246.47,338.987ZM22.282,233.116C21.761,233.116 21.337,233.539 21.337,234.061L21.337,243.982C21.337,244.504 21.761,244.927 22.282,244.927L24.172,244.927C24.694,244.927 25.117,244.504 25.117,243.982L25.117,234.061C25.117,233.539 24.694,233.116 24.172,233.116L22.282,233.116ZM22.282,337.053C21.761,337.053 21.337,337.476 21.337,337.998L21.337,347.919C21.337,348.441 21.761,348.864 22.282,348.864L24.172,348.864C24.694,348.864 25.117,348.441 25.117,347.919L25.117,337.998C25.117,337.476 24.694,337.053 24.172,337.053L22.282,337.053ZM253.812,244.94C254.334,244.94 254.757,244.517 254.757,243.995L254.757,234.074C254.757,233.553 254.334,233.129 253.812,233.129L251.922,233.129C251.401,233.129 250.978,233.553 250.978,234.074L250.978,243.995C250.978,244.517 251.401,244.94 251.922,244.94L253.812,244.94ZM253.812,348.877C254.334,348.877 254.757,348.454 254.757,347.932L254.757,338.011C254.757,337.49 254.334,337.066 253.812,337.066L251.922,337.066C251.401,337.066 250.978,337.49 250.978,338.011L250.978,347.932C250.978,348.454 251.401,348.877 251.922,348.877L253.812,348.877Z" style="fill:none;stroke:rgb(255,0,0);stroke-width:1px;"/>
            <g id="Monitor" transform="matrix(0.166667,0,0,0.166667,-5.95276,146.551)">
                <path id="Frame" d="M1485,427.5C1485,412.598 1472.9,400.5 1458,400.5L270,400.5C255.098,400.5 243,412.598 243,427.5L243,1300.5C243,1315.4 255.098,1327.5 270,1327.5L1458,1327.5C1472.9,1327.5 1485,1315.4 1485,1300.5L1485,427.5ZM279,1228.5C279,1223.53 274.967,1219.5 270,1219.5C265.033,1219.5 261,1223.53 261,1228.5L261,1237.5C261,1242.47 265.033,1246.5 270,1246.5C274.967,1246.5 279,1242.47 279,1237.5L279,1228.5ZM1467,1228.5C1467,1223.53 1462.97,1219.5 1458,1219.5C1453.03,1219.5 1449,1223.53 1449,1228.5L1449,1237.5C1449,1242.47 1453.03,1246.5 1458,1246.5C1462.97,1246.5 1467,1242.47 1467,1237.5L1467,1228.5ZM279,859.5C279,854.533 274.967,850.5 270,850.5C265.033,850.5 261,854.533 261,859.5L261,868.5C261,873.467 265.033,877.5 270,877.5C274.967,877.5 279,873.467 279,868.5L279,859.5ZM1467,859.5C1467,854.533 1462.97,850.5 1458,850.5C1453.03,850.5 1449,854.533 1449,859.5L1449,868.5C1449,873.467 1453.03,877.5 1458,877.5C1462.97,877.5 1467,873.467 1467,868.5L1467,859.5ZM1467,490.5C1467,485.533 1462.97,481.5 1458,481.5C1453.03,481.5 1449,485.533 1449,490.5L1449,499.5C1449,504.467 1453.03,508.5 1458,508.5C1462.97,508.5 1467,504.467 1467,499.5L1467,490.5ZM279,490.5C279,485.533 274.967,481.5 270,481.5C265.033,481.5 261,485.533 261,490.5L261,499.5C261,504.467 265.033,508.5 270,508.5C274.967,508.5 279,504.467 279,499.5L279,490.5Z" style="fill:none;stroke:rgb(0,0,255);stroke-opacity:0.75;stroke-width:5px;stroke-miterlimit:1.5;"/>
                <g id="Screen" transform="matrix(0,-72,-72,0,2468.98,2111.81)">
                    <path d="M10.946,14.6L23.696,14.6L23.696,30.1L10.946,30.1L10.946,14.6" style="fill:none;fill-rule:nonzero;stroke:rgb(0,0,255);stroke-width:0.1px;stroke-miterlimit:10;"/>
                </g>
            </g>
            <g transform="matrix(1.01848,0,0,1.08889,0.966922,-2.44619)">
                <path d="M421.822,7.713L421.822,398.2L4.339,398.2L4.339,7.713L421.822,7.713ZM419.859,9.55L6.302,9.55L6.302,396.363L419.859,396.363L419.859,9.55Z" style="fill:rgb(0,0,255);"/>
            </g>
        </g>
        <g id="p-2" transform="matrix(1,0,0,1,-5.38583,-5.95276)">
            <path d="M421.701,377.008L399.701,377.008C399.545,377.008 399.417,376.88 399.417,376.724L399.417,371.339L388.646,371.339L388.646,376.724C388.646,376.88 388.518,377.008 388.362,377.008L377.024,377.008C376.868,377.008 376.74,376.88 376.74,376.724L376.74,371.339L365.969,371.339L365.969,376.724C365.969,376.88 365.841,377.008 365.685,377.008L354.346,377.008C354.191,377.008 354.063,376.88 354.063,376.724L354.063,371.339L343.291,371.339L343.291,376.724C343.291,376.88 343.164,377.008 343.008,377.008L331.669,377.008C331.513,377.008 331.386,376.88 331.386,376.724L331.386,371.339L320.614,371.339L320.614,376.724C320.614,376.88 320.487,377.008 320.331,377.008L308.992,377.008C308.836,377.008 308.709,376.88 308.709,376.724L308.709,371.339L297.937,371.339L297.937,376.724C297.937,376.88 297.809,377.008 297.654,377.008L275.402,377.008C275.246,377.008 275.118,376.88 275.118,376.724L275.118,350.362L269.732,350.362C269.674,350.362 269.62,350.344 269.575,350.314L269.575,338.505C269.62,338.474 269.674,338.457 269.732,338.457L275.118,338.457L275.118,327.685L269.732,327.685C269.674,327.685 269.62,327.667 269.575,327.637L269.575,315.828C269.62,315.797 269.674,315.78 269.732,315.78L275.118,315.78L275.118,305.008L269.732,305.008C269.674,305.008 269.62,304.99 269.575,304.96L269.575,293.15C269.62,293.12 269.674,293.102 269.732,293.102L275.118,293.102L275.118,282.331L269.732,282.331C269.674,282.331 269.62,282.313 269.575,282.283L269.575,270.473C269.62,270.443 269.674,270.425 269.732,270.425L275.118,270.425L275.118,259.654L269.732,259.654C269.674,259.654 269.62,259.636 269.575,259.605L269.575,247.796C269.62,247.766 269.674,247.748 269.732,247.748L275.118,247.748L275.118,236.976L269.732,236.976C269.674,236.976 269.62,236.959 269.575,236.928L269.575,225.119C269.62,225.089 269.674,225.071 269.732,225.071L275.118,225.071L275.118,204.567L284.598,204.567L293.173,212.288L293.173,267.402C293.173,319.551 335.512,361.89 387.661,361.89L413.021,361.89L421.701,369.705L421.701,377.008Z" style="fill:none;stroke:rgb(255,0,0);stroke-width:1px;"/>
        </g>
        <g transform="matrix(1,0,0,-1,-5.38583,399.874)">
            <g id="p-21" serif:id="p-2">
                <path d="M421.701,377.008L399.701,377.008C399.545,377.008 399.417,376.88 399.417,376.724L399.417,371.339L388.646,371.339L388.646,376.724C388.646,376.88 388.518,377.008 388.362,377.008L377.024,377.008C376.868,377.008 376.74,376.88 376.74,376.724L376.74,371.339L365.969,371.339L365.969,376.724C365.969,376.88 365.841,377.008 365.685,377.008L354.346,377.008C354.191,377.008 354.063,376.88 354.063,376.724L354.063,371.339L343.291,371.339L343.291,376.724C343.291,376.88 343.164,377.008 343.008,377.008L331.669,377.008C331.513,377.008 331.386,376.88 331.386,376.724L331.386,371.339L320.614,371.339L320.614,376.724C320.614,376.88 320.487,377.008 320.331,377.008L308.992,377.008C308.836,377.008 308.709,376.88 308.709,376.724L308.709,371.339L297.937,371.339L297.937,376.724C297.937,376.88 297.809,377.008 297.654,377.008L275.402,377.008C275.246,377.008 275.118,376.88 275.118,376.724L275.118,350.362L269.732,350.362C269.674,350.362 269.62,350.344 269.575,350.314L269.575,338.505C269.62,338.474 269.674,338.457 269.732,338.457L275.118,338.457L275.118,327.685L269.732,327.685C269.674,327.685 269.62,327.667 269.575,327.637L269.575,315.828C269.62,315.797 269.674,315.78 269.732,315.78L275.118,315.78L275.118,305.008L269.732,305.008C269.674,305.008 269.62,304.99 269.575,304.96L269.575,293.15C269.62,293.12 269.674,293.102 269.732,293.102L275.118,293.102L275.118,282.331L269.732,282.331C269.674,282.331 269.62,282.313 269.575,282.283L269.575,270.473C269.62,270.443 269.674,270.425 269.732,270.425L275.118,270.425L275.118,259.654L269.732,259.654C269.674,259.654 269.62,259.636 269.575,259.605L269.575,247.796C269.62,247.766 269.674,247.748 269.732,247.748L275.118,247.748L275.118,236.976L269.732,236.976C269.674,236.976 269.62,236.959 269.575,236.928L269.575,225.119C269.62,225.089 269.674,225.071 269.732,225.071L275.118,225.071L275.118,204.567L284.598,204.567L293.173,212.288L293.173,267.402C293.173,319.551 335.512,361.89 387.661,361.89L413.021,361.89L421.701,369.705L421.701,377.008Z" style="fill:none;stroke:rgb(255,0,0);stroke-width:1px;"/>
            </g>
        </g>
        <g id="p-3">
        </g>
        <g id="p-4" transform="matrix(1,0,0,1,-5.38583,-5.95276)">
            <path d="M35.15,201.26L240.661,201.26C240.817,201.26 240.945,201.132 240.945,200.976L240.945,179.008C240.945,178.724 240.661,179.008 240.945,179.008L246.331,179.008C246.487,179.008 246.614,178.88 246.614,178.724L246.614,167.386C246.614,167.23 246.487,167.102 246.331,167.102L240.945,167.102C240.661,167.102 240.945,167.386 240.945,167.102L240.945,156.331C240.945,156.047 240.661,156.331 240.945,156.331L246.331,156.331C246.487,156.331 246.614,156.203 246.614,156.047L246.614,144.709C246.614,144.553 246.487,144.425 246.331,144.425L240.945,144.425C240.661,144.425 240.945,144.709 240.945,144.425L240.945,133.654C240.945,133.37 240.661,133.654 240.945,133.654L246.331,133.654C246.487,133.654 246.614,133.526 246.614,133.37L246.614,122.031C246.614,121.876 246.487,121.748 246.331,121.748L240.945,121.748C240.661,121.748 240.945,122.031 240.945,121.748L240.945,110.976C240.945,110.693 240.661,110.976 240.945,110.976L246.331,110.976C246.487,110.976 246.614,110.849 246.614,110.693L246.614,99.354C246.614,99.198 246.487,99.071 246.331,99.071L240.945,99.071C240.661,99.071 240.945,99.354 240.945,99.071L240.945,88.299C240.945,88.016 240.661,88.299 240.945,88.299L246.331,88.299C246.487,88.299 246.614,88.172 246.614,88.016L246.614,76.677C246.614,76.521 246.487,76.394 246.331,76.394L240.945,76.394C240.661,76.394 240.945,76.677 240.945,76.394L240.945,54.425C240.945,54.269 240.817,54.142 240.661,54.142L223.228,54.142C222.945,54.142 223.228,54.425 223.228,54.142L223.228,48.756C223.228,48.6 223.101,48.472 222.945,48.472L211.606,48.472C211.45,48.472 211.323,48.6 211.323,48.756L211.323,54.142C211.323,54.425 211.606,54.142 211.323,54.142L200.551,54.142C200.268,54.142 200.551,54.425 200.551,54.142L200.551,48.756C200.551,48.6 200.424,48.472 200.268,48.472L188.929,48.472C188.773,48.472 188.646,48.6 188.646,48.756L188.646,54.142C188.646,54.425 188.929,54.142 188.646,54.142L177.874,54.142C177.591,54.142 177.874,54.425 177.874,54.142L177.874,48.756C177.874,48.6 177.746,48.472 177.591,48.472L166.252,48.472C166.096,48.472 165.969,48.6 165.969,48.756L165.969,54.142C165.969,54.425 166.252,54.142 165.969,54.142L155.197,54.142C154.913,54.142 155.197,54.425 155.197,54.142L155.197,48.756C155.197,48.6 155.069,48.472 154.913,48.472L143.575,48.472C143.419,48.472 143.291,48.6 143.291,48.756L143.291,54.142C143.291,54.425 143.575,54.142 143.291,54.142L132.52,54.142C132.236,54.142 132.52,54.425 132.52,54.142L132.52,48.756C132.52,48.6 132.392,48.472 132.236,48.472L120.898,48.472C120.742,48.472 120.614,48.6 120.614,48.756L120.614,54.142C120.614,54.425 120.898,54.142 120.614,54.142L109.843,54.142C109.559,54.142 109.843,54.425 109.843,54.142L109.843,48.756C109.843,48.6 109.715,48.472 109.559,48.472L98.22,48.472C98.065,48.472 97.937,48.6 97.937,48.756L97.937,54.142C97.937,54.425 98.22,54.142 97.937,54.142L87.165,54.142C86.882,54.142 87.165,54.425 87.165,54.142L87.165,48.756C87.165,48.6 87.038,48.472 86.882,48.472L75.543,48.472C75.387,48.472 75.26,48.6 75.26,48.756L75.26,54.142C75.26,54.425 75.543,54.142 75.26,54.142L64.488,54.142C64.205,54.142 64.488,54.425 64.488,54.142L64.488,48.756C64.488,48.6 64.361,48.472 64.205,48.472L52.866,48.472C52.71,48.472 52.583,48.6 52.583,48.756L52.583,54.142C52.583,54.425 52.866,54.142 52.583,54.142L35.15,54.142C34.994,54.142 34.866,54.269 34.866,54.425L34.866,76.394C34.866,76.677 35.15,76.394 34.866,76.394L29.48,76.394C29.324,76.394 29.197,76.521 29.197,76.677L29.197,88.016C29.197,88.172 29.324,88.299 29.48,88.299L34.866,88.299C35.15,88.299 34.866,88.016 34.866,88.299L34.866,99.071C34.866,99.354 35.15,99.071 34.866,99.071L29.48,99.071C29.324,99.071 29.197,99.198 29.197,99.354L29.197,110.693C29.197,110.849 29.324,110.976 29.48,110.976L34.866,110.976C35.15,110.976 34.866,110.693 34.866,110.976L34.866,121.748C34.866,122.031 35.15,121.748 34.866,121.748L29.48,121.748C29.324,121.748 29.197,121.876 29.197,122.031L29.197,133.37C29.197,133.526 29.324,133.654 29.48,133.654L34.866,133.654C35.15,133.654 34.866,133.37 34.866,133.654L34.866,144.425C34.866,144.709 35.15,144.425 34.866,144.425L29.48,144.425C29.324,144.425 29.197,144.553 29.197,144.709L29.197,156.047C29.197,156.203 29.324,156.331 29.48,156.331L34.866,156.331C35.15,156.331 34.866,156.047 34.866,156.331L34.866,167.102C34.866,167.386 35.15,167.102 34.866,167.102L29.48,167.102C29.324,167.102 29.197,167.23 29.197,167.386L29.197,178.724C29.197,178.88 29.324,179.008 29.48,179.008L34.866,179.008C35.15,179.008 34.866,178.724 34.866,179.008L34.866,200.976C34.866,201.132 34.994,201.26 35.15,201.26Z" style="fill:none;fill-rule:nonzero;stroke:rgb(255,0,0);stroke-width:1px;"/>
        </g>
    </g>
</svg>
