<?xml version='1.0' encoding='us-ascii'?>
<svg width="152.80mm" height="154.60mm" viewBox="0.0 0.0 152.80 154.60" xmlns="http://www.w3.org/2000/svg" xmlns:dc="http://purl.org/dc/elements/1.1/" xmlns:cc="http://creativecommons.org/ns#" xmlns:rdf="http://www.w3.org/1999/02/22-rdf-syntax-ns#" xmlns:svg="http://www.w3.org/2000/svg" xmlns:xlink="http://www.w3.org/1999/xlink" xmlns:inkscape="http://www.inkscape.org/namespaces/inkscape">
<!--
OpenBox - Box with top and front open

Created with Boxes.py (https://festi.info/boxes.py)
Creation date: 2022-12-26 15:17:02
Command line (remove spaces between dashes): boxes OpenBox - -FingerJoint_angle=90.0 - -FingerJoint_style=rectangular - -FingerJoint_surroundingspaces=2.0 - -FingerJoint_edge_width=1.0 - -FingerJoint_extra_length=0.0 - -FingerJoint_finger=2.0 - -FingerJoint_play=0.0 - -FingerJoint_space=2.0 - -FingerJoint_width=1.0 - -x=77.7 - -y=53.4 - -h=61 - -outside=0 - -outside=1 - -edgetype=F - -thickness=2.0 - -format=svg - -tabs=0.0 - -debug=0 - -labels=0 - -labels=1 - -reference=100 - -inner_corners=loop - -burn=0.1
Url: http://www.festi.info/OpenBox?FingerJoint_angle=90.0&FingerJoint_style=rectangular&FingerJoint_surroundingspaces=2.0&FingerJoint_edge_width=1.0&FingerJoint_extra_length=0.0&FingerJoint_finger=2.0&FingerJoint_play=0.0&FingerJoint_space=2.0&FingerJoint_width=1.0&x=77.7&y=53.4&h=61&outside=0&outside=1&edgetype=F&thickness=2.0&format=svg&tabs=0.0&debug=0&labels=0&labels=1&reference=100&inner_corners=loop&burn=0.1&render=1
SettingsUrl: http://www.festi.info/OpenBox?FingerJoint_angle=90.0&FingerJoint_style=rectangular&FingerJoint_surroundingspaces=2.0&FingerJoint_edge_width=1.0&FingerJoint_extra_length=0.0&FingerJoint_finger=2.0&FingerJoint_play=0.0&FingerJoint_space=2.0&FingerJoint_width=1.0&x=77.7&y=53.4&h=61&outside=0&outside=1&edgetype=F&thickness=2.0&format=svg&tabs=0.0&debug=0&labels=0&labels=1&reference=100&inner_corners=loop&burn=0.1
-->
<title>OpenBox</title>
<metadata>
<rdf:RDF><cc:Work>
<dc:title>Box - OpenBox</dc:title>
<dc:date>2022-12-26 15:17:02</dc:date>
<dc:source>http://www.festi.info/OpenBox?FingerJoint_angle=90.0&amp;FingerJoint_style=rectangular&amp;FingerJoint_surroundingspaces=2.0&amp;FingerJoint_edge_width=1.0&amp;FingerJoint_extra_length=0.0&amp;FingerJoint_finger=2.0&amp;FingerJoint_play=0.0&amp;FingerJoint_space=2.0&amp;FingerJoint_width=1.0&amp;x=77.7&amp;y=53.4&amp;h=61&amp;outside=0&amp;outside=1&amp;edgetype=F&amp;thickness=2.0&amp;format=svg&amp;tabs=0.0&amp;debug=0&amp;labels=0&amp;labels=1&amp;reference=100&amp;inner_corners=loop&amp;burn=0.1&amp;render=1</dc:source>
<dc:description>Box with top and front open

Created with Boxes.py (https://festi.info/boxes.py)
Command line: boxes OpenBox --FingerJoint_angle=90.0 --FingerJoint_style=rectangular --FingerJoint_surroundingspaces=2.0 --FingerJoint_edge_width=1.0 --FingerJoint_extra_length=0.0 --FingerJoint_finger=2.0 --FingerJoint_play=0.0 --FingerJoint_space=2.0 --FingerJoint_width=1.0 --x=77.7 --y=53.4 --h=61 --outside=0 --outside=1 --edgetype=F --thickness=2.0 --format=svg --tabs=0.0 --debug=0 --labels=0 --labels=1 --reference=100 --inner_corners=loop --burn=0.1
Url: http://www.festi.info/OpenBox?FingerJoint_angle=90.0&amp;FingerJoint_style=rectangular&amp;FingerJoint_surroundingspaces=2.0&amp;FingerJoint_edge_width=1.0&amp;FingerJoint_extra_length=0.0&amp;FingerJoint_finger=2.0&amp;FingerJoint_play=0.0&amp;FingerJoint_space=2.0&amp;FingerJoint_width=1.0&amp;x=77.7&amp;y=53.4&amp;h=61&amp;outside=0&amp;outside=1&amp;edgetype=F&amp;thickness=2.0&amp;format=svg&amp;tabs=0.0&amp;debug=0&amp;labels=0&amp;labels=1&amp;reference=100&amp;inner_corners=loop&amp;burn=0.1&amp;render=1
SettingsUrl: http://www.festi.info/OpenBox?FingerJoint_angle=90.0&amp;FingerJoint_style=rectangular&amp;FingerJoint_surroundingspaces=2.0&amp;FingerJoint_edge_width=1.0&amp;FingerJoint_extra_length=0.0&amp;FingerJoint_finger=2.0&amp;FingerJoint_play=0.0&amp;FingerJoint_space=2.0&amp;FingerJoint_width=1.0&amp;x=77.7&amp;y=53.4&amp;h=61&amp;outside=0&amp;outside=1&amp;edgetype=F&amp;thickness=2.0&amp;format=svg&amp;tabs=0.0&amp;debug=0&amp;labels=0&amp;labels=1&amp;reference=100&amp;inner_corners=loop&amp;burn=0.1
</dc:description>
</cc:Work></rdf:RDF></metadata>
<g id="p-0" style="fill:none;stroke-linecap:round;stroke-linejoin:round;">
  <path d="M 10.400 144.600 H 110.400 V 134.600 H 10.400 V 144.600 Z" stroke="rgb(0,0,0)" stroke-width="0.20" />
  <text transform="matrix( 1.000 0.000 0.000 1.000 60.400 135.600 )" style="font-family: sans-serif ; font-weight: normal; font-style: normal; fill: rgb(255,0,0)" font-size="8px" text-anchor="middle" dominant-baseline="hanging">100mm, burn:0.10mm</text>
</g>
<g id="p-1" style="fill:none;stroke-linecap:round;stroke-linejoin:round;">
  <path d="M 12.400 133.400 H 19.250 C 19.305 133.400 19.350 133.355 19.350 133.300 V 131.400 C 19.350 131.300 19.250 131.400 19.350 131.400 H 23.150 C 23.250 131.400 23.150 131.300 23.150 131.400 V 133.300 C 23.150 133.355 23.195 133.400 23.250 133.400 H 27.250 C 27.305 133.400 27.350 133.355 27.350 133.300 V 131.400 C 27.350 131.300 27.250 131.400 27.350 131.400 H 31.150 C 31.250 131.400 31.150 131.300 31.150 131.400 V 133.300 C 31.150 133.355 31.195 133.400 31.250 133.400 H 35.250 C 35.305 133.400 35.350 133.355 35.350 133.300 V 131.400 C 35.350 131.300 35.250 131.400 35.350 131.400 H 39.150 C 39.250 131.400 39.150 131.300 39.150 131.400 V 133.300 C 39.150 133.355 39.195 133.400 39.250 133.400 H 43.250 C 43.305 133.400 43.350 133.355 43.350 133.300 V 131.400 C 43.350 131.300 43.250 131.400 43.350 131.400 H 47.150 C 47.250 131.400 47.150 131.300 47.150 131.400 V 133.300 C 47.150 133.355 47.195 133.400 47.250 133.400 H 51.250 C 51.305 133.400 51.350 133.355 51.350 133.300 V 131.400 C 51.350 131.300 51.250 131.400 51.350 131.400 H 55.150 C 55.250 131.400 55.150 131.300 55.150 131.400 V 133.300 C 55.150 133.355 55.195 133.400 55.250 133.400 H 59.250 C 59.305 133.400 59.350 133.355 59.350 133.300 V 131.400 C 59.350 131.300 59.250 131.400 59.350 131.400 H 63.150 C 63.250 131.400 63.150 131.300 63.150 131.400 V 133.300 C 63.150 133.355 63.195 133.400 63.250 133.400 H 67.250 C 67.305 133.400 67.350 133.355 67.350 133.300 V 131.400 C 67.350 131.300 67.250 131.400 67.350 131.400 H 71.150 C 71.250 131.400 71.150 131.300 71.150 131.400 V 133.300 C 71.150 133.355 71.195 133.400 71.250 133.400 H 75.250 C 75.305 133.400 75.350 133.355 75.350 133.300 V 131.400 C 75.350 131.300 75.250 131.400 75.350 131.400 H 79.150 C 79.250 131.400 79.150 131.300 79.150 131.400 V 133.300 C 79.150 133.355 79.195 133.400 79.250 133.400 H 86.100 H 88.100 C 88.155 133.400 88.200 133.355 88.200 133.300 V 131.300 V 123.800 C 88.200 123.745 88.155 123.700 88.100 123.700 H 86.200 C 86.100 123.700 86.200 123.800 86.200 123.700 V 119.900 C 86.200 119.800 86.100 119.900 86.200 119.900 H 88.100 C 88.155 119.900 88.200 119.855 88.200 119.800 V 115.800 C 88.200 115.745 88.155 115.700 88.100 115.700 H 86.200 C 86.100 115.700 86.200 115.800 86.200 115.700 V 111.900 C 86.200 111.800 86.100 111.900 86.200 111.900 H 88.100 C 88.155 111.900 88.200 111.855 88.200 111.800 V 107.800 C 88.200 107.745 88.155 107.700 88.100 107.700 H 86.200 C 86.100 107.700 86.200 107.800 86.200 107.700 V 103.900 C 86.200 103.800 86.100 103.900 86.200 103.900 H 88.100 C 88.155 103.900 88.200 103.855 88.200 103.800 V 99.800 C 88.200 99.745 88.155 99.700 88.100 99.700 H 86.200 C 86.100 99.700 86.200 99.800 86.200 99.700 V 95.900 C 86.200 95.800 86.100 95.900 86.200 95.900 H 88.100 C 88.155 95.900 88.200 95.855 88.200 95.800 V 91.800 C 88.200 91.745 88.155 91.700 88.100 91.700 H 86.200 C 86.100 91.700 86.200 91.800 86.200 91.700 V 87.900 C 86.200 87.800 86.100 87.900 86.200 87.900 H 88.100 C 88.155 87.900 88.200 87.855 88.200 87.800 V 83.800 C 88.200 83.745 88.155 83.700 88.100 83.700 H 86.200 C 86.100 83.700 86.200 83.800 86.200 83.700 V 79.900 C 86.200 79.800 86.100 79.900 86.200 79.900 H 88.100 C 88.155 79.900 88.200 79.855 88.200 79.800 V 72.300 C 88.200 72.245 88.155 72.200 88.100 72.200 H 86.100 H 12.400 H 10.400 C 10.345 72.200 10.300 72.245 10.300 72.300 V 79.800 C 10.300 79.855 10.345 79.900 10.400 79.900 H 12.300 C 12.400 79.900 12.300 79.800 12.300 79.900 V 83.700 C 12.300 83.800 12.400 83.700 12.300 83.700 H 10.400 C 10.345 83.700 10.300 83.745 10.300 83.800 V 87.800 C 10.300 87.855 10.345 87.900 10.400 87.900 H 12.300 C 12.400 87.900 12.300 87.800 12.300 87.900 V 91.700 C 12.300 91.800 12.400 91.700 12.300 91.700 H 10.400 C 10.345 91.700 10.300 91.745 10.300 91.800 V 95.800 C 10.300 95.855 10.345 95.900 10.400 95.900 H 12.300 C 12.400 95.900 12.300 95.800 12.300 95.900 V 99.700 C 12.300 99.800 12.400 99.700 12.300 99.700 H 10.400 C 10.345 99.700 10.300 99.745 10.300 99.800 V 103.800 C 10.300 103.855 10.345 103.900 10.400 103.900 H 12.300 C 12.400 103.900 12.300 103.800 12.300 103.900 V 107.700 C 12.300 107.800 12.400 107.700 12.300 107.700 H 10.400 C 10.345 107.700 10.300 107.745 10.300 107.800 V 111.800 C 10.300 111.855 10.345 111.900 10.400 111.900 H 12.300 C 12.400 111.900 12.300 111.800 12.300 111.900 V 115.700 C 12.300 115.800 12.400 115.700 12.300 115.700 H 10.400 C 10.345 115.700 10.300 115.745 10.300 115.800 V 119.800 C 10.300 119.855 10.345 119.900 10.400 119.900 H 12.300 C 12.400 119.900 12.300 119.800 12.300 119.900 V 123.700 C 12.300 123.800 12.400 123.700 12.300 123.700 H 10.400 C 10.345 123.700 10.300 123.745 10.300 123.800 V 131.300 V 133.300 C 10.300 133.355 10.345 133.400 10.400 133.400 H 12.400 Z" stroke="rgb(0,0,0)" stroke-width="0.20" />
</g>
<g id="p-2" style="fill:none;stroke-linecap:round;stroke-linejoin:round;">
  <path d="M 91.300 133.400 H 99.000 C 99.055 133.400 99.100 133.355 99.100 133.300 V 131.400 C 99.100 131.300 99.000 131.400 99.100 131.400 H 102.900 C 103.000 131.400 102.900 131.300 102.900 131.400 V 133.300 C 102.900 133.355 102.945 133.400 103.000 133.400 H 107.000 C 107.055 133.400 107.100 133.355 107.100 133.300 V 131.400 C 107.100 131.300 107.000 131.400 107.100 131.400 H 110.900 C 111.000 131.400 110.900 131.300 110.900 131.400 V 133.300 C 110.900 133.355 110.945 133.400 111.000 133.400 H 115.000 C 115.055 133.400 115.100 133.355 115.100 133.300 V 131.400 C 115.100 131.300 115.000 131.400 115.100 131.400 H 118.900 C 119.000 131.400 118.900 131.300 118.900 131.400 V 133.300 C 118.900 133.355 118.945 133.400 119.000 133.400 H 123.000 C 123.055 133.400 123.100 133.355 123.100 133.300 V 131.400 C 123.100 131.300 123.000 131.400 123.100 131.400 H 126.900 C 127.000 131.400 126.900 131.300 126.900 131.400 V 133.300 C 126.900 133.355 126.945 133.400 127.000 133.400 H 131.000 C 131.055 133.400 131.100 133.355 131.100 133.300 V 131.400 C 131.100 131.300 131.000 131.400 131.100 131.400 H 134.900 C 135.000 131.400 134.900 131.300 134.900 131.400 V 133.300 C 134.900 133.355 134.945 133.400 135.000 133.400 H 142.700 C 142.755 133.400 142.800 133.355 142.800 133.300 V 131.300 V 72.300 C 142.800 72.245 142.755 72.200 142.700 72.200 H 91.300 C 91.245 72.200 91.200 72.245 91.200 72.300 V 79.700 C 91.200 79.800 91.300 79.700 91.200 79.700 H 89.300 C 89.245 79.700 89.200 79.745 89.200 79.800 V 83.800 C 89.200 83.855 89.245 83.900 89.300 83.900 H 91.200 C 91.300 83.900 91.200 83.800 91.200 83.900 V 87.700 C 91.200 87.800 91.300 87.700 91.200 87.700 H 89.300 C 89.245 87.700 89.200 87.745 89.200 87.800 V 91.800 C 89.200 91.855 89.245 91.900 89.300 91.900 H 91.200 C 91.300 91.900 91.200 91.800 91.200 91.900 V 95.700 C 91.200 95.800 91.300 95.700 91.200 95.700 H 89.300 C 89.245 95.700 89.200 95.745 89.200 95.800 V 99.800 C 89.200 99.855 89.245 99.900 89.300 99.900 H 91.200 C 91.300 99.900 91.200 99.800 91.200 99.900 V 103.700 C 91.200 103.800 91.300 103.700 91.200 103.700 H 89.300 C 89.245 103.700 89.200 103.745 89.200 103.800 V 107.800 C 89.200 107.855 89.245 107.900 89.300 107.900 H 91.200 C 91.300 107.900 91.200 107.800 91.200 107.900 V 111.700 C 91.200 111.800 91.300 111.700 91.200 111.700 H 89.300 C 89.245 111.700 89.200 111.745 89.200 111.800 V 115.800 C 89.200 115.855 89.245 115.900 89.300 115.900 H 91.200 C 91.300 115.900 91.200 115.800 91.200 115.900 V 119.700 C 91.200 119.800 91.300 119.700 91.200 119.700 H 89.300 C 89.245 119.700 89.200 119.745 89.200 119.800 V 123.800 C 89.200 123.855 89.245 123.900 89.300 123.900 H 91.200 C 91.300 123.900 91.200 123.800 91.200 123.900 V 131.300 V 133.300 C 91.200 133.355 91.245 133.400 91.300 133.400 Z" stroke="rgb(0,0,0)" stroke-width="0.20" />
</g>
<g id="p-3" style="fill:none;stroke-linecap:round;stroke-linejoin:round;">
  <path d="M 91.300 71.200 H 99.000 C 99.055 71.200 99.100 71.155 99.100 71.100 V 69.200 C 99.100 69.100 99.000 69.200 99.100 69.200 H 102.900 C 103.000 69.200 102.900 69.100 102.900 69.200 V 71.100 C 102.900 71.155 102.945 71.200 103.000 71.200 H 107.000 C 107.055 71.200 107.100 71.155 107.100 71.100 V 69.200 C 107.100 69.100 107.000 69.200 107.100 69.200 H 110.900 C 111.000 69.200 110.900 69.100 110.900 69.200 V 71.100 C 110.900 71.155 110.945 71.200 111.000 71.200 H 115.000 C 115.055 71.200 115.100 71.155 115.100 71.100 V 69.200 C 115.100 69.100 115.000 69.200 115.100 69.200 H 118.900 C 119.000 69.200 118.900 69.100 118.900 69.200 V 71.100 C 118.900 71.155 118.945 71.200 119.000 71.200 H 123.000 C 123.055 71.200 123.100 71.155 123.100 71.100 V 69.200 C 123.100 69.100 123.000 69.200 123.100 69.200 H 126.900 C 127.000 69.200 126.900 69.100 126.900 69.200 V 71.100 C 126.900 71.155 126.945 71.200 127.000 71.200 H 131.000 C 131.055 71.200 131.100 71.155 131.100 71.100 V 69.200 C 131.100 69.100 131.000 69.200 131.100 69.200 H 134.900 C 135.000 69.200 134.900 69.100 134.900 69.200 V 71.100 C 134.900 71.155 134.945 71.200 135.000 71.200 H 142.700 C 142.755 71.200 142.800 71.155 142.800 71.100 V 69.100 V 10.100 C 142.800 10.045 142.755 10.000 142.700 10.000 H 91.300 C 91.245 10.000 91.200 10.045 91.200 10.100 V 17.500 C 91.200 17.600 91.300 17.500 91.200 17.500 H 89.300 C 89.245 17.500 89.200 17.545 89.200 17.600 V 21.600 C 89.200 21.655 89.245 21.700 89.300 21.700 H 91.200 C 91.300 21.700 91.200 21.600 91.200 21.700 V 25.500 C 91.200 25.600 91.300 25.500 91.200 25.500 H 89.300 C 89.245 25.500 89.200 25.545 89.200 25.600 V 29.600 C 89.200 29.655 89.245 29.700 89.300 29.700 H 91.200 C 91.300 29.700 91.200 29.600 91.200 29.700 V 33.500 C 91.200 33.600 91.300 33.500 91.200 33.500 H 89.300 C 89.245 33.500 89.200 33.545 89.200 33.600 V 37.600 C 89.200 37.655 89.245 37.700 89.300 37.700 H 91.200 C 91.300 37.700 91.200 37.600 91.200 37.700 V 41.500 C 91.200 41.600 91.300 41.500 91.200 41.500 H 89.300 C 89.245 41.500 89.200 41.545 89.200 41.600 V 45.600 C 89.200 45.655 89.245 45.700 89.300 45.700 H 91.200 C 91.300 45.700 91.200 45.600 91.200 45.700 V 49.500 C 91.200 49.600 91.300 49.500 91.200 49.500 H 89.300 C 89.245 49.500 89.200 49.545 89.200 49.600 V 53.600 C 89.200 53.655 89.245 53.700 89.300 53.700 H 91.200 C 91.300 53.700 91.200 53.600 91.200 53.700 V 57.500 C 91.200 57.600 91.300 57.500 91.200 57.500 H 89.300 C 89.245 57.500 89.200 57.545 89.200 57.600 V 61.600 C 89.200 61.655 89.245 61.700 89.300 61.700 H 91.200 C 91.300 61.700 91.200 61.600 91.200 61.700 V 69.100 V 71.100 C 91.200 71.155 91.245 71.200 91.300 71.200 Z" stroke="rgb(0,0,0)" stroke-width="0.20" />
</g>
<g id="p-4" style="fill:none;stroke-linecap:round;stroke-linejoin:round;">
  <path d="M 12.400 71.200 H 86.100 C 86.155 71.200 86.200 71.155 86.200 71.100 V 63.500 C 86.200 63.400 86.100 63.500 86.200 63.500 H 88.100 C 88.155 63.500 88.200 63.455 88.200 63.400 V 59.400 C 88.200 59.345 88.155 59.300 88.100 59.300 H 86.200 C 86.100 59.300 86.200 59.400 86.200 59.300 V 55.500 C 86.200 55.400 86.100 55.500 86.200 55.500 H 88.100 C 88.155 55.500 88.200 55.455 88.200 55.400 V 51.400 C 88.200 51.345 88.155 51.300 88.100 51.300 H 86.200 C 86.100 51.300 86.200 51.400 86.200 51.300 V 47.500 C 86.200 47.400 86.100 47.500 86.200 47.500 H 88.100 C 88.155 47.500 88.200 47.455 88.200 47.400 V 43.400 C 88.200 43.345 88.155 43.300 88.100 43.300 H 86.200 C 86.100 43.300 86.200 43.400 86.200 43.300 V 39.500 C 86.200 39.400 86.100 39.500 86.200 39.500 H 88.100 C 88.155 39.500 88.200 39.455 88.200 39.400 V 35.400 C 88.200 35.345 88.155 35.300 88.100 35.300 H 86.200 C 86.100 35.300 86.200 35.400 86.200 35.300 V 31.500 C 86.200 31.400 86.100 31.500 86.200 31.500 H 88.100 C 88.155 31.500 88.200 31.455 88.200 31.400 V 27.400 C 88.200 27.345 88.155 27.300 88.100 27.300 H 86.200 C 86.100 27.300 86.200 27.400 86.200 27.300 V 19.700 C 86.200 19.645 86.155 19.600 86.100 19.600 H 79.350 C 79.250 19.600 79.350 19.700 79.350 19.600 V 17.700 C 79.350 17.645 79.305 17.600 79.250 17.600 H 75.250 C 75.195 17.600 75.150 17.645 75.150 17.700 V 19.600 C 75.150 19.700 75.250 19.600 75.150 19.600 H 71.350 C 71.250 19.600 71.350 19.700 71.350 19.600 V 17.700 C 71.350 17.645 71.305 17.600 71.250 17.600 H 67.250 C 67.195 17.600 67.150 17.645 67.150 17.700 V 19.600 C 67.150 19.700 67.250 19.600 67.150 19.600 H 63.350 C 63.250 19.600 63.350 19.700 63.350 19.600 V 17.700 C 63.350 17.645 63.305 17.600 63.250 17.600 H 59.250 C 59.195 17.600 59.150 17.645 59.150 17.700 V 19.600 C 59.150 19.700 59.250 19.600 59.150 19.600 H 55.350 C 55.250 19.600 55.350 19.700 55.350 19.600 V 17.700 C 55.350 17.645 55.305 17.600 55.250 17.600 H 51.250 C 51.195 17.600 51.150 17.645 51.150 17.700 V 19.600 C 51.150 19.700 51.250 19.600 51.150 19.600 H 47.350 C 47.250 19.600 47.350 19.700 47.350 19.600 V 17.700 C 47.350 17.645 47.305 17.600 47.250 17.600 H 43.250 C 43.195 17.600 43.150 17.645 43.150 17.700 V 19.600 C 43.150 19.700 43.250 19.600 43.150 19.600 H 39.350 C 39.250 19.600 39.350 19.700 39.350 19.600 V 17.700 C 39.350 17.645 39.305 17.600 39.250 17.600 H 35.250 C 35.195 17.600 35.150 17.645 35.150 17.700 V 19.600 C 35.150 19.700 35.250 19.600 35.150 19.600 H 31.350 C 31.250 19.600 31.350 19.700 31.350 19.600 V 17.700 C 31.350 17.645 31.305 17.600 31.250 17.600 H 27.250 C 27.195 17.600 27.150 17.645 27.150 17.700 V 19.600 C 27.150 19.700 27.250 19.600 27.150 19.600 H 23.350 C 23.250 19.600 23.350 19.700 23.350 19.600 V 17.700 C 23.350 17.645 23.305 17.600 23.250 17.600 H 19.250 C 19.195 17.600 19.150 17.645 19.150 17.700 V 19.600 C 19.150 19.700 19.250 19.600 19.150 19.600 H 12.400 C 12.345 19.600 12.300 19.645 12.300 19.700 V 27.300 C 12.300 27.400 12.400 27.300 12.300 27.300 H 10.400 C 10.345 27.300 10.300 27.345 10.300 27.400 V 31.400 C 10.300 31.455 10.345 31.500 10.400 31.500 H 12.300 C 12.400 31.500 12.300 31.400 12.300 31.500 V 35.300 C 12.300 35.400 12.400 35.300 12.300 35.300 H 10.400 C 10.345 35.300 10.300 35.345 10.300 35.400 V 39.400 C 10.300 39.455 10.345 39.500 10.400 39.500 H 12.300 C 12.400 39.500 12.300 39.400 12.300 39.500 V 43.300 C 12.300 43.400 12.400 43.300 12.300 43.300 H 10.400 C 10.345 43.300 10.300 43.345 10.300 43.400 V 47.400 C 10.300 47.455 10.345 47.500 10.400 47.500 H 12.300 C 12.400 47.500 12.300 47.400 12.300 47.500 V 51.300 C 12.300 51.400 12.400 51.300 12.300 51.300 H 10.400 C 10.345 51.300 10.300 51.345 10.300 51.400 V 55.400 C 10.300 55.455 10.345 55.500 10.400 55.500 H 12.300 C 12.400 55.500 12.300 55.400 12.300 55.500 V 59.300 C 12.300 59.400 12.400 59.300 12.300 59.300 H 10.400 C 10.345 59.300 10.300 59.345 10.300 59.400 V 63.400 C 10.300 63.455 10.345 63.500 10.400 63.500 H 12.300 C 12.400 63.500 12.300 63.400 12.300 63.500 V 71.100 C 12.300 71.155 12.345 71.200 12.400 71.200 Z" stroke="rgb(0,0,0)" stroke-width="0.20" />
</g>
</svg>