<?xml version='1.0' encoding='us-ascii'?>
<svg width="344.40mm" height="452.30mm" viewBox="0.0 0.0 344.40 452.30" xmlns="http://www.w3.org/2000/svg" xmlns:dc="http://purl.org/dc/elements/1.1/" xmlns:cc="http://creativecommons.org/ns#" xmlns:rdf="http://www.w3.org/1999/02/22-rdf-syntax-ns#" xmlns:svg="http://www.w3.org/2000/svg" xmlns:xlink="http://www.w3.org/1999/xlink" xmlns:inkscape="http://www.inkscape.org/namespaces/inkscape">
<!--
ClosedBox - Fully closed box


This box is more of a building block than a finished item.
Use a vector graphics program (like Inkscape) to add holes or adjust the base
plate.

See BasedBox for variant with a base.


Created with Boxes.py (https://festi.info/boxes.py)
Creation date: 2022-12-24 20:07:12
Command line (remove spaces between dashes): boxes ClosedBox - -FingerJoint_angle=90.0 - -FingerJoint_style=rectangular - -FingerJoint_surroundingspaces=2.0 - -FingerJoint_edge_width=1.0 - -FingerJoint_extra_length=0.0 - -FingerJoint_finger=2.0 - -FingerJoint_play=0.0 - -FingerJoint_space=2.0 - -FingerJoint_width=1.0 - -x=104.2 - -y=218 - -h=99.5 - -outside=0 - -outside=1 - -thickness=3.0 - -format=svg - -tabs=0.0 - -debug=0 - -labels=0 - -labels=1 - -reference=100 - -inner_corners=loop - -burn=0.1
Url: http://www.festi.info/ClosedBox?FingerJoint_angle=90.0&FingerJoint_style=rectangular&FingerJoint_surroundingspaces=2.0&FingerJoint_edge_width=1.0&FingerJoint_extra_length=0.0&FingerJoint_finger=2.0&FingerJoint_play=0.0&FingerJoint_space=2.0&FingerJoint_width=1.0&x=104.2&y=218&h=99.5&outside=0&outside=1&thickness=3.0&format=svg&tabs=0.0&debug=0&labels=0&labels=1&reference=100&inner_corners=loop&burn=0.1&render=1
SettingsUrl: http://www.festi.info/ClosedBox?FingerJoint_angle=90.0&FingerJoint_style=rectangular&FingerJoint_surroundingspaces=2.0&FingerJoint_edge_width=1.0&FingerJoint_extra_length=0.0&FingerJoint_finger=2.0&FingerJoint_play=0.0&FingerJoint_space=2.0&FingerJoint_width=1.0&x=104.2&y=218&h=99.5&outside=0&outside=1&thickness=3.0&format=svg&tabs=0.0&debug=0&labels=0&labels=1&reference=100&inner_corners=loop&burn=0.1
-->
<title>ClosedBox</title>
<metadata>
<rdf:RDF><cc:Work>
<dc:title>Box - ClosedBox</dc:title>
<dc:date>2022-12-24 20:07:12</dc:date>
<dc:source>http://www.festi.info/ClosedBox?FingerJoint_angle=90.0&amp;FingerJoint_style=rectangular&amp;FingerJoint_surroundingspaces=2.0&amp;FingerJoint_edge_width=1.0&amp;FingerJoint_extra_length=0.0&amp;FingerJoint_finger=2.0&amp;FingerJoint_play=0.0&amp;FingerJoint_space=2.0&amp;FingerJoint_width=1.0&amp;x=104.2&amp;y=218&amp;h=99.5&amp;outside=0&amp;outside=1&amp;thickness=3.0&amp;format=svg&amp;tabs=0.0&amp;debug=0&amp;labels=0&amp;labels=1&amp;reference=100&amp;inner_corners=loop&amp;burn=0.1&amp;render=1</dc:source>
<dc:description>Fully closed box

This box is more of a building block than a finished item.
Use a vector graphics program (like Inkscape) to add holes or adjust the base
plate.

See BasedBox for variant with a base.

Created with Boxes.py (https://festi.info/boxes.py)
Command line: boxes ClosedBox --FingerJoint_angle=90.0 --FingerJoint_style=rectangular --FingerJoint_surroundingspaces=2.0 --FingerJoint_edge_width=1.0 --FingerJoint_extra_length=0.0 --FingerJoint_finger=2.0 --FingerJoint_play=0.0 --FingerJoint_space=2.0 --FingerJoint_width=1.0 --x=104.2 --y=218 --h=99.5 --outside=0 --outside=1 --thickness=3.0 --format=svg --tabs=0.0 --debug=0 --labels=0 --labels=1 --reference=100 --inner_corners=loop --burn=0.1
Url: http://www.festi.info/ClosedBox?FingerJoint_angle=90.0&amp;FingerJoint_style=rectangular&amp;FingerJoint_surroundingspaces=2.0&amp;FingerJoint_edge_width=1.0&amp;FingerJoint_extra_length=0.0&amp;FingerJoint_finger=2.0&amp;FingerJoint_play=0.0&amp;FingerJoint_space=2.0&amp;FingerJoint_width=1.0&amp;x=104.2&amp;y=218&amp;h=99.5&amp;outside=0&amp;outside=1&amp;thickness=3.0&amp;format=svg&amp;tabs=0.0&amp;debug=0&amp;labels=0&amp;labels=1&amp;reference=100&amp;inner_corners=loop&amp;burn=0.1&amp;render=1
SettingsUrl: http://www.festi.info/ClosedBox?FingerJoint_angle=90.0&amp;FingerJoint_style=rectangular&amp;FingerJoint_surroundingspaces=2.0&amp;FingerJoint_edge_width=1.0&amp;FingerJoint_extra_length=0.0&amp;FingerJoint_finger=2.0&amp;FingerJoint_play=0.0&amp;FingerJoint_space=2.0&amp;FingerJoint_width=1.0&amp;x=104.2&amp;y=218&amp;h=99.5&amp;outside=0&amp;outside=1&amp;thickness=3.0&amp;format=svg&amp;tabs=0.0&amp;debug=0&amp;labels=0&amp;labels=1&amp;reference=100&amp;inner_corners=loop&amp;burn=0.1
</dc:description>
</cc:Work></rdf:RDF></metadata>
<g id="p-0" style="fill:none;stroke-linecap:round;stroke-linejoin:round;">
  <path d="M 10.400 442.300 H 110.400 V 432.300 H 10.400 V 442.300 Z" stroke="rgb(0,0,0)" stroke-width="0.20" />
  <text transform="matrix( 1.000 0.000 0.000 1.000 60.400 433.300 )" style="font-family: sans-serif ; font-weight: normal; font-style: normal; fill: rgb(255,0,0)" font-size="8px" text-anchor="middle" dominant-baseline="hanging">100mm, burn:0.10mm</text>
</g>
<g id="p-1" style="fill:none;stroke-linecap:round;stroke-linejoin:round;">
  <text transform="matrix( 1.000 0.000 0.000 1.000 62.500 378.850 )" style="font-family: sans-serif ; font-weight: normal; font-style: normal; fill: rgb(255,0,0)" font-size="4px" text-anchor="middle" dominant-baseline="hanging">Wall 1</text><path d="M 13.400 430.600 H 23.500 C 23.555 430.600 23.600 430.555 23.600 430.500 V 427.600 C 23.600 427.500 23.500 427.600 23.600 427.600 H 29.400 C 29.500 427.600 29.400 427.500 29.400 427.600 V 430.500 C 29.400 430.555 29.445 430.600 29.500 430.600 H 35.500 C 35.555 430.600 35.600 430.555 35.600 430.500 V 427.600 C 35.600 427.500 35.500 427.600 35.600 427.600 H 41.400 C 41.500 427.600 41.400 427.500 41.400 427.600 V 430.500 C 41.400 430.555 41.445 430.600 41.500 430.600 H 47.500 C 47.555 430.600 47.600 430.555 47.600 430.500 V 427.600 C 47.600 427.500 47.500 427.600 47.600 427.600 H 53.400 C 53.500 427.600 53.400 427.500 53.400 427.600 V 430.500 C 53.400 430.555 53.445 430.600 53.500 430.600 H 59.500 C 59.555 430.600 59.600 430.555 59.600 430.500 V 427.600 C 59.600 427.500 59.500 427.600 59.600 427.600 H 65.400 C 65.500 427.600 65.400 427.500 65.400 427.600 V 430.500 C 65.400 430.555 65.445 430.600 65.500 430.600 H 71.500 C 71.555 430.600 71.600 430.555 71.600 430.500 V 427.600 C 71.600 427.500 71.500 427.600 71.600 427.600 H 77.400 C 77.500 427.600 77.400 427.500 77.400 427.600 V 430.500 C 77.400 430.555 77.445 430.600 77.500 430.600 H 83.500 C 83.555 430.600 83.600 430.555 83.600 430.500 V 427.600 C 83.600 427.500 83.500 427.600 83.600 427.600 H 89.400 C 89.500 427.600 89.400 427.500 89.400 427.600 V 430.500 C 89.400 430.555 89.445 430.600 89.500 430.600 H 95.500 C 95.555 430.600 95.600 430.555 95.600 430.500 V 427.600 C 95.600 427.500 95.500 427.600 95.600 427.600 H 101.400 C 101.500 427.600 101.400 427.500 101.400 427.600 V 430.500 C 101.400 430.555 101.445 430.600 101.500 430.600 H 111.600 H 114.600 C 114.655 430.600 114.700 430.555 114.700 430.500 V 427.500 V 419.750 C 114.700 419.695 114.655 419.650 114.600 419.650 H 111.700 C 111.600 419.650 111.700 419.750 111.700 419.650 V 413.850 C 111.700 413.750 111.600 413.850 111.700 413.850 H 114.600 C 114.655 413.850 114.700 413.805 114.700 413.750 V 407.750 C 114.700 407.695 114.655 407.650 114.600 407.650 H 111.700 C 111.600 407.650 111.700 407.750 111.700 407.650 V 401.850 C 111.700 401.750 111.600 401.850 111.700 401.850 H 114.600 C 114.655 401.850 114.700 401.805 114.700 401.750 V 395.750 C 114.700 395.695 114.655 395.650 114.600 395.650 H 111.700 C 111.600 395.650 111.700 395.750 111.700 395.650 V 389.850 C 111.700 389.750 111.600 389.850 111.700 389.850 H 114.600 C 114.655 389.850 114.700 389.805 114.700 389.750 V 383.750 C 114.700 383.695 114.655 383.650 114.600 383.650 H 111.700 C 111.600 383.650 111.700 383.750 111.700 383.650 V 377.850 C 111.700 377.750 111.600 377.850 111.700 377.850 H 114.600 C 114.655 377.850 114.700 377.805 114.700 377.750 V 371.750 C 114.700 371.695 114.655 371.650 114.600 371.650 H 111.700 C 111.600 371.650 111.700 371.750 111.700 371.650 V 365.850 C 111.700 365.750 111.600 365.850 111.700 365.850 H 114.600 C 114.655 365.850 114.700 365.805 114.700 365.750 V 359.750 C 114.700 359.695 114.655 359.650 114.600 359.650 H 111.700 C 111.600 359.650 111.700 359.750 111.700 359.650 V 353.850 C 111.700 353.750 111.600 353.850 111.700 353.850 H 114.600 C 114.655 353.850 114.700 353.805 114.700 353.750 V 347.750 C 114.700 347.695 114.655 347.650 114.600 347.650 H 111.700 C 111.600 347.650 111.700 347.750 111.700 347.650 V 341.850 C 111.700 341.750 111.600 341.850 111.700 341.850 H 114.600 C 114.655 341.850 114.700 341.805 114.700 341.750 V 334.000 V 331.000 C 114.700 330.945 114.655 330.900 114.600 330.900 H 111.600 H 101.500 C 101.445 330.900 101.400 330.945 101.400 331.000 V 333.900 C 101.400 334.000 101.500 333.900 101.400 333.900 H 95.600 C 95.500 333.900 95.600 334.000 95.600 333.900 V 331.000 C 95.600 330.945 95.555 330.900 95.500 330.900 H 89.500 C 89.445 330.900 89.400 330.945 89.400 331.000 V 333.900 C 89.400 334.000 89.500 333.900 89.400 333.900 H 83.600 C 83.500 333.900 83.600 334.000 83.600 333.900 V 331.000 C 83.600 330.945 83.555 330.900 83.500 330.900 H 77.500 C 77.445 330.900 77.400 330.945 77.400 331.000 V 333.900 C 77.400 334.000 77.500 333.900 77.400 333.900 H 71.600 C 71.500 333.900 71.600 334.000 71.600 333.900 V 331.000 C 71.600 330.945 71.555 330.900 71.500 330.900 H 65.500 C 65.445 330.900 65.400 330.945 65.400 331.000 V 333.900 C 65.400 334.000 65.500 333.900 65.400 333.900 H 59.600 C 59.500 333.900 59.600 334.000 59.600 333.900 V 331.000 C 59.600 330.945 59.555 330.900 59.500 330.900 H 53.500 C 53.445 330.900 53.400 330.945 53.400 331.000 V 333.900 C 53.400 334.000 53.500 333.900 53.400 333.900 H 47.600 C 47.500 333.900 47.600 334.000 47.600 333.900 V 331.000 C 47.600 330.945 47.555 330.900 47.500 330.900 H 41.500 C 41.445 330.900 41.400 330.945 41.400 331.000 V 333.900 C 41.400 334.000 41.500 333.900 41.400 333.900 H 35.600 C 35.500 333.900 35.600 334.000 35.600 333.900 V 331.000 C 35.600 330.945 35.555 330.900 35.500 330.900 H 29.500 C 29.445 330.900 29.400 330.945 29.400 331.000 V 333.900 C 29.400 334.000 29.500 333.900 29.400 333.900 H 23.600 C 23.500 333.900 23.600 334.000 23.600 333.900 V 331.000 C 23.600 330.945 23.555 330.900 23.500 330.900 H 13.400 H 10.400 C 10.345 330.900 10.300 330.945 10.300 331.000 V 334.000 V 341.750 C 10.300 341.805 10.345 341.850 10.400 341.850 H 13.300 C 13.400 341.850 13.300 341.750 13.300 341.850 V 347.650 C 13.300 347.750 13.400 347.650 13.300 347.650 H 10.400 C 10.345 347.650 10.300 347.695 10.300 347.750 V 353.750 C 10.300 353.805 10.345 353.850 10.400 353.850 H 13.300 C 13.400 353.850 13.300 353.750 13.300 353.850 V 359.650 C 13.300 359.750 13.400 359.650 13.300 359.650 H 10.400 C 10.345 359.650 10.300 359.695 10.300 359.750 V 365.750 C 10.300 365.805 10.345 365.850 10.400 365.850 H 13.300 C 13.400 365.850 13.300 365.750 13.300 365.850 V 371.650 C 13.300 371.750 13.400 371.650 13.300 371.650 H 10.400 C 10.345 371.650 10.300 371.695 10.300 371.750 V 377.750 C 10.300 377.805 10.345 377.850 10.400 377.850 H 13.300 C 13.400 377.850 13.300 377.750 13.300 377.850 V 383.650 C 13.300 383.750 13.400 383.650 13.300 383.650 H 10.400 C 10.345 383.650 10.300 383.695 10.300 383.750 V 389.750 C 10.300 389.805 10.345 389.850 10.400 389.850 H 13.300 C 13.400 389.850 13.300 389.750 13.300 389.850 V 395.650 C 13.300 395.750 13.400 395.650 13.300 395.650 H 10.400 C 10.345 395.650 10.300 395.695 10.300 395.750 V 401.750 C 10.300 401.805 10.345 401.850 10.400 401.850 H 13.300 C 13.400 401.850 13.300 401.750 13.300 401.850 V 407.650 C 13.300 407.750 13.400 407.650 13.300 407.650 H 10.400 C 10.345 407.650 10.300 407.695 10.300 407.750 V 413.750 C 10.300 413.805 10.345 413.850 10.400 413.850 H 13.300 C 13.400 413.850 13.300 413.750 13.300 413.850 V 419.650 C 13.300 419.750 13.400 419.650 13.300 419.650 H 10.400 C 10.345 419.650 10.300 419.695 10.300 419.750 V 427.500 V 430.500 C 10.300 430.555 10.345 430.600 10.400 430.600 H 13.400" stroke="rgb(0,0,0)" stroke-width="0.20" />
</g>
<g id="p-2" style="fill:none;stroke-linecap:round;stroke-linejoin:round;">
  <text transform="matrix( 1.000 0.000 0.000 1.000 225.300 378.850 )" style="font-family: sans-serif ; font-weight: normal; font-style: normal; fill: rgb(255,0,0)" font-size="4px" text-anchor="middle" dominant-baseline="hanging">Wall 2</text><path d="M 119.300 430.600 H 126.300 C 126.355 430.600 126.400 430.555 126.400 430.500 V 427.600 C 126.400 427.500 126.300 427.600 126.400 427.600 H 132.200 C 132.300 427.600 132.200 427.500 132.200 427.600 V 430.500 C 132.200 430.555 132.245 430.600 132.300 430.600 H 138.300 C 138.355 430.600 138.400 430.555 138.400 430.500 V 427.600 C 138.400 427.500 138.300 427.600 138.400 427.600 H 144.200 C 144.300 427.600 144.200 427.500 144.200 427.600 V 430.500 C 144.200 430.555 144.245 430.600 144.300 430.600 H 150.300 C 150.355 430.600 150.400 430.555 150.400 430.500 V 427.600 C 150.400 427.500 150.300 427.600 150.400 427.600 H 156.200 C 156.300 427.600 156.200 427.500 156.200 427.600 V 430.500 C 156.200 430.555 156.245 430.600 156.300 430.600 H 162.300 C 162.355 430.600 162.400 430.555 162.400 430.500 V 427.600 C 162.400 427.500 162.300 427.600 162.400 427.600 H 168.200 C 168.300 427.600 168.200 427.500 168.200 427.600 V 430.500 C 168.200 430.555 168.245 430.600 168.300 430.600 H 174.300 C 174.355 430.600 174.400 430.555 174.400 430.500 V 427.600 C 174.400 427.500 174.300 427.600 174.400 427.600 H 180.200 C 180.300 427.600 180.200 427.500 180.200 427.600 V 430.500 C 180.200 430.555 180.245 430.600 180.300 430.600 H 186.300 C 186.355 430.600 186.400 430.555 186.400 430.500 V 427.600 C 186.400 427.500 186.300 427.600 186.400 427.600 H 192.200 C 192.300 427.600 192.200 427.500 192.200 427.600 V 430.500 C 192.200 430.555 192.245 430.600 192.300 430.600 H 198.300 C 198.355 430.600 198.400 430.555 198.400 430.500 V 427.600 C 198.400 427.500 198.300 427.600 198.400 427.600 H 204.200 C 204.300 427.600 204.200 427.500 204.200 427.600 V 430.500 C 204.200 430.555 204.245 430.600 204.300 430.600 H 210.300 C 210.355 430.600 210.400 430.555 210.400 430.500 V 427.600 C 210.400 427.500 210.300 427.600 210.400 427.600 H 216.200 C 216.300 427.600 216.200 427.500 216.200 427.600 V 430.500 C 216.200 430.555 216.245 430.600 216.300 430.600 H 222.300 C 222.355 430.600 222.400 430.555 222.400 430.500 V 427.600 C 222.400 427.500 222.300 427.600 222.400 427.600 H 228.200 C 228.300 427.600 228.200 427.500 228.200 427.600 V 430.500 C 228.200 430.555 228.245 430.600 228.300 430.600 H 234.300 C 234.355 430.600 234.400 430.555 234.400 430.500 V 427.600 C 234.400 427.500 234.300 427.600 234.400 427.600 H 240.200 C 240.300 427.600 240.200 427.500 240.200 427.600 V 430.500 C 240.200 430.555 240.245 430.600 240.300 430.600 H 246.300 C 246.355 430.600 246.400 430.555 246.400 430.500 V 427.600 C 246.400 427.500 246.300 427.600 246.400 427.600 H 252.200 C 252.300 427.600 252.200 427.500 252.200 427.600 V 430.500 C 252.200 430.555 252.245 430.600 252.300 430.600 H 258.300 C 258.355 430.600 258.400 430.555 258.400 430.500 V 427.600 C 258.400 427.500 258.300 427.600 258.400 427.600 H 264.200 C 264.300 427.600 264.200 427.500 264.200 427.600 V 430.500 C 264.200 430.555 264.245 430.600 264.300 430.600 H 270.300 C 270.355 430.600 270.400 430.555 270.400 430.500 V 427.600 C 270.400 427.500 270.300 427.600 270.400 427.600 H 276.200 C 276.300 427.600 276.200 427.500 276.200 427.600 V 430.500 C 276.200 430.555 276.245 430.600 276.300 430.600 H 282.300 C 282.355 430.600 282.400 430.555 282.400 430.500 V 427.600 C 282.400 427.500 282.300 427.600 282.400 427.600 H 288.200 C 288.300 427.600 288.200 427.500 288.200 427.600 V 430.500 C 288.200 430.555 288.245 430.600 288.300 430.600 H 294.300 C 294.355 430.600 294.400 430.555 294.400 430.500 V 427.600 C 294.400 427.500 294.300 427.600 294.400 427.600 H 300.200 C 300.300 427.600 300.200 427.500 300.200 427.600 V 430.500 C 300.200 430.555 300.245 430.600 300.300 430.600 H 306.300 C 306.355 430.600 306.400 430.555 306.400 430.500 V 427.600 C 306.400 427.500 306.300 427.600 306.400 427.600 H 312.200 C 312.300 427.600 312.200 427.500 312.200 427.600 V 430.500 C 312.200 430.555 312.245 430.600 312.300 430.600 H 318.300 C 318.355 430.600 318.400 430.555 318.400 430.500 V 427.600 C 318.400 427.500 318.300 427.600 318.400 427.600 H 324.200 C 324.300 427.600 324.200 427.500 324.200 427.600 V 430.500 C 324.200 430.555 324.245 430.600 324.300 430.600 H 331.300 C 331.355 430.600 331.400 430.555 331.400 430.500 V 427.500 V 419.850 C 331.400 419.750 331.300 419.850 331.400 419.850 H 334.300 C 334.355 419.850 334.400 419.805 334.400 419.750 V 413.750 C 334.400 413.695 334.355 413.650 334.300 413.650 H 331.400 C 331.300 413.650 331.400 413.750 331.400 413.650 V 407.850 C 331.400 407.750 331.300 407.850 331.400 407.850 H 334.300 C 334.355 407.850 334.400 407.805 334.400 407.750 V 401.750 C 334.400 401.695 334.355 401.650 334.300 401.650 H 331.400 C 331.300 401.650 331.400 401.750 331.400 401.650 V 395.850 C 331.400 395.750 331.300 395.850 331.400 395.850 H 334.300 C 334.355 395.850 334.400 395.805 334.400 395.750 V 389.750 C 334.400 389.695 334.355 389.650 334.300 389.650 H 331.400 C 331.300 389.650 331.400 389.750 331.400 389.650 V 383.850 C 331.400 383.750 331.300 383.850 331.400 383.850 H 334.300 C 334.355 383.850 334.400 383.805 334.400 383.750 V 377.750 C 334.400 377.695 334.355 377.650 334.300 377.650 H 331.400 C 331.300 377.650 331.400 377.750 331.400 377.650 V 371.850 C 331.400 371.750 331.300 371.850 331.400 371.850 H 334.300 C 334.355 371.850 334.400 371.805 334.400 371.750 V 365.750 C 334.400 365.695 334.355 365.650 334.300 365.650 H 331.400 C 331.300 365.650 331.400 365.750 331.400 365.650 V 359.850 C 331.400 359.750 331.300 359.850 331.400 359.850 H 334.300 C 334.355 359.850 334.400 359.805 334.400 359.750 V 353.750 C 334.400 353.695 334.355 353.650 334.300 353.650 H 331.400 C 331.300 353.650 331.400 353.750 331.400 353.650 V 347.850 C 331.400 347.750 331.300 347.850 331.400 347.850 H 334.300 C 334.355 347.850 334.400 347.805 334.400 347.750 V 341.750 C 334.400 341.695 334.355 341.650 334.300 341.650 H 331.400 C 331.300 341.650 331.400 341.750 331.400 341.650 V 334.000 V 331.000 C 331.400 330.945 331.355 330.900 331.300 330.900 H 324.300 C 324.245 330.900 324.200 330.945 324.200 331.000 V 333.900 C 324.200 334.000 324.300 333.900 324.200 333.900 H 318.400 C 318.300 333.900 318.400 334.000 318.400 333.900 V 331.000 C 318.400 330.945 318.355 330.900 318.300 330.900 H 312.300 C 312.245 330.900 312.200 330.945 312.200 331.000 V 333.900 C 312.200 334.000 312.300 333.900 312.200 333.900 H 306.400 C 306.300 333.900 306.400 334.000 306.400 333.900 V 331.000 C 306.400 330.945 306.355 330.900 306.300 330.900 H 300.300 C 300.245 330.900 300.200 330.945 300.200 331.000 V 333.900 C 300.200 334.000 300.300 333.900 300.200 333.900 H 294.400 C 294.300 333.900 294.400 334.000 294.400 333.900 V 331.000 C 294.400 330.945 294.355 330.900 294.300 330.900 H 288.300 C 288.245 330.900 288.200 330.945 288.200 331.000 V 333.900 C 288.200 334.000 288.300 333.900 288.200 333.900 H 282.400 C 282.300 333.900 282.400 334.000 282.400 333.900 V 331.000 C 282.400 330.945 282.355 330.900 282.300 330.900 H 276.300 C 276.245 330.900 276.200 330.945 276.200 331.000 V 333.900 C 276.200 334.000 276.300 333.900 276.200 333.900 H 270.400 C 270.300 333.900 270.400 334.000 270.400 333.900 V 331.000 C 270.400 330.945 270.355 330.900 270.300 330.900 H 264.300 C 264.245 330.900 264.200 330.945 264.200 331.000 V 333.900 C 264.200 334.000 264.300 333.900 264.200 333.900 H 258.400 C 258.300 333.900 258.400 334.000 258.400 333.900 V 331.000 C 258.400 330.945 258.355 330.900 258.300 330.900 H 252.300 C 252.245 330.900 252.200 330.945 252.200 331.000 V 333.900 C 252.200 334.000 252.300 333.900 252.200 333.900 H 246.400 C 246.300 333.900 246.400 334.000 246.400 333.900 V 331.000 C 246.400 330.945 246.355 330.900 246.300 330.900 H 240.300 C 240.245 330.900 240.200 330.945 240.200 331.000 V 333.900 C 240.200 334.000 240.300 333.900 240.200 333.900 H 234.400 C 234.300 333.900 234.400 334.000 234.400 333.900 V 331.000 C 234.400 330.945 234.355 330.900 234.300 330.900 H 228.300 C 228.245 330.900 228.200 330.945 228.200 331.000 V 333.900 C 228.200 334.000 228.300 333.900 228.200 333.900 H 222.400 C 222.300 333.900 222.400 334.000 222.400 333.900 V 331.000 C 222.400 330.945 222.355 330.900 222.300 330.900 H 216.300 C 216.245 330.900 216.200 330.945 216.200 331.000 V 333.900 C 216.200 334.000 216.300 333.900 216.200 333.900 H 210.400 C 210.300 333.900 210.400 334.000 210.400 333.900 V 331.000 C 210.400 330.945 210.355 330.900 210.300 330.900 H 204.300 C 204.245 330.900 204.200 330.945 204.200 331.000 V 333.900 C 204.200 334.000 204.300 333.900 204.200 333.900 H 198.400 C 198.300 333.900 198.400 334.000 198.400 333.900 V 331.000 C 198.400 330.945 198.355 330.900 198.300 330.900 H 192.300 C 192.245 330.900 192.200 330.945 192.200 331.000 V 333.900 C 192.200 334.000 192.300 333.900 192.200 333.900 H 186.400 C 186.300 333.900 186.400 334.000 186.400 333.900 V 331.000 C 186.400 330.945 186.355 330.900 186.300 330.900 H 180.300 C 180.245 330.900 180.200 330.945 180.200 331.000 V 333.900 C 180.200 334.000 180.300 333.900 180.200 333.900 H 174.400 C 174.300 333.900 174.400 334.000 174.400 333.900 V 331.000 C 174.400 330.945 174.355 330.900 174.300 330.900 H 168.300 C 168.245 330.900 168.200 330.945 168.200 331.000 V 333.900 C 168.200 334.000 168.300 333.900 168.200 333.900 H 162.400 C 162.300 333.900 162.400 334.000 162.400 333.900 V 331.000 C 162.400 330.945 162.355 330.900 162.300 330.900 H 156.300 C 156.245 330.900 156.200 330.945 156.200 331.000 V 333.900 C 156.200 334.000 156.300 333.900 156.200 333.900 H 150.400 C 150.300 333.900 150.400 334.000 150.400 333.900 V 331.000 C 150.400 330.945 150.355 330.900 150.300 330.900 H 144.300 C 144.245 330.900 144.200 330.945 144.200 331.000 V 333.900 C 144.200 334.000 144.300 333.900 144.200 333.900 H 138.400 C 138.300 333.900 138.400 334.000 138.400 333.900 V 331.000 C 138.400 330.945 138.355 330.900 138.300 330.900 H 132.300 C 132.245 330.900 132.200 330.945 132.200 331.000 V 333.900 C 132.200 334.000 132.300 333.900 132.200 333.900 H 126.400 C 126.300 333.900 126.400 334.000 126.400 333.900 V 331.000 C 126.400 330.945 126.355 330.900 126.300 330.900 H 119.300 C 119.245 330.900 119.200 330.945 119.200 331.000 V 334.000 V 341.650 C 119.200 341.750 119.300 341.650 119.200 341.650 H 116.300 C 116.245 341.650 116.200 341.695 116.200 341.750 V 347.750 C 116.200 347.805 116.245 347.850 116.300 347.850 H 119.200 C 119.300 347.850 119.200 347.750 119.200 347.850 V 353.650 C 119.200 353.750 119.300 353.650 119.200 353.650 H 116.300 C 116.245 353.650 116.200 353.695 116.200 353.750 V 359.750 C 116.200 359.805 116.245 359.850 116.300 359.850 H 119.200 C 119.300 359.850 119.200 359.750 119.200 359.850 V 365.650 C 119.200 365.750 119.300 365.650 119.200 365.650 H 116.300 C 116.245 365.650 116.200 365.695 116.200 365.750 V 371.750 C 116.200 371.805 116.245 371.850 116.300 371.850 H 119.200 C 119.300 371.850 119.200 371.750 119.200 371.850 V 377.650 C 119.200 377.750 119.300 377.650 119.200 377.650 H 116.300 C 116.245 377.650 116.200 377.695 116.200 377.750 V 383.750 C 116.200 383.805 116.245 383.850 116.300 383.850 H 119.200 C 119.300 383.850 119.200 383.750 119.200 383.850 V 389.650 C 119.200 389.750 119.300 389.650 119.200 389.650 H 116.300 C 116.245 389.650 116.200 389.695 116.200 389.750 V 395.750 C 116.200 395.805 116.245 395.850 116.300 395.850 H 119.200 C 119.300 395.850 119.200 395.750 119.200 395.850 V 401.650 C 119.200 401.750 119.300 401.650 119.200 401.650 H 116.300 C 116.245 401.650 116.200 401.695 116.200 401.750 V 407.750 C 116.200 407.805 116.245 407.850 116.300 407.850 H 119.200 C 119.300 407.850 119.200 407.750 119.200 407.850 V 413.650 C 119.200 413.750 119.300 413.650 119.200 413.650 H 116.300 C 116.245 413.650 116.200 413.695 116.200 413.750 V 419.750 C 116.200 419.805 116.245 419.850 116.300 419.850 H 119.200 C 119.300 419.850 119.200 419.750 119.200 419.850 V 427.500 V 430.500 C 119.200 430.555 119.245 430.600 119.300 430.600" stroke="rgb(0,0,0)" stroke-width="0.20" />
</g>
<g id="p-3" style="fill:none;stroke-linecap:round;stroke-linejoin:round;">
  <text transform="matrix( 1.000 0.000 0.000 1.000 225.300 277.650 )" style="font-family: sans-serif ; font-weight: normal; font-style: normal; fill: rgb(255,0,0)" font-size="4px" text-anchor="middle" dominant-baseline="hanging">Wall 4</text><path d="M 119.300 329.400 H 126.300 C 126.355 329.400 126.400 329.355 126.400 329.300 V 326.400 C 126.400 326.300 126.300 326.400 126.400 326.400 H 132.200 C 132.300 326.400 132.200 326.300 132.200 326.400 V 329.300 C 132.200 329.355 132.245 329.400 132.300 329.400 H 138.300 C 138.355 329.400 138.400 329.355 138.400 329.300 V 326.400 C 138.400 326.300 138.300 326.400 138.400 326.400 H 144.200 C 144.300 326.400 144.200 326.300 144.200 326.400 V 329.300 C 144.200 329.355 144.245 329.400 144.300 329.400 H 150.300 C 150.355 329.400 150.400 329.355 150.400 329.300 V 326.400 C 150.400 326.300 150.300 326.400 150.400 326.400 H 156.200 C 156.300 326.400 156.200 326.300 156.200 326.400 V 329.300 C 156.200 329.355 156.245 329.400 156.300 329.400 H 162.300 C 162.355 329.400 162.400 329.355 162.400 329.300 V 326.400 C 162.400 326.300 162.300 326.400 162.400 326.400 H 168.200 C 168.300 326.400 168.200 326.300 168.200 326.400 V 329.300 C 168.200 329.355 168.245 329.400 168.300 329.400 H 174.300 C 174.355 329.400 174.400 329.355 174.400 329.300 V 326.400 C 174.400 326.300 174.300 326.400 174.400 326.400 H 180.200 C 180.300 326.400 180.200 326.300 180.200 326.400 V 329.300 C 180.200 329.355 180.245 329.400 180.300 329.400 H 186.300 C 186.355 329.400 186.400 329.355 186.400 329.300 V 326.400 C 186.400 326.300 186.300 326.400 186.400 326.400 H 192.200 C 192.300 326.400 192.200 326.300 192.200 326.400 V 329.300 C 192.200 329.355 192.245 329.400 192.300 329.400 H 198.300 C 198.355 329.400 198.400 329.355 198.400 329.300 V 326.400 C 198.400 326.300 198.300 326.400 198.400 326.400 H 204.200 C 204.300 326.400 204.200 326.300 204.200 326.400 V 329.300 C 204.200 329.355 204.245 329.400 204.300 329.400 H 210.300 C 210.355 329.400 210.400 329.355 210.400 329.300 V 326.400 C 210.400 326.300 210.300 326.400 210.400 326.400 H 216.200 C 216.300 326.400 216.200 326.300 216.200 326.400 V 329.300 C 216.200 329.355 216.245 329.400 216.300 329.400 H 222.300 C 222.355 329.400 222.400 329.355 222.400 329.300 V 326.400 C 222.400 326.300 222.300 326.400 222.400 326.400 H 228.200 C 228.300 326.400 228.200 326.300 228.200 326.400 V 329.300 C 228.200 329.355 228.245 329.400 228.300 329.400 H 234.300 C 234.355 329.400 234.400 329.355 234.400 329.300 V 326.400 C 234.400 326.300 234.300 326.400 234.400 326.400 H 240.200 C 240.300 326.400 240.200 326.300 240.200 326.400 V 329.300 C 240.200 329.355 240.245 329.400 240.300 329.400 H 246.300 C 246.355 329.400 246.400 329.355 246.400 329.300 V 326.400 C 246.400 326.300 246.300 326.400 246.400 326.400 H 252.200 C 252.300 326.400 252.200 326.300 252.200 326.400 V 329.300 C 252.200 329.355 252.245 329.400 252.300 329.400 H 258.300 C 258.355 329.400 258.400 329.355 258.400 329.300 V 326.400 C 258.400 326.300 258.300 326.400 258.400 326.400 H 264.200 C 264.300 326.400 264.200 326.300 264.200 326.400 V 329.300 C 264.200 329.355 264.245 329.400 264.300 329.400 H 270.300 C 270.355 329.400 270.400 329.355 270.400 329.300 V 326.400 C 270.400 326.300 270.300 326.400 270.400 326.400 H 276.200 C 276.300 326.400 276.200 326.300 276.200 326.400 V 329.300 C 276.200 329.355 276.245 329.400 276.300 329.400 H 282.300 C 282.355 329.400 282.400 329.355 282.400 329.300 V 326.400 C 282.400 326.300 282.300 326.400 282.400 326.400 H 288.200 C 288.300 326.400 288.200 326.300 288.200 326.400 V 329.300 C 288.200 329.355 288.245 329.400 288.300 329.400 H 294.300 C 294.355 329.400 294.400 329.355 294.400 329.300 V 326.400 C 294.400 326.300 294.300 326.400 294.400 326.400 H 300.200 C 300.300 326.400 300.200 326.300 300.200 326.400 V 329.300 C 300.200 329.355 300.245 329.400 300.300 329.400 H 306.300 C 306.355 329.400 306.400 329.355 306.400 329.300 V 326.400 C 306.400 326.300 306.300 326.400 306.400 326.400 H 312.200 C 312.300 326.400 312.200 326.300 312.200 326.400 V 329.300 C 312.200 329.355 312.245 329.400 312.300 329.400 H 318.300 C 318.355 329.400 318.400 329.355 318.400 329.300 V 326.400 C 318.400 326.300 318.300 326.400 318.400 326.400 H 324.200 C 324.300 326.400 324.200 326.300 324.200 326.400 V 329.300 C 324.200 329.355 324.245 329.400 324.300 329.400 H 331.300 C 331.355 329.400 331.400 329.355 331.400 329.300 V 326.300 V 318.650 C 331.400 318.550 331.300 318.650 331.400 318.650 H 334.300 C 334.355 318.650 334.400 318.605 334.400 318.550 V 312.550 C 334.400 312.495 334.355 312.450 334.300 312.450 H 331.400 C 331.300 312.450 331.400 312.550 331.400 312.450 V 306.650 C 331.400 306.550 331.300 306.650 331.400 306.650 H 334.300 C 334.355 306.650 334.400 306.605 334.400 306.550 V 300.550 C 334.400 300.495 334.355 300.450 334.300 300.450 H 331.400 C 331.300 300.450 331.400 300.550 331.400 300.450 V 294.650 C 331.400 294.550 331.300 294.650 331.400 294.650 H 334.300 C 334.355 294.650 334.400 294.605 334.400 294.550 V 288.550 C 334.400 288.495 334.355 288.450 334.300 288.450 H 331.400 C 331.300 288.450 331.400 288.550 331.400 288.450 V 282.650 C 331.400 282.550 331.300 282.650 331.400 282.650 H 334.300 C 334.355 282.650 334.400 282.605 334.400 282.550 V 276.550 C 334.400 276.495 334.355 276.450 334.300 276.450 H 331.400 C 331.300 276.450 331.400 276.550 331.400 276.450 V 270.650 C 331.400 270.550 331.300 270.650 331.400 270.650 H 334.300 C 334.355 270.650 334.400 270.605 334.400 270.550 V 264.550 C 334.400 264.495 334.355 264.450 334.300 264.450 H 331.400 C 331.300 264.450 331.400 264.550 331.400 264.450 V 258.650 C 331.400 258.550 331.300 258.650 331.400 258.650 H 334.300 C 334.355 258.650 334.400 258.605 334.400 258.550 V 252.550 C 334.400 252.495 334.355 252.450 334.300 252.450 H 331.400 C 331.300 252.450 331.400 252.550 331.400 252.450 V 246.650 C 331.400 246.550 331.300 246.650 331.400 246.650 H 334.300 C 334.355 246.650 334.400 246.605 334.400 246.550 V 240.550 C 334.400 240.495 334.355 240.450 334.300 240.450 H 331.400 C 331.300 240.450 331.400 240.550 331.400 240.450 V 232.800 V 229.800 C 331.400 229.745 331.355 229.700 331.300 229.700 H 324.300 C 324.245 229.700 324.200 229.745 324.200 229.800 V 232.700 C 324.200 232.800 324.300 232.700 324.200 232.700 H 318.400 C 318.300 232.700 318.400 232.800 318.400 232.700 V 229.800 C 318.400 229.745 318.355 229.700 318.300 229.700 H 312.300 C 312.245 229.700 312.200 229.745 312.200 229.800 V 232.700 C 312.200 232.800 312.300 232.700 312.200 232.700 H 306.400 C 306.300 232.700 306.400 232.800 306.400 232.700 V 229.800 C 306.400 229.745 306.355 229.700 306.300 229.700 H 300.300 C 300.245 229.700 300.200 229.745 300.200 229.800 V 232.700 C 300.200 232.800 300.300 232.700 300.200 232.700 H 294.400 C 294.300 232.700 294.400 232.800 294.400 232.700 V 229.800 C 294.400 229.745 294.355 229.700 294.300 229.700 H 288.300 C 288.245 229.700 288.200 229.745 288.200 229.800 V 232.700 C 288.200 232.800 288.300 232.700 288.200 232.700 H 282.400 C 282.300 232.700 282.400 232.800 282.400 232.700 V 229.800 C 282.400 229.745 282.355 229.700 282.300 229.700 H 276.300 C 276.245 229.700 276.200 229.745 276.200 229.800 V 232.700 C 276.200 232.800 276.300 232.700 276.200 232.700 H 270.400 C 270.300 232.700 270.400 232.800 270.400 232.700 V 229.800 C 270.400 229.745 270.355 229.700 270.300 229.700 H 264.300 C 264.245 229.700 264.200 229.745 264.200 229.800 V 232.700 C 264.200 232.800 264.300 232.700 264.200 232.700 H 258.400 C 258.300 232.700 258.400 232.800 258.400 232.700 V 229.800 C 258.400 229.745 258.355 229.700 258.300 229.700 H 252.300 C 252.245 229.700 252.200 229.745 252.200 229.800 V 232.700 C 252.200 232.800 252.300 232.700 252.200 232.700 H 246.400 C 246.300 232.700 246.400 232.800 246.400 232.700 V 229.800 C 246.400 229.745 246.355 229.700 246.300 229.700 H 240.300 C 240.245 229.700 240.200 229.745 240.200 229.800 V 232.700 C 240.200 232.800 240.300 232.700 240.200 232.700 H 234.400 C 234.300 232.700 234.400 232.800 234.400 232.700 V 229.800 C 234.400 229.745 234.355 229.700 234.300 229.700 H 228.300 C 228.245 229.700 228.200 229.745 228.200 229.800 V 232.700 C 228.200 232.800 228.300 232.700 228.200 232.700 H 222.400 C 222.300 232.700 222.400 232.800 222.400 232.700 V 229.800 C 222.400 229.745 222.355 229.700 222.300 229.700 H 216.300 C 216.245 229.700 216.200 229.745 216.200 229.800 V 232.700 C 216.200 232.800 216.300 232.700 216.200 232.700 H 210.400 C 210.300 232.700 210.400 232.800 210.400 232.700 V 229.800 C 210.400 229.745 210.355 229.700 210.300 229.700 H 204.300 C 204.245 229.700 204.200 229.745 204.200 229.800 V 232.700 C 204.200 232.800 204.300 232.700 204.200 232.700 H 198.400 C 198.300 232.700 198.400 232.800 198.400 232.700 V 229.800 C 198.400 229.745 198.355 229.700 198.300 229.700 H 192.300 C 192.245 229.700 192.200 229.745 192.200 229.800 V 232.700 C 192.200 232.800 192.300 232.700 192.200 232.700 H 186.400 C 186.300 232.700 186.400 232.800 186.400 232.700 V 229.800 C 186.400 229.745 186.355 229.700 186.300 229.700 H 180.300 C 180.245 229.700 180.200 229.745 180.200 229.800 V 232.700 C 180.200 232.800 180.300 232.700 180.200 232.700 H 174.400 C 174.300 232.700 174.400 232.800 174.400 232.700 V 229.800 C 174.400 229.745 174.355 229.700 174.300 229.700 H 168.300 C 168.245 229.700 168.200 229.745 168.200 229.800 V 232.700 C 168.200 232.800 168.300 232.700 168.200 232.700 H 162.400 C 162.300 232.700 162.400 232.800 162.400 232.700 V 229.800 C 162.400 229.745 162.355 229.700 162.300 229.700 H 156.300 C 156.245 229.700 156.200 229.745 156.200 229.800 V 232.700 C 156.200 232.800 156.300 232.700 156.200 232.700 H 150.400 C 150.300 232.700 150.400 232.800 150.400 232.700 V 229.800 C 150.400 229.745 150.355 229.700 150.300 229.700 H 144.300 C 144.245 229.700 144.200 229.745 144.200 229.800 V 232.700 C 144.200 232.800 144.300 232.700 144.200 232.700 H 138.400 C 138.300 232.700 138.400 232.800 138.400 232.700 V 229.800 C 138.400 229.745 138.355 229.700 138.300 229.700 H 132.300 C 132.245 229.700 132.200 229.745 132.200 229.800 V 232.700 C 132.200 232.800 132.300 232.700 132.200 232.700 H 126.400 C 126.300 232.700 126.400 232.800 126.400 232.700 V 229.800 C 126.400 229.745 126.355 229.700 126.300 229.700 H 119.300 C 119.245 229.700 119.200 229.745 119.200 229.800 V 232.800 V 240.450 C 119.200 240.550 119.300 240.450 119.200 240.450 H 116.300 C 116.245 240.450 116.200 240.495 116.200 240.550 V 246.550 C 116.200 246.605 116.245 246.650 116.300 246.650 H 119.200 C 119.300 246.650 119.200 246.550 119.200 246.650 V 252.450 C 119.200 252.550 119.300 252.450 119.200 252.450 H 116.300 C 116.245 252.450 116.200 252.495 116.200 252.550 V 258.550 C 116.200 258.605 116.245 258.650 116.300 258.650 H 119.200 C 119.300 258.650 119.200 258.550 119.200 258.650 V 264.450 C 119.200 264.550 119.300 264.450 119.200 264.450 H 116.300 C 116.245 264.450 116.200 264.495 116.200 264.550 V 270.550 C 116.200 270.605 116.245 270.650 116.300 270.650 H 119.200 C 119.300 270.650 119.200 270.550 119.200 270.650 V 276.450 C 119.200 276.550 119.300 276.450 119.200 276.450 H 116.300 C 116.245 276.450 116.200 276.495 116.200 276.550 V 282.550 C 116.200 282.605 116.245 282.650 116.300 282.650 H 119.200 C 119.300 282.650 119.200 282.550 119.200 282.650 V 288.450 C 119.200 288.550 119.300 288.450 119.200 288.450 H 116.300 C 116.245 288.450 116.200 288.495 116.200 288.550 V 294.550 C 116.200 294.605 116.245 294.650 116.300 294.650 H 119.200 C 119.300 294.650 119.200 294.550 119.200 294.650 V 300.450 C 119.200 300.550 119.300 300.450 119.200 300.450 H 116.300 C 116.245 300.450 116.200 300.495 116.200 300.550 V 306.550 C 116.200 306.605 116.245 306.650 116.300 306.650 H 119.200 C 119.300 306.650 119.200 306.550 119.200 306.650 V 312.450 C 119.200 312.550 119.300 312.450 119.200 312.450 H 116.300 C 116.245 312.450 116.200 312.495 116.200 312.550 V 318.550 C 116.200 318.605 116.245 318.650 116.300 318.650 H 119.200 C 119.300 318.650 119.200 318.550 119.200 318.650 V 326.300 V 329.300 C 119.200 329.355 119.245 329.400 119.300 329.400" stroke="rgb(0,0,0)" stroke-width="0.20" />
</g>
<g id="p-4" style="fill:none;stroke-linecap:round;stroke-linejoin:round;">
  <text transform="matrix( 1.000 0.000 0.000 1.000 62.500 277.650 )" style="font-family: sans-serif ; font-weight: normal; font-style: normal; fill: rgb(255,0,0)" font-size="4px" text-anchor="middle" dominant-baseline="hanging">Wall 3</text><path d="M 13.400 329.400 H 23.500 C 23.555 329.400 23.600 329.355 23.600 329.300 V 326.400 C 23.600 326.300 23.500 326.400 23.600 326.400 H 29.400 C 29.500 326.400 29.400 326.300 29.400 326.400 V 329.300 C 29.400 329.355 29.445 329.400 29.500 329.400 H 35.500 C 35.555 329.400 35.600 329.355 35.600 329.300 V 326.400 C 35.600 326.300 35.500 326.400 35.600 326.400 H 41.400 C 41.500 326.400 41.400 326.300 41.400 326.400 V 329.300 C 41.400 329.355 41.445 329.400 41.500 329.400 H 47.500 C 47.555 329.400 47.600 329.355 47.600 329.300 V 326.400 C 47.600 326.300 47.500 326.400 47.600 326.400 H 53.400 C 53.500 326.400 53.400 326.300 53.400 326.400 V 329.300 C 53.400 329.355 53.445 329.400 53.500 329.400 H 59.500 C 59.555 329.400 59.600 329.355 59.600 329.300 V 326.400 C 59.600 326.300 59.500 326.400 59.600 326.400 H 65.400 C 65.500 326.400 65.400 326.300 65.400 326.400 V 329.300 C 65.400 329.355 65.445 329.400 65.500 329.400 H 71.500 C 71.555 329.400 71.600 329.355 71.600 329.300 V 326.400 C 71.600 326.300 71.500 326.400 71.600 326.400 H 77.400 C 77.500 326.400 77.400 326.300 77.400 326.400 V 329.300 C 77.400 329.355 77.445 329.400 77.500 329.400 H 83.500 C 83.555 329.400 83.600 329.355 83.600 329.300 V 326.400 C 83.600 326.300 83.500 326.400 83.600 326.400 H 89.400 C 89.500 326.400 89.400 326.300 89.400 326.400 V 329.300 C 89.400 329.355 89.445 329.400 89.500 329.400 H 95.500 C 95.555 329.400 95.600 329.355 95.600 329.300 V 326.400 C 95.600 326.300 95.500 326.400 95.600 326.400 H 101.400 C 101.500 326.400 101.400 326.300 101.400 326.400 V 329.300 C 101.400 329.355 101.445 329.400 101.500 329.400 H 111.600 H 114.600 C 114.655 329.400 114.700 329.355 114.700 329.300 V 326.300 V 318.550 C 114.700 318.495 114.655 318.450 114.600 318.450 H 111.700 C 111.600 318.450 111.700 318.550 111.700 318.450 V 312.650 C 111.700 312.550 111.600 312.650 111.700 312.650 H 114.600 C 114.655 312.650 114.700 312.605 114.700 312.550 V 306.550 C 114.700 306.495 114.655 306.450 114.600 306.450 H 111.700 C 111.600 306.450 111.700 306.550 111.700 306.450 V 300.650 C 111.700 300.550 111.600 300.650 111.700 300.650 H 114.600 C 114.655 300.650 114.700 300.605 114.700 300.550 V 294.550 C 114.700 294.495 114.655 294.450 114.600 294.450 H 111.700 C 111.600 294.450 111.700 294.550 111.700 294.450 V 288.650 C 111.700 288.550 111.600 288.650 111.700 288.650 H 114.600 C 114.655 288.650 114.700 288.605 114.700 288.550 V 282.550 C 114.700 282.495 114.655 282.450 114.600 282.450 H 111.700 C 111.600 282.450 111.700 282.550 111.700 282.450 V 276.650 C 111.700 276.550 111.600 276.650 111.700 276.650 H 114.600 C 114.655 276.650 114.700 276.605 114.700 276.550 V 270.550 C 114.700 270.495 114.655 270.450 114.600 270.450 H 111.700 C 111.600 270.450 111.700 270.550 111.700 270.450 V 264.650 C 111.700 264.550 111.600 264.650 111.700 264.650 H 114.600 C 114.655 264.650 114.700 264.605 114.700 264.550 V 258.550 C 114.700 258.495 114.655 258.450 114.600 258.450 H 111.700 C 111.600 258.450 111.700 258.550 111.700 258.450 V 252.650 C 111.700 252.550 111.600 252.650 111.700 252.650 H 114.600 C 114.655 252.650 114.700 252.605 114.700 252.550 V 246.550 C 114.700 246.495 114.655 246.450 114.600 246.450 H 111.700 C 111.600 246.450 111.700 246.550 111.700 246.450 V 240.650 C 111.700 240.550 111.600 240.650 111.700 240.650 H 114.600 C 114.655 240.650 114.700 240.605 114.700 240.550 V 232.800 V 229.800 C 114.700 229.745 114.655 229.700 114.600 229.700 H 111.600 H 101.500 C 101.445 229.700 101.400 229.745 101.400 229.800 V 232.700 C 101.400 232.800 101.500 232.700 101.400 232.700 H 95.600 C 95.500 232.700 95.600 232.800 95.600 232.700 V 229.800 C 95.600 229.745 95.555 229.700 95.500 229.700 H 89.500 C 89.445 229.700 89.400 229.745 89.400 229.800 V 232.700 C 89.400 232.800 89.500 232.700 89.400 232.700 H 83.600 C 83.500 232.700 83.600 232.800 83.600 232.700 V 229.800 C 83.600 229.745 83.555 229.700 83.500 229.700 H 77.500 C 77.445 229.700 77.400 229.745 77.400 229.800 V 232.700 C 77.400 232.800 77.500 232.700 77.400 232.700 H 71.600 C 71.500 232.700 71.600 232.800 71.600 232.700 V 229.800 C 71.600 229.745 71.555 229.700 71.500 229.700 H 65.500 C 65.445 229.700 65.400 229.745 65.400 229.800 V 232.700 C 65.400 232.800 65.500 232.700 65.400 232.700 H 59.600 C 59.500 232.700 59.600 232.800 59.600 232.700 V 229.800 C 59.600 229.745 59.555 229.700 59.500 229.700 H 53.500 C 53.445 229.700 53.400 229.745 53.400 229.800 V 232.700 C 53.400 232.800 53.500 232.700 53.400 232.700 H 47.600 C 47.500 232.700 47.600 232.800 47.600 232.700 V 229.800 C 47.600 229.745 47.555 229.700 47.500 229.700 H 41.500 C 41.445 229.700 41.400 229.745 41.400 229.800 V 232.700 C 41.400 232.800 41.500 232.700 41.400 232.700 H 35.600 C 35.500 232.700 35.600 232.800 35.600 232.700 V 229.800 C 35.600 229.745 35.555 229.700 35.500 229.700 H 29.500 C 29.445 229.700 29.400 229.745 29.400 229.800 V 232.700 C 29.400 232.800 29.500 232.700 29.400 232.700 H 23.600 C 23.500 232.700 23.600 232.800 23.600 232.700 V 229.800 C 23.600 229.745 23.555 229.700 23.500 229.700 H 13.400 H 10.400 C 10.345 229.700 10.300 229.745 10.300 229.800 V 232.800 V 240.550 C 10.300 240.605 10.345 240.650 10.400 240.650 H 13.300 C 13.400 240.650 13.300 240.550 13.300 240.650 V 246.450 C 13.300 246.550 13.400 246.450 13.300 246.450 H 10.400 C 10.345 246.450 10.300 246.495 10.300 246.550 V 252.550 C 10.300 252.605 10.345 252.650 10.400 252.650 H 13.300 C 13.400 252.650 13.300 252.550 13.300 252.650 V 258.450 C 13.300 258.550 13.400 258.450 13.300 258.450 H 10.400 C 10.345 258.450 10.300 258.495 10.300 258.550 V 264.550 C 10.300 264.605 10.345 264.650 10.400 264.650 H 13.300 C 13.400 264.650 13.300 264.550 13.300 264.650 V 270.450 C 13.300 270.550 13.400 270.450 13.300 270.450 H 10.400 C 10.345 270.450 10.300 270.495 10.300 270.550 V 276.550 C 10.300 276.605 10.345 276.650 10.400 276.650 H 13.300 C 13.400 276.650 13.300 276.550 13.300 276.650 V 282.450 C 13.300 282.550 13.400 282.450 13.300 282.450 H 10.400 C 10.345 282.450 10.300 282.495 10.300 282.550 V 288.550 C 10.300 288.605 10.345 288.650 10.400 288.650 H 13.300 C 13.400 288.650 13.300 288.550 13.300 288.650 V 294.450 C 13.300 294.550 13.400 294.450 13.300 294.450 H 10.400 C 10.345 294.450 10.300 294.495 10.300 294.550 V 300.550 C 10.300 300.605 10.345 300.650 10.400 300.650 H 13.300 C 13.400 300.650 13.300 300.550 13.300 300.650 V 306.450 C 13.300 306.550 13.400 306.450 13.300 306.450 H 10.400 C 10.345 306.450 10.300 306.495 10.300 306.550 V 312.550 C 10.300 312.605 10.345 312.650 10.400 312.650 H 13.300 C 13.400 312.650 13.300 312.550 13.300 312.650 V 318.450 C 13.300 318.550 13.400 318.450 13.300 318.450 H 10.400 C 10.345 318.450 10.300 318.495 10.300 318.550 V 326.300 V 329.300 C 10.300 329.355 10.345 329.400 10.400 329.400 H 13.400" stroke="rgb(0,0,0)" stroke-width="0.20" />
</g>
<g id="p-5" style="fill:none;stroke-linecap:round;stroke-linejoin:round;">
  <text transform="matrix( 1.000 0.000 0.000 1.000 62.500 117.200 )" style="font-family: sans-serif ; font-weight: normal; font-style: normal; fill: rgb(255,0,0)" font-size="4px" text-anchor="middle" dominant-baseline="hanging">Top</text><path d="M 13.400 225.200 H 23.400 C 23.500 225.200 23.400 225.100 23.400 225.200 V 228.100 C 23.400 228.155 23.445 228.200 23.500 228.200 H 29.500 C 29.555 228.200 29.600 228.155 29.600 228.100 V 225.200 C 29.600 225.100 29.500 225.200 29.600 225.200 H 35.400 C 35.500 225.200 35.400 225.100 35.400 225.200 V 228.100 C 35.400 228.155 35.445 228.200 35.500 228.200 H 41.500 C 41.555 228.200 41.600 228.155 41.600 228.100 V 225.200 C 41.600 225.100 41.500 225.200 41.600 225.200 H 47.400 C 47.500 225.200 47.400 225.100 47.400 225.200 V 228.100 C 47.400 228.155 47.445 228.200 47.500 228.200 H 53.500 C 53.555 228.200 53.600 228.155 53.600 228.100 V 225.200 C 53.600 225.100 53.500 225.200 53.600 225.200 H 59.400 C 59.500 225.200 59.400 225.100 59.400 225.200 V 228.100 C 59.400 228.155 59.445 228.200 59.500 228.200 H 65.500 C 65.555 228.200 65.600 228.155 65.600 228.100 V 225.200 C 65.600 225.100 65.500 225.200 65.600 225.200 H 71.400 C 71.500 225.200 71.400 225.100 71.400 225.200 V 228.100 C 71.400 228.155 71.445 228.200 71.500 228.200 H 77.500 C 77.555 228.200 77.600 228.155 77.600 228.100 V 225.200 C 77.600 225.100 77.500 225.200 77.600 225.200 H 83.400 C 83.500 225.200 83.400 225.100 83.400 225.200 V 228.100 C 83.400 228.155 83.445 228.200 83.500 228.200 H 89.500 C 89.555 228.200 89.600 228.155 89.600 228.100 V 225.200 C 89.600 225.100 89.500 225.200 89.600 225.200 H 95.400 C 95.500 225.200 95.400 225.100 95.400 225.200 V 228.100 C 95.400 228.155 95.445 228.200 95.500 228.200 H 101.500 C 101.555 228.200 101.600 228.155 101.600 228.100 V 225.200 C 101.600 225.100 101.500 225.200 101.600 225.200 H 111.600 C 111.655 225.200 111.700 225.155 111.700 225.100 V 218.200 C 111.700 218.100 111.600 218.200 111.700 218.200 H 114.600 C 114.655 218.200 114.700 218.155 114.700 218.100 V 212.100 C 114.700 212.045 114.655 212.000 114.600 212.000 H 111.700 C 111.600 212.000 111.700 212.100 111.700 212.000 V 206.200 C 111.700 206.100 111.600 206.200 111.700 206.200 H 114.600 C 114.655 206.200 114.700 206.155 114.700 206.100 V 200.100 C 114.700 200.045 114.655 200.000 114.600 200.000 H 111.700 C 111.600 200.000 111.700 200.100 111.700 200.000 V 194.200 C 111.700 194.100 111.600 194.200 111.700 194.200 H 114.600 C 114.655 194.200 114.700 194.155 114.700 194.100 V 188.100 C 114.700 188.045 114.655 188.000 114.600 188.000 H 111.700 C 111.600 188.000 111.700 188.100 111.700 188.000 V 182.200 C 111.700 182.100 111.600 182.200 111.700 182.200 H 114.600 C 114.655 182.200 114.700 182.155 114.700 182.100 V 176.100 C 114.700 176.045 114.655 176.000 114.600 176.000 H 111.700 C 111.600 176.000 111.700 176.100 111.700 176.000 V 170.200 C 111.700 170.100 111.600 170.200 111.700 170.200 H 114.600 C 114.655 170.200 114.700 170.155 114.700 170.100 V 164.100 C 114.700 164.045 114.655 164.000 114.600 164.000 H 111.700 C 111.600 164.000 111.700 164.100 111.700 164.000 V 158.200 C 111.700 158.100 111.600 158.200 111.700 158.200 H 114.600 C 114.655 158.200 114.700 158.155 114.700 158.100 V 152.100 C 114.700 152.045 114.655 152.000 114.600 152.000 H 111.700 C 111.600 152.000 111.700 152.100 111.700 152.000 V 146.200 C 111.700 146.100 111.600 146.200 111.700 146.200 H 114.600 C 114.655 146.200 114.700 146.155 114.700 146.100 V 140.100 C 114.700 140.045 114.655 140.000 114.600 140.000 H 111.700 C 111.600 140.000 111.700 140.100 111.700 140.000 V 134.200 C 111.700 134.100 111.600 134.200 111.700 134.200 H 114.600 C 114.655 134.200 114.700 134.155 114.700 134.100 V 128.100 C 114.700 128.045 114.655 128.000 114.600 128.000 H 111.700 C 111.600 128.000 111.700 128.100 111.700 128.000 V 122.200 C 111.700 122.100 111.600 122.200 111.700 122.200 H 114.600 C 114.655 122.200 114.700 122.155 114.700 122.100 V 116.100 C 114.700 116.045 114.655 116.000 114.600 116.000 H 111.700 C 111.600 116.000 111.700 116.100 111.700 116.000 V 110.200 C 111.700 110.100 111.600 110.200 111.700 110.200 H 114.600 C 114.655 110.200 114.700 110.155 114.700 110.100 V 104.100 C 114.700 104.045 114.655 104.000 114.600 104.000 H 111.700 C 111.600 104.000 111.700 104.100 111.700 104.000 V 98.200 C 111.700 98.100 111.600 98.200 111.700 98.200 H 114.600 C 114.655 98.200 114.700 98.155 114.700 98.100 V 92.100 C 114.700 92.045 114.655 92.000 114.600 92.000 H 111.700 C 111.600 92.000 111.700 92.100 111.700 92.000 V 86.200 C 111.700 86.100 111.600 86.200 111.700 86.200 H 114.600 C 114.655 86.200 114.700 86.155 114.700 86.100 V 80.100 C 114.700 80.045 114.655 80.000 114.600 80.000 H 111.700 C 111.600 80.000 111.700 80.100 111.700 80.000 V 74.200 C 111.700 74.100 111.600 74.200 111.700 74.200 H 114.600 C 114.655 74.200 114.700 74.155 114.700 74.100 V 68.100 C 114.700 68.045 114.655 68.000 114.600 68.000 H 111.700 C 111.600 68.000 111.700 68.100 111.700 68.000 V 62.200 C 111.700 62.100 111.600 62.200 111.700 62.200 H 114.600 C 114.655 62.200 114.700 62.155 114.700 62.100 V 56.100 C 114.700 56.045 114.655 56.000 114.600 56.000 H 111.700 C 111.600 56.000 111.700 56.100 111.700 56.000 V 50.200 C 111.700 50.100 111.600 50.200 111.700 50.200 H 114.600 C 114.655 50.200 114.700 50.155 114.700 50.100 V 44.100 C 114.700 44.045 114.655 44.000 114.600 44.000 H 111.700 C 111.600 44.000 111.700 44.100 111.700 44.000 V 38.200 C 111.700 38.100 111.600 38.200 111.700 38.200 H 114.600 C 114.655 38.200 114.700 38.155 114.700 38.100 V 32.100 C 114.700 32.045 114.655 32.000 114.600 32.000 H 111.700 C 111.600 32.000 111.700 32.100 111.700 32.000 V 26.200 C 111.700 26.100 111.600 26.200 111.700 26.200 H 114.600 C 114.655 26.200 114.700 26.155 114.700 26.100 V 20.100 C 114.700 20.045 114.655 20.000 114.600 20.000 H 111.700 C 111.600 20.000 111.700 20.100 111.700 20.000 V 13.100 C 111.700 13.045 111.655 13.000 111.600 13.000 H 101.600 C 101.500 13.000 101.600 13.100 101.600 13.000 V 10.100 C 101.600 10.045 101.555 10.000 101.500 10.000 H 95.500 C 95.445 10.000 95.400 10.045 95.400 10.100 V 13.000 C 95.400 13.100 95.500 13.000 95.400 13.000 H 89.600 C 89.500 13.000 89.600 13.100 89.600 13.000 V 10.100 C 89.600 10.045 89.555 10.000 89.500 10.000 H 83.500 C 83.445 10.000 83.400 10.045 83.400 10.100 V 13.000 C 83.400 13.100 83.500 13.000 83.400 13.000 H 77.600 C 77.500 13.000 77.600 13.100 77.600 13.000 V 10.100 C 77.600 10.045 77.555 10.000 77.500 10.000 H 71.500 C 71.445 10.000 71.400 10.045 71.400 10.100 V 13.000 C 71.400 13.100 71.500 13.000 71.400 13.000 H 65.600 C 65.500 13.000 65.600 13.100 65.600 13.000 V 10.100 C 65.600 10.045 65.555 10.000 65.500 10.000 H 59.500 C 59.445 10.000 59.400 10.045 59.400 10.100 V 13.000 C 59.400 13.100 59.500 13.000 59.400 13.000 H 53.600 C 53.500 13.000 53.600 13.100 53.600 13.000 V 10.100 C 53.600 10.045 53.555 10.000 53.500 10.000 H 47.500 C 47.445 10.000 47.400 10.045 47.400 10.100 V 13.000 C 47.400 13.100 47.500 13.000 47.400 13.000 H 41.600 C 41.500 13.000 41.600 13.100 41.600 13.000 V 10.100 C 41.600 10.045 41.555 10.000 41.500 10.000 H 35.500 C 35.445 10.000 35.400 10.045 35.400 10.100 V 13.000 C 35.400 13.100 35.500 13.000 35.400 13.000 H 29.600 C 29.500 13.000 29.600 13.100 29.600 13.000 V 10.100 C 29.600 10.045 29.555 10.000 29.500 10.000 H 23.500 C 23.445 10.000 23.400 10.045 23.400 10.100 V 13.000 C 23.400 13.100 23.500 13.000 23.400 13.000 H 13.400 C 13.345 13.000 13.300 13.045 13.300 13.100 V 20.000 C 13.300 20.100 13.400 20.000 13.300 20.000 H 10.400 C 10.345 20.000 10.300 20.045 10.300 20.100 V 26.100 C 10.300 26.155 10.345 26.200 10.400 26.200 H 13.300 C 13.400 26.200 13.300 26.100 13.300 26.200 V 32.000 C 13.300 32.100 13.400 32.000 13.300 32.000 H 10.400 C 10.345 32.000 10.300 32.045 10.300 32.100 V 38.100 C 10.300 38.155 10.345 38.200 10.400 38.200 H 13.300 C 13.400 38.200 13.300 38.100 13.300 38.200 V 44.000 C 13.300 44.100 13.400 44.000 13.300 44.000 H 10.400 C 10.345 44.000 10.300 44.045 10.300 44.100 V 50.100 C 10.300 50.155 10.345 50.200 10.400 50.200 H 13.300 C 13.400 50.200 13.300 50.100 13.300 50.200 V 56.000 C 13.300 56.100 13.400 56.000 13.300 56.000 H 10.400 C 10.345 56.000 10.300 56.045 10.300 56.100 V 62.100 C 10.300 62.155 10.345 62.200 10.400 62.200 H 13.300 C 13.400 62.200 13.300 62.100 13.300 62.200 V 68.000 C 13.300 68.100 13.400 68.000 13.300 68.000 H 10.400 C 10.345 68.000 10.300 68.045 10.300 68.100 V 74.100 C 10.300 74.155 10.345 74.200 10.400 74.200 H 13.300 C 13.400 74.200 13.300 74.100 13.300 74.200 V 80.000 C 13.300 80.100 13.400 80.000 13.300 80.000 H 10.400 C 10.345 80.000 10.300 80.045 10.300 80.100 V 86.100 C 10.300 86.155 10.345 86.200 10.400 86.200 H 13.300 C 13.400 86.200 13.300 86.100 13.300 86.200 V 92.000 C 13.300 92.100 13.400 92.000 13.300 92.000 H 10.400 C 10.345 92.000 10.300 92.045 10.300 92.100 V 98.100 C 10.300 98.155 10.345 98.200 10.400 98.200 H 13.300 C 13.400 98.200 13.300 98.100 13.300 98.200 V 104.000 C 13.300 104.100 13.400 104.000 13.300 104.000 H 10.400 C 10.345 104.000 10.300 104.045 10.300 104.100 V 110.100 C 10.300 110.155 10.345 110.200 10.400 110.200 H 13.300 C 13.400 110.200 13.300 110.100 13.300 110.200 V 116.000 C 13.300 116.100 13.400 116.000 13.300 116.000 H 10.400 C 10.345 116.000 10.300 116.045 10.300 116.100 V 122.100 C 10.300 122.155 10.345 122.200 10.400 122.200 H 13.300 C 13.400 122.200 13.300 122.100 13.300 122.200 V 128.000 C 13.300 128.100 13.400 128.000 13.300 128.000 H 10.400 C 10.345 128.000 10.300 128.045 10.300 128.100 V 134.100 C 10.300 134.155 10.345 134.200 10.400 134.200 H 13.300 C 13.400 134.200 13.300 134.100 13.300 134.200 V 140.000 C 13.300 140.100 13.400 140.000 13.300 140.000 H 10.400 C 10.345 140.000 10.300 140.045 10.300 140.100 V 146.100 C 10.300 146.155 10.345 146.200 10.400 146.200 H 13.300 C 13.400 146.200 13.300 146.100 13.300 146.200 V 152.000 C 13.300 152.100 13.400 152.000 13.300 152.000 H 10.400 C 10.345 152.000 10.300 152.045 10.300 152.100 V 158.100 C 10.300 158.155 10.345 158.200 10.400 158.200 H 13.300 C 13.400 158.200 13.300 158.100 13.300 158.200 V 164.000 C 13.300 164.100 13.400 164.000 13.300 164.000 H 10.400 C 10.345 164.000 10.300 164.045 10.300 164.100 V 170.100 C 10.300 170.155 10.345 170.200 10.400 170.200 H 13.300 C 13.400 170.200 13.300 170.100 13.300 170.200 V 176.000 C 13.300 176.100 13.400 176.000 13.300 176.000 H 10.400 C 10.345 176.000 10.300 176.045 10.300 176.100 V 182.100 C 10.300 182.155 10.345 182.200 10.400 182.200 H 13.300 C 13.400 182.200 13.300 182.100 13.300 182.200 V 188.000 C 13.300 188.100 13.400 188.000 13.300 188.000 H 10.400 C 10.345 188.000 10.300 188.045 10.300 188.100 V 194.100 C 10.300 194.155 10.345 194.200 10.400 194.200 H 13.300 C 13.400 194.200 13.300 194.100 13.300 194.200 V 200.000 C 13.300 200.100 13.400 200.000 13.300 200.000 H 10.400 C 10.345 200.000 10.300 200.045 10.300 200.100 V 206.100 C 10.300 206.155 10.345 206.200 10.400 206.200 H 13.300 C 13.400 206.200 13.300 206.100 13.300 206.200 V 212.000 C 13.300 212.100 13.400 212.000 13.300 212.000 H 10.400 C 10.345 212.000 10.300 212.045 10.300 212.100 V 218.100 C 10.300 218.155 10.345 218.200 10.400 218.200 H 13.300 C 13.400 218.200 13.300 218.100 13.300 218.200 V 225.100 C 13.300 225.155 13.345 225.200 13.400 225.200" stroke="rgb(0,0,0)" stroke-width="0.20" />
</g>
<g id="p-6" style="fill:none;stroke-linecap:round;stroke-linejoin:round;">
  <text transform="matrix( 1.000 0.000 0.000 1.000 168.400 117.200 )" style="font-family: sans-serif ; font-weight: normal; font-style: normal; fill: rgb(255,0,0)" font-size="4px" text-anchor="middle" dominant-baseline="hanging">Bottom</text><path d="M 119.300 225.200 H 129.300 C 129.400 225.200 129.300 225.100 129.300 225.200 V 228.100 C 129.300 228.155 129.345 228.200 129.400 228.200 H 135.400 C 135.455 228.200 135.500 228.155 135.500 228.100 V 225.200 C 135.500 225.100 135.400 225.200 135.500 225.200 H 141.300 C 141.400 225.200 141.300 225.100 141.300 225.200 V 228.100 C 141.300 228.155 141.345 228.200 141.400 228.200 H 147.400 C 147.455 228.200 147.500 228.155 147.500 228.100 V 225.200 C 147.500 225.100 147.400 225.200 147.500 225.200 H 153.300 C 153.400 225.200 153.300 225.100 153.300 225.200 V 228.100 C 153.300 228.155 153.345 228.200 153.400 228.200 H 159.400 C 159.455 228.200 159.500 228.155 159.500 228.100 V 225.200 C 159.500 225.100 159.400 225.200 159.500 225.200 H 165.300 C 165.400 225.200 165.300 225.100 165.300 225.200 V 228.100 C 165.300 228.155 165.345 228.200 165.400 228.200 H 171.400 C 171.455 228.200 171.500 228.155 171.500 228.100 V 225.200 C 171.500 225.100 171.400 225.200 171.500 225.200 H 177.300 C 177.400 225.200 177.300 225.100 177.300 225.200 V 228.100 C 177.300 228.155 177.345 228.200 177.400 228.200 H 183.400 C 183.455 228.200 183.500 228.155 183.500 228.100 V 225.200 C 183.500 225.100 183.400 225.200 183.500 225.200 H 189.300 C 189.400 225.200 189.300 225.100 189.300 225.200 V 228.100 C 189.300 228.155 189.345 228.200 189.400 228.200 H 195.400 C 195.455 228.200 195.500 228.155 195.500 228.100 V 225.200 C 195.500 225.100 195.400 225.200 195.500 225.200 H 201.300 C 201.400 225.200 201.300 225.100 201.300 225.200 V 228.100 C 201.300 228.155 201.345 228.200 201.400 228.200 H 207.400 C 207.455 228.200 207.500 228.155 207.500 228.100 V 225.200 C 207.500 225.100 207.400 225.200 207.500 225.200 H 217.500 C 217.555 225.200 217.600 225.155 217.600 225.100 V 218.200 C 217.600 218.100 217.500 218.200 217.600 218.200 H 220.500 C 220.555 218.200 220.600 218.155 220.600 218.100 V 212.100 C 220.600 212.045 220.555 212.000 220.500 212.000 H 217.600 C 217.500 212.000 217.600 212.100 217.600 212.000 V 206.200 C 217.600 206.100 217.500 206.200 217.600 206.200 H 220.500 C 220.555 206.200 220.600 206.155 220.600 206.100 V 200.100 C 220.600 200.045 220.555 200.000 220.500 200.000 H 217.600 C 217.500 200.000 217.600 200.100 217.600 200.000 V 194.200 C 217.600 194.100 217.500 194.200 217.600 194.200 H 220.500 C 220.555 194.200 220.600 194.155 220.600 194.100 V 188.100 C 220.600 188.045 220.555 188.000 220.500 188.000 H 217.600 C 217.500 188.000 217.600 188.100 217.600 188.000 V 182.200 C 217.600 182.100 217.500 182.200 217.600 182.200 H 220.500 C 220.555 182.200 220.600 182.155 220.600 182.100 V 176.100 C 220.600 176.045 220.555 176.000 220.500 176.000 H 217.600 C 217.500 176.000 217.600 176.100 217.600 176.000 V 170.200 C 217.600 170.100 217.500 170.200 217.600 170.200 H 220.500 C 220.555 170.200 220.600 170.155 220.600 170.100 V 164.100 C 220.600 164.045 220.555 164.000 220.500 164.000 H 217.600 C 217.500 164.000 217.600 164.100 217.600 164.000 V 158.200 C 217.600 158.100 217.500 158.200 217.600 158.200 H 220.500 C 220.555 158.200 220.600 158.155 220.600 158.100 V 152.100 C 220.600 152.045 220.555 152.000 220.500 152.000 H 217.600 C 217.500 152.000 217.600 152.100 217.600 152.000 V 146.200 C 217.600 146.100 217.500 146.200 217.600 146.200 H 220.500 C 220.555 146.200 220.600 146.155 220.600 146.100 V 140.100 C 220.600 140.045 220.555 140.000 220.500 140.000 H 217.600 C 217.500 140.000 217.600 140.100 217.600 140.000 V 134.200 C 217.600 134.100 217.500 134.200 217.600 134.200 H 220.500 C 220.555 134.200 220.600 134.155 220.600 134.100 V 128.100 C 220.600 128.045 220.555 128.000 220.500 128.000 H 217.600 C 217.500 128.000 217.600 128.100 217.600 128.000 V 122.200 C 217.600 122.100 217.500 122.200 217.600 122.200 H 220.500 C 220.555 122.200 220.600 122.155 220.600 122.100 V 116.100 C 220.600 116.045 220.555 116.000 220.500 116.000 H 217.600 C 217.500 116.000 217.600 116.100 217.600 116.000 V 110.200 C 217.600 110.100 217.500 110.200 217.600 110.200 H 220.500 C 220.555 110.200 220.600 110.155 220.600 110.100 V 104.100 C 220.600 104.045 220.555 104.000 220.500 104.000 H 217.600 C 217.500 104.000 217.600 104.100 217.600 104.000 V 98.200 C 217.600 98.100 217.500 98.200 217.600 98.200 H 220.500 C 220.555 98.200 220.600 98.155 220.600 98.100 V 92.100 C 220.600 92.045 220.555 92.000 220.500 92.000 H 217.600 C 217.500 92.000 217.600 92.100 217.600 92.000 V 86.200 C 217.600 86.100 217.500 86.200 217.600 86.200 H 220.500 C 220.555 86.200 220.600 86.155 220.600 86.100 V 80.100 C 220.600 80.045 220.555 80.000 220.500 80.000 H 217.600 C 217.500 80.000 217.600 80.100 217.600 80.000 V 74.200 C 217.600 74.100 217.500 74.200 217.600 74.200 H 220.500 C 220.555 74.200 220.600 74.155 220.600 74.100 V 68.100 C 220.600 68.045 220.555 68.000 220.500 68.000 H 217.600 C 217.500 68.000 217.600 68.100 217.600 68.000 V 62.200 C 217.600 62.100 217.500 62.200 217.600 62.200 H 220.500 C 220.555 62.200 220.600 62.155 220.600 62.100 V 56.100 C 220.600 56.045 220.555 56.000 220.500 56.000 H 217.600 C 217.500 56.000 217.600 56.100 217.600 56.000 V 50.200 C 217.600 50.100 217.500 50.200 217.600 50.200 H 220.500 C 220.555 50.200 220.600 50.155 220.600 50.100 V 44.100 C 220.600 44.045 220.555 44.000 220.500 44.000 H 217.600 C 217.500 44.000 217.600 44.100 217.600 44.000 V 38.200 C 217.600 38.100 217.500 38.200 217.600 38.200 H 220.500 C 220.555 38.200 220.600 38.155 220.600 38.100 V 32.100 C 220.600 32.045 220.555 32.000 220.500 32.000 H 217.600 C 217.500 32.000 217.600 32.100 217.600 32.000 V 26.200 C 217.600 26.100 217.500 26.200 217.600 26.200 H 220.500 C 220.555 26.200 220.600 26.155 220.600 26.100 V 20.100 C 220.600 20.045 220.555 20.000 220.500 20.000 H 217.600 C 217.500 20.000 217.600 20.100 217.600 20.000 V 13.100 C 217.600 13.045 217.555 13.000 217.500 13.000 H 207.500 C 207.400 13.000 207.500 13.100 207.500 13.000 V 10.100 C 207.500 10.045 207.455 10.000 207.400 10.000 H 201.400 C 201.345 10.000 201.300 10.045 201.300 10.100 V 13.000 C 201.300 13.100 201.400 13.000 201.300 13.000 H 195.500 C 195.400 13.000 195.500 13.100 195.500 13.000 V 10.100 C 195.500 10.045 195.455 10.000 195.400 10.000 H 189.400 C 189.345 10.000 189.300 10.045 189.300 10.100 V 13.000 C 189.300 13.100 189.400 13.000 189.300 13.000 H 183.500 C 183.400 13.000 183.500 13.100 183.500 13.000 V 10.100 C 183.500 10.045 183.455 10.000 183.400 10.000 H 177.400 C 177.345 10.000 177.300 10.045 177.300 10.100 V 13.000 C 177.300 13.100 177.400 13.000 177.300 13.000 H 171.500 C 171.400 13.000 171.500 13.100 171.500 13.000 V 10.100 C 171.500 10.045 171.455 10.000 171.400 10.000 H 165.400 C 165.345 10.000 165.300 10.045 165.300 10.100 V 13.000 C 165.300 13.100 165.400 13.000 165.300 13.000 H 159.500 C 159.400 13.000 159.500 13.100 159.500 13.000 V 10.100 C 159.500 10.045 159.455 10.000 159.400 10.000 H 153.400 C 153.345 10.000 153.300 10.045 153.300 10.100 V 13.000 C 153.300 13.100 153.400 13.000 153.300 13.000 H 147.500 C 147.400 13.000 147.500 13.100 147.500 13.000 V 10.100 C 147.500 10.045 147.455 10.000 147.400 10.000 H 141.400 C 141.345 10.000 141.300 10.045 141.300 10.100 V 13.000 C 141.300 13.100 141.400 13.000 141.300 13.000 H 135.500 C 135.400 13.000 135.500 13.100 135.500 13.000 V 10.100 C 135.500 10.045 135.455 10.000 135.400 10.000 H 129.400 C 129.345 10.000 129.300 10.045 129.300 10.100 V 13.000 C 129.300 13.100 129.400 13.000 129.300 13.000 H 119.300 C 119.245 13.000 119.200 13.045 119.200 13.100 V 20.000 C 119.200 20.100 119.300 20.000 119.200 20.000 H 116.300 C 116.245 20.000 116.200 20.045 116.200 20.100 V 26.100 C 116.200 26.155 116.245 26.200 116.300 26.200 H 119.200 C 119.300 26.200 119.200 26.100 119.200 26.200 V 32.000 C 119.200 32.100 119.300 32.000 119.200 32.000 H 116.300 C 116.245 32.000 116.200 32.045 116.200 32.100 V 38.100 C 116.200 38.155 116.245 38.200 116.300 38.200 H 119.200 C 119.300 38.200 119.200 38.100 119.200 38.200 V 44.000 C 119.200 44.100 119.300 44.000 119.200 44.000 H 116.300 C 116.245 44.000 116.200 44.045 116.200 44.100 V 50.100 C 116.200 50.155 116.245 50.200 116.300 50.200 H 119.200 C 119.300 50.200 119.200 50.100 119.200 50.200 V 56.000 C 119.200 56.100 119.300 56.000 119.200 56.000 H 116.300 C 116.245 56.000 116.200 56.045 116.200 56.100 V 62.100 C 116.200 62.155 116.245 62.200 116.300 62.200 H 119.200 C 119.300 62.200 119.200 62.100 119.200 62.200 V 68.000 C 119.200 68.100 119.300 68.000 119.200 68.000 H 116.300 C 116.245 68.000 116.200 68.045 116.200 68.100 V 74.100 C 116.200 74.155 116.245 74.200 116.300 74.200 H 119.200 C 119.300 74.200 119.200 74.100 119.200 74.200 V 80.000 C 119.200 80.100 119.300 80.000 119.200 80.000 H 116.300 C 116.245 80.000 116.200 80.045 116.200 80.100 V 86.100 C 116.200 86.155 116.245 86.200 116.300 86.200 H 119.200 C 119.300 86.200 119.200 86.100 119.200 86.200 V 92.000 C 119.200 92.100 119.300 92.000 119.200 92.000 H 116.300 C 116.245 92.000 116.200 92.045 116.200 92.100 V 98.100 C 116.200 98.155 116.245 98.200 116.300 98.200 H 119.200 C 119.300 98.200 119.200 98.100 119.200 98.200 V 104.000 C 119.200 104.100 119.300 104.000 119.200 104.000 H 116.300 C 116.245 104.000 116.200 104.045 116.200 104.100 V 110.100 C 116.200 110.155 116.245 110.200 116.300 110.200 H 119.200 C 119.300 110.200 119.200 110.100 119.200 110.200 V 116.000 C 119.200 116.100 119.300 116.000 119.200 116.000 H 116.300 C 116.245 116.000 116.200 116.045 116.200 116.100 V 122.100 C 116.200 122.155 116.245 122.200 116.300 122.200 H 119.200 C 119.300 122.200 119.200 122.100 119.200 122.200 V 128.000 C 119.200 128.100 119.300 128.000 119.200 128.000 H 116.300 C 116.245 128.000 116.200 128.045 116.200 128.100 V 134.100 C 116.200 134.155 116.245 134.200 116.300 134.200 H 119.200 C 119.300 134.200 119.200 134.100 119.200 134.200 V 140.000 C 119.200 140.100 119.300 140.000 119.200 140.000 H 116.300 C 116.245 140.000 116.200 140.045 116.200 140.100 V 146.100 C 116.200 146.155 116.245 146.200 116.300 146.200 H 119.200 C 119.300 146.200 119.200 146.100 119.200 146.200 V 152.000 C 119.200 152.100 119.300 152.000 119.200 152.000 H 116.300 C 116.245 152.000 116.200 152.045 116.200 152.100 V 158.100 C 116.200 158.155 116.245 158.200 116.300 158.200 H 119.200 C 119.300 158.200 119.200 158.100 119.200 158.200 V 164.000 C 119.200 164.100 119.300 164.000 119.200 164.000 H 116.300 C 116.245 164.000 116.200 164.045 116.200 164.100 V 170.100 C 116.200 170.155 116.245 170.200 116.300 170.200 H 119.200 C 119.300 170.200 119.200 170.100 119.200 170.200 V 176.000 C 119.200 176.100 119.300 176.000 119.200 176.000 H 116.300 C 116.245 176.000 116.200 176.045 116.200 176.100 V 182.100 C 116.200 182.155 116.245 182.200 116.300 182.200 H 119.200 C 119.300 182.200 119.200 182.100 119.200 182.200 V 188.000 C 119.200 188.100 119.300 188.000 119.200 188.000 H 116.300 C 116.245 188.000 116.200 188.045 116.200 188.100 V 194.100 C 116.200 194.155 116.245 194.200 116.300 194.200 H 119.200 C 119.300 194.200 119.200 194.100 119.200 194.200 V 200.000 C 119.200 200.100 119.300 200.000 119.200 200.000 H 116.300 C 116.245 200.000 116.200 200.045 116.200 200.100 V 206.100 C 116.200 206.155 116.245 206.200 116.300 206.200 H 119.200 C 119.300 206.200 119.200 206.100 119.200 206.200 V 212.000 C 119.200 212.100 119.300 212.000 119.200 212.000 H 116.300 C 116.245 212.000 116.200 212.045 116.200 212.100 V 218.100 C 116.200 218.155 116.245 218.200 116.300 218.200 H 119.200 C 119.300 218.200 119.200 218.100 119.200 218.200 V 225.100 C 119.200 225.155 119.245 225.200 119.300 225.200" stroke="rgb(0,0,0)" stroke-width="0.20" />
</g>
</svg>